G04*
G04 #@! TF.GenerationSoftware,Altium Limited,Altium Designer,21.0.9 (235)*
G04*
G04 Layer_Color=32896*
%FSLAX25Y25*%
%MOIN*%
G70*
G04*
G04 #@! TF.SameCoordinates,12F949BB-F579-4A56-8052-0240B8454CB7*
G04*
G04*
G04 #@! TF.FilePolarity,Positive*
G04*
G01*
G75*
%ADD10C,0.00787*%
%ADD11C,0.00984*%
%ADD12C,0.01000*%
%ADD13C,0.02362*%
%ADD15C,0.00500*%
%ADD91C,0.01575*%
D10*
X117717Y46752D02*
X118504D01*
X117717Y51673D02*
X118504D01*
X121653Y27264D02*
X122441D01*
X121653Y31791D02*
X122441D01*
X135531Y11417D02*
Y12205D01*
X140059Y11417D02*
Y12205D01*
X69193Y66535D02*
Y75197D01*
X60728Y66535D02*
Y75197D01*
X67815Y84055D02*
Y85236D01*
X62106Y84055D02*
Y85236D01*
X55945Y31791D02*
X64606D01*
X55945Y23327D02*
X64606D01*
X81063D02*
X89724D01*
X81063Y31791D02*
X89724D01*
X68504Y130217D02*
X77165D01*
X68504Y121752D02*
X77165D01*
X72244Y132972D02*
X73425D01*
X72244Y138681D02*
X73425D01*
X68504Y141437D02*
X77165D01*
X68504Y149902D02*
X77165D01*
X114370Y162008D02*
Y176575D01*
X94291Y162008D02*
Y176575D01*
Y162008D02*
X114370D01*
X94291Y176575D02*
X114370D01*
X100197Y126772D02*
X108465D01*
X100197Y133071D02*
X108465D01*
Y126772D02*
Y133071D01*
X100197Y126772D02*
Y133071D01*
X38976Y145374D02*
X39764D01*
X38976Y149902D02*
X39764D01*
X26673Y156890D02*
Y157677D01*
X31201Y156890D02*
Y157677D01*
X46358Y217913D02*
Y219094D01*
X52067Y217913D02*
Y219094D01*
X35138Y214173D02*
Y222835D01*
X43602Y214173D02*
Y222835D01*
X117717Y202264D02*
X118504D01*
X117717Y207185D02*
X118504D01*
X75492Y224213D02*
Y224606D01*
X80216Y224213D02*
Y224606D01*
X65453Y224213D02*
Y224606D01*
X70177Y224213D02*
Y224606D01*
D11*
X92815Y181299D02*
X92077Y181725D01*
Y180873D01*
X92815Y181299D01*
X110630Y123228D02*
X109892Y123654D01*
Y122802D01*
X110630Y123228D01*
D12*
X122738Y56394D02*
X116739D01*
Y59393D01*
X117739Y60392D01*
X118739D01*
X119738D01*
X120738Y59393D01*
Y56394D01*
Y62392D02*
X117739D01*
X116739Y63391D01*
Y66391D01*
X115740D01*
X114740Y65391D01*
Y64391D01*
X116739Y66391D02*
X120738D01*
X122738Y74388D02*
X116739D01*
Y77387D01*
X117739Y78387D01*
X121738D01*
X122738Y77387D01*
Y74388D01*
X116739Y80386D02*
X117739D01*
Y81386D01*
X116739D01*
Y80386D01*
X121738Y95381D02*
X122738Y94381D01*
Y92382D01*
X121738Y91382D01*
X117739D01*
X116739Y92382D01*
Y94381D01*
X117739Y95381D01*
X119738D01*
Y93382D01*
X120738Y97380D02*
X117739D01*
X116739Y98380D01*
Y101379D01*
X120738D01*
X116739Y103378D02*
Y106377D01*
X117739Y107377D01*
X118739Y106377D01*
Y104378D01*
X119738Y103378D01*
X120738Y104378D01*
Y107377D01*
X116739Y112376D02*
Y110376D01*
X117739Y109377D01*
X119738D01*
X120738Y110376D01*
Y112376D01*
X119738Y113375D01*
X118739D01*
Y109377D01*
X120738Y115375D02*
X116739Y117374D01*
X120738Y119373D01*
X125213Y56315D02*
X129211D01*
Y57315D01*
X128212Y58314D01*
X125213D01*
X128212D01*
X129211Y59314D01*
X128212Y60314D01*
X125213D01*
Y62313D02*
Y64312D01*
Y63313D01*
X129211D01*
Y62313D01*
Y71310D02*
Y68311D01*
X128212Y67311D01*
X126212D01*
X125213Y68311D01*
Y71310D01*
X129211Y73309D02*
X125213D01*
X127212D01*
X128212Y74309D01*
X129211Y75309D01*
Y76309D01*
X125213Y80307D02*
Y82306D01*
X126212Y83306D01*
X128212D01*
X129211Y82306D01*
Y80307D01*
X128212Y79308D01*
X126212D01*
X125213Y80307D01*
X130211Y85306D02*
X131211Y86305D01*
Y88305D01*
X130211Y89304D01*
X129211D01*
X128212Y88305D01*
X127212Y89304D01*
X126212D01*
X125213Y88305D01*
Y86305D01*
X126212Y85306D01*
X127212D01*
X128212Y86305D01*
X129211Y85306D01*
X130211D01*
X128212Y86305D02*
Y88305D01*
X130211Y91304D02*
X131211Y92303D01*
Y94303D01*
X130211Y95302D01*
X126212D01*
X125213Y94303D01*
Y92303D01*
X126212Y91304D01*
X130211D01*
X131211Y101300D02*
Y97302D01*
X128212D01*
X129211Y99301D01*
Y100301D01*
X128212Y101300D01*
X126212D01*
X125213Y100301D01*
Y98301D01*
X126212Y97302D01*
X125213Y103300D02*
Y105299D01*
Y104299D01*
X131211D01*
X130211Y103300D01*
X125213Y114296D02*
X131211D01*
Y117295D01*
X130211Y118295D01*
X128212D01*
X127212Y117295D01*
Y114296D01*
Y116296D02*
X125213Y118295D01*
Y123293D02*
Y121294D01*
X126212Y120294D01*
X128212D01*
X129211Y121294D01*
Y123293D01*
X128212Y124293D01*
X127212D01*
Y120294D01*
X129211Y126292D02*
X125213Y128292D01*
X129211Y130291D01*
X131211Y136289D02*
Y132290D01*
X128212D01*
X129211Y134290D01*
Y135289D01*
X128212Y136289D01*
X126212D01*
X125213Y135289D01*
Y133290D01*
X126212Y132290D01*
X101248Y127953D02*
Y131233D01*
X101904Y131889D01*
X103216D01*
X103872Y131233D01*
Y127953D01*
X107151Y131889D02*
Y127953D01*
X105183Y129921D01*
X107807D01*
X101051Y167324D02*
Y170603D01*
X101707Y171259D01*
X103019D01*
X103675Y170603D01*
Y167324D01*
X104987Y167979D02*
X105643Y167324D01*
X106955D01*
X107610Y167979D01*
Y168635D01*
X106955Y169291D01*
X106299D01*
X106955D01*
X107610Y169947D01*
Y170603D01*
X106955Y171259D01*
X105643D01*
X104987Y170603D01*
X127560Y201838D02*
X131495D01*
Y203806D01*
X130840Y204462D01*
X129528D01*
X128872Y203806D01*
Y201838D01*
Y203150D02*
X127560Y204462D01*
X130840Y205774D02*
X131495Y206430D01*
Y207742D01*
X130840Y208398D01*
X130183D01*
X129528Y207742D01*
X128872Y208398D01*
X128216D01*
X127560Y207742D01*
Y206430D01*
X128216Y205774D01*
X128872D01*
X129528Y206430D01*
X130183Y205774D01*
X130840D01*
X129528Y206430D02*
Y207742D01*
X62696Y227886D02*
X58760D01*
Y225918D01*
X59416Y225262D01*
X60728D01*
X61384Y225918D01*
Y227886D01*
Y226574D02*
X62696Y225262D01*
Y221983D02*
X58760D01*
X60728Y223950D01*
Y221326D01*
X82973Y221523D02*
X86909D01*
Y223491D01*
X86253Y224147D01*
X84941D01*
X84285Y223491D01*
Y221523D01*
Y222835D02*
X82973Y224147D01*
X86253Y225459D02*
X86909Y226115D01*
Y227427D01*
X86253Y228083D01*
X85597D01*
X84941Y227427D01*
Y226771D01*
Y227427D01*
X84285Y228083D01*
X83629D01*
X82973Y227427D01*
Y226115D01*
X83629Y225459D01*
X74146Y190158D02*
Y194094D01*
X72178D01*
X71522Y193438D01*
Y192126D01*
X72178Y191470D01*
X74146D01*
X72834D02*
X71522Y190158D01*
X67586D02*
X70210D01*
X67586Y192782D01*
Y193438D01*
X68242Y194094D01*
X69554D01*
X70210Y193438D01*
X83136Y190158D02*
Y194094D01*
X81168D01*
X80512Y193438D01*
Y192126D01*
X81168Y191470D01*
X83136D01*
X81824D02*
X80512Y190158D01*
X79200D02*
X77888D01*
X78544D01*
Y194094D01*
X79200Y193438D01*
X39699Y20733D02*
X43635D01*
Y22701D01*
X42979Y23357D01*
X41667D01*
X41011Y22701D01*
Y20733D01*
X43635Y17453D02*
Y18765D01*
X42979Y19421D01*
X41667D01*
X41011Y18765D01*
Y17453D01*
X41667Y16797D01*
X42323D01*
Y19421D01*
X39699Y15485D02*
X43635D01*
Y13517D01*
X42979Y12861D01*
X42323D01*
X41667D01*
X41011Y13517D01*
Y15485D01*
Y11549D02*
X42979D01*
X43635Y10893D01*
Y8926D01*
X41011D01*
X44947Y6302D02*
Y5646D01*
X44291Y4990D01*
X41011D01*
Y6958D01*
X41667Y7614D01*
X42979D01*
X43635Y6958D01*
Y4990D01*
X98024Y28871D02*
X98484Y29330D01*
X99402D01*
X99861Y28871D01*
Y27034D01*
X99402Y26575D01*
X98484D01*
X98024Y27034D01*
X97106Y26575D02*
X96188D01*
X96647D01*
Y29330D01*
X97106Y28871D01*
X94810Y29330D02*
X92974D01*
Y28871D01*
X94810Y27034D01*
Y26575D01*
X50662Y28675D02*
X51121Y29134D01*
X52039D01*
X52498Y28675D01*
Y26838D01*
X52039Y26379D01*
X51121D01*
X50662Y26838D01*
X49743Y26379D02*
X48825D01*
X49284D01*
Y29134D01*
X49743Y28675D01*
X45611Y29134D02*
X46529Y28675D01*
X47447Y27757D01*
Y26838D01*
X46988Y26379D01*
X46070D01*
X45611Y26838D01*
Y27297D01*
X46070Y27757D01*
X47447D01*
X66568Y63123D02*
X67027Y63582D01*
X67945D01*
X68404Y63123D01*
Y61286D01*
X67945Y60827D01*
X67027D01*
X66568Y61286D01*
X65649Y60827D02*
X64731D01*
X65190D01*
Y63582D01*
X65649Y63123D01*
X61517Y63582D02*
X63354D01*
Y62205D01*
X62435Y62664D01*
X61976D01*
X61517Y62205D01*
Y61286D01*
X61976Y60827D01*
X62894D01*
X63354Y61286D01*
X66765Y93832D02*
X67224Y94291D01*
X68142D01*
X68601Y93832D01*
Y91995D01*
X68142Y91536D01*
X67224D01*
X66765Y91995D01*
X65846Y91536D02*
X64928D01*
X65387D01*
Y94291D01*
X65846Y93832D01*
X62173Y91536D02*
Y94291D01*
X63550Y92913D01*
X61714D01*
X54757Y141824D02*
X55216Y142283D01*
X56134D01*
X56593Y141824D01*
Y139987D01*
X56134Y139528D01*
X55216D01*
X54757Y139987D01*
X53838Y139528D02*
X52920D01*
X53379D01*
Y142283D01*
X53838Y141824D01*
X51543D02*
X51083Y142283D01*
X50165D01*
X49706Y141824D01*
Y141365D01*
X50165Y140905D01*
X50624D01*
X50165D01*
X49706Y140446D01*
Y139987D01*
X50165Y139528D01*
X51083D01*
X51543Y139987D01*
X54757Y122178D02*
X55216Y122637D01*
X56134D01*
X56593Y122178D01*
Y120342D01*
X56134Y119882D01*
X55216D01*
X54757Y120342D01*
X53838Y119882D02*
X52920D01*
X53379D01*
Y122637D01*
X53838Y122178D01*
X49706Y119882D02*
X51543D01*
X49706Y121719D01*
Y122178D01*
X50165Y122637D01*
X51083D01*
X51543Y122178D01*
X85203Y126903D02*
X85662Y127362D01*
X86581D01*
X87040Y126903D01*
Y125066D01*
X86581Y124607D01*
X85662D01*
X85203Y125066D01*
X84285Y124607D02*
X83366D01*
X83825D01*
Y127362D01*
X84285Y126903D01*
X81989Y124607D02*
X81071D01*
X81530D01*
Y127362D01*
X81989Y126903D01*
X87532Y136942D02*
X88188Y137598D01*
X89500D01*
X90156Y136942D01*
Y134318D01*
X89500Y133662D01*
X88188D01*
X87532Y134318D01*
X86220Y133662D02*
X84908D01*
X85564D01*
Y137598D01*
X86220Y136942D01*
X82940D02*
X82284Y137598D01*
X80972D01*
X80317Y136942D01*
Y134318D01*
X80972Y133662D01*
X82284D01*
X82940Y134318D01*
Y136942D01*
X85105Y146784D02*
X85761Y147440D01*
X87073D01*
X87729Y146784D01*
Y144160D01*
X87073Y143505D01*
X85761D01*
X85105Y144160D01*
X83793D02*
X83137Y143505D01*
X81825D01*
X81169Y144160D01*
Y146784D01*
X81825Y147440D01*
X83137D01*
X83793Y146784D01*
Y146128D01*
X83137Y145472D01*
X81169D01*
X105972Y203806D02*
X105316Y204462D01*
Y205773D01*
X105972Y206429D01*
X108595D01*
X109251Y205773D01*
Y204462D01*
X108595Y203806D01*
X105316Y202494D02*
Y199870D01*
X105972D01*
X108595Y202494D01*
X109251D01*
X96326Y203806D02*
X95670Y204462D01*
Y205773D01*
X96326Y206429D01*
X98950D01*
X99606Y205773D01*
Y204462D01*
X98950Y203806D01*
X95670Y199870D02*
X96326Y201182D01*
X97638Y202494D01*
X98950D01*
X99606Y201838D01*
Y200526D01*
X98950Y199870D01*
X98294D01*
X97638Y200526D01*
Y202494D01*
X49672Y210761D02*
X50328Y211417D01*
X51640D01*
X52296Y210761D01*
Y208137D01*
X51640Y207481D01*
X50328D01*
X49672Y208137D01*
X46392Y207481D02*
Y211417D01*
X48360Y209449D01*
X45736D01*
X39829Y210564D02*
X40485Y211220D01*
X41797D01*
X42453Y210564D01*
Y207940D01*
X41797Y207284D01*
X40485D01*
X39829Y207940D01*
X38517Y210564D02*
X37861Y211220D01*
X36549D01*
X35893Y210564D01*
Y209908D01*
X36549Y209252D01*
X37205D01*
X36549D01*
X35893Y208596D01*
Y207940D01*
X36549Y207284D01*
X37861D01*
X38517Y207940D01*
X61876Y192060D02*
X62532Y192716D01*
X63844D01*
X64500Y192060D01*
Y189436D01*
X63844Y188780D01*
X62532D01*
X61876Y189436D01*
X57941Y188780D02*
X60565D01*
X57941Y191404D01*
Y192060D01*
X58597Y192716D01*
X59909D01*
X60565Y192060D01*
X90158D02*
X90813Y192716D01*
X92125D01*
X92781Y192060D01*
Y189436D01*
X92125Y188780D01*
X90813D01*
X90158Y189436D01*
X88846Y188780D02*
X87534D01*
X88190D01*
Y192716D01*
X88846Y192060D01*
X77393Y65987D02*
X78393Y66987D01*
Y68986D01*
X77393Y69986D01*
X76393D01*
X75394Y68986D01*
X74394Y69986D01*
X73394D01*
X72395Y68986D01*
Y66987D01*
X73394Y65987D01*
X74394D01*
X75394Y66987D01*
X76393Y65987D01*
X77393D01*
X75394Y66987D02*
Y68986D01*
X77393Y71986D02*
X78393Y72985D01*
Y74985D01*
X77393Y75984D01*
X73394D01*
X72395Y74985D01*
Y72985D01*
X73394Y71986D01*
X77393D01*
X78393Y81982D02*
Y77984D01*
X75394D01*
X76393Y79983D01*
Y80983D01*
X75394Y81982D01*
X73394D01*
X72395Y80983D01*
Y78983D01*
X73394Y77984D01*
X72395Y83982D02*
Y85981D01*
Y84981D01*
X78393D01*
X77393Y83982D01*
D13*
X99410Y172638D02*
X98965Y173561D01*
X97966Y173789D01*
X97164Y173150D01*
Y172125D01*
X97966Y171486D01*
X98965Y171714D01*
X99410Y172638D01*
D15*
X133661Y14435D02*
X131693D01*
Y13451D01*
X132021Y13123D01*
X132677D01*
X133005Y13451D01*
Y14435D01*
Y13779D02*
X133661Y13123D01*
Y11155D02*
Y12467D01*
X132349Y11155D01*
X132021D01*
X131693Y11483D01*
Y12139D01*
X132021Y12467D01*
X131693Y9187D02*
Y10499D01*
X132677D01*
X132349Y9843D01*
Y9515D01*
X132677Y9187D01*
X133333D01*
X133661Y9515D01*
Y10171D01*
X133333Y10499D01*
X129528Y27101D02*
X131496D01*
Y28084D01*
X131168Y28413D01*
X130512D01*
X130184Y28084D01*
Y27101D01*
Y27757D02*
X129528Y28413D01*
Y30380D02*
Y29068D01*
X130840Y30380D01*
X131168D01*
X131496Y30052D01*
Y29396D01*
X131168Y29068D01*
X129528Y32020D02*
X131496D01*
X130512Y31036D01*
Y32348D01*
X126969Y46786D02*
X128937D01*
Y47770D01*
X128609Y48098D01*
X127953D01*
X127625Y47770D01*
Y46786D01*
Y47442D02*
X126969Y48098D01*
Y50065D02*
Y48753D01*
X128281Y50065D01*
X128609D01*
X128937Y49737D01*
Y49082D01*
X128609Y48753D01*
Y50721D02*
X128937Y51049D01*
Y51705D01*
X128609Y52033D01*
X128281D01*
X127953Y51705D01*
Y51377D01*
Y51705D01*
X127625Y52033D01*
X127297D01*
X126969Y51705D01*
Y51049D01*
X127297Y50721D01*
X123129Y188189D02*
Y190157D01*
X122145D01*
X121817Y189829D01*
Y189173D01*
X122145Y188845D01*
X123129D01*
X122473D02*
X121817Y188189D01*
X121161D02*
X120505D01*
X120833D01*
Y190157D01*
X121161Y189829D01*
X118537Y188189D02*
Y190157D01*
X119521Y189173D01*
X118210D01*
X31889Y150098D02*
X29922D01*
Y149114D01*
X30250Y148786D01*
X30906D01*
X31234Y149114D01*
Y150098D01*
Y149442D02*
X31889Y148786D01*
Y148130D02*
Y147474D01*
Y147802D01*
X29922D01*
X30250Y148130D01*
X31889Y145178D02*
Y146490D01*
X30577Y145178D01*
X30250D01*
X29922Y145506D01*
Y146162D01*
X30250Y146490D01*
X31069Y164764D02*
Y166732D01*
X30085D01*
X29757Y166404D01*
Y165748D01*
X30085Y165420D01*
X31069D01*
X30413D02*
X29757Y164764D01*
X29101D02*
X28445D01*
X28773D01*
Y166732D01*
X29101Y166404D01*
X27461Y164764D02*
X26805D01*
X27133D01*
Y166732D01*
X27461Y166404D01*
X123359Y145670D02*
Y148425D01*
X121981D01*
X121522Y147966D01*
Y147047D01*
X121981Y146588D01*
X123359D01*
X122441D02*
X121522Y145670D01*
X118767Y148425D02*
X120604D01*
Y147047D01*
X119685Y147506D01*
X119226D01*
X118767Y147047D01*
Y146129D01*
X119226Y145670D01*
X120145D01*
X120604Y146129D01*
X129987Y36254D02*
X130315Y35926D01*
Y35270D01*
X129987Y34942D01*
X128675D01*
X128347Y35270D01*
Y35926D01*
X128675Y36254D01*
X128347Y36910D02*
Y37565D01*
Y37238D01*
X130315D01*
X129987Y36910D01*
Y38550D02*
X130315Y38877D01*
Y39533D01*
X129987Y39861D01*
X129659D01*
X129331Y39533D01*
X129003Y39861D01*
X128675D01*
X128347Y39533D01*
Y38877D01*
X128675Y38550D01*
X129003D01*
X129331Y38877D01*
X129659Y38550D01*
X129987D01*
X129331Y38877D02*
Y39533D01*
D91*
X93898Y231693D02*
X100984D01*
X103740D02*
X110827D01*
M02*
