M48
;Layer_Color=9474304
;FILE_FORMAT=2:4
INCH,TZ
;TYPE=PLATED
T1F00S00C0.0100
T2F00S00C0.0150
T3F00S00C0.0157
T5F00S00C0.0276
T6F00S00C0.0433
T7F00S00C0.0984
%
T01
X394Y984
X1181Y1398
X1496Y1201
X4980Y3169
X5114Y5220
X5020Y5610
X7087Y3150
X5787Y1496
X8465Y1378
X10020Y2362
X10394Y2736
X11516Y3524
X10965Y5335
X10689Y5059
X9547Y4075
X12972Y2402
Y709
X10453Y6142
X10143Y5910
X8853Y5820
X8543
X8223
X7913
X7593
X6973
X6343
X6023
X5965Y9232
X6634Y10591
X6949Y10335
X6614Y11161
X6339Y10906
X8223Y10340
X8543
X8853Y10812
X8944Y9050
Y8740
Y8420
Y8110
Y7790
X9882Y11968
X9508Y13366
Y14488
X10177Y14134
X10049Y15207
X10945Y14744
X11280Y14705
X11594Y14783
Y13799
X11654Y12953
X11122Y12539
X8150Y12343
X8228Y13110
X8150Y14154
X8937Y16004
X9193Y17126
X9213Y17461
X9547Y16850
X10138Y16516
X10827Y17244
X12756Y16811
X9213Y18465
X9191Y19019
X8937Y18819
X10236Y20059
X6909Y16929
X6811Y15669
X6496
X5787Y14941
X5217Y15020
X4823
X4331Y14055
X2756Y14823
X2894Y16870
X5448Y19129
X5138Y19783
X5472Y20591
X5623Y9050
Y8740
Y8420
Y8110
Y7790
Y7170
Y6850
Y6540
Y6220
X4272Y8425
X4055Y8740
X3843Y9050
X3622Y9370
X3386Y9626
X3091Y9882
X2720Y9862
X3130Y7441
T02
X7500Y17244
X7165Y17913
X11378Y21063
X3819Y23169
X6043Y22874
X8819Y22185
X11319Y23031
T03
X6112Y21053
X6447
X6781
X7116
X7451
X7785
X8120
X8455
Y21585
X8120
X7785
X7451
X7116
X6781
X6447
X6112
T05
X6323Y3543
X8244
X4134Y11441
Y13362
T06
X783Y2311
Y3311
Y4311
Y5311
X5283Y1878
Y878
X6283
X7283
X8283
Y1878
X9283
Y878
X7283Y1878
X6283
X13783Y2311
Y3311
Y4311
Y5311
Y6311
Y7311
Y8311
Y9311
Y10311
Y11311
Y12311
Y13311
Y14311
Y15311
Y16311
Y17311
Y18311
Y19311
Y20311
X783
Y19311
Y18311
Y17311
Y16311
Y15311
Y14311
Y13311
Y12311
Y11311
Y10311
Y9311
Y8311
Y7311
Y6311
Y21311
X13783
T07
X2362Y1575
X12205
X2362Y22047
X12205
M30
