G04*
G04 #@! TF.GenerationSoftware,Altium Limited,Altium Designer,21.0.9 (235)*
G04*
G04 Layer_Color=65535*
%FSLAX25Y25*%
%MOIN*%
G70*
G04*
G04 #@! TF.SameCoordinates,12F949BB-F579-4A56-8052-0240B8454CB7*
G04*
G04*
G04 #@! TF.FilePolarity,Positive*
G04*
G01*
G75*
%ADD10C,0.00787*%
%ADD11C,0.00984*%
%ADD12C,0.01000*%
%ADD13C,0.02362*%
%ADD14C,0.00600*%
%ADD15C,0.00500*%
D10*
X85433Y26280D02*
X86423Y26333D01*
X87401Y26493D01*
X88356Y26759D01*
X89277Y27125D01*
X90152Y27590D01*
X90973Y28146D01*
X91728Y28788D01*
X92410Y29507D01*
X93009Y30296D01*
X93520Y31146D01*
X93937Y32045D01*
X94253Y32984D01*
X94466Y33952D01*
X94573Y34938D01*
X94573Y35929D01*
X94466Y36914D01*
X94253Y37882D01*
X93937Y38821D01*
X93520Y39721D01*
X93009Y40570D01*
X92409Y41359D01*
X91728Y42079D01*
X90973Y42720D01*
X90152Y43276D01*
X89276Y43741D01*
X88356Y44107D01*
X87401Y44373D01*
X86423Y44533D01*
X85433Y44587D01*
X60236D02*
X59247Y44533D01*
X58268Y44373D01*
X57314Y44107D01*
X56393Y43741D01*
X55517Y43276D01*
X54697Y42720D01*
X53941Y42079D01*
X53260Y41359D01*
X52660Y40570D01*
X52149Y39721D01*
X51733Y38821D01*
X51416Y37882D01*
X51203Y36914D01*
X51096Y35929D01*
Y34938D01*
X51203Y33952D01*
X51416Y32984D01*
X51733Y32045D01*
X52149Y31146D01*
X52660Y30296D01*
X53260Y29507D01*
X53941Y28788D01*
X54697Y28146D01*
X55517Y27590D01*
X56393Y27125D01*
X57314Y26759D01*
X58268Y26493D01*
X59246Y26333D01*
X60236Y26280D01*
X32185Y111417D02*
X32239Y110428D01*
X32399Y109450D01*
X32664Y108495D01*
X33031Y107574D01*
X33495Y106698D01*
X34051Y105878D01*
X34693Y105122D01*
X35413Y104441D01*
X36202Y103841D01*
X37051Y103330D01*
X37951Y102914D01*
X38890Y102597D01*
X39858Y102384D01*
X40843Y102277D01*
X41834D01*
X42819Y102384D01*
X43787Y102597D01*
X44727Y102914D01*
X45626Y103330D01*
X46475Y103841D01*
X47265Y104441D01*
X47984Y105122D01*
X48626Y105878D01*
X49182Y106698D01*
X49646Y107574D01*
X50013Y108495D01*
X50278Y109450D01*
X50438Y110428D01*
X50492Y111417D01*
Y136614D02*
X50438Y137604D01*
X50278Y138582D01*
X50013Y139537D01*
X49646Y140458D01*
X49182Y141333D01*
X48626Y142154D01*
X47984Y142909D01*
X47265Y143591D01*
X46475Y144191D01*
X45626Y144701D01*
X44727Y145118D01*
X43787Y145434D01*
X42819Y145647D01*
X41834Y145754D01*
X40843D01*
X39858Y145647D01*
X38890Y145434D01*
X37951Y145118D01*
X37051Y144701D01*
X36202Y144191D01*
X35413Y143591D01*
X34693Y142909D01*
X34051Y142154D01*
X33495Y141333D01*
X33031Y140458D01*
X32664Y139537D01*
X32399Y138582D01*
X32239Y137604D01*
X32185Y136614D01*
X113583Y33071D02*
Y45669D01*
X102953Y33071D02*
X103445D01*
X113091D02*
X113583D01*
X102953D02*
Y45669D01*
X103445D01*
X113091D02*
X113583D01*
X40650Y9449D02*
Y10236D01*
X45177Y9449D02*
Y10236D01*
X60236Y26280D02*
X85433D01*
X60236Y44587D02*
X85433D01*
X106299Y76181D02*
X110236D01*
Y77362D01*
X106299Y76181D02*
Y77362D01*
X72244Y161417D02*
Y165354D01*
Y161417D02*
X73425D01*
X72244Y165354D02*
X73425D01*
X94488Y180512D02*
X98425D01*
Y181693D01*
X94488Y180512D02*
Y181693D01*
X106299Y180512D02*
X110236D01*
Y181693D01*
X106299Y180512D02*
Y181693D01*
X32185Y111417D02*
Y136614D01*
X50492Y111417D02*
Y136614D01*
X50787Y218012D02*
Y222933D01*
X39764Y218012D02*
Y222933D01*
X90847Y207736D02*
Y208189D01*
Y220590D02*
Y222874D01*
X54823Y207736D02*
Y208189D01*
Y220590D02*
Y222874D01*
Y207736D02*
X90847D01*
X64985Y198553D02*
Y202239D01*
Y167839D02*
Y171526D01*
Y167839D02*
X80685D01*
Y198553D02*
Y202239D01*
Y167839D02*
Y171526D01*
X64985Y202239D02*
X80685D01*
X111575Y117323D02*
Y142520D01*
X97087D02*
X111575D01*
X97087Y117323D02*
Y142520D01*
Y117323D02*
X111575D01*
X49311Y178740D02*
Y187402D01*
X57776Y178740D02*
Y187402D01*
X95472Y214961D02*
Y225984D01*
X109252Y214961D02*
Y225984D01*
X46850Y153248D02*
X55512D01*
X46850Y161713D02*
X55512D01*
X38287Y153150D02*
X42028D01*
Y160138D02*
Y161811D01*
Y153150D02*
Y154823D01*
X38287Y161811D02*
X42028D01*
X43307Y182480D02*
X47244D01*
Y183661D01*
X43307Y182480D02*
Y183661D01*
X33465Y182480D02*
X37402D01*
Y183661D01*
X33465Y182480D02*
Y183661D01*
X38976Y23917D02*
X39764D01*
X38976Y19390D02*
X39764D01*
X38976Y31791D02*
X39764D01*
X38976Y27264D02*
X39764D01*
X38976Y39665D02*
X39764D01*
X38976Y35138D02*
X39764D01*
X38976Y47539D02*
X39764D01*
X38976Y43012D02*
X39764D01*
X38976Y55413D02*
X39764D01*
X38976Y50886D02*
X39764D01*
X38976Y63287D02*
X39764D01*
X38976Y58760D02*
X39764D01*
X38976Y71161D02*
X39764D01*
X38976Y66634D02*
X39764D01*
X38976Y75638D02*
X39764D01*
X38976Y80165D02*
X39764D01*
X132539Y17520D02*
X143130D01*
Y218701D01*
X132539D02*
X143130D01*
X132539Y17520D02*
Y218701D01*
X2539Y17520D02*
X13130D01*
Y218701D01*
X2539D02*
X13130D01*
X2539Y17520D02*
Y218701D01*
X102953Y7480D02*
X103445D01*
X113091D02*
X113583D01*
Y20079D01*
X102953D02*
X103445D01*
X113091D02*
X113583D01*
X102953Y7480D02*
Y20079D01*
X61221Y122244D02*
Y145473D01*
X84449Y122244D02*
Y145473D01*
X61221D02*
X84449D01*
X61221Y122244D02*
X84449D01*
X98425Y3484D02*
Y24075D01*
X47244D02*
X98425D01*
X47244Y3484D02*
X98425D01*
X47244D02*
Y24075D01*
D11*
X84842Y205630D02*
X84104Y206056D01*
Y205204D01*
X84842Y205630D01*
X56717Y196191D02*
X55979Y196617D01*
Y195765D01*
X56717Y196191D01*
X99114Y208842D02*
X98376Y209268D01*
Y208416D01*
X99114Y208842D01*
X56791Y148130D02*
X56053Y148556D01*
Y147704D01*
X56791Y148130D01*
D12*
X54835Y47803D02*
X54335Y48669D01*
X53335D01*
X52835Y47803D01*
X53335Y46937D01*
X54335D01*
X54835Y47803D01*
X100787Y144291D02*
Y147047D01*
X98032Y144291D02*
X100787D01*
X91929Y153150D02*
X100787Y144291D01*
X95866Y152165D02*
Y152165D01*
X6468Y6970D02*
X5812Y6314D01*
Y5002D01*
X6468Y4346D01*
X9092D01*
X9748Y5002D01*
Y6314D01*
X9092Y6970D01*
X7780D01*
Y5658D01*
X9748Y8282D02*
X5812D01*
X9748Y10906D01*
X5812D01*
Y12218D02*
X9748D01*
Y14186D01*
X9092Y14842D01*
X6468D01*
X5812Y14186D01*
Y12218D01*
X136468Y6970D02*
X135812Y6314D01*
Y5002D01*
X136468Y4346D01*
X139092D01*
X139748Y5002D01*
Y6314D01*
X139092Y6970D01*
X137780D01*
Y5658D01*
X139748Y8282D02*
X135812D01*
X139748Y10906D01*
X135812D01*
Y12218D02*
X139748D01*
Y14186D01*
X139092Y14842D01*
X136468D01*
X135812Y14186D01*
Y12218D01*
X117600Y34437D02*
X116944Y35093D01*
X115632D01*
X114976Y34437D01*
Y31813D01*
X115632Y31157D01*
X116944D01*
X117600Y31813D01*
Y33125D01*
X116288D01*
X118912Y31157D02*
Y35093D01*
X121536Y31157D01*
Y35093D01*
X122848D02*
Y31157D01*
X124816D01*
X125472Y31813D01*
Y34437D01*
X124816Y35093D01*
X122848D01*
X114976Y111158D02*
Y115093D01*
X116944D01*
X117600Y114437D01*
Y113125D01*
X116944Y112469D01*
X114976D01*
X118912Y114437D02*
X119568Y115093D01*
X120880D01*
X121536Y114437D01*
Y113781D01*
X120880Y113125D01*
X120224D01*
X120880D01*
X121536Y112469D01*
Y111813D01*
X120880Y111158D01*
X119568D01*
X118912Y111813D01*
X122848Y111158D02*
Y111813D01*
X123504D01*
Y111158D01*
X122848D01*
X126128Y114437D02*
X126784Y115093D01*
X128095D01*
X128752Y114437D01*
Y111813D01*
X128095Y111158D01*
X126784D01*
X126128Y111813D01*
Y114437D01*
X114976Y101157D02*
Y105093D01*
X116944D01*
X117600Y104437D01*
Y103125D01*
X116944Y102469D01*
X114976D01*
X118912Y104437D02*
X119568Y105093D01*
X120880D01*
X121536Y104437D01*
Y103781D01*
X120880Y103125D01*
X120224D01*
X120880D01*
X121536Y102469D01*
Y101813D01*
X120880Y101157D01*
X119568D01*
X118912Y101813D01*
X122848Y101157D02*
Y101813D01*
X123504D01*
Y101157D01*
X122848D01*
X126128D02*
X127440D01*
X126784D01*
Y105093D01*
X126128Y104437D01*
X114976Y81157D02*
Y85093D01*
X116944D01*
X117600Y84437D01*
Y83125D01*
X116944Y82469D01*
X114976D01*
X118912Y84437D02*
X119568Y85093D01*
X120880D01*
X121536Y84437D01*
Y83781D01*
X120880Y83125D01*
X120224D01*
X120880D01*
X121536Y82469D01*
Y81813D01*
X120880Y81157D01*
X119568D01*
X118912Y81813D01*
X122848Y81157D02*
Y81813D01*
X123504D01*
Y81157D01*
X122848D01*
X126128Y84437D02*
X126784Y85093D01*
X128095D01*
X128752Y84437D01*
Y83781D01*
X128095Y83125D01*
X127440D01*
X128095D01*
X128752Y82469D01*
Y81813D01*
X128095Y81157D01*
X126784D01*
X126128Y81813D01*
X114976Y91158D02*
Y95093D01*
X116944D01*
X117600Y94437D01*
Y93125D01*
X116944Y92469D01*
X114976D01*
X118912Y94437D02*
X119568Y95093D01*
X120880D01*
X121536Y94437D01*
Y93781D01*
X120880Y93125D01*
X120224D01*
X120880D01*
X121536Y92469D01*
Y91813D01*
X120880Y91158D01*
X119568D01*
X118912Y91813D01*
X122848Y91158D02*
Y91813D01*
X123504D01*
Y91158D01*
X122848D01*
X128752D02*
X126128D01*
X128752Y93781D01*
Y94437D01*
X128095Y95093D01*
X126784D01*
X126128Y94437D01*
X114976Y61158D02*
Y65093D01*
X116944D01*
X117600Y64437D01*
Y63125D01*
X116944Y62469D01*
X114976D01*
X118912Y64437D02*
X119568Y65093D01*
X120880D01*
X121536Y64437D01*
Y63781D01*
X120880Y63125D01*
X120224D01*
X120880D01*
X121536Y62469D01*
Y61813D01*
X120880Y61158D01*
X119568D01*
X118912Y61813D01*
X122848Y61158D02*
Y61813D01*
X123504D01*
Y61158D01*
X122848D01*
X128752Y65093D02*
X126128D01*
Y63125D01*
X127440Y63781D01*
X128095D01*
X128752Y63125D01*
Y61813D01*
X128095Y61158D01*
X126784D01*
X126128Y61813D01*
X114976Y71157D02*
Y75093D01*
X116944D01*
X117600Y74437D01*
Y73125D01*
X116944Y72469D01*
X114976D01*
X118912Y74437D02*
X119568Y75093D01*
X120880D01*
X121536Y74437D01*
Y73781D01*
X120880Y73125D01*
X120224D01*
X120880D01*
X121536Y72469D01*
Y71813D01*
X120880Y71157D01*
X119568D01*
X118912Y71813D01*
X122848Y71157D02*
Y71813D01*
X123504D01*
Y71157D01*
X122848D01*
X128095D02*
Y75093D01*
X126128Y73125D01*
X128752D01*
X114976Y41157D02*
Y45093D01*
X116944D01*
X117600Y44437D01*
Y43125D01*
X116944Y42469D01*
X114976D01*
X118912Y44437D02*
X119568Y45093D01*
X120880D01*
X121536Y44437D01*
Y43781D01*
X120880Y43125D01*
X120224D01*
X120880D01*
X121536Y42469D01*
Y41813D01*
X120880Y41157D01*
X119568D01*
X118912Y41813D01*
X122848Y41157D02*
Y41813D01*
X123504D01*
Y41157D01*
X122848D01*
X126128Y45093D02*
X128752D01*
Y44437D01*
X126128Y41813D01*
Y41157D01*
X114976Y51157D02*
Y55093D01*
X116944D01*
X117600Y54437D01*
Y53125D01*
X116944Y52469D01*
X114976D01*
X118912Y54437D02*
X119568Y55093D01*
X120880D01*
X121536Y54437D01*
Y53781D01*
X120880Y53125D01*
X120224D01*
X120880D01*
X121536Y52469D01*
Y51813D01*
X120880Y51157D01*
X119568D01*
X118912Y51813D01*
X122848Y51157D02*
Y51813D01*
X123504D01*
Y51157D01*
X122848D01*
X128752Y55093D02*
X127440Y54437D01*
X126128Y53125D01*
Y51813D01*
X126784Y51157D01*
X128095D01*
X128752Y51813D01*
Y52469D01*
X128095Y53125D01*
X126128D01*
X114976Y131158D02*
Y135093D01*
X116944D01*
X117600Y134437D01*
Y133125D01*
X116944Y132469D01*
X114976D01*
X121536Y131158D02*
X118912D01*
X121536Y133781D01*
Y134437D01*
X120880Y135093D01*
X119568D01*
X118912Y134437D01*
X122848Y131158D02*
Y131813D01*
X123504D01*
Y131158D01*
X122848D01*
X128752Y135093D02*
X127440Y134437D01*
X126128Y133125D01*
Y131813D01*
X126784Y131158D01*
X128095D01*
X128752Y131813D01*
Y132469D01*
X128095Y133125D01*
X126128D01*
X114976Y121158D02*
Y125093D01*
X116944D01*
X117600Y124437D01*
Y123125D01*
X116944Y122469D01*
X114976D01*
X121536Y121158D02*
X118912D01*
X121536Y123781D01*
Y124437D01*
X120880Y125093D01*
X119568D01*
X118912Y124437D01*
X122848Y121158D02*
Y121813D01*
X123504D01*
Y121158D01*
X122848D01*
X126128Y125093D02*
X128752D01*
Y124437D01*
X126128Y121813D01*
Y121158D01*
X114976Y151157D02*
Y155093D01*
X116944D01*
X117600Y154437D01*
Y153125D01*
X116944Y152469D01*
X114976D01*
X121536Y151157D02*
X118912D01*
X121536Y153781D01*
Y154437D01*
X120880Y155093D01*
X119568D01*
X118912Y154437D01*
X122848Y151157D02*
Y151813D01*
X123504D01*
Y151157D01*
X122848D01*
X128095D02*
Y155093D01*
X126128Y153125D01*
X128752D01*
X114976Y141157D02*
Y145093D01*
X116944D01*
X117600Y144437D01*
Y143125D01*
X116944Y142469D01*
X114976D01*
X121536Y141157D02*
X118912D01*
X121536Y143781D01*
Y144437D01*
X120880Y145093D01*
X119568D01*
X118912Y144437D01*
X122848Y141157D02*
Y141813D01*
X123504D01*
Y141157D01*
X122848D01*
X128752Y145093D02*
X126128D01*
Y143125D01*
X127440Y143781D01*
X128095D01*
X128752Y143125D01*
Y141813D01*
X128095Y141157D01*
X126784D01*
X126128Y141813D01*
X114976Y171158D02*
Y175093D01*
X116944D01*
X117600Y174437D01*
Y173125D01*
X116944Y172469D01*
X114976D01*
X121536Y171158D02*
X118912D01*
X121536Y173781D01*
Y174437D01*
X120880Y175093D01*
X119568D01*
X118912Y174437D01*
X122848Y171158D02*
Y171813D01*
X123504D01*
Y171158D01*
X122848D01*
X128752D02*
X126128D01*
X128752Y173781D01*
Y174437D01*
X128095Y175093D01*
X126784D01*
X126128Y174437D01*
X114976Y161158D02*
Y165093D01*
X116944D01*
X117600Y164437D01*
Y163125D01*
X116944Y162469D01*
X114976D01*
X121536Y161158D02*
X118912D01*
X121536Y163781D01*
Y164437D01*
X120880Y165093D01*
X119568D01*
X118912Y164437D01*
X122848Y161158D02*
Y161813D01*
X123504D01*
Y161158D01*
X122848D01*
X126128Y164437D02*
X126784Y165093D01*
X128095D01*
X128752Y164437D01*
Y163781D01*
X128095Y163125D01*
X127440D01*
X128095D01*
X128752Y162469D01*
Y161813D01*
X128095Y161158D01*
X126784D01*
X126128Y161813D01*
X114976Y181158D02*
Y185093D01*
X116944D01*
X117600Y184437D01*
Y183125D01*
X116944Y182469D01*
X114976D01*
X121536Y181158D02*
X118912D01*
X121536Y183781D01*
Y184437D01*
X120880Y185093D01*
X119568D01*
X118912Y184437D01*
X122848Y181158D02*
Y181813D01*
X123504D01*
Y181158D01*
X122848D01*
X126128D02*
X127440D01*
X126784D01*
Y185093D01*
X126128Y184437D01*
X114976Y191157D02*
Y195093D01*
X116944D01*
X117600Y194437D01*
Y193125D01*
X116944Y192469D01*
X114976D01*
X121536Y191157D02*
X118912D01*
X121536Y193781D01*
Y194437D01*
X120880Y195093D01*
X119568D01*
X118912Y194437D01*
X122848Y191157D02*
Y191813D01*
X123504D01*
Y191157D01*
X122848D01*
X126128Y194437D02*
X126784Y195093D01*
X128095D01*
X128752Y194437D01*
Y191813D01*
X128095Y191157D01*
X126784D01*
X126128Y191813D01*
Y194437D01*
X114189Y205014D02*
X115189Y206014D01*
X117188D01*
X118188Y205014D01*
Y204014D01*
X117188Y203015D01*
X116188D01*
X117188D01*
X118188Y202015D01*
Y201015D01*
X117188Y200016D01*
X115189D01*
X114189Y201015D01*
X120187Y206014D02*
Y202015D01*
X122186Y200016D01*
X124186Y202015D01*
Y206014D01*
X126185Y205014D02*
X127185Y206014D01*
X129184D01*
X130184Y205014D01*
Y204014D01*
X129184Y203015D01*
X128184D01*
X129184D01*
X130184Y202015D01*
Y201015D01*
X129184Y200016D01*
X127185D01*
X126185Y201015D01*
X17994Y34437D02*
X17338Y35093D01*
X16026D01*
X15370Y34437D01*
Y31813D01*
X16026Y31157D01*
X17338D01*
X17994Y31813D01*
Y33125D01*
X16682D01*
X19306Y31157D02*
Y35093D01*
X21930Y31157D01*
Y35093D01*
X23242D02*
Y31157D01*
X25209D01*
X25865Y31813D01*
Y34437D01*
X25209Y35093D01*
X23242D01*
X15370Y111158D02*
Y115093D01*
X17338D01*
X17994Y114437D01*
Y113125D01*
X17338Y112469D01*
X15370D01*
X19306Y111158D02*
X20618D01*
X19962D01*
Y115093D01*
X19306Y114437D01*
X22586Y111158D02*
Y111813D01*
X23242D01*
Y111158D01*
X22586D01*
X25865Y114437D02*
X26521Y115093D01*
X27833D01*
X28489Y114437D01*
Y111813D01*
X27833Y111158D01*
X26521D01*
X25865Y111813D01*
Y114437D01*
X15370Y101157D02*
Y105093D01*
X17338D01*
X17994Y104437D01*
Y103125D01*
X17338Y102469D01*
X15370D01*
X19306Y101157D02*
X20618D01*
X19962D01*
Y105093D01*
X19306Y104437D01*
X22586Y101157D02*
Y101813D01*
X23242D01*
Y101157D01*
X22586D01*
X25865D02*
X27177D01*
X26521D01*
Y105093D01*
X25865Y104437D01*
X15370Y91158D02*
Y95093D01*
X17338D01*
X17994Y94437D01*
Y93125D01*
X17338Y92469D01*
X15370D01*
X19306Y91158D02*
X20618D01*
X19962D01*
Y95093D01*
X19306Y94437D01*
X22586Y91158D02*
Y91813D01*
X23242D01*
Y91158D01*
X22586D01*
X28489D02*
X25865D01*
X28489Y93781D01*
Y94437D01*
X27833Y95093D01*
X26521D01*
X25865Y94437D01*
X15370Y61158D02*
Y65093D01*
X17338D01*
X17994Y64437D01*
Y63125D01*
X17338Y62469D01*
X15370D01*
X19306Y61158D02*
X20618D01*
X19962D01*
Y65093D01*
X19306Y64437D01*
X22586Y61158D02*
Y61813D01*
X23242D01*
Y61158D01*
X22586D01*
X28489Y65093D02*
X25865D01*
Y63125D01*
X27177Y63781D01*
X27833D01*
X28489Y63125D01*
Y61813D01*
X27833Y61158D01*
X26521D01*
X25865Y61813D01*
X15370Y71157D02*
Y75093D01*
X17338D01*
X17994Y74437D01*
Y73125D01*
X17338Y72469D01*
X15370D01*
X19306Y71157D02*
X20618D01*
X19962D01*
Y75093D01*
X19306Y74437D01*
X22586Y71157D02*
Y71813D01*
X23242D01*
Y71157D01*
X22586D01*
X27833D02*
Y75093D01*
X25865Y73125D01*
X28489D01*
X15370Y81157D02*
Y85093D01*
X17338D01*
X17994Y84437D01*
Y83125D01*
X17338Y82469D01*
X15370D01*
X19306Y81157D02*
X20618D01*
X19962D01*
Y85093D01*
X19306Y84437D01*
X22586Y81157D02*
Y81813D01*
X23242D01*
Y81157D01*
X22586D01*
X25865Y84437D02*
X26521Y85093D01*
X27833D01*
X28489Y84437D01*
Y83781D01*
X27833Y83125D01*
X27177D01*
X27833D01*
X28489Y82469D01*
Y81813D01*
X27833Y81157D01*
X26521D01*
X25865Y81813D01*
X15370Y51157D02*
Y55093D01*
X17338D01*
X17994Y54437D01*
Y53125D01*
X17338Y52469D01*
X15370D01*
X19306Y51157D02*
X20618D01*
X19962D01*
Y55093D01*
X19306Y54437D01*
X22586Y51157D02*
Y51813D01*
X23242D01*
Y51157D01*
X22586D01*
X28489Y55093D02*
X27177Y54437D01*
X25865Y53125D01*
Y51813D01*
X26521Y51157D01*
X27833D01*
X28489Y51813D01*
Y52469D01*
X27833Y53125D01*
X25865D01*
X15370Y41157D02*
Y45093D01*
X17338D01*
X17994Y44437D01*
Y43125D01*
X17338Y42469D01*
X15370D01*
X19306Y41157D02*
X20618D01*
X19962D01*
Y45093D01*
X19306Y44437D01*
X22586Y41157D02*
Y41813D01*
X23242D01*
Y41157D01*
X22586D01*
X25865Y45093D02*
X28489D01*
Y44437D01*
X25865Y41813D01*
Y41157D01*
X15370Y121158D02*
Y125093D01*
X17338D01*
X17994Y124437D01*
Y123125D01*
X17338Y122469D01*
X15370D01*
X19306Y124437D02*
X19962Y125093D01*
X21274D01*
X21930Y124437D01*
Y121813D01*
X21274Y121158D01*
X19962D01*
X19306Y121813D01*
Y124437D01*
X23242Y121158D02*
Y121813D01*
X23898D01*
Y121158D01*
X23242D01*
X26521Y125093D02*
X29145D01*
Y124437D01*
X26521Y121813D01*
Y121158D01*
X15370Y131158D02*
Y135093D01*
X17338D01*
X17994Y134437D01*
Y133125D01*
X17338Y132469D01*
X15370D01*
X19306Y134437D02*
X19962Y135093D01*
X21274D01*
X21930Y134437D01*
Y131813D01*
X21274Y131158D01*
X19962D01*
X19306Y131813D01*
Y134437D01*
X23242Y131158D02*
Y131813D01*
X23898D01*
Y131158D01*
X23242D01*
X29145Y135093D02*
X27833Y134437D01*
X26521Y133125D01*
Y131813D01*
X27177Y131158D01*
X28489D01*
X29145Y131813D01*
Y132469D01*
X28489Y133125D01*
X26521D01*
X15370Y161158D02*
Y165093D01*
X17338D01*
X17994Y164437D01*
Y163125D01*
X17338Y162469D01*
X15370D01*
X19306Y164437D02*
X19962Y165093D01*
X21274D01*
X21930Y164437D01*
Y161813D01*
X21274Y161158D01*
X19962D01*
X19306Y161813D01*
Y164437D01*
X23242Y161158D02*
Y161813D01*
X23898D01*
Y161158D01*
X23242D01*
X26521Y164437D02*
X27177Y165093D01*
X28489D01*
X29145Y164437D01*
Y163781D01*
X28489Y163125D01*
X27833D01*
X28489D01*
X29145Y162469D01*
Y161813D01*
X28489Y161158D01*
X27177D01*
X26521Y161813D01*
X15370Y151157D02*
Y155093D01*
X17338D01*
X17994Y154437D01*
Y153125D01*
X17338Y152469D01*
X15370D01*
X19306Y154437D02*
X19962Y155093D01*
X21274D01*
X21930Y154437D01*
Y151813D01*
X21274Y151157D01*
X19962D01*
X19306Y151813D01*
Y154437D01*
X23242Y151157D02*
Y151813D01*
X23898D01*
Y151157D01*
X23242D01*
X28489D02*
Y155093D01*
X26521Y153125D01*
X29145D01*
X15370Y141157D02*
Y145093D01*
X17338D01*
X17994Y144437D01*
Y143125D01*
X17338Y142469D01*
X15370D01*
X19306Y144437D02*
X19962Y145093D01*
X21274D01*
X21930Y144437D01*
Y141813D01*
X21274Y141157D01*
X19962D01*
X19306Y141813D01*
Y144437D01*
X23242Y141157D02*
Y141813D01*
X23898D01*
Y141157D01*
X23242D01*
X29145Y145093D02*
X26521D01*
Y143125D01*
X27833Y143781D01*
X28489D01*
X29145Y143125D01*
Y141813D01*
X28489Y141157D01*
X27177D01*
X26521Y141813D01*
X15370Y171158D02*
Y175093D01*
X17338D01*
X17994Y174437D01*
Y173125D01*
X17338Y172469D01*
X15370D01*
X19306Y174437D02*
X19962Y175093D01*
X21274D01*
X21930Y174437D01*
Y171813D01*
X21274Y171158D01*
X19962D01*
X19306Y171813D01*
Y174437D01*
X23242Y171158D02*
Y171813D01*
X23898D01*
Y171158D01*
X23242D01*
X29145D02*
X26521D01*
X29145Y173781D01*
Y174437D01*
X28489Y175093D01*
X27177D01*
X26521Y174437D01*
X15370Y181158D02*
Y185093D01*
X17338D01*
X17994Y184437D01*
Y183125D01*
X17338Y182469D01*
X15370D01*
X19306Y184437D02*
X19962Y185093D01*
X21274D01*
X21930Y184437D01*
Y181813D01*
X21274Y181158D01*
X19962D01*
X19306Y181813D01*
Y184437D01*
X23242Y181158D02*
Y181813D01*
X23898D01*
Y181158D01*
X23242D01*
X26521D02*
X27833D01*
X27177D01*
Y185093D01*
X26521Y184437D01*
X15370Y191157D02*
Y195093D01*
X17338D01*
X17994Y194437D01*
Y193125D01*
X17338Y192469D01*
X15370D01*
X19306Y194437D02*
X19962Y195093D01*
X21274D01*
X21930Y194437D01*
Y191813D01*
X21274Y191157D01*
X19962D01*
X19306Y191813D01*
Y194437D01*
X23242Y191157D02*
Y191813D01*
X23898D01*
Y191157D01*
X23242D01*
X26521Y194437D02*
X27177Y195093D01*
X28489D01*
X29145Y194437D01*
Y191813D01*
X28489Y191157D01*
X27177D01*
X26521Y191813D01*
Y194437D01*
X19762Y205620D02*
X15764D01*
Y202621D01*
X17763Y203621D01*
X18763D01*
X19762Y202621D01*
Y200622D01*
X18763Y199622D01*
X16763D01*
X15764Y200622D01*
X21762Y205620D02*
Y201621D01*
X23761Y199622D01*
X25761Y201621D01*
Y205620D01*
X97835Y30613D02*
Y31532D01*
Y31072D01*
X100590D01*
Y30613D01*
Y31532D01*
X98294Y34746D02*
X97835Y34286D01*
Y33368D01*
X98294Y32909D01*
X98753D01*
X99213Y33368D01*
Y34286D01*
X99672Y34746D01*
X100131D01*
X100590Y34286D01*
Y33368D01*
X100131Y32909D01*
X100590Y35664D02*
X97835D01*
Y37042D01*
X98294Y37501D01*
X99213D01*
X99672Y37042D01*
Y35664D01*
X99213Y38419D02*
Y40256D01*
X100590Y41174D02*
X97835D01*
Y42551D01*
X98294Y43011D01*
X99213D01*
X99672Y42551D01*
Y41174D01*
Y42092D02*
X100590Y43011D01*
X98294Y45766D02*
X97835Y45307D01*
Y44388D01*
X98294Y43929D01*
X98753D01*
X99213Y44388D01*
Y45307D01*
X99672Y45766D01*
X100131D01*
X100590Y45307D01*
Y44388D01*
X100131Y43929D01*
X97835Y46684D02*
Y48521D01*
Y47602D01*
X100590D01*
X100263Y68706D02*
X99607Y69362D01*
Y70674D01*
X100263Y71330D01*
X100919D01*
X101575Y70674D01*
X102231Y71330D01*
X102887D01*
X103543Y70674D01*
Y69362D01*
X102887Y68706D01*
X102231D01*
X101575Y69362D01*
X100919Y68706D01*
X100263D01*
X101575Y69362D02*
Y70674D01*
X100263Y72642D02*
X99607Y73298D01*
Y74610D01*
X100263Y75266D01*
X102887D01*
X103543Y74610D01*
Y73298D01*
X102887Y72642D01*
X100263D01*
X99607Y79202D02*
Y76578D01*
X101575D01*
X100919Y77890D01*
Y78545D01*
X101575Y79202D01*
X102887D01*
X103543Y78545D01*
Y77234D01*
X102887Y76578D01*
X103543Y80513D02*
Y81825D01*
Y81169D01*
X99607D01*
X100263Y80513D01*
X101575Y83793D02*
Y86417D01*
X99607Y87729D02*
X102887D01*
X103543Y88385D01*
Y89697D01*
X102887Y90353D01*
X99607D01*
X103543Y91665D02*
X100919D01*
X99607Y92977D01*
X100919Y94288D01*
X103543D01*
X101575D01*
Y91665D01*
X103543Y95600D02*
X99607D01*
Y97568D01*
X100263Y98224D01*
X101575D01*
X102231Y97568D01*
Y95600D01*
Y96912D02*
X103543Y98224D01*
X99607Y99536D02*
Y102160D01*
Y100848D01*
X103543D01*
X67639Y38432D02*
Y37432D01*
X69639Y35433D01*
X71638Y37432D01*
Y38432D01*
X69639Y35433D02*
Y32434D01*
X77636D02*
X73637D01*
X77636Y36433D01*
Y37432D01*
X76636Y38432D01*
X74637D01*
X73637Y37432D01*
X37552Y119623D02*
X38552D01*
X40551Y121623D01*
X38552Y123622D01*
X37552D01*
X40551Y121623D02*
X43550D01*
Y125621D02*
Y127621D01*
Y126621D01*
X37552D01*
X38552Y125621D01*
X82609Y224213D02*
Y227493D01*
X81953Y228149D01*
X80641D01*
X79985Y227493D01*
Y224213D01*
X76049Y224869D02*
X76705Y224213D01*
X78017D01*
X78673Y224869D01*
Y225525D01*
X78017Y226181D01*
X76705D01*
X76049Y226837D01*
Y227493D01*
X76705Y228149D01*
X78017D01*
X78673Y227493D01*
X74737Y224213D02*
Y228149D01*
X72769D01*
X72113Y227493D01*
Y226837D01*
X72769Y226181D01*
X74737D01*
X72769D01*
X72113Y225525D01*
Y224869D01*
X72769Y224213D01*
X74737D01*
X70801Y226181D02*
X68177D01*
X64242Y224869D02*
X64898Y224213D01*
X66210D01*
X66866Y224869D01*
Y227493D01*
X66210Y228149D01*
X64898D01*
X64242Y227493D01*
X66999Y158661D02*
Y155381D01*
X67655Y154725D01*
X68967D01*
X69623Y155381D01*
Y158661D01*
X70935Y154725D02*
Y157349D01*
X72247Y158661D01*
X73558Y157349D01*
Y154725D01*
Y156693D01*
X70935D01*
X74871Y154725D02*
Y158661D01*
X76838D01*
X77494Y158005D01*
Y156693D01*
X76838Y156037D01*
X74871D01*
X76182D02*
X77494Y154725D01*
X78806Y158661D02*
X81430D01*
X80118D01*
Y154725D01*
X82742Y156693D02*
X85366D01*
X89302Y158661D02*
X86678D01*
Y154725D01*
X89302D01*
X86678Y156693D02*
X87990D01*
X90613Y154725D02*
Y158661D01*
X93237Y154725D01*
Y158661D01*
X67836Y136660D02*
Y131662D01*
X68836Y130662D01*
X70835D01*
X71835Y131662D01*
Y136660D01*
X77833D02*
X73834D01*
Y133661D01*
X75834Y134661D01*
X76833D01*
X77833Y133661D01*
Y131662D01*
X76833Y130662D01*
X74834D01*
X73834Y131662D01*
X98886Y233464D02*
Y230184D01*
X99541Y229528D01*
X100853D01*
X101509Y230184D01*
Y233464D01*
X105445Y229528D02*
X102821D01*
X105445Y232152D01*
Y232808D01*
X104789Y233464D01*
X103477D01*
X102821Y232808D01*
X75637Y189235D02*
X70639D01*
X69639Y188235D01*
Y186236D01*
X70639Y185236D01*
X75637D01*
X69639Y183237D02*
Y181237D01*
Y182237D01*
X75637D01*
X74637Y183237D01*
X42276Y164293D02*
Y168292D01*
Y166292D01*
X48275D01*
X42276Y170291D02*
X48275Y174290D01*
X42276D02*
X48275Y170291D01*
X38235Y164687D02*
X32237D01*
Y167686D01*
X33237Y168685D01*
X35236D01*
X36236Y167686D01*
Y164687D01*
Y166686D02*
X38235Y168685D01*
X32237Y170685D02*
X38235Y174683D01*
X32237D02*
X38235Y170685D01*
X37795Y5120D02*
X33859D01*
Y7088D01*
X34515Y7744D01*
X35827D01*
X36483Y7088D01*
Y5120D01*
Y6432D02*
X37795Y7744D01*
Y9055D02*
Y10367D01*
Y9711D01*
X33859D01*
X34515Y9055D01*
Y12335D02*
X33859Y12991D01*
Y14303D01*
X34515Y14959D01*
X35171D01*
X35827Y14303D01*
Y13647D01*
Y14303D01*
X36483Y14959D01*
X37139D01*
X37795Y14303D01*
Y12991D01*
X37139Y12335D01*
X40288Y157677D02*
X38452D01*
X37993Y157218D01*
Y156300D01*
X38452Y155841D01*
X40288D01*
X40748Y156300D01*
Y157218D01*
X39829Y156759D02*
X40748Y157677D01*
Y157218D02*
X40288Y157677D01*
X40748Y158596D02*
Y159514D01*
Y159055D01*
X37993D01*
X38452Y158596D01*
X136599Y227999D02*
X134599D01*
X135599D01*
Y223001D01*
X134599Y222001D01*
X133600D01*
X132600Y223001D01*
X142597Y222001D02*
X138598D01*
X142597Y226000D01*
Y226999D01*
X141597Y227999D01*
X139598D01*
X138598Y226999D01*
X8071Y228590D02*
X6072D01*
X7071D01*
Y223591D01*
X6072Y222591D01*
X5072D01*
X4072Y223591D01*
X10070Y222591D02*
X12070D01*
X11070D01*
Y228590D01*
X10070Y227590D01*
X45079Y218505D02*
X47703D01*
Y220472D01*
X46391D01*
X47703D01*
Y222440D01*
X43767D02*
X42455D01*
X43111D01*
Y218505D01*
X43767Y219161D01*
X58138Y165354D02*
Y161418D01*
X60105D01*
X60761Y162074D01*
Y164698D01*
X60105Y165354D01*
X58138D01*
X62073Y164698D02*
X62729Y165354D01*
X64041D01*
X64697Y164698D01*
Y164042D01*
X64041Y163386D01*
X64697Y162730D01*
Y162074D01*
X64041Y161418D01*
X62729D01*
X62073Y162074D01*
Y162730D01*
X62729Y163386D01*
X62073Y164042D01*
Y164698D01*
X62729Y163386D02*
X64041D01*
X106992Y27099D02*
X107451Y27559D01*
X108369D01*
X108828Y27099D01*
Y26640D01*
X108369Y26181D01*
X108828Y25722D01*
Y25263D01*
X108369Y24804D01*
X107451D01*
X106992Y25263D01*
Y25722D01*
X107451Y26181D01*
X106992Y26640D01*
Y27099D01*
X107451Y26181D02*
X108369D01*
X109747Y27099D02*
X110206Y27559D01*
X111124D01*
X111583Y27099D01*
Y25263D01*
X111124Y24804D01*
X110206D01*
X109747Y25263D01*
Y27099D01*
X114338Y27559D02*
X112502D01*
Y26181D01*
X113420Y26640D01*
X113879D01*
X114338Y26181D01*
Y25263D01*
X113879Y24804D01*
X112961D01*
X112502Y25263D01*
X115257Y24804D02*
X116175D01*
X115716D01*
Y27559D01*
X115257Y27099D01*
X117552Y26181D02*
X119389D01*
X120307Y24804D02*
Y27559D01*
X121685D01*
X122144Y27099D01*
Y26181D01*
X121685Y25722D01*
X120307D01*
X121226D02*
X122144Y24804D01*
X124899Y27099D02*
X124440Y27559D01*
X123522D01*
X123063Y27099D01*
Y26640D01*
X123522Y26181D01*
X124440D01*
X124899Y25722D01*
Y25263D01*
X124440Y24804D01*
X123522D01*
X123063Y25263D01*
X125818Y27559D02*
X127654D01*
X126736D01*
Y24804D01*
X93458Y164551D02*
Y160553D01*
X96457D01*
X95457Y162552D01*
Y163552D01*
X96457Y164551D01*
X98456D01*
X99456Y163552D01*
Y161553D01*
X98456Y160553D01*
X93458Y166551D02*
X97456D01*
X99456Y168550D01*
X97456Y170550D01*
X93458D01*
X106465Y154601D02*
X105465Y155601D01*
Y157600D01*
X106465Y158600D01*
X107465D01*
X108465Y157600D01*
Y156600D01*
Y157600D01*
X109464Y158600D01*
X110464D01*
X111464Y157600D01*
Y155601D01*
X110464Y154601D01*
X105465Y160599D02*
X109464D01*
X111464Y162598D01*
X109464Y164598D01*
X105465D01*
X106465Y166597D02*
X105465Y167597D01*
Y169596D01*
X106465Y170596D01*
X107465D01*
X108465Y169596D01*
Y168596D01*
Y169596D01*
X109464Y170596D01*
X110464D01*
X111464Y169596D01*
Y167597D01*
X110464Y166597D01*
D13*
X66339Y141535D02*
X65894Y142459D01*
X64895Y142687D01*
X64093Y142048D01*
Y141023D01*
X64895Y140384D01*
X65894Y140612D01*
X66339Y141535D01*
D14*
X52935Y54903D02*
Y56803D01*
Y94703D02*
X54835D01*
X92735Y92803D02*
Y94703D01*
Y54903D02*
Y56803D01*
X90835Y94703D02*
X92735D01*
X52935Y92803D02*
Y94703D01*
Y54903D02*
X54835D01*
X90835D02*
X92735D01*
D15*
X104594Y100591D02*
Y103346D01*
X105972D01*
X106431Y102887D01*
Y101969D01*
X105972Y101509D01*
X104594D01*
X105513D02*
X106431Y100591D01*
X109186D02*
X107349D01*
X109186Y102428D01*
Y102887D01*
X108727Y103346D01*
X107809D01*
X107349Y102887D01*
X111941Y103346D02*
X111023Y102887D01*
X110104Y101969D01*
Y101050D01*
X110564Y100591D01*
X111482D01*
X111941Y101050D01*
Y101509D01*
X111482Y101969D01*
X110104D01*
X32283Y19030D02*
X30315D01*
Y20014D01*
X30643Y20342D01*
X31299D01*
X31627Y20014D01*
Y19030D01*
Y19686D02*
X32283Y20342D01*
Y22309D02*
Y20998D01*
X30971Y22309D01*
X30643D01*
X30315Y21982D01*
Y21326D01*
X30643Y20998D01*
X32283Y24277D02*
Y22965D01*
X30971Y24277D01*
X30643D01*
X30315Y23949D01*
Y23293D01*
X30643Y22965D01*
X32480Y27429D02*
X30512D01*
Y28413D01*
X30840Y28741D01*
X31496D01*
X31824Y28413D01*
Y27429D01*
Y28084D02*
X32480Y28741D01*
Y30708D02*
Y29396D01*
X31168Y30708D01*
X30840D01*
X30512Y30380D01*
Y29724D01*
X30840Y29396D01*
X32480Y31364D02*
Y32020D01*
Y31692D01*
X30512D01*
X30840Y31364D01*
X32283Y34975D02*
X30315D01*
Y35958D01*
X30643Y36287D01*
X31299D01*
X31627Y35958D01*
Y34975D01*
Y35631D02*
X32283Y36287D01*
Y38254D02*
Y36942D01*
X30971Y38254D01*
X30643D01*
X30315Y37926D01*
Y37270D01*
X30643Y36942D01*
Y38910D02*
X30315Y39238D01*
Y39894D01*
X30643Y40222D01*
X31955D01*
X32283Y39894D01*
Y39238D01*
X31955Y38910D01*
X30643D01*
X32283Y42619D02*
X30315D01*
Y43603D01*
X30643Y43931D01*
X31299D01*
X31627Y43603D01*
Y42619D01*
Y43275D02*
X32283Y43931D01*
Y44587D02*
Y45243D01*
Y44915D01*
X30315D01*
X30643Y44587D01*
X31955Y46227D02*
X32283Y46555D01*
Y47211D01*
X31955Y47539D01*
X30643D01*
X30315Y47211D01*
Y46555D01*
X30643Y46227D01*
X30971D01*
X31299Y46555D01*
Y47539D01*
X32283Y50887D02*
X30315D01*
Y51871D01*
X30643Y52198D01*
X31299D01*
X31627Y51871D01*
Y50887D01*
Y51543D02*
X32283Y52198D01*
Y52855D02*
Y53510D01*
Y53183D01*
X30315D01*
X30643Y52855D01*
Y54494D02*
X30315Y54822D01*
Y55478D01*
X30643Y55806D01*
X30971D01*
X31299Y55478D01*
X31627Y55806D01*
X31955D01*
X32283Y55478D01*
Y54822D01*
X31955Y54494D01*
X31627D01*
X31299Y54822D01*
X30971Y54494D01*
X30643D01*
X31299Y54822D02*
Y55478D01*
X32283Y58761D02*
X30315D01*
Y59745D01*
X30643Y60072D01*
X31299D01*
X31627Y59745D01*
Y58761D01*
Y59417D02*
X32283Y60072D01*
Y60729D02*
Y61384D01*
Y61057D01*
X30315D01*
X30643Y60729D01*
X30315Y62368D02*
Y63680D01*
X30643D01*
X31955Y62368D01*
X32283D01*
Y66635D02*
X30315D01*
Y67619D01*
X30643Y67947D01*
X31299D01*
X31627Y67619D01*
Y66635D01*
Y67291D02*
X32283Y67947D01*
Y68603D02*
Y69258D01*
Y68931D01*
X30315D01*
X30643Y68603D01*
X30315Y71554D02*
X30643Y70898D01*
X31299Y70242D01*
X31955D01*
X32283Y70570D01*
Y71226D01*
X31955Y71554D01*
X31627D01*
X31299Y71226D01*
Y70242D01*
X32086Y75688D02*
X30118D01*
Y76672D01*
X30446Y77000D01*
X31102D01*
X31430Y76672D01*
Y75688D01*
Y76344D02*
X32086Y77000D01*
Y77656D02*
Y78312D01*
Y77984D01*
X30118D01*
X30446Y77656D01*
X30118Y80608D02*
Y79296D01*
X31102D01*
X30774Y79952D01*
Y80280D01*
X31102Y80608D01*
X31758D01*
X32086Y80280D01*
Y79624D01*
X31758Y79296D01*
X104824Y204922D02*
Y207677D01*
X106202D01*
X106661Y207218D01*
Y206299D01*
X106202Y205840D01*
X104824D01*
X105742D02*
X106661Y204922D01*
X107579D02*
X108497D01*
X108038D01*
Y207677D01*
X107579Y207218D01*
X109875D02*
X110334Y207677D01*
X111252D01*
X111712Y207218D01*
Y205381D01*
X111252Y204922D01*
X110334D01*
X109875Y205381D01*
Y207218D01*
X94161Y204922D02*
Y207677D01*
X95538D01*
X95998Y207218D01*
Y206299D01*
X95538Y205840D01*
X94161D01*
X95079D02*
X95998Y204922D01*
X96916Y205381D02*
X97375Y204922D01*
X98293D01*
X98752Y205381D01*
Y207218D01*
X98293Y207677D01*
X97375D01*
X96916Y207218D01*
Y206758D01*
X97375Y206299D01*
X98752D01*
X33137Y206890D02*
Y209645D01*
X34515D01*
X34974Y209186D01*
Y208268D01*
X34515Y207809D01*
X33137D01*
X34056D02*
X34974Y206890D01*
X35892Y209645D02*
X37729D01*
Y209186D01*
X35892Y207349D01*
Y206890D01*
X42980D02*
Y209645D01*
X44357D01*
X44816Y209186D01*
Y208268D01*
X44357Y207809D01*
X42980D01*
X43898D02*
X44816Y206890D01*
X47571Y209645D02*
X46653Y209186D01*
X45735Y208268D01*
Y207349D01*
X46194Y206890D01*
X47112D01*
X47571Y207349D01*
Y207809D01*
X47112Y208268D01*
X45735D01*
X59514Y158005D02*
X59842Y158333D01*
Y158989D01*
X59514Y159317D01*
X58202D01*
X57874Y158989D01*
Y158333D01*
X58202Y158005D01*
X59514Y157349D02*
X59842Y157021D01*
Y156365D01*
X59514Y156037D01*
X59186D01*
X58858Y156365D01*
X58530Y156037D01*
X58202D01*
X57874Y156365D01*
Y157021D01*
X58202Y157349D01*
X58530D01*
X58858Y157021D01*
X59186Y157349D01*
X59514D01*
X58858Y157021D02*
Y156365D01*
X53084Y192454D02*
X52625Y192913D01*
X51707D01*
X51248Y192454D01*
Y190617D01*
X51707Y190158D01*
X52625D01*
X53084Y190617D01*
X55839Y192913D02*
X54002D01*
Y191535D01*
X54921Y191995D01*
X55380D01*
X55839Y191535D01*
Y190617D01*
X55380Y190158D01*
X54462D01*
X54002Y190617D01*
M02*
