G04*
G04 #@! TF.GenerationSoftware,Altium Limited,Altium Designer,21.0.9 (235)*
G04*
G04 Layer_Color=16711935*
%FSLAX25Y25*%
%MOIN*%
G70*
G04*
G04 #@! TF.SameCoordinates,12F949BB-F579-4A56-8052-0240B8454CB7*
G04*
G04*
G04 #@! TF.FilePolarity,Positive*
G04*
G01*
G75*
%ADD94C,0.00394*%
%ADD95C,0.00000*%
D94*
X99803Y174606D02*
X99539Y175591D01*
X98819Y176311D01*
X97835Y176575D01*
X96850Y176311D01*
X96130Y175591D01*
X95866Y174606D01*
X96130Y173622D01*
X96850Y172901D01*
X97835Y172638D01*
X98819Y172901D01*
X99539Y173622D01*
X99803Y174606D01*
X85433Y26280D02*
X86423Y26333D01*
X87401Y26493D01*
X88356Y26759D01*
X89277Y27125D01*
X90152Y27590D01*
X90973Y28146D01*
X91728Y28788D01*
X92410Y29507D01*
X93009Y30296D01*
X93520Y31146D01*
X93937Y32045D01*
X94253Y32984D01*
X94466Y33952D01*
X94573Y34938D01*
X94573Y35929D01*
X94466Y36914D01*
X94253Y37882D01*
X93937Y38821D01*
X93520Y39721D01*
X93009Y40570D01*
X92409Y41359D01*
X91728Y42079D01*
X90973Y42720D01*
X90152Y43276D01*
X89276Y43741D01*
X88356Y44107D01*
X87401Y44373D01*
X86423Y44533D01*
X85433Y44587D01*
X60236D02*
X59247Y44533D01*
X58268Y44373D01*
X57314Y44107D01*
X56393Y43741D01*
X55517Y43276D01*
X54697Y42720D01*
X53941Y42079D01*
X53260Y41359D01*
X52660Y40570D01*
X52149Y39721D01*
X51733Y38821D01*
X51416Y37882D01*
X51203Y36914D01*
X51096Y35929D01*
Y34938D01*
X51203Y33952D01*
X51416Y32984D01*
X51733Y32045D01*
X52149Y31146D01*
X52660Y30296D01*
X53260Y29507D01*
X53941Y28788D01*
X54697Y28146D01*
X55517Y27590D01*
X56393Y27125D01*
X57314Y26759D01*
X58268Y26493D01*
X59246Y26333D01*
X60236Y26280D01*
X32185Y111417D02*
X32239Y110428D01*
X32399Y109450D01*
X32664Y108495D01*
X33031Y107574D01*
X33495Y106698D01*
X34051Y105878D01*
X34693Y105122D01*
X35413Y104441D01*
X36202Y103841D01*
X37051Y103330D01*
X37951Y102914D01*
X38890Y102597D01*
X39858Y102384D01*
X40843Y102277D01*
X41834D01*
X42819Y102384D01*
X43787Y102597D01*
X44727Y102914D01*
X45626Y103330D01*
X46475Y103841D01*
X47265Y104441D01*
X47984Y105122D01*
X48626Y105878D01*
X49182Y106698D01*
X49646Y107574D01*
X50013Y108495D01*
X50278Y109450D01*
X50438Y110428D01*
X50492Y111417D01*
Y136614D02*
X50438Y137604D01*
X50278Y138582D01*
X50013Y139537D01*
X49646Y140458D01*
X49182Y141333D01*
X48626Y142154D01*
X47984Y142909D01*
X47265Y143591D01*
X46475Y144191D01*
X45626Y144701D01*
X44727Y145118D01*
X43787Y145434D01*
X42819Y145647D01*
X41834Y145754D01*
X40843D01*
X39858Y145647D01*
X38890Y145434D01*
X37951Y145118D01*
X37051Y144701D01*
X36202Y144191D01*
X35413Y143591D01*
X34693Y142909D01*
X34051Y142154D01*
X33495Y141333D01*
X33031Y140458D01*
X32664Y139537D01*
X32399Y138582D01*
X32239Y137604D01*
X32185Y136614D01*
X64567Y144095D02*
X64303Y145079D01*
X63583Y145799D01*
X62598Y146063D01*
X61614Y145799D01*
X60894Y145079D01*
X60630Y144095D01*
X60894Y143110D01*
X61614Y142390D01*
X62598Y142126D01*
X63583Y142390D01*
X64303Y143110D01*
X64567Y144095D01*
X123917Y174803D02*
Y183465D01*
X118209Y174803D02*
Y183465D01*
Y174803D02*
X123917D01*
X118209Y183465D02*
X123917D01*
X113976Y46555D02*
Y51870D01*
X122244Y46555D02*
Y51870D01*
X113976Y46555D02*
X122244D01*
X113976Y51870D02*
X122244D01*
X126378Y34547D02*
Y40256D01*
X117717Y34547D02*
Y40256D01*
X126378D01*
X117717Y34547D02*
X126378D01*
X117913Y26870D02*
X126181D01*
X117913Y32185D02*
X126181D01*
X117913Y26870D02*
Y32185D01*
X126181Y26870D02*
Y32185D01*
X135138Y7677D02*
Y15945D01*
X140453Y7677D02*
Y15945D01*
X135138D02*
X140453D01*
X135138Y7677D02*
X140453D01*
X40256Y5709D02*
X45571D01*
X40256Y13976D02*
X45571D01*
X40256Y5709D02*
Y13976D01*
X45571Y5709D02*
Y13976D01*
X57500Y130768D02*
Y136476D01*
X48799Y130768D02*
Y136476D01*
X57500D01*
X48799Y130768D02*
X57500D01*
Y111555D02*
Y117264D01*
X48799Y111555D02*
Y117264D01*
X57500D01*
X48799Y111555D02*
X57500D01*
X123917Y153150D02*
Y161811D01*
X118209Y153150D02*
Y161811D01*
Y153150D02*
X123917D01*
X118209Y161811D02*
X123917D01*
X114370Y160433D02*
Y178150D01*
X94291Y160433D02*
Y178150D01*
Y160433D02*
X114370D01*
X94291Y178150D02*
X114370D01*
X100197Y125197D02*
X108465D01*
X100197Y134646D02*
X108465D01*
Y125197D02*
Y134646D01*
X100197Y125197D02*
Y134646D01*
X35236Y144980D02*
X43504D01*
X35236Y150295D02*
X43504D01*
X35236Y144980D02*
Y150295D01*
X43504Y144980D02*
Y150295D01*
X26280Y153150D02*
Y161417D01*
X31594Y153150D02*
Y161417D01*
X26280D02*
X31594D01*
X26280Y153150D02*
X31594D01*
X60236Y26280D02*
X85433D01*
X60236Y44587D02*
X85433D01*
X58169Y196437D02*
Y205138D01*
X63878Y196437D02*
Y205138D01*
X58169D02*
X63878D01*
X58169Y196437D02*
X63878D01*
X87697D02*
Y205138D01*
X93405Y196437D02*
Y205138D01*
X87697D02*
X93405D01*
X87697Y196437D02*
X93405D01*
X77854Y205118D02*
X83563D01*
X77854Y196457D02*
X83563D01*
X77854D02*
Y205118D01*
X83563Y196457D02*
Y205118D01*
X73721Y196457D02*
Y205118D01*
X68012Y196457D02*
Y205118D01*
Y196457D02*
X73721D01*
X68012Y205118D02*
X73721D01*
X105413Y96850D02*
X111122D01*
X105413Y88189D02*
X111122D01*
Y96850D01*
X105413Y88189D02*
Y96850D01*
X110925Y72638D02*
Y80905D01*
X105610Y72638D02*
Y80905D01*
X110925D01*
X105610Y72638D02*
X110925D01*
X68701Y160728D02*
X76968D01*
X68701Y166043D02*
X76968D01*
Y160728D02*
Y166043D01*
X68701Y160728D02*
Y166043D01*
X99114Y176969D02*
Y185236D01*
X93799Y176969D02*
Y185236D01*
X99114D01*
X93799Y176969D02*
X99114D01*
X110925D02*
Y185236D01*
X105610Y176969D02*
Y185236D01*
X110925D01*
X105610Y176969D02*
X110925D01*
X113976Y202067D02*
Y207382D01*
X122244Y202067D02*
Y207382D01*
X113976Y202067D02*
X122244D01*
X113976Y207382D02*
X122244D01*
X93898Y226575D02*
X100984D01*
X93898Y213189D02*
X100984D01*
X93898D02*
Y226575D01*
X100984Y213189D02*
Y226575D01*
X103740D02*
X110827D01*
X103740Y213189D02*
X110827D01*
X103740D02*
Y226575D01*
X110827Y213189D02*
Y226575D01*
X32185Y111417D02*
Y136614D01*
X50492Y111417D02*
Y136614D01*
X75197Y228740D02*
X80512D01*
X75197Y220079D02*
X80512D01*
X75197D02*
Y228740D01*
X80512Y220079D02*
Y228740D01*
X65158D02*
X70472D01*
X65158Y220079D02*
X70472D01*
X65158D02*
Y228740D01*
X70472Y220079D02*
Y228740D01*
X93602Y192520D02*
X99311D01*
X93602Y201181D02*
X99311D01*
X93602Y192520D02*
Y201181D01*
X99311Y192520D02*
Y201181D01*
X47933Y178937D02*
Y187205D01*
X42618Y178937D02*
Y187205D01*
X47933D01*
X42618Y178937D02*
X47933D01*
X42421Y203150D02*
X48130D01*
X42421Y194488D02*
X48130D01*
Y203150D01*
X42421Y194488D02*
Y203150D01*
X105413Y192520D02*
X111122D01*
X105413Y201181D02*
X111122D01*
X105413Y192520D02*
Y201181D01*
X111122Y192520D02*
Y201181D01*
X38091Y178937D02*
Y187205D01*
X32776Y178937D02*
Y187205D01*
X38091D01*
X32776Y178937D02*
X38091D01*
X32579Y203150D02*
X38287D01*
X32579Y194488D02*
X38287D01*
Y203150D01*
X32579Y194488D02*
Y203150D01*
X35236Y18996D02*
Y24311D01*
X43504Y18996D02*
Y24311D01*
X35236D02*
X43504D01*
X35236Y18996D02*
X43504D01*
X35236Y26870D02*
Y32185D01*
X43504Y26870D02*
Y32185D01*
X35236D02*
X43504D01*
X35236Y26870D02*
X43504D01*
X35236Y34744D02*
Y40059D01*
X43504Y34744D02*
Y40059D01*
X35236D02*
X43504D01*
X35236Y34744D02*
X43504D01*
X35236Y42618D02*
Y47933D01*
X43504Y42618D02*
Y47933D01*
X35236D02*
X43504D01*
X35236Y42618D02*
X43504D01*
X35236Y50492D02*
Y55807D01*
X43504Y50492D02*
Y55807D01*
X35236D02*
X43504D01*
X35236Y50492D02*
X43504D01*
X35236Y58366D02*
Y63681D01*
X43504Y58366D02*
Y63681D01*
X35236D02*
X43504D01*
X35236Y58366D02*
X43504D01*
X35236Y66240D02*
Y71555D01*
X43504Y66240D02*
Y71555D01*
X35236D02*
X43504D01*
X35236Y66240D02*
X43504D01*
Y75244D02*
Y80559D01*
X35236Y75244D02*
Y80559D01*
Y75244D02*
X43504D01*
X35236Y80559D02*
X43504D01*
X142835Y18110D02*
Y218110D01*
X132835D02*
X142835D01*
X132835Y18110D02*
X142835D01*
X132835D02*
Y218110D01*
X12835Y18110D02*
Y218110D01*
X2835D02*
X12835D01*
X2835Y18110D02*
X12835D01*
X2835D02*
Y218110D01*
X59055Y120079D02*
Y147638D01*
X86614Y120079D02*
Y147638D01*
X59055D02*
X86614D01*
X59055Y120079D02*
X86614D01*
X97835Y3779D02*
Y23779D01*
X47835D02*
X97835D01*
X47835Y3779D02*
Y23779D01*
Y3779D02*
X97835D01*
D95*
X52935Y89703D02*
Y91403D01*
X48735D02*
X52935D01*
X48735Y89703D02*
Y91403D01*
Y89703D02*
X52935D01*
Y86503D02*
Y88303D01*
X48735D02*
X52935D01*
X48735Y86503D02*
Y88303D01*
Y86503D02*
X52935D01*
Y83403D02*
Y85103D01*
X48735D02*
X52935D01*
X48735Y83403D02*
Y85103D01*
Y83403D02*
X52935D01*
Y80203D02*
Y82003D01*
X48735D02*
X52935D01*
X48735Y80203D02*
Y82003D01*
Y80203D02*
X52935D01*
Y77103D02*
Y78803D01*
X48735D02*
X52935D01*
X48735Y77103D02*
Y78803D01*
Y77103D02*
X52935D01*
Y73903D02*
Y75703D01*
X48735D02*
X52935D01*
X48735Y73903D02*
Y75703D01*
Y73903D02*
X52935D01*
Y70803D02*
Y72503D01*
X48735D02*
X52935D01*
X48735Y70803D02*
Y72503D01*
Y70803D02*
X52935D01*
Y67603D02*
Y69403D01*
X48735D02*
X52935D01*
X48735Y67603D02*
Y69403D01*
Y67603D02*
X52935D01*
Y64503D02*
Y66203D01*
X48735D02*
X52935D01*
X48735Y64503D02*
Y66203D01*
Y64503D02*
X52935D01*
Y61303D02*
Y63103D01*
X48735D02*
X52935D01*
X48735Y61303D02*
Y63103D01*
Y61303D02*
X52935D01*
Y58203D02*
Y59903D01*
X48735D02*
X52935D01*
X48735Y58203D02*
Y59903D01*
Y58203D02*
X52935D01*
X56235Y54903D02*
X57935D01*
X56235Y50703D02*
Y54903D01*
Y50703D02*
X57935D01*
Y54903D01*
X59335D02*
X61135D01*
X59335Y50703D02*
Y54903D01*
Y50703D02*
X61135D01*
Y54903D01*
X62535D02*
X64235D01*
X62535Y50703D02*
Y54903D01*
Y50703D02*
X64235D01*
Y54903D01*
X65635D02*
X67435D01*
X65635Y50703D02*
Y54903D01*
Y50703D02*
X67435D01*
Y54903D01*
X68835D02*
X70535D01*
X68835Y50703D02*
Y54903D01*
Y50703D02*
X70535D01*
Y54903D01*
X71935D02*
X73735D01*
X71935Y50703D02*
Y54903D01*
Y50703D02*
X73735D01*
Y54903D01*
X75135D02*
X76835D01*
X75135Y50703D02*
Y54903D01*
Y50703D02*
X76835D01*
Y54903D01*
X78235D02*
X80035D01*
X78235Y50703D02*
Y54903D01*
Y50703D02*
X80035D01*
Y54903D01*
X81435D02*
X83135D01*
X81435Y50703D02*
Y54903D01*
Y50703D02*
X83135D01*
Y54903D01*
X84535D02*
X86335D01*
X84535Y50703D02*
Y54903D01*
Y50703D02*
X86335D01*
Y54903D01*
X87735D02*
X89435D01*
X87735Y50703D02*
Y54903D01*
Y50703D02*
X89435D01*
Y54903D01*
X92735Y58203D02*
Y59903D01*
Y58203D02*
X96935D01*
Y59903D01*
X92735D02*
X96935D01*
X92735Y61303D02*
Y63103D01*
Y61303D02*
X96935D01*
Y63103D01*
X92735D02*
X96935D01*
X92735Y64503D02*
Y66203D01*
Y64503D02*
X96935D01*
Y66203D01*
X92735D02*
X96935D01*
X92735Y67603D02*
Y69403D01*
Y67603D02*
X96935D01*
Y69403D01*
X92735D02*
X96935D01*
X92735Y70803D02*
Y72503D01*
Y70803D02*
X96935D01*
Y72503D01*
X92735D02*
X96935D01*
X92735Y73903D02*
Y75703D01*
Y73903D02*
X96935D01*
Y75703D01*
X92735D02*
X96935D01*
X92735Y77103D02*
Y78803D01*
Y77103D02*
X96935D01*
Y78803D01*
X92735D02*
X96935D01*
X92735Y80203D02*
Y82003D01*
Y80203D02*
X96935D01*
Y82003D01*
X92735D02*
X96935D01*
X92735Y83403D02*
Y85103D01*
Y83403D02*
X96935D01*
Y85103D01*
X92735D02*
X96935D01*
X92735Y86503D02*
Y88303D01*
Y86503D02*
X96935D01*
Y88303D01*
X92735D02*
X96935D01*
X92735Y89703D02*
Y91403D01*
Y89703D02*
X96935D01*
Y91403D01*
X92735D02*
X96935D01*
X87735Y94703D02*
X89435D01*
Y98903D01*
X87735D02*
X89435D01*
X87735Y94703D02*
Y98903D01*
X84535Y94703D02*
X86335D01*
Y98903D01*
X84535D02*
X86335D01*
X84535Y94703D02*
Y98903D01*
X81435Y94703D02*
X83135D01*
Y98903D01*
X81435D02*
X83135D01*
X81435Y94703D02*
Y98903D01*
X78235Y94703D02*
X80035D01*
Y98903D01*
X78235D02*
X80035D01*
X78235Y94703D02*
Y98903D01*
X75135Y94703D02*
X76835D01*
Y98903D01*
X75135D02*
X76835D01*
X75135Y94703D02*
Y98903D01*
X71935Y94703D02*
X73735D01*
Y98903D01*
X71935D02*
X73735D01*
X71935Y94703D02*
Y98903D01*
X68835Y94703D02*
X70535D01*
Y98903D01*
X68835D02*
X70535D01*
X68835Y94703D02*
Y98903D01*
X65635Y94703D02*
X67435D01*
Y98903D01*
X65635D02*
X67435D01*
X65635Y94703D02*
Y98903D01*
X62535Y94703D02*
X64235D01*
Y98903D01*
X62535D02*
X64235D01*
X62535Y94703D02*
Y98903D01*
X59335Y94703D02*
X61135D01*
Y98903D01*
X59335D02*
X61135D01*
X59335Y94703D02*
Y98903D01*
X56235Y94703D02*
X57935D01*
Y98903D01*
X56235D02*
X57935D01*
X56235Y94703D02*
Y98903D01*
X52935Y59903D02*
X57935Y54903D01*
X92735D02*
Y94703D01*
X52935D02*
X92735D01*
X52935Y54903D02*
Y94703D01*
Y54903D02*
X92735D01*
M02*
