G04*
G04 #@! TF.GenerationSoftware,Altium Limited,Altium Designer,21.0.9 (235)*
G04*
G04 Layer_Color=32768*
%FSLAX25Y25*%
%MOIN*%
G70*
G04*
G04 #@! TF.SameCoordinates,12F949BB-F579-4A56-8052-0240B8454CB7*
G04*
G04*
G04 #@! TF.FilePolarity,Positive*
G04*
G01*
G75*
%ADD94C,0.00394*%
%ADD96C,0.00197*%
D94*
X119095Y179134D02*
X123031D01*
X121063Y177165D02*
Y181102D01*
X116142Y49213D02*
X120079D01*
X118110Y47244D02*
Y51181D01*
X120079Y37402D02*
X124016D01*
X122047Y35433D02*
Y39370D01*
Y27559D02*
Y31496D01*
X120079Y29528D02*
X124016D01*
X135827Y11811D02*
X139764D01*
X137795Y9843D02*
Y13780D01*
X42913Y7874D02*
Y11811D01*
X40945Y9843D02*
X44882D01*
X51181Y133622D02*
X55118D01*
X53150Y131653D02*
Y135591D01*
X51181Y114409D02*
X55118D01*
X53150Y112441D02*
Y116378D01*
X119095Y157480D02*
X123031D01*
X121063Y155512D02*
Y159449D01*
X102362Y169291D02*
X106299D01*
X104331Y167323D02*
Y171260D01*
Y127953D02*
Y131890D01*
X102362Y129921D02*
X106299D01*
X39370Y145669D02*
Y149606D01*
X37402Y147638D02*
X41339D01*
X26969Y157283D02*
X30906D01*
X28937Y155315D02*
Y159252D01*
X72835Y33465D02*
Y37402D01*
X70866Y35433D02*
X74803D01*
X59055Y200787D02*
X62992D01*
X61024Y198819D02*
Y202756D01*
X88583Y200787D02*
X92520D01*
X90551Y198819D02*
Y202756D01*
X80709Y198819D02*
Y202756D01*
X78740Y200787D02*
X82677D01*
X68898D02*
X72835D01*
X70866Y198819D02*
Y202756D01*
X108268Y90551D02*
Y94488D01*
X106299Y92520D02*
X110236D01*
X106299Y76772D02*
X110236D01*
X108268Y74803D02*
Y78740D01*
X111614Y69980D02*
Y83563D01*
X104921Y69980D02*
Y83563D01*
X111614D01*
X104921Y69980D02*
X111614D01*
X72835Y161417D02*
Y165354D01*
X70866Y163386D02*
X74803D01*
X66043Y160039D02*
X79626D01*
X66043Y166732D02*
X79626D01*
Y160039D02*
Y166732D01*
X66043Y160039D02*
Y166732D01*
X94488Y181102D02*
X98425D01*
X96457Y179134D02*
Y183071D01*
X99803Y174311D02*
Y187894D01*
X93110Y174311D02*
Y187894D01*
X99803D01*
X93110Y174311D02*
X99803D01*
X106299Y181102D02*
X110236D01*
X108268Y179134D02*
Y183071D01*
X111614Y174311D02*
Y187894D01*
X104921Y174311D02*
Y187894D01*
X111614D01*
X104921Y174311D02*
X111614D01*
X116142Y204724D02*
X120079D01*
X118110Y202756D02*
Y206693D01*
X97441Y217913D02*
Y221850D01*
X95472Y219882D02*
X99409D01*
X107283Y217913D02*
Y221850D01*
X105315Y219882D02*
X109252D01*
X41339Y122047D02*
Y125984D01*
X39370Y124016D02*
X43307D01*
X77854Y222441D02*
Y226378D01*
X75886Y224409D02*
X79823D01*
X67815Y222441D02*
Y226378D01*
X65847Y224409D02*
X69784D01*
X96457Y194882D02*
Y198819D01*
X94488Y196850D02*
X98425D01*
X43307Y183071D02*
X47244D01*
X45276Y181102D02*
Y185039D01*
X48622Y176279D02*
Y189862D01*
X41929Y176279D02*
Y189862D01*
X48622D01*
X41929Y176279D02*
X48622D01*
X45276Y196850D02*
Y200787D01*
X43307Y198819D02*
X47244D01*
X108268Y194882D02*
Y198819D01*
X106299Y196850D02*
X110236D01*
X33465Y183071D02*
X37402D01*
X35433Y181102D02*
Y185039D01*
X38780Y176279D02*
Y189862D01*
X32087Y176279D02*
Y189862D01*
X38780D01*
X32087Y176279D02*
X38780D01*
X35433Y196850D02*
Y200787D01*
X33465Y198819D02*
X37402D01*
Y21654D02*
X41339D01*
X39370Y19685D02*
Y23622D01*
X37402Y29528D02*
X41339D01*
X39370Y27559D02*
Y31496D01*
X37402Y37402D02*
X41339D01*
X39370Y35433D02*
Y39370D01*
X37402Y45276D02*
X41339D01*
X39370Y43307D02*
Y47244D01*
X37402Y53150D02*
X41339D01*
X39370Y51181D02*
Y55118D01*
X37402Y61024D02*
X41339D01*
X39370Y59055D02*
Y62992D01*
X37402Y68898D02*
X41339D01*
X39370Y66929D02*
Y70866D01*
X37402Y77902D02*
X41339D01*
X39370Y75933D02*
Y79870D01*
X70866Y133858D02*
X74803D01*
X72835Y131890D02*
Y135827D01*
D96*
X126181Y170669D02*
Y187598D01*
X115945Y170669D02*
Y187598D01*
Y170669D02*
X126181D01*
X115945Y187598D02*
X126181D01*
X109843Y44291D02*
Y54134D01*
X126378Y44291D02*
Y54134D01*
X109843Y44291D02*
X126378D01*
X109843Y54134D02*
X126378D01*
X127362Y34055D02*
Y40748D01*
X116732Y34055D02*
Y40748D01*
X127362D01*
X116732Y34055D02*
X127362D01*
X115551Y25787D02*
X128543D01*
X115551Y33268D02*
X128543D01*
X115551Y25787D02*
Y33268D01*
X128543Y25787D02*
Y33268D01*
X134055Y5315D02*
Y18307D01*
X141535Y5315D02*
Y18307D01*
X134055D02*
X141535D01*
X134055Y5315D02*
X141535D01*
X39173Y3347D02*
X46654D01*
X39173Y16339D02*
X46654D01*
X39173Y3347D02*
Y16339D01*
X46654Y3347D02*
Y16339D01*
X60039Y129685D02*
Y137559D01*
X46260Y129685D02*
Y137559D01*
X60039D01*
X46260Y129685D02*
X60039D01*
Y110472D02*
Y118347D01*
X46260Y110472D02*
Y118347D01*
X60039D01*
X46260Y110472D02*
X60039D01*
X126181Y149016D02*
Y165945D01*
X115945Y149016D02*
Y165945D01*
Y149016D02*
X126181D01*
X115945Y165945D02*
X126181D01*
X116339Y152165D02*
Y186417D01*
X92323Y152165D02*
Y186417D01*
Y152165D02*
X116339D01*
X92323Y186417D02*
X116339D01*
X98228Y119390D02*
X110433D01*
X98228Y140453D02*
X110433D01*
Y119390D02*
Y140453D01*
X98228Y119390D02*
Y140453D01*
X32874Y143898D02*
X45866D01*
X32874Y151378D02*
X45866D01*
X32874Y143898D02*
Y151378D01*
X45866Y143898D02*
Y151378D01*
X25197Y150787D02*
Y163779D01*
X32677Y150787D02*
Y163779D01*
X25197D02*
X32677D01*
X25197Y150787D02*
X32677D01*
X50689Y25886D02*
X94980D01*
X50689Y44980D02*
X94980D01*
X50689Y25886D02*
Y44980D01*
X94980Y25886D02*
Y44980D01*
X57087Y193898D02*
Y207677D01*
X64961Y193898D02*
Y207677D01*
X57087D02*
X64961D01*
X57087Y193898D02*
X64961D01*
X86614D02*
Y207677D01*
X94488Y193898D02*
Y207677D01*
X86614D02*
X94488D01*
X86614Y193898D02*
X94488D01*
X77362Y206102D02*
X84055D01*
X77362Y195472D02*
X84055D01*
X77362D02*
Y206102D01*
X84055Y195472D02*
Y206102D01*
X74213Y195472D02*
Y206102D01*
X67520Y195472D02*
Y206102D01*
Y195472D02*
X74213D01*
X67520Y206102D02*
X74213D01*
X103150Y100984D02*
X113386D01*
X103150Y84055D02*
X113386D01*
Y100984D01*
X103150Y84055D02*
Y100984D01*
X109843Y199803D02*
Y209646D01*
X126378Y199803D02*
Y209646D01*
X109843Y199803D02*
X126378D01*
X109843Y209646D02*
X126378D01*
X91929Y231693D02*
X102953D01*
X91929Y208071D02*
X102953D01*
X91929D02*
Y231693D01*
X102953Y208071D02*
Y231693D01*
X101772D02*
X112795D01*
X101772Y208071D02*
X112795D01*
X101772D02*
Y231693D01*
X112795Y208071D02*
Y231693D01*
X31791Y146161D02*
X50886D01*
X31791Y101870D02*
X50886D01*
X31791D02*
Y146161D01*
X50886Y101870D02*
Y146161D01*
X74114Y231299D02*
X81595D01*
X74114Y217520D02*
X81595D01*
X74114D02*
Y231299D01*
X81595Y217520D02*
Y231299D01*
X64075D02*
X71555D01*
X64075Y217520D02*
X71555D01*
X64075D02*
Y231299D01*
X71555Y217520D02*
Y231299D01*
X91339Y188386D02*
X101575D01*
X91339Y205315D02*
X101575D01*
X91339Y188386D02*
Y205315D01*
X101575Y188386D02*
Y205315D01*
X40157Y207283D02*
X50394D01*
X40157Y190354D02*
X50394D01*
Y207283D01*
X40157Y190354D02*
Y207283D01*
X103150Y188386D02*
X113386D01*
X103150Y205315D02*
X113386D01*
X103150Y188386D02*
Y205315D01*
X113386Y188386D02*
Y205315D01*
X30315Y207283D02*
X40551D01*
X30315Y190354D02*
X40551D01*
Y207283D01*
X30315Y190354D02*
Y207283D01*
X32874Y17913D02*
Y25394D01*
X45866Y17913D02*
Y25394D01*
X32874D02*
X45866D01*
X32874Y17913D02*
X45866D01*
X32874Y25787D02*
Y33268D01*
X45866Y25787D02*
Y33268D01*
X32874D02*
X45866D01*
X32874Y25787D02*
X45866D01*
X32874Y33661D02*
Y41142D01*
X45866Y33661D02*
Y41142D01*
X32874D02*
X45866D01*
X32874Y33661D02*
X45866D01*
X32874Y41535D02*
Y49016D01*
X45866Y41535D02*
Y49016D01*
X32874D02*
X45866D01*
X32874Y41535D02*
X45866D01*
X32874Y49409D02*
Y56890D01*
X45866Y49409D02*
Y56890D01*
X32874D02*
X45866D01*
X32874Y49409D02*
X45866D01*
X32874Y57284D02*
Y64764D01*
X45866Y57284D02*
Y64764D01*
X32874D02*
X45866D01*
X32874Y57284D02*
X45866D01*
X32874Y65158D02*
Y72638D01*
X45866Y65158D02*
Y72638D01*
X32874D02*
X45866D01*
X32874Y65158D02*
X45866D01*
X45866Y74161D02*
Y81642D01*
X32874Y74161D02*
Y81642D01*
Y74161D02*
X45866D01*
X32874Y81642D02*
X45866D01*
X143917Y16732D02*
Y219488D01*
X131752Y16732D02*
X143917D01*
X131752D02*
Y219488D01*
X143917D01*
X135866Y118110D02*
X139803D01*
X137835Y116142D02*
Y120079D01*
X13917Y16732D02*
Y219488D01*
X1752Y16732D02*
X13917D01*
X1752D02*
Y219488D01*
X13917D01*
X5866Y118110D02*
X9803D01*
X7835Y116142D02*
Y120079D01*
X52165Y113189D02*
Y154528D01*
X93504Y113189D02*
Y154528D01*
X52165D02*
X93504D01*
X52165Y113189D02*
X93504D01*
X46457Y2697D02*
X99213D01*
X46457D02*
Y24862D01*
X99213D01*
Y2697D02*
Y24862D01*
X72835Y11811D02*
Y15748D01*
X70866Y13780D02*
X74803D01*
M02*
