G04*
G04 #@! TF.GenerationSoftware,Altium Limited,Altium Designer,21.0.9 (235)*
G04*
G04 Layer_Physical_Order=1*
G04 Layer_Color=255*
%FSLAX25Y25*%
%MOIN*%
G70*
G04*
G04 #@! TF.SameCoordinates,12F949BB-F579-4A56-8052-0240B8454CB7*
G04*
G04*
G04 #@! TF.FilePolarity,Positive*
G04*
G01*
G75*
%ADD12C,0.01000*%
%ADD18R,0.06693X0.03150*%
%ADD19R,0.05315X0.03937*%
%ADD20R,0.06102X0.05512*%
%ADD21R,0.04724X0.04331*%
%ADD22R,0.04331X0.04724*%
%ADD23R,0.09843X0.03937*%
G04:AMPARAMS|DCode=24|XSize=88.58mil|YSize=15.75mil|CornerRadius=7.87mil|HoleSize=0mil|Usage=FLASHONLY|Rotation=0.000|XOffset=0mil|YOffset=0mil|HoleType=Round|Shape=RoundedRectangle|*
%AMROUNDEDRECTD24*
21,1,0.08858,0.00000,0,0,0.0*
21,1,0.07284,0.01575,0,0,0.0*
1,1,0.01575,0.03642,0.00000*
1,1,0.01575,-0.03642,0.00000*
1,1,0.01575,-0.03642,0.00000*
1,1,0.01575,0.03642,0.00000*
%
%ADD24ROUNDEDRECTD24*%
%ADD25R,0.04331X0.05906*%
%ADD26R,0.05315X0.03740*%
G04:AMPARAMS|DCode=27|XSize=67.21mil|YSize=24.25mil|CornerRadius=12.12mil|HoleSize=0mil|Usage=FLASHONLY|Rotation=90.000|XOffset=0mil|YOffset=0mil|HoleType=Round|Shape=RoundedRectangle|*
%AMROUNDEDRECTD27*
21,1,0.06721,0.00000,0,0,90.0*
21,1,0.04296,0.02425,0,0,90.0*
1,1,0.02425,0.00000,0.02148*
1,1,0.02425,0.00000,-0.02148*
1,1,0.02425,0.00000,-0.02148*
1,1,0.02425,0.00000,0.02148*
%
%ADD27ROUNDEDRECTD27*%
%ADD28R,0.02425X0.06721*%
%ADD29R,0.03740X0.05315*%
%ADD30R,0.02000X0.05800*%
%ADD31R,0.05800X0.02000*%
%ADD32R,0.03937X0.05315*%
%ADD33O,0.06496X0.02165*%
%ADD34O,0.02165X0.06496*%
%ADD39R,0.02165X0.02362*%
%ADD50C,0.02559*%
%ADD51R,0.02559X0.02559*%
G04:AMPARAMS|DCode=52|XSize=35.43mil|YSize=94.49mil|CornerRadius=17.72mil|HoleSize=0mil|Usage=FLASHONLY|Rotation=180.000|XOffset=0mil|YOffset=0mil|HoleType=Round|Shape=RoundedRectangle|*
%AMROUNDEDRECTD52*
21,1,0.03543,0.05906,0,0,180.0*
21,1,0.00000,0.09449,0,0,180.0*
1,1,0.03543,0.00000,0.02953*
1,1,0.03543,0.00000,0.02953*
1,1,0.03543,0.00000,-0.02953*
1,1,0.03543,0.00000,-0.02953*
%
%ADD52ROUNDEDRECTD52*%
G04:AMPARAMS|DCode=53|XSize=35.43mil|YSize=66.93mil|CornerRadius=17.72mil|HoleSize=0mil|Usage=FLASHONLY|Rotation=180.000|XOffset=0mil|YOffset=0mil|HoleType=Round|Shape=RoundedRectangle|*
%AMROUNDEDRECTD53*
21,1,0.03543,0.03150,0,0,180.0*
21,1,0.00000,0.06693,0,0,180.0*
1,1,0.03543,0.00000,0.01575*
1,1,0.03543,0.00000,0.01575*
1,1,0.03543,0.00000,-0.01575*
1,1,0.03543,0.00000,-0.01575*
%
%ADD53ROUNDEDRECTD53*%
%ADD60R,0.04724X0.04724*%
%ADD61C,0.04724*%
%ADD62R,0.04724X0.04724*%
%ADD63C,0.13780*%
%ADD64O,0.13386X0.13780*%
%ADD65C,0.06299*%
%ADD66R,0.06299X0.06299*%
%ADD67C,0.06496*%
%ADD68R,0.06496X0.06496*%
%ADD69C,0.02000*%
%ADD70C,0.03000*%
G36*
X137795Y233704D02*
Y233704D01*
X138287Y233683D01*
X139193Y233564D01*
X140496Y233025D01*
X141615Y232166D01*
X142473Y231047D01*
X143013Y229745D01*
X143132Y228838D01*
X143152Y228346D01*
X143152Y228346D01*
X143152Y227854D01*
X143152Y117998D01*
X142691Y117806D01*
X141863Y118634D01*
X141532Y118855D01*
X141142Y118933D01*
X129950D01*
X125626Y123257D01*
Y129331D01*
X125548Y129721D01*
X125327Y130052D01*
X117445Y137934D01*
Y138291D01*
X117217Y138842D01*
X116795Y139264D01*
X116243Y139492D01*
X115647D01*
X115095Y139264D01*
X114673Y138842D01*
X114445Y138291D01*
Y137694D01*
X114673Y137143D01*
X115095Y136721D01*
X115647Y136492D01*
X116003D01*
X123497Y128998D01*
X123469Y128639D01*
X122965Y128477D01*
X117256Y134186D01*
X116926Y134406D01*
X116535Y134484D01*
X101800D01*
X99248Y137037D01*
Y149381D01*
X100434Y150567D01*
X100791D01*
X101165Y150722D01*
X101607Y150496D01*
X101665Y150429D01*
Y143988D01*
X106996D01*
Y146421D01*
X108347D01*
X108599Y146169D01*
X109151Y145941D01*
X109747D01*
X110299Y146169D01*
X110408Y146279D01*
X110997Y146161D01*
X111100Y145914D01*
X111662Y145352D01*
X112295Y145090D01*
Y147047D01*
Y149005D01*
X111662Y148743D01*
X111247Y148327D01*
X110819Y148297D01*
X110639Y148372D01*
X110299Y148713D01*
X109747Y148941D01*
X109151D01*
X108599Y148713D01*
X108347Y148460D01*
X106996D01*
Y150894D01*
X105153D01*
Y167126D01*
X105076Y167516D01*
X104855Y167847D01*
X103477Y169225D01*
X103146Y169446D01*
X102756Y169524D01*
X98587D01*
X98396Y169985D01*
X103083Y174673D01*
X103304Y175004D01*
X103382Y175394D01*
Y199489D01*
X103634Y199741D01*
X103862Y200292D01*
Y200889D01*
X103634Y201440D01*
X103212Y201862D01*
X102661Y202091D01*
X102064D01*
X101513Y201862D01*
X101260Y201610D01*
X100008D01*
Y203846D01*
X97476D01*
Y206271D01*
X99343Y208137D01*
X99564Y208468D01*
X99642Y208858D01*
Y211885D01*
X100334D01*
X100334Y211885D01*
X100834Y211958D01*
X101499Y211514D01*
X101862Y211441D01*
Y215746D01*
Y220050D01*
X101499Y219978D01*
X100834Y219534D01*
X100334Y219606D01*
Y219606D01*
X96910D01*
Y216768D01*
X96092D01*
X94720Y218139D01*
Y219882D01*
X94643Y220272D01*
X94422Y220603D01*
X92453Y222571D01*
X92123Y222792D01*
X91732Y222870D01*
X90225D01*
X90193Y223359D01*
X90203Y223371D01*
X90586Y223422D01*
X91260Y223701D01*
X91839Y224145D01*
X92283Y224724D01*
X92563Y225398D01*
X92658Y226122D01*
Y227197D01*
X89862D01*
X87067D01*
Y226122D01*
X87162Y225398D01*
X87441Y224724D01*
X87038Y224443D01*
X85272Y226210D01*
Y230315D01*
X85194Y230705D01*
X84973Y231036D01*
X82767Y233242D01*
X82959Y233704D01*
X114485D01*
X114637Y233204D01*
X114633Y233201D01*
X113700Y232268D01*
X113587Y232315D01*
X112791D01*
X112678Y232268D01*
X112138Y232808D01*
X111808Y233029D01*
X111417Y233106D01*
X101181D01*
X100791Y233029D01*
X100460Y232808D01*
X97901Y230248D01*
X97680Y229918D01*
X97602Y229528D01*
Y228725D01*
X97388Y228582D01*
X97009Y228015D01*
X96876Y227347D01*
Y223051D01*
X97009Y222383D01*
X97388Y221816D01*
X97954Y221438D01*
X98622Y221305D01*
X99290Y221438D01*
X99857Y221816D01*
X100235Y222383D01*
X100368Y223051D01*
Y227347D01*
X100235Y228015D01*
X99857Y228582D01*
X99752Y228651D01*
X99718Y229181D01*
X101603Y231067D01*
X110824D01*
X111189Y230713D01*
Y229917D01*
X111494Y229182D01*
X112056Y228619D01*
X112791Y228315D01*
X113587D01*
X114322Y228619D01*
X114884Y229182D01*
X115189Y229917D01*
Y230713D01*
X115142Y230826D01*
X115777Y231461D01*
X134027D01*
X136815Y228672D01*
Y216760D01*
X134185D01*
Y214130D01*
X132402D01*
X132011Y214052D01*
X131681Y213831D01*
X119459Y201610D01*
X111819D01*
Y203846D01*
X104717D01*
Y197335D01*
X111819D01*
Y199571D01*
X119882D01*
X120272Y199649D01*
X120603Y199870D01*
X132824Y212091D01*
X134185D01*
Y209461D01*
X136815D01*
Y206615D01*
X136426Y206511D01*
X135594Y206031D01*
X134914Y205351D01*
X134434Y204519D01*
X134185Y203591D01*
Y202630D01*
X134434Y201701D01*
X134914Y200869D01*
X135594Y200190D01*
X136426Y199709D01*
X137354Y199461D01*
X138315D01*
X139243Y199709D01*
X140076Y200190D01*
X140755Y200869D01*
X141235Y201701D01*
X141484Y202630D01*
Y203591D01*
X141235Y204519D01*
X140755Y205351D01*
X140076Y206031D01*
X139243Y206511D01*
X138854Y206615D01*
Y209461D01*
X141484D01*
Y216760D01*
X138854D01*
Y229095D01*
X138777Y229485D01*
X138556Y229815D01*
X135170Y233201D01*
X135166Y233204D01*
X135318Y233704D01*
X137302D01*
X137795Y233704D01*
D02*
G37*
G36*
X69792Y233242D02*
X66310Y229760D01*
X62176D01*
X62129Y229873D01*
X61566Y230436D01*
X61453Y230483D01*
Y231102D01*
X61375Y231492D01*
X61154Y231823D01*
X59736Y233242D01*
X59927Y233704D01*
X69600D01*
X69792Y233242D01*
D02*
G37*
G36*
X47548D02*
X44653Y230347D01*
X44432Y230016D01*
X44354Y229626D01*
Y228847D01*
X39854D01*
Y223909D01*
X44305D01*
Y223306D01*
X41507Y220508D01*
X39567D01*
X39177Y220430D01*
X38846Y220209D01*
X37271Y218634D01*
X37050Y218304D01*
X36972Y217913D01*
Y210827D01*
X37050Y210437D01*
X37271Y210106D01*
X40421Y206956D01*
X40751Y206735D01*
X41142Y206658D01*
X48593D01*
X49013Y206238D01*
X48729Y205815D01*
X41724D01*
Y203579D01*
X38984D01*
Y205815D01*
X36453D01*
Y228515D01*
X37678Y229740D01*
X37791Y229693D01*
X38587D01*
X39322Y229997D01*
X39884Y230560D01*
X40189Y231295D01*
Y232091D01*
X39884Y232826D01*
X39507Y233204D01*
X39714Y233704D01*
X47356D01*
X47548Y233242D01*
D02*
G37*
G36*
X83232Y229893D02*
Y225787D01*
X83310Y225397D01*
X83531Y225066D01*
X86236Y222361D01*
X86189Y222248D01*
Y221453D01*
X86493Y220718D01*
X87056Y220155D01*
X87769Y219860D01*
X87821Y219741D01*
X87926Y219350D01*
X87885Y219319D01*
X87441Y218740D01*
X87162Y218066D01*
X87067Y217342D01*
Y217027D01*
X86567Y216928D01*
X86480Y217138D01*
X85839Y217779D01*
X85047Y218107D01*
Y215846D01*
X84047D01*
Y218107D01*
X83256Y217779D01*
X82615Y217138D01*
X82223Y217345D01*
X82209Y217355D01*
X82209Y217355D01*
X81555Y217626D01*
X80863D01*
X79067Y219422D01*
X78737Y219643D01*
X78347Y219720D01*
X67126D01*
X66736Y219643D01*
X66405Y219422D01*
X64609Y217626D01*
X64131D01*
X59776Y221981D01*
X59445Y222202D01*
X59055Y222279D01*
X47244D01*
X46854Y222202D01*
X46523Y221981D01*
X46142Y222306D01*
X46267Y222494D01*
X46344Y222884D01*
Y223909D01*
X50697D01*
Y228847D01*
X46738D01*
X46536Y229346D01*
X49241Y232051D01*
X54055D01*
X54225Y231551D01*
X53830Y231248D01*
X53386Y230669D01*
X53107Y229995D01*
X53012Y229272D01*
Y228197D01*
X55807D01*
Y227697D01*
X56307D01*
Y223392D01*
X56531Y223422D01*
X57205Y223701D01*
X57784Y224145D01*
X58228Y224724D01*
X58507Y225398D01*
X58603Y226122D01*
Y227035D01*
X59103Y227242D01*
X59300Y227045D01*
X60035Y226740D01*
X60831D01*
X61566Y227045D01*
X62129Y227607D01*
X62176Y227721D01*
X66732D01*
X67123Y227798D01*
X67453Y228019D01*
X71666Y232232D01*
X80893D01*
X83232Y229893D01*
D02*
G37*
G36*
X36871Y233204D02*
X36494Y232826D01*
X36189Y232091D01*
Y231295D01*
X36236Y231182D01*
X34712Y229658D01*
X34491Y229327D01*
X34413Y228937D01*
Y205815D01*
X31882D01*
Y203579D01*
X31299D01*
X30909Y203501D01*
X30578Y203280D01*
X28216Y200918D01*
X27995Y200587D01*
X27917Y200197D01*
Y169802D01*
X27665Y169551D01*
X27437Y168999D01*
Y168402D01*
X27665Y167851D01*
X27917Y167599D01*
Y161811D01*
X27995Y161421D01*
X28216Y161090D01*
X29988Y159318D01*
X30318Y159097D01*
X30709Y159020D01*
X34146D01*
Y158358D01*
X37311D01*
Y161721D01*
X34146D01*
Y161059D01*
X31131D01*
X29957Y162233D01*
Y167599D01*
X30209Y167851D01*
X30437Y168402D01*
Y168999D01*
X30209Y169551D01*
X29957Y169802D01*
Y199775D01*
X31382Y201200D01*
X31882Y200993D01*
Y199303D01*
X38984D01*
Y201539D01*
X41724D01*
Y199303D01*
X48827D01*
Y205717D01*
X49250Y206001D01*
X50358Y204893D01*
Y198936D01*
X50106Y198684D01*
X49878Y198133D01*
Y197536D01*
X50106Y196985D01*
X50528Y196563D01*
X51080Y196335D01*
X51676D01*
X52228Y196563D01*
X52650Y196985D01*
X52878Y197536D01*
Y198133D01*
X52650Y198684D01*
X52398Y198936D01*
Y205315D01*
X52320Y205705D01*
X52099Y206036D01*
X49737Y208398D01*
X49406Y208619D01*
X49016Y208697D01*
X41564D01*
X39012Y211249D01*
Y217491D01*
X39989Y218469D01*
X41929D01*
X42319Y218546D01*
X42650Y218767D01*
X44070Y220187D01*
X44459Y219869D01*
X44334Y219682D01*
X44256Y219291D01*
Y217035D01*
X39854D01*
Y212098D01*
X50697D01*
Y217035D01*
X46295D01*
Y218869D01*
X47666Y220240D01*
X54128D01*
X54382Y219793D01*
X54379Y219740D01*
X53830Y219319D01*
X53386Y218740D01*
X53107Y218066D01*
X53012Y217342D01*
Y214890D01*
X55807D01*
Y214390D01*
X56307D01*
Y208707D01*
X56531Y208737D01*
X57205Y209016D01*
X57784Y209460D01*
X58228Y210039D01*
X58342Y210315D01*
X58842Y210216D01*
Y210078D01*
X59190Y209240D01*
X59831Y208599D01*
X60622Y208271D01*
Y210531D01*
X61622D01*
Y208271D01*
X62413Y208599D01*
X63055Y209240D01*
X63446Y209033D01*
X63460Y209023D01*
X63460Y209023D01*
X64114Y208752D01*
X64823D01*
X65477Y209023D01*
X65827Y209374D01*
X66142Y209472D01*
X66456Y209374D01*
X66807Y209023D01*
X67461Y208752D01*
X68169D01*
X68823Y209023D01*
X69174Y209374D01*
X69488Y209472D01*
X69803Y209374D01*
X70153Y209023D01*
X70807Y208752D01*
X71515D01*
X72169Y209023D01*
X72520Y209374D01*
X72835Y209472D01*
X73149Y209374D01*
X73500Y209023D01*
X74154Y208752D01*
X74862D01*
X75516Y209023D01*
X75867Y209374D01*
X76181Y209472D01*
X76496Y209374D01*
X76846Y209023D01*
X77500Y208752D01*
X78208D01*
X78862Y209023D01*
X79213Y209374D01*
X79528Y209472D01*
X79842Y209374D01*
X80193Y209023D01*
X80847Y208752D01*
X81555D01*
X81768Y208840D01*
X82268Y208506D01*
Y208252D01*
X84047D01*
Y210531D01*
X85047D01*
Y208252D01*
X86827D01*
Y210216D01*
X87327Y210315D01*
X87441Y210039D01*
X87885Y209460D01*
X88464Y209016D01*
X89139Y208737D01*
X89362Y208707D01*
Y214390D01*
X89862D01*
Y214890D01*
X92658D01*
Y216611D01*
X93158Y216818D01*
X94948Y215027D01*
X95279Y214806D01*
X95669Y214728D01*
X96910D01*
Y211885D01*
X97602D01*
Y209281D01*
X95736Y207414D01*
X95515Y207083D01*
X95437Y206693D01*
Y203846D01*
X92905D01*
Y197335D01*
X99768D01*
Y196366D01*
X92905D01*
Y196366D01*
X92405Y196241D01*
X89697Y198949D01*
X89367Y199170D01*
X88976Y199248D01*
X76772D01*
X76381Y199170D01*
X76051Y198949D01*
X73689Y196587D01*
X73467Y196256D01*
X73390Y195866D01*
Y191170D01*
X72028Y189809D01*
X68259D01*
X68006Y190259D01*
X68023Y190340D01*
X68054Y190361D01*
X68339Y190787D01*
X68439Y191289D01*
X68339Y191792D01*
X68054Y192218D01*
X68023Y192239D01*
Y192840D01*
X68054Y192861D01*
X68339Y193287D01*
X68439Y193789D01*
X68339Y194292D01*
X68054Y194718D01*
X68023Y194739D01*
Y195340D01*
X68054Y195361D01*
X68339Y195787D01*
X68439Y196289D01*
X68339Y196792D01*
X68054Y197218D01*
X67628Y197502D01*
X67126Y197602D01*
X59842D01*
X59340Y197502D01*
X59051Y197309D01*
X56102D01*
X55744Y197666D01*
Y204804D01*
X55996Y205056D01*
X56224Y205607D01*
Y206204D01*
X55996Y206755D01*
X55574Y207177D01*
X55023Y207405D01*
X54426D01*
X53875Y207177D01*
X53453Y206755D01*
X53224Y206204D01*
Y205607D01*
X53453Y205056D01*
X53705Y204804D01*
Y197244D01*
X53782Y196854D01*
X54003Y196523D01*
X54958Y195568D01*
X55289Y195347D01*
X55679Y195270D01*
X58710D01*
X58962Y194820D01*
X58946Y194739D01*
X58914Y194718D01*
X58630Y194292D01*
X58530Y193789D01*
X58630Y193287D01*
X58914Y192861D01*
X58946Y192840D01*
X58962Y192759D01*
X58710Y192309D01*
X55580D01*
X55328Y192561D01*
X54777Y192789D01*
X54180D01*
X53629Y192561D01*
X53207Y192139D01*
X52978Y191588D01*
Y191231D01*
X52822Y191075D01*
X52601Y190744D01*
X52524Y190354D01*
Y188394D01*
X50386D01*
Y183653D01*
X56701D01*
Y188394D01*
X54563D01*
Y189789D01*
X54777D01*
X55328Y190018D01*
X55580Y190270D01*
X58710D01*
X58962Y189820D01*
X58946Y189739D01*
X58914Y189717D01*
X58630Y189292D01*
X58530Y188789D01*
X58630Y188287D01*
X58914Y187861D01*
X58946Y187840D01*
Y187239D01*
X58914Y187217D01*
X58630Y186792D01*
X58530Y186289D01*
X58630Y185787D01*
X58656Y185748D01*
X58554Y185078D01*
X58159Y184487D01*
X58120Y184289D01*
X63484D01*
Y183289D01*
X58120D01*
X58159Y183092D01*
X58554Y182501D01*
X58656Y181831D01*
X58630Y181792D01*
X58530Y181289D01*
X58630Y180787D01*
X58914Y180361D01*
X58946Y180340D01*
Y179739D01*
X58914Y179718D01*
X58630Y179292D01*
X58530Y178789D01*
X58630Y178287D01*
X58914Y177861D01*
X58946Y177840D01*
Y177239D01*
X58914Y177217D01*
X58630Y176792D01*
X58530Y176289D01*
X58630Y175787D01*
X58914Y175361D01*
X58946Y175340D01*
X58962Y175259D01*
X58710Y174809D01*
X46909D01*
X46295Y175422D01*
Y176272D01*
X48138D01*
Y181602D01*
X42413D01*
Y176272D01*
X44256D01*
Y175000D01*
X44334Y174610D01*
X44555Y174279D01*
X45765Y173068D01*
X46096Y172847D01*
X46438Y172779D01*
X46389Y172279D01*
X38414D01*
X36453Y174241D01*
Y176272D01*
X38295D01*
Y181602D01*
X32571D01*
Y176272D01*
X34413D01*
Y173819D01*
X34491Y173429D01*
X34712Y173098D01*
X37271Y170539D01*
X37602Y170318D01*
X37992Y170240D01*
X67323D01*
X67682Y169802D01*
X67594Y169590D01*
Y168993D01*
X67823Y168442D01*
X68245Y168020D01*
X68796Y167791D01*
X69393D01*
X69944Y168020D01*
X70196Y168272D01*
X84646D01*
X85036Y168349D01*
X85367Y168570D01*
X89107Y172310D01*
X89328Y172641D01*
X89405Y173031D01*
Y177362D01*
X89328Y177752D01*
X89107Y178083D01*
X87680Y179510D01*
X87349Y179731D01*
X86959Y179809D01*
X86707Y180259D01*
X86723Y180340D01*
X86755Y180361D01*
X87040Y180787D01*
X87139Y181289D01*
X87040Y181792D01*
X86755Y182218D01*
X86723Y182239D01*
X86707Y182320D01*
X86959Y182770D01*
X87639D01*
X90618Y179791D01*
X90948Y179570D01*
X91339Y179492D01*
X93094D01*
Y176820D01*
X92679Y176542D01*
X92626Y176564D01*
Y174606D01*
X92126D01*
Y174106D01*
X90168D01*
X90430Y173473D01*
X90904Y173000D01*
X90981Y172794D01*
X90940Y172392D01*
X90658Y172109D01*
X90429Y171558D01*
Y171202D01*
X88649Y169422D01*
X88428Y169091D01*
X88350Y168701D01*
Y161141D01*
X88098Y160889D01*
X87870Y160338D01*
Y159741D01*
X88002Y159423D01*
X87578Y159140D01*
X82611Y164107D01*
X82280Y164328D01*
X81890Y164405D01*
X79634D01*
Y166248D01*
X74303D01*
Y160524D01*
X79634D01*
Y162366D01*
X81467D01*
X88255Y155578D01*
X88586Y155357D01*
X88976Y155280D01*
X96457D01*
X96847Y155357D01*
X97178Y155578D01*
X102099Y160500D01*
X102320Y160830D01*
X102398Y161221D01*
Y163865D01*
X102614Y164086D01*
X102844Y164043D01*
X103114Y163858D01*
Y150894D01*
X102130D01*
X102063Y150952D01*
X101837Y151394D01*
X101992Y151769D01*
Y152365D01*
X101764Y152917D01*
X101342Y153339D01*
X100791Y153567D01*
X100194D01*
X99642Y153339D01*
X99221Y152917D01*
X98992Y152365D01*
Y152009D01*
X97507Y150524D01*
X97286Y150193D01*
X97209Y149803D01*
Y137224D01*
X96709Y137017D01*
X96098Y137627D01*
Y143780D01*
X96350Y144032D01*
X96579Y144583D01*
Y145180D01*
X96350Y145732D01*
X95928Y146153D01*
X95377Y146382D01*
X94780D01*
X94229Y146153D01*
X93807Y145732D01*
X93593Y145214D01*
X93558Y145202D01*
X93052Y145370D01*
X93026Y145499D01*
X92677Y146023D01*
X92153Y146373D01*
X91536Y146496D01*
X87205D01*
X86587Y146373D01*
X86064Y146023D01*
X85714Y145499D01*
X85591Y144882D01*
X85714Y144264D01*
X86064Y143741D01*
X86263Y143608D01*
Y143006D01*
X86064Y142873D01*
X85714Y142350D01*
X85591Y141732D01*
X85714Y141115D01*
X86064Y140591D01*
X86263Y140458D01*
Y139857D01*
X86064Y139724D01*
X85714Y139200D01*
X85591Y138583D01*
X85714Y137965D01*
X85909Y137673D01*
X85847Y137031D01*
X85703Y136935D01*
X85243Y136246D01*
X85181Y135933D01*
X89370D01*
Y134933D01*
X85181D01*
X85243Y134620D01*
X85703Y133932D01*
X85847Y133835D01*
X85869Y133751D01*
X85617Y133303D01*
X83465D01*
X83074Y133226D01*
X82744Y133004D01*
X82341Y132602D01*
X81985D01*
X81434Y132374D01*
X81012Y131952D01*
X80783Y131401D01*
Y130804D01*
X81012Y130253D01*
X81434Y129831D01*
X81985Y129602D01*
X82582D01*
X83133Y129831D01*
X83555Y130253D01*
X83784Y130804D01*
Y131160D01*
X83887Y131264D01*
X85983D01*
X86064Y131142D01*
X86263Y131009D01*
Y130408D01*
X86064Y130275D01*
X85714Y129751D01*
X85591Y129134D01*
X85714Y128516D01*
X86064Y127993D01*
X86263Y127860D01*
Y127388D01*
X85868Y127004D01*
X72470D01*
X63319Y136154D01*
X62989Y136375D01*
X62598Y136453D01*
X60053D01*
X59801Y136901D01*
X59822Y136985D01*
X59966Y137081D01*
X60426Y137770D01*
X60489Y138083D01*
X56299D01*
X52110D01*
X52172Y137770D01*
X52632Y137081D01*
X52776Y136985D01*
X52798Y136901D01*
X52546Y136453D01*
X48847D01*
X44807Y140493D01*
Y140849D01*
X44579Y141401D01*
X44157Y141823D01*
X43967Y141902D01*
X43776Y142513D01*
X43889Y142681D01*
X48819D01*
X49209Y142759D01*
X49540Y142980D01*
X52152Y145591D01*
X52612Y145345D01*
X52520Y144882D01*
X52643Y144264D01*
X52993Y143741D01*
X53192Y143608D01*
Y143006D01*
X52993Y142873D01*
X52643Y142350D01*
X52520Y141732D01*
X52643Y141115D01*
X52838Y140823D01*
X52776Y140180D01*
X52632Y140084D01*
X52172Y139395D01*
X52110Y139083D01*
X56299D01*
X60489D01*
X60426Y139395D01*
X59966Y140084D01*
X59822Y140180D01*
X59760Y140823D01*
X59955Y141115D01*
X60078Y141732D01*
X59955Y142350D01*
X59606Y142873D01*
X59406Y143006D01*
Y143608D01*
X59606Y143741D01*
X59955Y144264D01*
X60078Y144882D01*
X59955Y145499D01*
X59606Y146023D01*
X59082Y146373D01*
X58465Y146496D01*
X54134D01*
X53671Y146403D01*
X53424Y146864D01*
X54950Y148390D01*
X56772D01*
X57024Y148138D01*
X57576Y147909D01*
X58172D01*
X58724Y148138D01*
X59146Y148560D01*
X59374Y149111D01*
Y149708D01*
X59146Y150259D01*
X58724Y150681D01*
X58172Y150909D01*
X57576D01*
X57024Y150681D01*
X56772Y150429D01*
X54528D01*
X54165Y150357D01*
X54122Y150356D01*
X54081Y150369D01*
X53619Y150607D01*
X53437Y151047D01*
X53015Y151469D01*
X52464Y151697D01*
X51867D01*
X51316Y151469D01*
X50894Y151047D01*
X50665Y150495D01*
Y150139D01*
X50160Y149633D01*
X49759Y149880D01*
X49728Y149909D01*
Y150495D01*
X49500Y151047D01*
X49248Y151299D01*
Y154323D01*
X50598D01*
Y160638D01*
X45858D01*
Y158500D01*
X44594D01*
Y159161D01*
X41429D01*
Y155799D01*
X44594D01*
Y156461D01*
X45858D01*
Y154323D01*
X47209D01*
Y151299D01*
X46957Y151047D01*
X46728Y150495D01*
Y149899D01*
X46957Y149347D01*
X47379Y148925D01*
X47930Y148697D01*
X48516D01*
X48545Y148667D01*
X48792Y148266D01*
X46822Y146295D01*
X42323D01*
X41933Y146218D01*
X41602Y145997D01*
X34515Y138910D01*
X34294Y138579D01*
X34217Y138189D01*
Y118729D01*
X21992Y106504D01*
X21771Y106174D01*
X21693Y105783D01*
Y95379D01*
X12740Y86426D01*
X12519Y86095D01*
X12441Y85705D01*
Y36914D01*
X11501Y35975D01*
X11250Y35745D01*
X10828Y35985D01*
X10383Y36431D01*
X9436Y36977D01*
X8381Y37260D01*
X8335D01*
Y33110D01*
X7335D01*
Y37260D01*
X7288D01*
X6233Y36977D01*
X5287Y36431D01*
X4669Y35813D01*
X4169Y36020D01*
Y41160D01*
X4669Y41294D01*
X4914Y40869D01*
X5594Y40190D01*
X6426Y39709D01*
X7354Y39461D01*
X8315D01*
X9243Y39709D01*
X10076Y40190D01*
X10755Y40869D01*
X11236Y41701D01*
X11484Y42630D01*
Y43591D01*
X11236Y44519D01*
X10755Y45351D01*
X10076Y46031D01*
X9243Y46511D01*
X8315Y46760D01*
X7354D01*
X6426Y46511D01*
X5594Y46031D01*
X4914Y45351D01*
X4669Y44927D01*
X4169Y45061D01*
Y51160D01*
X4669Y51294D01*
X4914Y50869D01*
X5594Y50190D01*
X6426Y49709D01*
X7354Y49461D01*
X8315D01*
X9243Y49709D01*
X10076Y50190D01*
X10755Y50869D01*
X11236Y51701D01*
X11484Y52630D01*
Y53591D01*
X11236Y54519D01*
X10755Y55351D01*
X10076Y56031D01*
X9243Y56511D01*
X8315Y56760D01*
X7354D01*
X6426Y56511D01*
X5594Y56031D01*
X4914Y55351D01*
X4669Y54927D01*
X4169Y55061D01*
Y61160D01*
X4669Y61294D01*
X4914Y60869D01*
X5594Y60190D01*
X6426Y59709D01*
X7354Y59461D01*
X8315D01*
X9243Y59709D01*
X10076Y60190D01*
X10755Y60869D01*
X11236Y61702D01*
X11484Y62630D01*
Y63591D01*
X11236Y64519D01*
X10755Y65351D01*
X10076Y66031D01*
X9243Y66511D01*
X8315Y66760D01*
X7354D01*
X6426Y66511D01*
X5594Y66031D01*
X4914Y65351D01*
X4669Y64927D01*
X4169Y65061D01*
Y71160D01*
X4669Y71294D01*
X4914Y70869D01*
X5594Y70190D01*
X6426Y69709D01*
X7354Y69461D01*
X8315D01*
X9243Y69709D01*
X10076Y70190D01*
X10755Y70869D01*
X11236Y71702D01*
X11484Y72630D01*
Y73591D01*
X11236Y74519D01*
X10755Y75351D01*
X10076Y76031D01*
X9243Y76511D01*
X8315Y76760D01*
X7354D01*
X6426Y76511D01*
X5594Y76031D01*
X4914Y75351D01*
X4669Y74927D01*
X4169Y75061D01*
Y81160D01*
X4669Y81294D01*
X4914Y80869D01*
X5594Y80190D01*
X6426Y79709D01*
X7354Y79461D01*
X8315D01*
X9243Y79709D01*
X10076Y80190D01*
X10755Y80869D01*
X11236Y81701D01*
X11484Y82630D01*
Y83591D01*
X11236Y84519D01*
X10755Y85351D01*
X10076Y86031D01*
X9243Y86511D01*
X8315Y86760D01*
X7354D01*
X6426Y86511D01*
X5594Y86031D01*
X4914Y85351D01*
X4669Y84927D01*
X4169Y85061D01*
Y91160D01*
X4669Y91294D01*
X4914Y90869D01*
X5594Y90190D01*
X6426Y89709D01*
X7354Y89461D01*
X8315D01*
X9243Y89709D01*
X10076Y90190D01*
X10755Y90869D01*
X11236Y91702D01*
X11484Y92630D01*
Y93591D01*
X11236Y94519D01*
X10755Y95351D01*
X10076Y96031D01*
X9243Y96511D01*
X8315Y96760D01*
X7354D01*
X6426Y96511D01*
X5594Y96031D01*
X4914Y95351D01*
X4669Y94927D01*
X4169Y95061D01*
Y101160D01*
X4669Y101294D01*
X4914Y100869D01*
X5594Y100190D01*
X6426Y99709D01*
X7354Y99461D01*
X8315D01*
X9243Y99709D01*
X10076Y100190D01*
X10755Y100869D01*
X11236Y101701D01*
X11484Y102630D01*
Y103591D01*
X11236Y104519D01*
X10755Y105351D01*
X10076Y106031D01*
X9243Y106511D01*
X8315Y106760D01*
X7354D01*
X6426Y106511D01*
X5594Y106031D01*
X4914Y105351D01*
X4669Y104927D01*
X4169Y105061D01*
Y111160D01*
X4669Y111294D01*
X4914Y110869D01*
X5594Y110190D01*
X6426Y109709D01*
X7354Y109461D01*
X8315D01*
X9243Y109709D01*
X10076Y110190D01*
X10755Y110869D01*
X11236Y111702D01*
X11484Y112630D01*
Y113591D01*
X11236Y114519D01*
X10755Y115351D01*
X10076Y116031D01*
X9243Y116511D01*
X8315Y116760D01*
X7354D01*
X6426Y116511D01*
X5594Y116031D01*
X4914Y115351D01*
X4669Y114927D01*
X4169Y115061D01*
Y121160D01*
X4669Y121294D01*
X4914Y120869D01*
X5594Y120190D01*
X6426Y119709D01*
X7354Y119461D01*
X8315D01*
X9243Y119709D01*
X10076Y120190D01*
X10755Y120869D01*
X11236Y121702D01*
X11484Y122630D01*
Y123591D01*
X11236Y124519D01*
X10755Y125351D01*
X10076Y126031D01*
X9243Y126511D01*
X8315Y126760D01*
X7354D01*
X6426Y126511D01*
X5594Y126031D01*
X4914Y125351D01*
X4669Y124927D01*
X4169Y125061D01*
Y131160D01*
X4669Y131294D01*
X4914Y130869D01*
X5594Y130190D01*
X6426Y129709D01*
X7354Y129461D01*
X8315D01*
X9243Y129709D01*
X10076Y130190D01*
X10755Y130869D01*
X11236Y131702D01*
X11484Y132630D01*
Y133591D01*
X11236Y134519D01*
X10755Y135351D01*
X10076Y136031D01*
X9243Y136511D01*
X8315Y136760D01*
X7354D01*
X6426Y136511D01*
X5594Y136031D01*
X4914Y135351D01*
X4669Y134927D01*
X4169Y135061D01*
Y141160D01*
X4669Y141294D01*
X4914Y140869D01*
X5594Y140190D01*
X6426Y139709D01*
X7354Y139461D01*
X8315D01*
X9243Y139709D01*
X10076Y140190D01*
X10755Y140869D01*
X11236Y141701D01*
X11484Y142630D01*
Y143591D01*
X11236Y144519D01*
X10755Y145351D01*
X10076Y146031D01*
X9243Y146511D01*
X8315Y146760D01*
X7354D01*
X6426Y146511D01*
X5594Y146031D01*
X4914Y145351D01*
X4669Y144927D01*
X4169Y145061D01*
Y151160D01*
X4669Y151294D01*
X4914Y150869D01*
X5594Y150190D01*
X6426Y149709D01*
X7354Y149461D01*
X8315D01*
X9243Y149709D01*
X10076Y150190D01*
X10755Y150869D01*
X11236Y151701D01*
X11484Y152630D01*
Y153591D01*
X11236Y154519D01*
X10755Y155351D01*
X10076Y156031D01*
X9243Y156511D01*
X8315Y156760D01*
X7354D01*
X6426Y156511D01*
X5594Y156031D01*
X4914Y155351D01*
X4669Y154927D01*
X4169Y155061D01*
Y161160D01*
X4669Y161294D01*
X4914Y160869D01*
X5594Y160190D01*
X6426Y159709D01*
X7354Y159461D01*
X8315D01*
X9243Y159709D01*
X10076Y160190D01*
X10755Y160869D01*
X11236Y161702D01*
X11484Y162630D01*
Y163591D01*
X11236Y164519D01*
X10755Y165351D01*
X10076Y166031D01*
X9243Y166511D01*
X8315Y166760D01*
X7354D01*
X6426Y166511D01*
X5594Y166031D01*
X4914Y165351D01*
X4669Y164927D01*
X4169Y165061D01*
Y171160D01*
X4669Y171294D01*
X4914Y170869D01*
X5594Y170190D01*
X6426Y169709D01*
X7354Y169461D01*
X8315D01*
X9243Y169709D01*
X10076Y170190D01*
X10755Y170869D01*
X11236Y171702D01*
X11484Y172630D01*
Y173591D01*
X11236Y174519D01*
X10755Y175351D01*
X10076Y176031D01*
X9243Y176511D01*
X8315Y176760D01*
X7354D01*
X6426Y176511D01*
X5594Y176031D01*
X4914Y175351D01*
X4669Y174927D01*
X4169Y175061D01*
Y181160D01*
X4669Y181294D01*
X4914Y180869D01*
X5594Y180190D01*
X6426Y179709D01*
X7354Y179461D01*
X8315D01*
X9243Y179709D01*
X10076Y180190D01*
X10755Y180869D01*
X11236Y181702D01*
X11484Y182630D01*
Y183591D01*
X11236Y184519D01*
X10755Y185351D01*
X10076Y186031D01*
X9243Y186511D01*
X8315Y186760D01*
X7354D01*
X6426Y186511D01*
X5594Y186031D01*
X4914Y185351D01*
X4669Y184927D01*
X4169Y185061D01*
Y191160D01*
X4669Y191294D01*
X4914Y190869D01*
X5594Y190190D01*
X6426Y189709D01*
X7354Y189461D01*
X8315D01*
X9243Y189709D01*
X10076Y190190D01*
X10755Y190869D01*
X11236Y191701D01*
X11484Y192630D01*
Y193591D01*
X11236Y194519D01*
X10755Y195351D01*
X10076Y196031D01*
X9243Y196511D01*
X8315Y196760D01*
X7354D01*
X6426Y196511D01*
X5594Y196031D01*
X4914Y195351D01*
X4669Y194927D01*
X4169Y195061D01*
Y198003D01*
X6077Y199911D01*
X6426Y199709D01*
X7354Y199461D01*
X8315D01*
X9243Y199709D01*
X10076Y200190D01*
X10755Y200869D01*
X11236Y201701D01*
X11484Y202630D01*
Y203591D01*
X11236Y204519D01*
X10755Y205351D01*
X10076Y206031D01*
X9243Y206511D01*
X8854Y206615D01*
Y209461D01*
X11484D01*
Y216760D01*
X4185D01*
Y209461D01*
X6815D01*
Y206615D01*
X6426Y206511D01*
X5594Y206031D01*
X4914Y205351D01*
X4434Y204519D01*
X4185Y203591D01*
Y202630D01*
X4434Y201701D01*
X4635Y201353D01*
X2979Y199696D01*
X2517Y199888D01*
Y228346D01*
X2490Y228481D01*
X2656Y229745D01*
X3196Y231047D01*
X4054Y232166D01*
X5173Y233025D01*
X6476Y233564D01*
X7382Y233683D01*
X7874Y233704D01*
X8374Y233704D01*
X36664D01*
X36871Y233204D01*
D02*
G37*
G36*
X88350Y194611D02*
Y189291D01*
X88098Y189039D01*
X87870Y188487D01*
Y187891D01*
X88098Y187339D01*
X88520Y186917D01*
X89072Y186689D01*
X89668D01*
X90220Y186917D01*
X90642Y187339D01*
X90870Y187891D01*
Y188487D01*
X91269Y188830D01*
X91617Y188686D01*
X92213D01*
X92765Y188915D01*
X93187Y189337D01*
X93401Y189854D01*
X95437D01*
Y187902D01*
X93594D01*
Y186659D01*
X93094Y186409D01*
X92626Y186603D01*
Y184646D01*
X92126D01*
Y184146D01*
X90168D01*
X90391Y183609D01*
X89967Y183326D01*
X88782Y184510D01*
X88451Y184731D01*
X88061Y184809D01*
X87589D01*
X87321Y185309D01*
X87511Y185592D01*
X87550Y185789D01*
X76820D01*
X76860Y185592D01*
X77255Y185001D01*
X77357Y184331D01*
X77331Y184292D01*
X77231Y183789D01*
X77331Y183287D01*
X77615Y182861D01*
X77647Y182840D01*
Y182239D01*
X77615Y182218D01*
X77331Y181792D01*
X77231Y181289D01*
X77331Y180787D01*
X77615Y180361D01*
X77647Y180340D01*
Y179739D01*
X77615Y179718D01*
X77331Y179292D01*
X77231Y178789D01*
X77331Y178287D01*
X77615Y177861D01*
X77647Y177840D01*
X77663Y177759D01*
X77411Y177309D01*
X74527D01*
X73491Y178344D01*
X73654Y178736D01*
Y179532D01*
X73349Y180267D01*
X72786Y180829D01*
X72051Y181134D01*
X71256D01*
X70521Y180829D01*
X70428Y180737D01*
X69966Y180929D01*
Y181713D01*
X76023Y187770D01*
X76781D01*
X77049Y187270D01*
X76860Y186987D01*
X76820Y186789D01*
X87550D01*
X87511Y186987D01*
X87115Y187578D01*
X87013Y188248D01*
X87040Y188287D01*
X87139Y188789D01*
X87040Y189292D01*
X86755Y189717D01*
X86723Y189739D01*
Y190340D01*
X86755Y190361D01*
X87040Y190787D01*
X87139Y191289D01*
X87040Y191792D01*
X86755Y192218D01*
X86723Y192239D01*
Y192840D01*
X86755Y192861D01*
X87040Y193287D01*
X87139Y193789D01*
X87040Y194292D01*
X86755Y194718D01*
X86723Y194739D01*
X86707Y194820D01*
X86959Y195270D01*
X87692D01*
X88350Y194611D01*
D02*
G37*
G36*
X70521Y177438D02*
X71256Y177134D01*
X71818D01*
X73383Y175568D01*
X73714Y175347D01*
X74104Y175270D01*
X75983D01*
X76033Y174770D01*
X75988Y174761D01*
X75657Y174540D01*
X75511Y174394D01*
X75398Y174441D01*
X74602D01*
X73867Y174136D01*
X73304Y173574D01*
X73000Y172839D01*
Y172043D01*
X73304Y171308D01*
X73802Y170811D01*
X73744Y170501D01*
X73648Y170311D01*
X70196D01*
X69944Y170563D01*
X69393Y170791D01*
X69003D01*
X68796Y171291D01*
X69668Y172163D01*
X69889Y172494D01*
X69966Y172884D01*
Y177339D01*
X70428Y177531D01*
X70521Y177438D01*
D02*
G37*
G36*
X96957Y173803D02*
X98676D01*
X98868Y173341D01*
X95530Y170004D01*
X95174D01*
X94623Y169776D01*
X94201Y169354D01*
X93972Y168802D01*
Y168206D01*
X94201Y167654D01*
X94623Y167232D01*
X95174Y167004D01*
X95771D01*
X96322Y167232D01*
X96574Y167484D01*
X102334D01*
X103114Y166704D01*
Y166192D01*
X102780Y166059D01*
X102614Y166042D01*
X102228Y166429D01*
X101676Y166657D01*
X101080D01*
X100528Y166429D01*
X100106Y166007D01*
X99878Y165456D01*
Y164859D01*
X100106Y164308D01*
X100358Y164056D01*
Y161643D01*
X96034Y157319D01*
X89399D01*
X88470Y158247D01*
X88753Y158671D01*
X89072Y158539D01*
X89668D01*
X90220Y158768D01*
X90642Y159190D01*
X90870Y159741D01*
Y160338D01*
X90642Y160889D01*
X90390Y161141D01*
Y168279D01*
X91871Y169760D01*
X92228D01*
X92779Y169988D01*
X93201Y170410D01*
X93429Y170961D01*
Y171558D01*
X93201Y172109D01*
X93034Y172276D01*
X93151Y172866D01*
X93259Y172911D01*
X93822Y173473D01*
X93958Y173803D01*
X95957D01*
Y176969D01*
X96957D01*
Y173803D01*
D02*
G37*
G36*
X41807Y140253D02*
X42035Y139701D01*
X42287Y139450D01*
Y137008D01*
X42321Y136840D01*
X41946Y136432D01*
X41932Y136426D01*
X41715Y136484D01*
X40962D01*
X40234Y136289D01*
X39581Y135912D01*
X39048Y135380D01*
X38671Y134727D01*
X38476Y133999D01*
Y133245D01*
X38671Y132517D01*
X39048Y131865D01*
X39581Y131332D01*
X40234Y130955D01*
X40962Y130760D01*
X41715D01*
X42443Y130955D01*
X42520Y130999D01*
X48255Y125263D01*
X48586Y125042D01*
X48976Y124965D01*
X52912D01*
X52993Y124843D01*
X53192Y124710D01*
Y124238D01*
X52797Y123854D01*
X49764D01*
X49374Y123777D01*
X49043Y123556D01*
X42759Y117272D01*
X38476D01*
Y111547D01*
X44201D01*
Y115830D01*
X50186Y121815D01*
X52912D01*
X52993Y121694D01*
X53516Y121344D01*
X54134Y121221D01*
X58465D01*
X59082Y121344D01*
X59606Y121694D01*
X59955Y122217D01*
X60078Y122835D01*
X59955Y123452D01*
X59606Y123976D01*
X59406Y124109D01*
Y124710D01*
X59606Y124843D01*
X59955Y125367D01*
X60078Y125984D01*
X59955Y126602D01*
X59606Y127125D01*
X59406Y127258D01*
Y127860D01*
X59606Y127993D01*
X59955Y128516D01*
X60078Y129134D01*
X59955Y129751D01*
X59760Y130043D01*
X59822Y130686D01*
X59966Y130782D01*
X60426Y131471D01*
X60489Y131783D01*
X56299D01*
Y132783D01*
X60489D01*
X60426Y133096D01*
X59966Y133785D01*
X59822Y133881D01*
X59801Y133965D01*
X60053Y134414D01*
X62176D01*
X71326Y125263D01*
X71657Y125042D01*
X72047Y124965D01*
X79627D01*
X79895Y124465D01*
X79881Y124445D01*
X72638D01*
X72248Y124367D01*
X71917Y124146D01*
X70539Y122768D01*
X70318Y122437D01*
X70240Y122047D01*
Y120710D01*
X70119Y120629D01*
X69986Y120430D01*
X69384D01*
X69251Y120629D01*
X68728Y120979D01*
X68110Y121102D01*
X67493Y120979D01*
X66969Y120629D01*
X66836Y120430D01*
X66235D01*
X66102Y120629D01*
X65578Y120979D01*
X64961Y121102D01*
X64343Y120979D01*
X63820Y120629D01*
X63687Y120430D01*
X63085D01*
X62952Y120629D01*
X62429Y120979D01*
X61811Y121102D01*
X61194Y120979D01*
X60670Y120629D01*
X60320Y120106D01*
X60197Y119488D01*
Y115157D01*
X60320Y114540D01*
X60670Y114016D01*
X61194Y113667D01*
X61811Y113544D01*
X62429Y113667D01*
X62952Y114016D01*
X63085Y114216D01*
X63687D01*
X63820Y114016D01*
X64343Y113667D01*
X64961Y113544D01*
X65578Y113667D01*
X66102Y114016D01*
X66235Y114216D01*
X66836D01*
X66969Y114016D01*
X67493Y113667D01*
X68110Y113544D01*
X68728Y113667D01*
X69251Y114016D01*
X69384Y114216D01*
X69986D01*
X70119Y114016D01*
X70642Y113667D01*
X71260Y113544D01*
X71877Y113667D01*
X72401Y114016D01*
X72534Y114216D01*
X73135D01*
X73268Y114016D01*
X73792Y113667D01*
X74410Y113544D01*
X75027Y113667D01*
X75551Y114016D01*
X75684Y114216D01*
X76156D01*
X76539Y113821D01*
Y113218D01*
X74578Y111256D01*
X67942D01*
X67642Y111556D01*
Y111913D01*
X67413Y112464D01*
X66991Y112886D01*
X66440Y113114D01*
X65843D01*
X65292Y112886D01*
X64870Y112464D01*
X64642Y111913D01*
Y111316D01*
X64870Y110765D01*
X64917Y110717D01*
X64726Y110213D01*
X64391Y110171D01*
X64236Y110327D01*
X63684Y110555D01*
X63087D01*
X62536Y110327D01*
X62114Y109905D01*
X61886Y109353D01*
Y108757D01*
X62114Y108205D01*
X62304Y108016D01*
X62097Y107516D01*
X51968D01*
X51578Y107438D01*
X51248Y107217D01*
X46428Y102398D01*
X29724D01*
X29334Y102320D01*
X29003Y102099D01*
X27027Y100122D01*
X26899D01*
X26347Y99894D01*
X25925Y99472D01*
X25697Y98920D01*
X25232Y99006D01*
Y104696D01*
X37532Y116996D01*
X37753Y117326D01*
X37831Y117717D01*
Y136979D01*
X41307Y140456D01*
X41807Y140253D01*
D02*
G37*
G36*
X86064Y124843D02*
X86263Y124710D01*
Y124109D01*
X86064Y123976D01*
X85714Y123452D01*
X85591Y122835D01*
X85714Y122217D01*
X86064Y121694D01*
X86587Y121344D01*
X87205Y121221D01*
X88350D01*
Y115777D01*
X85378Y112804D01*
X84878Y113011D01*
Y113935D01*
X84999Y114016D01*
X85349Y114540D01*
X85472Y115157D01*
Y119488D01*
X85349Y120106D01*
X84999Y120629D01*
X84476Y120979D01*
X83858Y121102D01*
X83241Y120979D01*
X82717Y120629D01*
X82584Y120430D01*
X81983D01*
X81850Y120629D01*
X81326Y120979D01*
X80709Y121102D01*
X80091Y120979D01*
X79568Y120629D01*
X79435Y120430D01*
X78833D01*
X78700Y120629D01*
X78177Y120979D01*
X77559Y121102D01*
X76942Y120979D01*
X76418Y120629D01*
X76285Y120430D01*
X75684D01*
X75551Y120629D01*
X75027Y120979D01*
X74410Y121102D01*
X73792Y120979D01*
X73268Y120629D01*
X73135Y120430D01*
X72663D01*
X72279Y120825D01*
Y121625D01*
X73060Y122406D01*
X80394D01*
X80646Y122154D01*
X81198Y121925D01*
X81794D01*
X82346Y122154D01*
X82768Y122575D01*
X82996Y123127D01*
Y123724D01*
X82768Y124275D01*
X82578Y124465D01*
X82785Y124965D01*
X85983D01*
X86064Y124843D01*
D02*
G37*
G36*
X128807Y117192D02*
X129137Y116971D01*
X129528Y116894D01*
X136089D01*
X136223Y116394D01*
X135594Y116031D01*
X134914Y115351D01*
X134434Y114519D01*
X134351Y114209D01*
X125816D01*
X123460Y116564D01*
Y121850D01*
X123663Y121975D01*
X123960Y122038D01*
X128807Y117192D01*
D02*
G37*
G36*
X116531Y132028D02*
X116323Y131528D01*
X116138D01*
X115402Y131223D01*
X114840Y130660D01*
X114578Y130028D01*
X116535D01*
Y129528D01*
X117035D01*
Y127570D01*
X117668Y127832D01*
X118231Y128395D01*
X118535Y129130D01*
Y129315D01*
X119035Y129523D01*
X121421Y127137D01*
Y116142D01*
X121499Y115752D01*
X121720Y115421D01*
X124673Y112468D01*
X125004Y112247D01*
X125394Y112169D01*
X134308D01*
X134434Y111702D01*
X134914Y110869D01*
X135594Y110190D01*
X136426Y109709D01*
X137354Y109461D01*
X138315D01*
X139243Y109709D01*
X140076Y110190D01*
X140755Y110869D01*
X141181Y111607D01*
X141595Y111558D01*
X141681Y111523D01*
Y108399D01*
X139592Y106310D01*
X139243Y106511D01*
X138315Y106760D01*
X137354D01*
X136426Y106511D01*
X135594Y106031D01*
X134914Y105351D01*
X134434Y104519D01*
X134185Y103591D01*
Y102630D01*
X134434Y101701D01*
X134914Y100869D01*
X135594Y100190D01*
X136426Y99709D01*
X137354Y99461D01*
X138315D01*
X139243Y99709D01*
X140076Y100190D01*
X140755Y100869D01*
X141235Y101701D01*
X141484Y102630D01*
Y103591D01*
X141235Y104519D01*
X141034Y104868D01*
X142691Y106524D01*
X143152Y106333D01*
Y8374D01*
X143152Y7874D01*
X143152Y7874D01*
X143132Y7382D01*
X143013Y6476D01*
X142473Y5173D01*
X141615Y4054D01*
X140496Y3196D01*
X139193Y2656D01*
X138287Y2537D01*
X137795Y2517D01*
X137795Y2517D01*
X137795Y2517D01*
X87092D01*
X86901Y2979D01*
X88713Y4791D01*
X88934Y5122D01*
X89012Y5512D01*
Y5987D01*
X89512Y6095D01*
X90226Y5380D01*
X91195Y4821D01*
X92275Y4532D01*
X92335D01*
Y8779D01*
Y13028D01*
X92275D01*
X91195Y12738D01*
X90226Y12179D01*
X89512Y11464D01*
X89012Y11572D01*
Y13622D01*
X88934Y14012D01*
X88713Y14343D01*
X86106Y16950D01*
X86327Y17333D01*
X86583Y18286D01*
Y19273D01*
X86327Y20226D01*
X85834Y21081D01*
X85136Y21779D01*
X84281Y22272D01*
X83854Y22387D01*
Y25326D01*
X90186Y31658D01*
X104421D01*
Y30602D01*
X112114D01*
Y31658D01*
X120079D01*
X120469Y31735D01*
X120800Y31956D01*
X125918Y37074D01*
X126139Y37405D01*
X126216Y37795D01*
Y109252D01*
X126139Y109642D01*
X125918Y109973D01*
X115586Y120304D01*
Y125591D01*
X115509Y125981D01*
X115288Y126312D01*
X111941Y129658D01*
X111611Y129879D01*
X111221Y129957D01*
X103769D01*
X101780Y131945D01*
X101988Y132445D01*
X116113D01*
X116531Y132028D01*
D02*
G37*
G36*
X93579Y133506D02*
Y133363D01*
X93807Y132812D01*
X94059Y132560D01*
Y110433D01*
X94137Y110043D01*
X94358Y109712D01*
X100752Y103318D01*
Y80147D01*
X99641Y79036D01*
X99075D01*
X98835Y79276D01*
X98835Y79903D01*
Y82203D01*
X98835Y82603D01*
X98835Y83103D01*
Y85403D01*
X98835Y85703D01*
X98835Y86203D01*
Y88503D01*
X98835Y88903D01*
X98835Y89403D01*
Y92003D01*
X92035D01*
Y91523D01*
X90544D01*
X90291Y91775D01*
X89740Y92003D01*
X89143D01*
X88592Y91775D01*
X88170Y91353D01*
X87942Y90802D01*
Y90205D01*
X88170Y89653D01*
X88592Y89231D01*
X88611Y89224D01*
Y88683D01*
X88592Y88675D01*
X88170Y88253D01*
X87942Y87701D01*
Y87105D01*
X88170Y86554D01*
X88592Y86132D01*
X88731Y86074D01*
Y85533D01*
X88592Y85475D01*
X88170Y85053D01*
X87942Y84501D01*
Y83905D01*
X88170Y83354D01*
X88592Y82932D01*
X88611Y82924D01*
Y82383D01*
X88592Y82375D01*
X88170Y81953D01*
X87942Y81401D01*
Y80805D01*
X88170Y80253D01*
X88592Y79831D01*
X88731Y79774D01*
Y79233D01*
X88592Y79175D01*
X88170Y78753D01*
X87942Y78202D01*
Y77605D01*
X88170Y77053D01*
X88592Y76631D01*
X89143Y76403D01*
X89740D01*
X90291Y76631D01*
X90544Y76884D01*
X91068D01*
X91535Y76803D01*
Y75303D01*
X95435D01*
X99335D01*
Y76803D01*
X99801Y76884D01*
X99950D01*
X100341Y76961D01*
X100671Y77182D01*
X102493Y79003D01*
X102714Y79334D01*
X102791Y79724D01*
Y103740D01*
X102714Y104130D01*
X102543Y104386D01*
X102688Y104886D01*
X103318D01*
X107248Y100956D01*
Y99516D01*
X104717D01*
Y93004D01*
X111819D01*
Y99516D01*
X109287D01*
Y101378D01*
X109210Y101768D01*
X108989Y102099D01*
X104461Y106626D01*
X104130Y106848D01*
X103740Y106925D01*
X102391D01*
X98067Y111249D01*
Y117491D01*
X98761Y118185D01*
X99117D01*
X99669Y118413D01*
X100091Y118835D01*
X100319Y119387D01*
Y119983D01*
X100091Y120535D01*
X99669Y120957D01*
X99117Y121185D01*
X98520D01*
X97969Y120957D01*
X97547Y120535D01*
X97319Y119983D01*
Y119627D01*
X96598Y118906D01*
X96098Y119114D01*
Y132560D01*
X96350Y132812D01*
X96579Y133363D01*
Y133556D01*
X97079Y133763D01*
X102626Y128216D01*
X102956Y127995D01*
X103347Y127917D01*
X110798D01*
X111322Y127394D01*
X111115Y126894D01*
X110922D01*
X110371Y126665D01*
X109949Y126243D01*
X109721Y125692D01*
Y125336D01*
X103610Y119225D01*
X103389Y118894D01*
X103311Y118504D01*
Y115854D01*
X101665D01*
Y108949D01*
X106996D01*
Y115854D01*
X105350D01*
Y118082D01*
X111162Y123894D01*
X111519D01*
X112070Y124122D01*
X112492Y124544D01*
X112721Y125095D01*
Y125288D01*
X113221Y125495D01*
X113547Y125168D01*
Y119882D01*
X113625Y119492D01*
X113846Y119161D01*
X124177Y108830D01*
Y38218D01*
X119656Y33697D01*
X117100D01*
X116892Y34197D01*
X117115Y34736D01*
X113200D01*
X113423Y34197D01*
X113215Y33697D01*
X112114D01*
Y34752D01*
X104421D01*
Y33697D01*
X89764D01*
X89374Y33619D01*
X89043Y33398D01*
X82114Y26469D01*
X81893Y26138D01*
X81815Y25748D01*
Y22387D01*
X81388Y22272D01*
X80533Y21779D01*
X79835Y21081D01*
X79342Y20226D01*
X79087Y19273D01*
Y18286D01*
X79342Y17333D01*
X79835Y16478D01*
X80533Y15780D01*
X81388Y15287D01*
X81277Y14799D01*
X80118D01*
X79728Y14721D01*
X79397Y14501D01*
X78844Y13947D01*
X78382Y14138D01*
Y28543D01*
X78304Y28934D01*
X78083Y29264D01*
X70508Y36840D01*
Y40945D01*
X70430Y41335D01*
X70209Y41666D01*
X67554Y44321D01*
Y48450D01*
X67908Y48803D01*
X68535Y48803D01*
X70835D01*
X71235Y48803D01*
X71735Y48803D01*
X73935D01*
X74335Y48803D01*
X74835Y48803D01*
X77135D01*
X77435Y48803D01*
X77935Y48803D01*
X80235D01*
X80635Y48803D01*
X81135Y48803D01*
X83435D01*
X83735Y48803D01*
X84235Y48803D01*
X86535D01*
X86935Y48803D01*
X87435Y48803D01*
X90035D01*
Y51147D01*
X90085Y51186D01*
X90535Y51331D01*
X94453Y47412D01*
Y41850D01*
X94201Y41598D01*
X93972Y41046D01*
Y40450D01*
X94201Y39898D01*
X94623Y39476D01*
X95174Y39248D01*
X95771D01*
X96322Y39476D01*
X96744Y39898D01*
X96972Y40450D01*
Y41046D01*
X96744Y41598D01*
X96492Y41850D01*
Y47835D01*
X96414Y48225D01*
X96193Y48556D01*
X92161Y52588D01*
Y57603D01*
X98835D01*
Y58084D01*
X100326D01*
X100578Y57832D01*
X101129Y57603D01*
X101726D01*
X102277Y57832D01*
X102699Y58254D01*
X102928Y58805D01*
Y59402D01*
X102699Y59953D01*
X102277Y60375D01*
X101726Y60603D01*
X101129D01*
X100578Y60375D01*
X100326Y60123D01*
X98882D01*
X98835Y60603D01*
Y60684D01*
X98882Y61184D01*
X103028D01*
Y61119D01*
X103256Y60568D01*
X103678Y60146D01*
X104229Y59917D01*
X104826D01*
X105377Y60146D01*
X105870Y59931D01*
Y51692D01*
X105618Y51440D01*
X105390Y50889D01*
Y50292D01*
X105618Y49741D01*
X106040Y49319D01*
X106477Y49138D01*
X106378Y48638D01*
X103921D01*
Y46563D01*
X107768D01*
Y48638D01*
X107402D01*
X107302Y49138D01*
X107739Y49319D01*
X108161Y49741D01*
X108390Y50292D01*
Y50889D01*
X108161Y51440D01*
X107909Y51692D01*
Y52312D01*
X108244Y52445D01*
X108409Y52461D01*
X108796Y52075D01*
X109347Y51846D01*
X109944D01*
X110495Y52075D01*
X110917Y52497D01*
X111146Y53048D01*
Y53645D01*
X110917Y54196D01*
X110665Y54448D01*
Y66535D01*
X110588Y66926D01*
X110367Y67256D01*
X108651Y68972D01*
X108858Y69472D01*
X111630D01*
Y72138D01*
X108268D01*
X104905D01*
Y69523D01*
X99760D01*
X99335Y69703D01*
Y71203D01*
X95435D01*
Y72203D01*
X99335D01*
Y72803D01*
Y74303D01*
X95435D01*
X91535D01*
Y71781D01*
X91073Y71590D01*
X70754Y91908D01*
Y93650D01*
X71108Y94003D01*
X71735Y94003D01*
X73935D01*
X74335Y94003D01*
X74835Y94003D01*
X77135D01*
X77435Y94003D01*
X77935Y94003D01*
X80235D01*
X80635Y94003D01*
X81135Y94003D01*
X83435D01*
X83735Y94003D01*
X84235Y94003D01*
X86535D01*
X86935Y94003D01*
X87435Y94003D01*
X90035D01*
Y100803D01*
X89554D01*
Y107017D01*
X89806Y107269D01*
X90035Y107820D01*
Y108417D01*
X89806Y108969D01*
X89384Y109390D01*
X88833Y109619D01*
X88236D01*
X87685Y109390D01*
X87263Y108969D01*
X87035Y108417D01*
Y107820D01*
X87263Y107269D01*
X87515Y107017D01*
Y101157D01*
X87161Y100803D01*
X86808D01*
X86454Y101157D01*
Y102294D01*
X86706Y102546D01*
X86935Y103098D01*
Y103694D01*
X86706Y104246D01*
X86284Y104668D01*
X85733Y104896D01*
X85136D01*
X84585Y104668D01*
X84163Y104246D01*
X84105Y104106D01*
X83564D01*
X83506Y104246D01*
X83084Y104668D01*
X82533Y104896D01*
X81936D01*
X81385Y104668D01*
X80963Y104246D01*
X80735Y103694D01*
Y103098D01*
X80963Y102546D01*
X81215Y102294D01*
Y101157D01*
X80862Y100803D01*
X80235Y100803D01*
X77935D01*
X77635Y100803D01*
X77135Y100803D01*
X74835D01*
X74435Y100803D01*
X73935Y100803D01*
X71735D01*
X71335Y100803D01*
X70835Y100803D01*
X68235D01*
Y100803D01*
X68055D01*
X67555Y100852D01*
Y102756D01*
X67543Y102816D01*
X68024Y102962D01*
X68217Y102497D01*
X68638Y102075D01*
X69190Y101847D01*
X69787D01*
X70338Y102075D01*
X70590Y102327D01*
X77362D01*
X77752Y102404D01*
X78083Y102626D01*
X90091Y114633D01*
X90312Y114964D01*
X90390Y115354D01*
Y121221D01*
X91536D01*
X92153Y121344D01*
X92677Y121694D01*
X93026Y122217D01*
X93149Y122835D01*
X93026Y123452D01*
X92677Y123976D01*
X92477Y124109D01*
Y124710D01*
X92677Y124843D01*
X93026Y125367D01*
X93149Y125984D01*
X93026Y126602D01*
X92677Y127125D01*
X92477Y127258D01*
Y127860D01*
X92677Y127993D01*
X93026Y128516D01*
X93149Y129134D01*
X93026Y129751D01*
X92677Y130275D01*
X92477Y130408D01*
Y131009D01*
X92677Y131142D01*
X93026Y131666D01*
X93149Y132283D01*
X93026Y132901D01*
X92831Y133193D01*
X92874Y133634D01*
X93079Y133772D01*
X93579Y133506D01*
D02*
G37*
G36*
X68035Y94003D02*
X68215D01*
X68715Y93956D01*
Y91486D01*
X68793Y91096D01*
X69014Y90765D01*
X90122Y69656D01*
Y59437D01*
X89622Y59230D01*
X89384Y59468D01*
X88833Y59696D01*
X88236D01*
X87685Y59468D01*
X87263Y59046D01*
X87255Y59027D01*
X86714D01*
X86706Y59046D01*
X86284Y59468D01*
X85733Y59696D01*
X85136D01*
X84585Y59468D01*
X84163Y59046D01*
X84105Y58906D01*
X83564D01*
X83506Y59046D01*
X83084Y59468D01*
X82533Y59696D01*
X81936D01*
X81385Y59468D01*
X80963Y59046D01*
X80955Y59027D01*
X80414D01*
X80406Y59046D01*
X79984Y59468D01*
X79433Y59696D01*
X78836D01*
X78285Y59468D01*
X77863Y59046D01*
X77805Y58906D01*
X77264D01*
X77206Y59046D01*
X76784Y59468D01*
X76233Y59696D01*
X75636D01*
X75085Y59468D01*
X74663Y59046D01*
X74435Y58494D01*
Y57898D01*
X74663Y57346D01*
X74915Y57094D01*
Y55957D01*
X74562Y55603D01*
X73935Y55603D01*
X71108Y55603D01*
X70754Y55957D01*
Y57094D01*
X71006Y57346D01*
X71235Y57898D01*
Y58494D01*
X71006Y59046D01*
X70584Y59468D01*
X70033Y59696D01*
X69436D01*
X68885Y59468D01*
X68463Y59046D01*
X68235Y58494D01*
Y57898D01*
X68463Y57346D01*
X68715Y57094D01*
Y55957D01*
X68362Y55603D01*
X67908D01*
X67554Y55957D01*
Y87205D01*
X67477Y87596D01*
X67256Y87927D01*
X64793Y90390D01*
X64462Y90610D01*
X64072Y90688D01*
X62722D01*
X61146Y92265D01*
Y92621D01*
X60917Y93173D01*
X60587Y93503D01*
X60698Y93932D01*
X60740Y94003D01*
X61735D01*
Y94003D01*
X61935D01*
Y94003D01*
X64935D01*
Y94003D01*
X65035D01*
Y94003D01*
X68035D01*
Y94003D01*
D02*
G37*
G36*
X55635Y94003D02*
X58378D01*
X58716Y93571D01*
X58714Y93512D01*
X58374Y93173D01*
X58146Y92621D01*
Y92024D01*
X58374Y91473D01*
X58796Y91051D01*
X59347Y90823D01*
X59704D01*
X61579Y88947D01*
X61910Y88727D01*
X62300Y88649D01*
X63649D01*
X65515Y86783D01*
Y55651D01*
X65035Y55603D01*
X64954D01*
X64454Y55651D01*
Y57094D01*
X64706Y57346D01*
X64935Y57898D01*
Y58494D01*
X64706Y59046D01*
X64284Y59468D01*
X63733Y59696D01*
X63136D01*
X62585Y59468D01*
X62163Y59046D01*
X62105Y58906D01*
X61564D01*
X61506Y59046D01*
X61084Y59468D01*
X60533Y59696D01*
X59936D01*
X59385Y59468D01*
X58963Y59046D01*
X58735Y58494D01*
Y57898D01*
X58963Y57346D01*
X59215Y57094D01*
Y55651D01*
X58735Y55603D01*
X58635D01*
Y55603D01*
X55635D01*
Y53223D01*
X52244D01*
X51991Y53475D01*
X51440Y53703D01*
X50843D01*
X50292Y53475D01*
X49870Y53053D01*
X49642Y52501D01*
Y51905D01*
X49870Y51354D01*
X50122Y51101D01*
Y38819D01*
X50200Y38429D01*
X50421Y38098D01*
X61815Y26704D01*
Y22387D01*
X61388Y22272D01*
X60533Y21779D01*
X59835Y21081D01*
X59342Y20226D01*
X59087Y19273D01*
Y18286D01*
X59342Y17333D01*
X59835Y16478D01*
X60533Y15780D01*
X61388Y15287D01*
X62341Y15032D01*
X63328D01*
X64281Y15287D01*
X65136Y15780D01*
X65834Y16478D01*
X66327Y17333D01*
X66583Y18286D01*
Y19273D01*
X66327Y20226D01*
X65834Y21081D01*
X65136Y21779D01*
X64281Y22272D01*
X63854Y22387D01*
Y27126D01*
X63777Y27516D01*
X63556Y27847D01*
X61979Y29424D01*
X62170Y29886D01*
X65129D01*
X71815Y23200D01*
Y22387D01*
X71388Y22272D01*
X70533Y21779D01*
X69836Y21081D01*
X69342Y20226D01*
X69087Y19273D01*
Y18286D01*
X69342Y17333D01*
X69836Y16478D01*
X70533Y15780D01*
X71388Y15287D01*
X72341Y15032D01*
X73328D01*
X74281Y15287D01*
X75136Y15780D01*
X75834Y16478D01*
X75843Y16493D01*
X76343Y16359D01*
Y13729D01*
X74664Y12051D01*
X74281Y12272D01*
X73328Y12528D01*
X72341D01*
X71388Y12272D01*
X70533Y11779D01*
X69836Y11081D01*
X69342Y10226D01*
X69087Y9273D01*
Y8286D01*
X69342Y7333D01*
X69836Y6478D01*
X70533Y5780D01*
X71388Y5287D01*
X72341Y5032D01*
X73328D01*
X74281Y5287D01*
X75136Y5780D01*
X75834Y6478D01*
X76327Y7333D01*
X76357Y7445D01*
X77165D01*
X77556Y7523D01*
X77886Y7744D01*
X78587Y8444D01*
X78963Y8325D01*
X79097Y8247D01*
X79342Y7333D01*
X79835Y6478D01*
X80533Y5780D01*
X81388Y5287D01*
X82341Y5032D01*
X83328D01*
X84281Y5287D01*
X85136Y5780D01*
X85834Y6478D01*
X86327Y7333D01*
X86472Y7875D01*
X86972Y7809D01*
Y5934D01*
X85027Y3988D01*
X51588D01*
X48359Y7217D01*
X48028Y7438D01*
X47638Y7516D01*
X46071D01*
Y8768D01*
X39756D01*
Y3831D01*
X46071D01*
Y5477D01*
X47216D01*
X49713Y2979D01*
X49522Y2517D01*
X8371D01*
X8367Y2517D01*
X7874Y2517D01*
X7382Y2537D01*
X6476Y2656D01*
X5173Y3196D01*
X4054Y4054D01*
X3196Y5173D01*
X2656Y6476D01*
X2537Y7382D01*
X2517Y7874D01*
X2517Y7874D01*
X2517Y8434D01*
X3017Y8641D01*
X3087Y8571D01*
X3639Y8343D01*
X3995D01*
X7547Y4791D01*
X7878Y4570D01*
X8268Y4492D01*
X26575D01*
X26965Y4570D01*
X27296Y4791D01*
X34871Y12366D01*
X39756D01*
Y10917D01*
X46071D01*
Y12366D01*
X50551D01*
X50685Y11866D01*
X50533Y11779D01*
X49836Y11081D01*
X49342Y10226D01*
X49087Y9273D01*
Y8286D01*
X49342Y7333D01*
X49836Y6478D01*
X50533Y5780D01*
X51388Y5287D01*
X52341Y5032D01*
X53328D01*
X54281Y5287D01*
X55136Y5780D01*
X55834Y6478D01*
X56327Y7333D01*
X56583Y8286D01*
Y9273D01*
X56327Y10226D01*
X55834Y11081D01*
X55136Y11779D01*
X54984Y11866D01*
X55118Y12366D01*
X56299D01*
X56689Y12444D01*
X57020Y12665D01*
X57816Y13461D01*
X58172D01*
X58724Y13689D01*
X59146Y14111D01*
X59374Y14662D01*
Y15259D01*
X59146Y15810D01*
X58724Y16232D01*
X58172Y16461D01*
X57576D01*
X57024Y16232D01*
X56602Y15810D01*
X56374Y15259D01*
Y14902D01*
X55877Y14405D01*
X54755D01*
X54621Y14905D01*
X55443Y15380D01*
X56234Y16171D01*
X56793Y17140D01*
X57083Y18220D01*
Y18280D01*
X52835D01*
X48587D01*
Y18220D01*
X48876Y17140D01*
X49435Y16171D01*
X50226Y15380D01*
X51049Y14905D01*
X50915Y14405D01*
X46071D01*
Y15854D01*
X43933D01*
Y18496D01*
X45382D01*
Y24811D01*
X43933D01*
Y26370D01*
X45382D01*
Y32685D01*
X43933D01*
Y34244D01*
X45382D01*
Y40559D01*
X43933D01*
Y42118D01*
X45382D01*
Y48433D01*
X43736D01*
Y49992D01*
X45382D01*
Y56307D01*
X43736D01*
Y57866D01*
X45382D01*
Y64181D01*
X44130D01*
Y65740D01*
X45382D01*
Y72055D01*
X43933D01*
Y72638D01*
X43855Y73028D01*
X43634Y73359D01*
X42847Y74146D01*
X42700Y74244D01*
X42852Y74744D01*
X45382D01*
Y79617D01*
X45848Y80084D01*
X46481D01*
X46835Y79730D01*
X46835Y79103D01*
Y76803D01*
X46835Y76403D01*
X46835Y75903D01*
Y73703D01*
X46835Y73303D01*
X46835Y72803D01*
Y70503D01*
X46835Y70203D01*
X46835Y69703D01*
Y67403D01*
X46835Y67003D01*
X46835Y66503D01*
Y64203D01*
X46835Y63903D01*
X46835Y63403D01*
Y61103D01*
X46835Y60703D01*
X46835Y60203D01*
Y57603D01*
X48934D01*
X49076Y57103D01*
X48925Y56952D01*
X48697Y56401D01*
Y55804D01*
X48925Y55253D01*
X49347Y54831D01*
X49898Y54602D01*
X50495D01*
X51047Y54831D01*
X51468Y55253D01*
X51697Y55804D01*
Y56401D01*
X51468Y56952D01*
X51317Y57103D01*
X51460Y57603D01*
X53635D01*
X53635Y60830D01*
X53988Y61184D01*
X55126D01*
X55378Y60931D01*
X55929Y60703D01*
X56526D01*
X57077Y60931D01*
X57499Y61353D01*
X57728Y61905D01*
Y62502D01*
X57499Y63053D01*
X57077Y63475D01*
X56938Y63533D01*
Y64074D01*
X57077Y64131D01*
X57499Y64553D01*
X57728Y65105D01*
Y65702D01*
X57499Y66253D01*
X57077Y66675D01*
X57059Y66683D01*
Y67224D01*
X57077Y67232D01*
X57499Y67654D01*
X57728Y68205D01*
Y68801D01*
X57499Y69353D01*
X57077Y69775D01*
X56938Y69833D01*
Y70374D01*
X57077Y70432D01*
X57499Y70854D01*
X57728Y71405D01*
Y72001D01*
X57499Y72553D01*
X57077Y72975D01*
X56526Y73203D01*
X55929D01*
X55378Y72975D01*
X55126Y72723D01*
X53988D01*
X53635Y73076D01*
X53635Y73703D01*
X53635Y76530D01*
X53988Y76884D01*
X55126D01*
X55378Y76631D01*
X55929Y76403D01*
X56526D01*
X57077Y76631D01*
X57499Y77053D01*
X57728Y77605D01*
Y78202D01*
X57499Y78753D01*
X57077Y79175D01*
X56938Y79233D01*
Y79774D01*
X57077Y79831D01*
X57499Y80253D01*
X57728Y80805D01*
Y81401D01*
X57499Y81953D01*
X57077Y82375D01*
X57059Y82383D01*
Y82924D01*
X57077Y82932D01*
X57499Y83354D01*
X57728Y83905D01*
Y84501D01*
X57499Y85053D01*
X57077Y85475D01*
X56938Y85533D01*
Y86074D01*
X57077Y86132D01*
X57499Y86554D01*
X57728Y87105D01*
Y87701D01*
X57499Y88253D01*
X57077Y88675D01*
X57059Y88683D01*
Y89224D01*
X57077Y89231D01*
X57499Y89653D01*
X57728Y90205D01*
Y90802D01*
X57499Y91353D01*
X57077Y91775D01*
X56526Y92003D01*
X55929D01*
X55378Y91775D01*
X55126Y91523D01*
X53635D01*
Y92003D01*
X46835D01*
Y91523D01*
X39536D01*
X39283Y91775D01*
X38732Y92003D01*
X38135D01*
X37584Y91775D01*
X37332Y91523D01*
X34026D01*
X33819Y92023D01*
X34477Y92681D01*
X35119D01*
X35371Y92429D01*
X35922Y92201D01*
X36519D01*
X37070Y92429D01*
X37322Y92681D01*
X48622D01*
X49012Y92759D01*
X49343Y92980D01*
X52747Y96384D01*
X55635D01*
Y94003D01*
D02*
G37*
G36*
X41867Y82980D02*
X42418Y82752D01*
X43015D01*
X43566Y82980D01*
X43794Y83208D01*
X46481D01*
X46835Y82854D01*
Y82476D01*
X46481Y82123D01*
X45426D01*
X45036Y82045D01*
X44705Y81824D01*
X43940Y81059D01*
X40445D01*
Y74945D01*
X40445Y74744D01*
X40069Y74445D01*
X38671D01*
X38295Y74744D01*
Y81059D01*
X33358D01*
Y78921D01*
X32232D01*
X31842Y78844D01*
X31511Y78623D01*
X30578Y77689D01*
X30357Y77359D01*
X30280Y76968D01*
Y76024D01*
X30260Y76011D01*
X29760Y76278D01*
Y80089D01*
X32903Y83232D01*
X41615D01*
X41867Y82980D01*
D02*
G37*
G36*
X55635Y48803D02*
X58635D01*
Y48803D01*
X58715D01*
X59215Y48756D01*
Y43531D01*
X57350Y41666D01*
X57129Y41335D01*
X57051Y40945D01*
Y35005D01*
X56589Y34813D01*
X52161Y39241D01*
Y51101D01*
X52244Y51184D01*
X55635D01*
Y48803D01*
D02*
G37*
G36*
X61915Y48803D02*
X62415Y48756D01*
Y43849D01*
X62493Y43459D01*
X62714Y43128D01*
X66303Y39538D01*
Y38707D01*
X66091Y38295D01*
X60366D01*
Y33855D01*
X59904Y33664D01*
X59091Y34477D01*
Y40523D01*
X60956Y42388D01*
X61177Y42718D01*
X61254Y43109D01*
Y48756D01*
X61735Y48803D01*
X61915D01*
D02*
G37*
G36*
X66602Y34318D02*
X69366Y31554D01*
Y31198D01*
X69595Y30646D01*
X70016Y30224D01*
X70568Y29996D01*
X71165D01*
X71716Y30224D01*
X72138Y30646D01*
X72366Y31198D01*
Y31390D01*
X72866Y31597D01*
X76343Y28121D01*
Y21200D01*
X75843Y21066D01*
X75834Y21081D01*
X75136Y21779D01*
X74281Y22272D01*
X73854Y22387D01*
Y23622D01*
X73777Y24012D01*
X73556Y24343D01*
X66272Y31626D01*
X65941Y31848D01*
X65551Y31925D01*
X61924D01*
X61818Y32071D01*
X62072Y32571D01*
X66091D01*
Y34184D01*
X66590Y34335D01*
X66602Y34318D01*
D02*
G37*
G36*
X17484Y85414D02*
Y34843D01*
X17562Y34452D01*
X17783Y34122D01*
X30972Y20933D01*
X31303Y20712D01*
X31693Y20634D01*
X33358D01*
Y18496D01*
X38295D01*
Y24811D01*
X33358D01*
Y22673D01*
X32115D01*
X19523Y35265D01*
Y37776D01*
X20023Y37983D01*
X29200Y28807D01*
X29531Y28586D01*
X29921Y28508D01*
X33358D01*
Y26370D01*
X38295D01*
Y32685D01*
X33358D01*
Y30547D01*
X30344D01*
X21295Y39595D01*
Y44129D01*
X21757Y44321D01*
X29397Y36681D01*
X29728Y36460D01*
X30118Y36382D01*
X33358D01*
Y34244D01*
X38295D01*
Y40559D01*
X33358D01*
Y38421D01*
X30540D01*
X22870Y46092D01*
Y50572D01*
X23370Y50779D01*
X29791Y44358D01*
X30122Y44137D01*
X30512Y44059D01*
X33358D01*
Y42118D01*
X38295D01*
Y48433D01*
X33358D01*
Y46098D01*
X30934D01*
X24642Y52391D01*
Y55493D01*
X25142Y55700D01*
X28413Y52429D01*
X28744Y52208D01*
X29134Y52130D01*
X33358D01*
Y49992D01*
X38295D01*
Y56307D01*
X33358D01*
Y54169D01*
X29556D01*
X26413Y57312D01*
Y62633D01*
X26875Y62825D01*
X29397Y60303D01*
X29728Y60082D01*
X30118Y60004D01*
X33358D01*
Y57866D01*
X38295D01*
Y64181D01*
X33358D01*
Y62043D01*
X30540D01*
X27988Y64596D01*
Y69076D01*
X28488Y69283D01*
X29594Y68177D01*
X29925Y67956D01*
X30315Y67878D01*
X33358D01*
Y65740D01*
X38295D01*
Y72055D01*
X38650Y72406D01*
X40090D01*
X40445Y72055D01*
Y65740D01*
X42091D01*
Y64181D01*
X40445D01*
Y57866D01*
X41697D01*
Y56307D01*
X40445D01*
Y49992D01*
X41697D01*
Y48433D01*
X40445D01*
Y42118D01*
X41894D01*
Y40559D01*
X40445D01*
Y34244D01*
X41894D01*
Y32685D01*
X40445D01*
Y26370D01*
X41894D01*
Y24811D01*
X40445D01*
Y18496D01*
X41894D01*
Y15854D01*
X39756D01*
Y14405D01*
X34449D01*
X34059Y14328D01*
X33728Y14107D01*
X29866Y10245D01*
X29495Y10581D01*
X30049Y11257D01*
X30764Y12593D01*
X31204Y14043D01*
X31322Y15248D01*
X24122D01*
Y7870D01*
X25130Y7970D01*
X26580Y8410D01*
X27917Y9124D01*
X28592Y9678D01*
X28928Y9307D01*
X26153Y6531D01*
X8690D01*
X5437Y9784D01*
Y10141D01*
X5209Y10692D01*
X4957Y10944D01*
Y19426D01*
X5011Y19486D01*
X5457Y19692D01*
X6233Y19243D01*
X7288Y18961D01*
X7335D01*
Y23110D01*
X8335D01*
Y18961D01*
X8381D01*
X9436Y19243D01*
X10383Y19790D01*
X10503Y19910D01*
X10965Y19718D01*
Y15249D01*
X10961Y15248D01*
X10539Y14826D01*
X10311Y14275D01*
Y13678D01*
X10539Y13127D01*
X10961Y12705D01*
X11513Y12476D01*
X12109D01*
X12661Y12705D01*
X13083Y13127D01*
X13311Y13678D01*
Y14275D01*
X13083Y14826D01*
X13004Y14905D01*
Y34593D01*
X13479Y35069D01*
X13941Y34877D01*
Y13110D01*
X13689Y12858D01*
X13461Y12306D01*
Y11710D01*
X13689Y11158D01*
X14111Y10736D01*
X14662Y10508D01*
X15259D01*
X15810Y10736D01*
X16232Y11158D01*
X16428Y11630D01*
X16702Y11705D01*
X16957Y11701D01*
X17195Y11257D01*
X18156Y10085D01*
X19327Y9124D01*
X20664Y8410D01*
X22114Y7970D01*
X23122Y7870D01*
Y15748D01*
Y23626D01*
X22114Y23527D01*
X20664Y23087D01*
X19327Y22372D01*
X18156Y21411D01*
X17195Y20240D01*
X16480Y18903D01*
X16480Y18903D01*
X15980Y18977D01*
Y84617D01*
X16984Y85621D01*
X17484Y85414D01*
D02*
G37*
%LPC*%
G36*
X90362Y232001D02*
Y228197D01*
X92658D01*
Y229272D01*
X92563Y229995D01*
X92283Y230669D01*
X91839Y231248D01*
X91260Y231693D01*
X90586Y231972D01*
X90362Y232001D01*
D02*
G37*
G36*
X89362D02*
X89139Y231972D01*
X88464Y231693D01*
X87885Y231248D01*
X87441Y230669D01*
X87162Y229995D01*
X87067Y229272D01*
Y228197D01*
X89362D01*
Y232001D01*
D02*
G37*
G36*
X106102Y229093D02*
X105434Y228960D01*
X104868Y228582D01*
X104489Y228015D01*
X104357Y227347D01*
Y223051D01*
X104489Y222383D01*
X104868Y221816D01*
X105434Y221438D01*
X106102Y221305D01*
X106771Y221438D01*
X107337Y221816D01*
X107715Y222383D01*
X107848Y223051D01*
Y227347D01*
X107715Y228015D01*
X107337Y228582D01*
X106771Y228960D01*
X106102Y229093D01*
D02*
G37*
G36*
X122824Y228362D02*
X122547D01*
Y220972D01*
X129937D01*
Y221250D01*
X129634Y222774D01*
X129039Y224210D01*
X128176Y225502D01*
X127077Y226601D01*
X125785Y227464D01*
X124349Y228059D01*
X122824Y228362D01*
D02*
G37*
G36*
X121547D02*
X121270D01*
X119746Y228059D01*
X118310Y227464D01*
X117018Y226601D01*
X115919Y225502D01*
X115055Y224210D01*
X114461Y222774D01*
X114157Y221250D01*
Y220972D01*
X121547D01*
Y228362D01*
D02*
G37*
G36*
X129937Y219972D02*
X122547D01*
Y212583D01*
X122824D01*
X124349Y212886D01*
X125785Y213481D01*
X127077Y214344D01*
X128176Y215443D01*
X129039Y216735D01*
X129634Y218171D01*
X129937Y219695D01*
Y219972D01*
D02*
G37*
G36*
X121547D02*
X114157D01*
Y219695D01*
X114461Y218171D01*
X115055Y216735D01*
X115919Y215443D01*
X117018Y214344D01*
X118310Y213481D01*
X119746Y212886D01*
X121270Y212583D01*
X121547D01*
Y219972D01*
D02*
G37*
G36*
X102862Y220050D02*
Y215746D01*
Y211441D01*
X103225Y211514D01*
X103957Y212003D01*
X104232Y212415D01*
X104834Y212415D01*
X104868Y212363D01*
X105434Y211985D01*
X106102Y211852D01*
X106771Y211985D01*
X107337Y212363D01*
X107715Y212930D01*
X107848Y213598D01*
Y214925D01*
X109617D01*
X112432Y212111D01*
X112084Y211763D01*
X111779Y211028D01*
Y210232D01*
X112084Y209497D01*
X112647Y208934D01*
X113382Y208630D01*
X114177D01*
X114912Y208934D01*
X115475Y209497D01*
X115779Y210232D01*
Y211028D01*
X115475Y211763D01*
X114912Y212325D01*
X114763Y212387D01*
X114722Y212595D01*
X114500Y212926D01*
X110760Y216666D01*
X110430Y216887D01*
X110039Y216965D01*
X107848D01*
Y217894D01*
X107715Y218562D01*
X107337Y219128D01*
X106771Y219507D01*
X106102Y219640D01*
X105434Y219507D01*
X104868Y219128D01*
X104834Y219077D01*
X104232Y219077D01*
X103957Y219489D01*
X103225Y219978D01*
X102862Y220050D01*
D02*
G37*
G36*
X138315Y196760D02*
X137354D01*
X136426Y196511D01*
X135594Y196031D01*
X134914Y195351D01*
X134434Y194519D01*
X134185Y193591D01*
Y192630D01*
X134434Y191701D01*
X134914Y190869D01*
X135594Y190190D01*
X136426Y189709D01*
X137354Y189461D01*
X138315D01*
X139243Y189709D01*
X140076Y190190D01*
X140755Y190869D01*
X141235Y191701D01*
X141484Y192630D01*
Y193591D01*
X141235Y194519D01*
X140755Y195351D01*
X140076Y196031D01*
X139243Y196511D01*
X138315Y196760D01*
D02*
G37*
G36*
X111819Y196366D02*
X104717D01*
Y189854D01*
X107248D01*
Y187902D01*
X105405D01*
Y182571D01*
X111130D01*
Y187902D01*
X109287D01*
Y189854D01*
X111819D01*
Y196366D01*
D02*
G37*
G36*
X138315Y186760D02*
X137354D01*
X136426Y186511D01*
X135594Y186031D01*
X134914Y185351D01*
X134434Y184519D01*
X134185Y183591D01*
Y182630D01*
X134434Y181702D01*
X134914Y180869D01*
X135594Y180190D01*
X136426Y179709D01*
X137354Y179461D01*
X138315D01*
X139243Y179709D01*
X140076Y180190D01*
X140755Y180869D01*
X141235Y181702D01*
X141484Y182630D01*
Y183591D01*
X141235Y184519D01*
X140755Y185351D01*
X140076Y186031D01*
X139243Y186511D01*
X138315Y186760D01*
D02*
G37*
G36*
X111630Y180134D02*
X108768D01*
Y177469D01*
X111630D01*
Y180134D01*
D02*
G37*
G36*
X107768D02*
X104905D01*
Y177469D01*
X107768D01*
Y180134D01*
D02*
G37*
G36*
X138315Y176760D02*
X137354D01*
X136426Y176511D01*
X135594Y176031D01*
X134914Y175351D01*
X134434Y174519D01*
X134185Y173591D01*
Y172630D01*
X134434Y171702D01*
X134914Y170869D01*
X135594Y170190D01*
X136426Y169709D01*
X137354Y169461D01*
X138315D01*
X139243Y169709D01*
X140076Y170190D01*
X140755Y170869D01*
X141235Y171702D01*
X141484Y172630D01*
Y173591D01*
X141235Y174519D01*
X140755Y175351D01*
X140076Y176031D01*
X139243Y176511D01*
X138315Y176760D01*
D02*
G37*
G36*
Y166760D02*
X137354D01*
X136426Y166511D01*
X135594Y166031D01*
X134914Y165351D01*
X134434Y164519D01*
X134185Y163591D01*
Y162630D01*
X134434Y161702D01*
X134914Y160869D01*
X135594Y160190D01*
X136426Y159709D01*
X137354Y159461D01*
X138315D01*
X139243Y159709D01*
X140076Y160190D01*
X140755Y160869D01*
X141235Y161702D01*
X141484Y162630D01*
Y163591D01*
X141235Y164519D01*
X140755Y165351D01*
X140076Y166031D01*
X139243Y166511D01*
X138315Y166760D01*
D02*
G37*
G36*
Y156760D02*
X137354D01*
X136426Y156511D01*
X135594Y156031D01*
X134914Y155351D01*
X134434Y154519D01*
X134185Y153591D01*
Y152630D01*
X134434Y151701D01*
X134914Y150869D01*
X135594Y150190D01*
X136426Y149709D01*
X137354Y149461D01*
X138315D01*
X139243Y149709D01*
X140076Y150190D01*
X140755Y150869D01*
X141235Y151701D01*
X141484Y152630D01*
Y153591D01*
X141235Y154519D01*
X140755Y155351D01*
X140076Y156031D01*
X139243Y156511D01*
X138315Y156760D01*
D02*
G37*
G36*
X111630Y176469D02*
X108268D01*
X104905D01*
Y173803D01*
X106801D01*
X107009Y173303D01*
X106996Y173291D01*
X106768Y172739D01*
Y172143D01*
X106996Y171591D01*
X107418Y171169D01*
X107969Y170941D01*
X108326D01*
X114925Y164341D01*
Y148936D01*
X114673Y148684D01*
X114644Y148615D01*
X114154Y148517D01*
X113928Y148743D01*
X113295Y149005D01*
Y147047D01*
Y145090D01*
X113928Y145352D01*
X114491Y145914D01*
X114651Y146300D01*
X114755Y146362D01*
X115257Y146496D01*
X115647Y146335D01*
X116243D01*
X116795Y146563D01*
X117217Y146985D01*
X117445Y147536D01*
Y148133D01*
X117217Y148684D01*
X116964Y148936D01*
Y164764D01*
X116887Y165154D01*
X116666Y165485D01*
X109768Y172383D01*
Y172739D01*
X109539Y173291D01*
X109527Y173303D01*
X109734Y173803D01*
X111630D01*
Y176469D01*
D02*
G37*
G36*
X127857Y169610D02*
X127261D01*
X126709Y169382D01*
X126287Y168960D01*
X126059Y168409D01*
Y167812D01*
X126287Y167261D01*
X126540Y167008D01*
Y148454D01*
X120444Y142358D01*
X102873D01*
X102621Y142610D01*
X102070Y142839D01*
X101473D01*
X100922Y142610D01*
X100500Y142188D01*
X100272Y141637D01*
Y141040D01*
X100500Y140489D01*
X100922Y140067D01*
X101473Y139839D01*
X102070D01*
X102621Y140067D01*
X102873Y140319D01*
X120866D01*
X121256Y140397D01*
X121587Y140618D01*
X128280Y147310D01*
X128501Y147641D01*
X128579Y148031D01*
Y167008D01*
X128831Y167261D01*
X129059Y167812D01*
Y168409D01*
X128831Y168960D01*
X128409Y169382D01*
X127857Y169610D01*
D02*
G37*
G36*
X138315Y146760D02*
X137354D01*
X136426Y146511D01*
X135594Y146031D01*
X134914Y145351D01*
X134434Y144519D01*
X134185Y143591D01*
Y142630D01*
X134434Y141701D01*
X134914Y140869D01*
X135594Y140190D01*
X136426Y139709D01*
X137354Y139461D01*
X138315D01*
X139243Y139709D01*
X140076Y140190D01*
X140755Y140869D01*
X141235Y141701D01*
X141484Y142630D01*
Y143591D01*
X141235Y144519D01*
X140755Y145351D01*
X140076Y146031D01*
X139243Y146511D01*
X138315Y146760D01*
D02*
G37*
G36*
Y136760D02*
X137354D01*
X136426Y136511D01*
X135594Y136031D01*
X134914Y135351D01*
X134434Y134519D01*
X134185Y133591D01*
Y132630D01*
X134434Y131702D01*
X134914Y130869D01*
X135594Y130190D01*
X136426Y129709D01*
X137354Y129461D01*
X138315D01*
X139243Y129709D01*
X140076Y130190D01*
X140755Y130869D01*
X141235Y131702D01*
X141484Y132630D01*
Y133591D01*
X141235Y134519D01*
X140755Y135351D01*
X140076Y136031D01*
X139243Y136511D01*
X138315Y136760D01*
D02*
G37*
G36*
Y126760D02*
X137354D01*
X136426Y126511D01*
X135594Y126031D01*
X134914Y125351D01*
X134434Y124519D01*
X134185Y123591D01*
Y122630D01*
X134434Y121702D01*
X134914Y120869D01*
X135594Y120190D01*
X136426Y119709D01*
X137354Y119461D01*
X138315D01*
X139243Y119709D01*
X140076Y120190D01*
X140755Y120869D01*
X141235Y121702D01*
X141484Y122630D01*
Y123591D01*
X141235Y124519D01*
X140755Y125351D01*
X140076Y126031D01*
X139243Y126511D01*
X138315Y126760D01*
D02*
G37*
G36*
X55307Y227197D02*
X53012D01*
Y226122D01*
X53107Y225398D01*
X53386Y224724D01*
X53830Y224145D01*
X54409Y223701D01*
X55084Y223422D01*
X55307Y223392D01*
Y227197D01*
D02*
G37*
G36*
X24399Y228362D02*
X24122D01*
Y220972D01*
X31512D01*
Y221250D01*
X31209Y222774D01*
X30614Y224210D01*
X29750Y225502D01*
X28651Y226601D01*
X27359Y227464D01*
X25923Y228059D01*
X24399Y228362D01*
D02*
G37*
G36*
X23122D02*
X22845D01*
X21321Y228059D01*
X19885Y227464D01*
X18593Y226601D01*
X17494Y225502D01*
X16630Y224210D01*
X16036Y222774D01*
X15732Y221250D01*
Y220972D01*
X23122D01*
Y228362D01*
D02*
G37*
G36*
X31512Y219972D02*
X24122D01*
Y212583D01*
X24399D01*
X25923Y212886D01*
X27359Y213481D01*
X28651Y214344D01*
X29750Y215443D01*
X30614Y216735D01*
X31209Y218171D01*
X31512Y219695D01*
Y219972D01*
D02*
G37*
G36*
X23122D02*
X15732D01*
Y219695D01*
X16036Y218171D01*
X16630Y216735D01*
X17494Y215443D01*
X18593Y214344D01*
X19885Y213481D01*
X21321Y212886D01*
X22845Y212583D01*
X23122D01*
Y219972D01*
D02*
G37*
G36*
X55307Y213890D02*
X53012D01*
Y211437D01*
X53107Y210714D01*
X53386Y210039D01*
X53830Y209460D01*
X54409Y209016D01*
X55084Y208737D01*
X55307Y208707D01*
Y213890D01*
D02*
G37*
G36*
X92658D02*
X90362D01*
Y208707D01*
X90586Y208737D01*
X91260Y209016D01*
X91839Y209460D01*
X92283Y210039D01*
X92563Y210714D01*
X92658Y211437D01*
Y213890D01*
D02*
G37*
G36*
X48827Y198335D02*
X41724D01*
Y191823D01*
X44256D01*
Y189870D01*
X42413D01*
Y184539D01*
X48138D01*
Y189870D01*
X46295D01*
Y191823D01*
X48827D01*
Y198335D01*
D02*
G37*
G36*
X38984D02*
X31882D01*
Y191823D01*
X34413D01*
Y189870D01*
X32571D01*
Y184539D01*
X38295D01*
Y189870D01*
X36453D01*
Y191823D01*
X38984D01*
Y198335D01*
D02*
G37*
G36*
X57201Y182988D02*
X54043D01*
Y180618D01*
X57201D01*
Y182988D01*
D02*
G37*
G36*
X53043D02*
X49886D01*
Y180618D01*
X53043D01*
Y182988D01*
D02*
G37*
G36*
X57201Y179618D02*
X54043D01*
Y177248D01*
X57201D01*
Y179618D01*
D02*
G37*
G36*
X53043D02*
X49886D01*
Y177248D01*
X53043D01*
Y179618D01*
D02*
G37*
G36*
X91626Y176564D02*
X90993Y176302D01*
X90430Y175739D01*
X90168Y175106D01*
X91626D01*
Y176564D01*
D02*
G37*
G36*
X71866Y166748D02*
X69201D01*
Y163886D01*
X71866D01*
Y166748D01*
D02*
G37*
G36*
X68201D02*
X65535D01*
Y163886D01*
X68201D01*
Y166748D01*
D02*
G37*
G36*
X71866Y162886D02*
X68701D01*
X65535D01*
Y160378D01*
X65535Y160024D01*
X65096Y159878D01*
X61811D01*
X61421Y159800D01*
X61090Y159579D01*
X60011Y158500D01*
X56504D01*
Y160638D01*
X51764D01*
Y154323D01*
X56504D01*
Y156461D01*
X60433D01*
X60823Y156538D01*
X61154Y156759D01*
X62233Y157839D01*
X63332D01*
X63604Y157339D01*
X63461Y156991D01*
Y156395D01*
X63689Y155843D01*
X63941Y155591D01*
Y153781D01*
X63820Y153700D01*
X63687Y153501D01*
X63085D01*
X62952Y153700D01*
X62429Y154050D01*
X61811Y154173D01*
X61194Y154050D01*
X60670Y153700D01*
X60320Y153177D01*
X60197Y152559D01*
Y148228D01*
X60320Y147611D01*
X60670Y147087D01*
X61194Y146738D01*
X61811Y146615D01*
X62429Y146738D01*
X62952Y147087D01*
X63085Y147286D01*
X63687D01*
X63820Y147087D01*
X64343Y146738D01*
X64961Y146615D01*
X65578Y146738D01*
X66102Y147087D01*
X66235Y147286D01*
X66836D01*
X66969Y147087D01*
X67493Y146738D01*
X68110Y146615D01*
X68728Y146738D01*
X69251Y147087D01*
X69384Y147286D01*
X69856D01*
X70240Y146892D01*
Y143307D01*
X70318Y142917D01*
X70539Y142586D01*
X72311Y140814D01*
X72641Y140594D01*
X73032Y140516D01*
X80394D01*
X80646Y140264D01*
X81198Y140035D01*
X81794D01*
X82346Y140264D01*
X82768Y140686D01*
X82996Y141237D01*
Y141834D01*
X82768Y142385D01*
X82346Y142807D01*
X81794Y143035D01*
X81198D01*
X80646Y142807D01*
X80394Y142555D01*
X73454D01*
X72279Y143729D01*
Y147006D01*
X72401Y147087D01*
X72534Y147286D01*
X73135D01*
X73268Y147087D01*
X73792Y146738D01*
X74410Y146615D01*
X75027Y146738D01*
X75551Y147087D01*
X75684Y147286D01*
X76285D01*
X76418Y147087D01*
X76942Y146738D01*
X77559Y146615D01*
X78177Y146738D01*
X78700Y147087D01*
X78833Y147286D01*
X79435D01*
X79568Y147087D01*
X80091Y146738D01*
X80709Y146615D01*
X81326Y146738D01*
X81850Y147087D01*
X81983Y147286D01*
X82584D01*
X82717Y147087D01*
X83241Y146738D01*
X83858Y146615D01*
X84476Y146738D01*
X84999Y147087D01*
X85349Y147611D01*
X85472Y148228D01*
Y152559D01*
X85349Y153177D01*
X84999Y153700D01*
X84476Y154050D01*
X83858Y154173D01*
X83241Y154050D01*
X82717Y153700D01*
X82584Y153501D01*
X81983D01*
X81850Y153700D01*
X81326Y154050D01*
X80709Y154173D01*
X80091Y154050D01*
X79568Y153700D01*
X79435Y153501D01*
X78833D01*
X78700Y153700D01*
X78177Y154050D01*
X77559Y154173D01*
X76942Y154050D01*
X76418Y153700D01*
X76285Y153501D01*
X75684D01*
X75551Y153700D01*
X75027Y154050D01*
X74410Y154173D01*
X73792Y154050D01*
X73268Y153700D01*
X73135Y153501D01*
X72663D01*
X72279Y153895D01*
Y157283D01*
X72202Y157674D01*
X71981Y158004D01*
X70462Y159524D01*
X70498Y159753D01*
X70641Y160024D01*
X71866D01*
Y162886D01*
D02*
G37*
G36*
X37311Y156602D02*
X34146D01*
Y155941D01*
X29921D01*
X29531Y155863D01*
X29200Y155642D01*
X26838Y153280D01*
X26617Y152949D01*
X26539Y152559D01*
Y149330D01*
X26287Y149078D01*
X26059Y148527D01*
Y147930D01*
X26287Y147379D01*
X26709Y146957D01*
X27261Y146728D01*
X27857D01*
X28409Y146957D01*
X28831Y147379D01*
X29059Y147930D01*
Y148527D01*
X28831Y149078D01*
X28579Y149330D01*
Y152137D01*
X30344Y153902D01*
X34146D01*
Y153240D01*
X37311D01*
Y156602D01*
D02*
G37*
G36*
X91626Y186603D02*
X90993Y186341D01*
X90430Y185779D01*
X90168Y185146D01*
X91626D01*
Y186603D01*
D02*
G37*
G36*
X116035Y129028D02*
X114578D01*
X114840Y128395D01*
X115402Y127832D01*
X116035Y127570D01*
Y129028D01*
D02*
G37*
G36*
X138315Y96760D02*
X137354D01*
X136426Y96511D01*
X135594Y96031D01*
X134914Y95351D01*
X134434Y94519D01*
X134185Y93591D01*
Y92630D01*
X134434Y91702D01*
X134914Y90869D01*
X135594Y90190D01*
X136426Y89709D01*
X137354Y89461D01*
X138315D01*
X139243Y89709D01*
X140076Y90190D01*
X140755Y90869D01*
X141235Y91702D01*
X141484Y92630D01*
Y93591D01*
X141235Y94519D01*
X140755Y95351D01*
X140076Y96031D01*
X139243Y96511D01*
X138315Y96760D01*
D02*
G37*
G36*
Y86760D02*
X137354D01*
X136426Y86511D01*
X135594Y86031D01*
X134914Y85351D01*
X134434Y84519D01*
X134185Y83591D01*
Y82630D01*
X134434Y81701D01*
X134914Y80869D01*
X135594Y80190D01*
X136426Y79709D01*
X137354Y79461D01*
X138315D01*
X139243Y79709D01*
X140076Y80190D01*
X140755Y80869D01*
X141235Y81701D01*
X141484Y82630D01*
Y83591D01*
X141235Y84519D01*
X140755Y85351D01*
X140076Y86031D01*
X139243Y86511D01*
X138315Y86760D01*
D02*
G37*
G36*
Y76760D02*
X137354D01*
X136426Y76511D01*
X135594Y76031D01*
X134914Y75351D01*
X134434Y74519D01*
X134185Y73591D01*
Y72630D01*
X134434Y71702D01*
X134914Y70869D01*
X135594Y70190D01*
X136426Y69709D01*
X137354Y69461D01*
X138315D01*
X139243Y69709D01*
X140076Y70190D01*
X140755Y70869D01*
X141235Y71702D01*
X141484Y72630D01*
Y73591D01*
X141235Y74519D01*
X140755Y75351D01*
X140076Y76031D01*
X139243Y76511D01*
X138315Y76760D01*
D02*
G37*
G36*
Y66760D02*
X137354D01*
X136426Y66511D01*
X135594Y66031D01*
X134914Y65351D01*
X134434Y64519D01*
X134185Y63591D01*
Y62630D01*
X134434Y61702D01*
X134914Y60869D01*
X135594Y60190D01*
X136426Y59709D01*
X137354Y59461D01*
X138315D01*
X139243Y59709D01*
X140076Y60190D01*
X140755Y60869D01*
X141235Y61702D01*
X141484Y62630D01*
Y63591D01*
X141235Y64519D01*
X140755Y65351D01*
X140076Y66031D01*
X139243Y66511D01*
X138315Y66760D01*
D02*
G37*
G36*
Y56760D02*
X137354D01*
X136426Y56511D01*
X135594Y56031D01*
X134914Y55351D01*
X134434Y54519D01*
X134185Y53591D01*
Y52630D01*
X134434Y51701D01*
X134914Y50869D01*
X135594Y50190D01*
X136426Y49709D01*
X137354Y49461D01*
X138315D01*
X139243Y49709D01*
X140076Y50190D01*
X140755Y50869D01*
X141235Y51701D01*
X141484Y52630D01*
Y53591D01*
X141235Y54519D01*
X140755Y55351D01*
X140076Y56031D01*
X139243Y56511D01*
X138315Y56760D01*
D02*
G37*
G36*
Y46760D02*
X137354D01*
X136426Y46511D01*
X135594Y46031D01*
X134914Y45351D01*
X134434Y44519D01*
X134185Y43591D01*
Y42630D01*
X134434Y41701D01*
X134914Y40869D01*
X135594Y40190D01*
X136426Y39709D01*
X137354Y39461D01*
X138315D01*
X139243Y39709D01*
X140076Y40190D01*
X140755Y40869D01*
X141235Y41701D01*
X141484Y42630D01*
Y43591D01*
X141235Y44519D01*
X140755Y45351D01*
X140076Y46031D01*
X139243Y46511D01*
X138315Y46760D01*
D02*
G37*
G36*
X138381Y37260D02*
X138335D01*
Y33610D01*
X141984D01*
Y33656D01*
X141701Y34712D01*
X141155Y35658D01*
X140383Y36431D01*
X139436Y36977D01*
X138381Y37260D01*
D02*
G37*
G36*
X137335D02*
X137288D01*
X136233Y36977D01*
X135287Y36431D01*
X134514Y35658D01*
X133968Y34712D01*
X133685Y33656D01*
Y33610D01*
X137335D01*
Y37260D01*
D02*
G37*
G36*
X141984Y32610D02*
X138335D01*
Y28961D01*
X138381D01*
X139436Y29243D01*
X140383Y29790D01*
X141155Y30562D01*
X141701Y31509D01*
X141984Y32564D01*
Y32610D01*
D02*
G37*
G36*
X137335D02*
X133685D01*
Y32564D01*
X133968Y31509D01*
X134514Y30562D01*
X135287Y29790D01*
X136233Y29243D01*
X137288Y28961D01*
X137335D01*
Y32610D01*
D02*
G37*
G36*
X130224Y25973D02*
Y24516D01*
X131682D01*
X131420Y25149D01*
X130857Y25711D01*
X130224Y25973D01*
D02*
G37*
G36*
X129224D02*
X128592Y25711D01*
X128029Y25149D01*
X127767Y24516D01*
X129224D01*
Y25973D01*
D02*
G37*
G36*
X100697Y25580D02*
Y24122D01*
X102155D01*
X101892Y24755D01*
X101330Y25318D01*
X100697Y25580D01*
D02*
G37*
G36*
X99697D02*
X99064Y25318D01*
X98501Y24755D01*
X98239Y24122D01*
X99697D01*
Y25580D01*
D02*
G37*
G36*
X138381Y27260D02*
X138335D01*
Y23610D01*
X141984D01*
Y23656D01*
X141701Y24712D01*
X141155Y25658D01*
X140383Y26431D01*
X139436Y26977D01*
X138381Y27260D01*
D02*
G37*
G36*
X137335D02*
X137288D01*
X136233Y26977D01*
X135287Y26431D01*
X134514Y25658D01*
X133968Y24712D01*
X133685Y23656D01*
Y23610D01*
X137335D01*
Y27260D01*
D02*
G37*
G36*
X131682Y23516D02*
X130224D01*
Y22058D01*
X130857Y22320D01*
X131420Y22883D01*
X131682Y23516D01*
D02*
G37*
G36*
X129224D02*
X127767D01*
X128029Y22883D01*
X128592Y22320D01*
X129224Y22058D01*
Y23516D01*
D02*
G37*
G36*
X102155Y23122D02*
X100697D01*
Y21664D01*
X101330Y21926D01*
X101892Y22489D01*
X102155Y23122D01*
D02*
G37*
G36*
X99697D02*
X98239D01*
X98501Y22489D01*
X99064Y21926D01*
X99697Y21664D01*
Y23122D01*
D02*
G37*
G36*
X141984Y22610D02*
X138335D01*
Y18961D01*
X138381D01*
X139436Y19243D01*
X140383Y19790D01*
X141155Y20562D01*
X141701Y21508D01*
X141984Y22564D01*
Y22610D01*
D02*
G37*
G36*
X137335D02*
X133685D01*
Y22564D01*
X133968Y21508D01*
X134514Y20562D01*
X135287Y19790D01*
X136233Y19243D01*
X137288Y18961D01*
X137335D01*
Y22610D01*
D02*
G37*
G36*
X104235Y28862D02*
X103639D01*
X103087Y28634D01*
X102665Y28212D01*
X102437Y27661D01*
Y27064D01*
X102665Y26513D01*
X103087Y26091D01*
X103639Y25862D01*
X103995D01*
X106810Y23047D01*
X106603Y22547D01*
X104421D01*
Y18398D01*
X112114D01*
Y22547D01*
X109287D01*
Y23031D01*
X109210Y23422D01*
X108989Y23752D01*
X105437Y27304D01*
Y27661D01*
X105209Y28212D01*
X104787Y28634D01*
X104235Y28862D01*
D02*
G37*
G36*
X122824Y23638D02*
X122547D01*
Y16248D01*
X129937D01*
Y16525D01*
X129634Y18049D01*
X129039Y19485D01*
X128176Y20777D01*
X127077Y21876D01*
X125784Y22740D01*
X124349Y23335D01*
X122824Y23638D01*
D02*
G37*
G36*
X121547D02*
X121270D01*
X119746Y23335D01*
X118310Y22740D01*
X117018Y21876D01*
X115919Y20777D01*
X115055Y19485D01*
X114461Y18049D01*
X114157Y16525D01*
Y16248D01*
X121547D01*
Y23638D01*
D02*
G37*
G36*
X96583Y22528D02*
X89087D01*
Y15032D01*
X96583D01*
Y22528D01*
D02*
G37*
G36*
X93394Y13028D02*
X93335D01*
Y9279D01*
X97083D01*
Y9339D01*
X96793Y10419D01*
X96234Y11388D01*
X95443Y12179D01*
X94474Y12738D01*
X93394Y13028D01*
D02*
G37*
G36*
X129937Y15248D02*
X122547D01*
Y7858D01*
X122824D01*
X124349Y8162D01*
X125784Y8756D01*
X127077Y9620D01*
X128176Y10719D01*
X129039Y12011D01*
X129634Y13447D01*
X129937Y14971D01*
Y15248D01*
D02*
G37*
G36*
X121547D02*
X114157D01*
Y14971D01*
X114461Y13447D01*
X115055Y12011D01*
X115919Y10719D01*
X117018Y9620D01*
X118310Y8756D01*
X119746Y8162D01*
X121270Y7858D01*
X121547D01*
Y15248D01*
D02*
G37*
G36*
X97083Y8280D02*
X93335D01*
Y4532D01*
X93394D01*
X94474Y4821D01*
X95443Y5380D01*
X96234Y6171D01*
X96793Y7140D01*
X97083Y8220D01*
Y8280D01*
D02*
G37*
G36*
X112114Y9161D02*
X104421D01*
Y5012D01*
X112114D01*
Y6067D01*
X116113D01*
X118374Y3807D01*
X118704Y3586D01*
X119095Y3508D01*
X127165D01*
X127556Y3586D01*
X127886Y3807D01*
X129666Y5587D01*
X130023D01*
X130574Y5815D01*
X130996Y6237D01*
X131224Y6788D01*
Y7385D01*
X130996Y7936D01*
X130574Y8358D01*
X130023Y8587D01*
X129426D01*
X128875Y8358D01*
X128453Y7936D01*
X128224Y7385D01*
Y7028D01*
X126743Y5547D01*
X119517D01*
X117256Y7808D01*
X116926Y8029D01*
X116535Y8106D01*
X112114D01*
Y9161D01*
D02*
G37*
G36*
X111819Y92035D02*
X104717D01*
Y85524D01*
X107248D01*
Y83571D01*
X105405D01*
Y78240D01*
X111130D01*
Y83571D01*
X109287D01*
Y85524D01*
X111819D01*
Y92035D01*
D02*
G37*
G36*
X111630Y75803D02*
X108768D01*
Y73138D01*
X111630D01*
Y75803D01*
D02*
G37*
G36*
X107768D02*
X104905D01*
Y73138D01*
X107768D01*
Y75803D01*
D02*
G37*
G36*
X112614Y48638D02*
X108768D01*
Y46563D01*
X112614D01*
Y48638D01*
D02*
G37*
G36*
Y45563D02*
X108768D01*
Y43488D01*
X112614D01*
Y45563D01*
D02*
G37*
G36*
X107768D02*
X103921D01*
Y43488D01*
X107768D01*
Y45563D01*
D02*
G37*
G36*
X115657Y37194D02*
Y35736D01*
X117115D01*
X116853Y36369D01*
X116290Y36932D01*
X115657Y37194D01*
D02*
G37*
G36*
X114657D02*
X114025Y36932D01*
X113462Y36369D01*
X113200Y35736D01*
X114657D01*
Y37194D01*
D02*
G37*
G36*
X82818Y38295D02*
X82064D01*
X81336Y38100D01*
X80683Y37723D01*
X80151Y37190D01*
X79774Y36538D01*
X79579Y35810D01*
Y35056D01*
X79774Y34328D01*
X80151Y33676D01*
X80683Y33143D01*
X81336Y32766D01*
X82064Y32571D01*
X82818D01*
X83546Y32766D01*
X84198Y33143D01*
X84731Y33676D01*
X85108Y34328D01*
X85303Y35056D01*
Y35810D01*
X85108Y36538D01*
X84731Y37190D01*
X84198Y37723D01*
X83546Y38100D01*
X82818Y38295D01*
D02*
G37*
G36*
X50303Y33651D02*
Y32193D01*
X51761D01*
X51499Y32826D01*
X50936Y33388D01*
X50303Y33651D01*
D02*
G37*
G36*
X49303D02*
X48670Y33388D01*
X48108Y32826D01*
X47846Y32193D01*
X49303D01*
Y33651D01*
D02*
G37*
G36*
X51761Y31193D02*
X50303D01*
Y29735D01*
X50936Y29997D01*
X51499Y30560D01*
X51761Y31193D01*
D02*
G37*
G36*
X49303D02*
X47846D01*
X48108Y30560D01*
X48670Y29997D01*
X49303Y29735D01*
Y31193D01*
D02*
G37*
G36*
X53394Y23028D02*
X53335D01*
Y19279D01*
X57083D01*
Y19339D01*
X56793Y20419D01*
X56234Y21388D01*
X55443Y22179D01*
X54474Y22738D01*
X53394Y23028D01*
D02*
G37*
G36*
X52335D02*
X52275D01*
X51195Y22738D01*
X50226Y22179D01*
X49435Y21388D01*
X48876Y20419D01*
X48587Y19339D01*
Y19279D01*
X52335D01*
Y23028D01*
D02*
G37*
G36*
X63328Y12528D02*
X62341D01*
X61388Y12272D01*
X60533Y11779D01*
X59835Y11081D01*
X59342Y10226D01*
X59087Y9273D01*
Y8286D01*
X59342Y7333D01*
X59835Y6478D01*
X60533Y5780D01*
X61388Y5287D01*
X62341Y5032D01*
X63328D01*
X64281Y5287D01*
X65136Y5780D01*
X65834Y6478D01*
X66327Y7333D01*
X66583Y8286D01*
Y9273D01*
X66327Y10226D01*
X65834Y11081D01*
X65136Y11779D01*
X64281Y12272D01*
X63328Y12528D01*
D02*
G37*
G36*
X24122Y23626D02*
Y16248D01*
X31322D01*
X31204Y17453D01*
X30764Y18903D01*
X30049Y20240D01*
X29088Y21411D01*
X27917Y22372D01*
X26580Y23087D01*
X25130Y23527D01*
X24122Y23626D01*
D02*
G37*
%LPD*%
D12*
X64173Y210630D02*
X64272Y210531D01*
X86959Y178789D02*
X88386Y177362D01*
Y173031D02*
Y177362D01*
X89370Y188189D02*
Y195034D01*
X82185Y196289D02*
X88114D01*
X89370Y195034D01*
X91929Y190201D02*
Y195276D01*
X91915Y190186D02*
X91929Y190201D01*
X84646Y169291D02*
X88386Y173031D01*
X69095Y169291D02*
X84646D01*
X82185Y178789D02*
X86959D01*
X82185D02*
Y181289D01*
X111221Y128937D02*
X114567Y125591D01*
Y119882D02*
Y125591D01*
X104331Y112402D02*
Y118504D01*
X111221Y125394D01*
X103347Y128937D02*
X111221D01*
X95079Y137205D02*
X103347Y128937D01*
X95079Y137205D02*
Y144882D01*
X72638Y123425D02*
X81496D01*
X71260Y122047D02*
X72638Y123425D01*
X73032Y141535D02*
X81496D01*
X71260Y143307D02*
X73032Y141535D01*
X71260Y143307D02*
Y150394D01*
X114567Y119882D02*
X125197Y109252D01*
Y37795D02*
Y109252D01*
X120079Y32677D02*
X125197Y37795D01*
X108268Y32677D02*
X120079D01*
X72835Y8858D02*
X72913D01*
X80118Y13780D02*
X84646D01*
X78347Y12008D02*
X80118Y13780D01*
X78347Y9646D02*
Y12008D01*
X77165Y8465D02*
X78347Y9646D01*
X72835Y8779D02*
X73150Y8465D01*
X77165D01*
X3150Y20866D02*
Y198425D01*
X7835Y203110D01*
X3150Y20866D02*
X3937Y20079D01*
Y9843D02*
Y20079D01*
Y9843D02*
X8268Y5512D01*
X26575D01*
X34449Y13386D01*
X42913D01*
X137835Y103110D02*
X142701Y107976D01*
Y116354D01*
X141142Y117913D02*
X142701Y116354D01*
X129528Y117913D02*
X141142D01*
X124606Y122835D02*
X129528Y117913D01*
X124606Y122835D02*
Y129331D01*
X115945Y137992D02*
Y138189D01*
Y137992D02*
X124606Y129331D01*
X100394Y151969D02*
Y152165D01*
X137756Y113189D02*
X137835Y113110D01*
X125394Y113189D02*
X137756D01*
X122441Y116142D02*
X125394Y113189D01*
X122441Y116142D02*
Y127559D01*
X116535Y133465D02*
X122441Y127559D01*
X101378Y133465D02*
X116535D01*
X98228Y136614D02*
X101378Y133465D01*
X98228Y136614D02*
Y149803D01*
X100394Y151969D01*
Y152165D02*
X100492Y152067D01*
X100492D01*
X115945Y147835D02*
Y164764D01*
X108268Y172441D02*
X115945Y164764D01*
X127559Y148031D02*
Y168110D01*
X120866Y141339D02*
X127559Y148031D01*
X101772Y141339D02*
X120866D01*
X45374Y226279D02*
Y229626D01*
X56299Y135236D02*
X56496Y135433D01*
X56102D02*
X56299Y135236D01*
X43110Y61221D02*
Y68898D01*
X42913Y69095D02*
X43110Y68898D01*
X42717Y45472D02*
Y60827D01*
X95472Y168504D02*
X102362Y175394D01*
X95472Y168504D02*
X102756D01*
X104134Y167126D01*
X101378Y161221D02*
Y165157D01*
X96457Y156299D02*
X101378Y161221D01*
X88976Y156299D02*
X96457D01*
X76968Y163386D02*
X81890D01*
X88976Y156299D01*
X71260Y117323D02*
Y122047D01*
X60433Y157480D02*
X61811Y158858D01*
X69685D01*
X71260Y157283D01*
Y150394D02*
Y157283D01*
Y150394D02*
X71260Y150394D01*
X68110D02*
Y156693D01*
X109646Y53347D02*
Y66535D01*
X95472Y40748D02*
Y47835D01*
X56299Y13386D02*
X57874Y14961D01*
X42913Y13386D02*
X56299D01*
X91142Y52165D02*
X95472Y47835D01*
X91142Y52165D02*
Y70079D01*
X103742Y62203D02*
X104528Y61417D01*
X95435Y65403D02*
X104479D01*
X95435Y62203D02*
X103742D01*
X104479Y65403D02*
X106890Y62992D01*
Y50591D02*
Y62992D01*
X69735Y91486D02*
Y97403D01*
Y91486D02*
X91142Y70079D01*
X69735Y97403D02*
Y97588D01*
X108268Y20472D02*
Y23031D01*
X103937Y27362D02*
X108268Y23031D01*
X127165Y4528D02*
X129724Y7087D01*
X119095Y4528D02*
X127165D01*
X116535Y7087D02*
X119095Y4528D01*
X108465Y7087D02*
X116535D01*
X108268Y7087D02*
X108465D01*
X108465Y7087D01*
X77362Y103347D02*
X89370Y115354D01*
Y122835D01*
X69488Y103347D02*
X77362D01*
X72716Y18779D02*
X72835Y18898D01*
X83858Y112598D02*
Y117323D01*
X77165Y105905D02*
X83858Y112598D01*
X66339Y105905D02*
X77165D01*
X63386Y109055D02*
X66580D01*
X67957Y107677D01*
X75394D01*
X59646Y92323D02*
X62300Y89669D01*
X64072D01*
X66535Y87205D01*
X80709Y112992D02*
Y117323D01*
X75394Y107677D02*
X80709Y112992D01*
X50197Y56102D02*
Y58858D01*
X50235Y58896D02*
Y59103D01*
X50197Y58858D02*
X50235Y58896D01*
X66535Y52203D02*
Y87205D01*
X66142Y111614D02*
X67520Y110236D01*
X75000D01*
X77559Y112795D02*
Y117323D01*
X75000Y110236D02*
X77559Y112795D01*
X47244Y145276D02*
X52165Y150197D01*
X42323Y145276D02*
X47244D01*
X35236Y138189D02*
X42323Y145276D01*
X35236Y118307D02*
Y138189D01*
X22713Y105783D02*
X35236Y118307D01*
X14764Y12205D02*
X14961Y12402D01*
X54528Y149409D02*
X57874D01*
X48819Y143701D02*
X54528Y149409D01*
X43110Y143701D02*
X48819D01*
X36811Y137402D02*
X43110Y143701D01*
X36811Y117717D02*
Y137402D01*
X24213Y105118D02*
X36811Y117717D01*
X24213Y94291D02*
Y105118D01*
X22713Y94957D02*
Y105783D01*
X13461Y85705D02*
X22713Y94957D01*
X26969Y94095D02*
Y95622D01*
X27197Y95850D01*
Y98622D01*
X26969D02*
X29724Y101378D01*
X18504Y85630D02*
X26969Y94095D01*
X14961Y85039D02*
X24213Y94291D01*
X14764Y12205D02*
X14961Y12008D01*
Y12402D02*
Y85039D01*
X13461Y36492D02*
Y85705D01*
X11984Y35016D02*
X13461Y36492D01*
X11984Y14150D02*
Y35016D01*
X11811Y13976D02*
X11984Y14150D01*
X82835Y25748D02*
X89764Y32677D01*
X108268D01*
X82835Y18779D02*
Y25748D01*
X66535Y43898D02*
Y52203D01*
Y43898D02*
X69488Y40945D01*
Y36417D02*
Y40945D01*
Y36417D02*
X77362Y28543D01*
X63435Y43849D02*
Y52203D01*
X67323Y35039D02*
Y39961D01*
X63435Y43849D02*
X67323Y39961D01*
Y35039D02*
X70866Y31496D01*
Y31299D02*
Y31496D01*
X85449Y2968D02*
X87992Y5512D01*
Y13622D01*
X82835Y18779D02*
X87992Y13622D01*
X51165Y2968D02*
X85449D01*
X77362Y13307D02*
Y28543D01*
X72913Y8858D02*
X77362Y13307D01*
X72835Y8779D02*
Y8858D01*
X60235Y43109D02*
Y52203D01*
X58071Y40945D02*
X60235Y43109D01*
X58071Y34055D02*
Y40945D01*
Y34055D02*
X61221Y30906D01*
X65551D01*
X72638Y18701D02*
X72716Y18779D01*
X72835Y18898D02*
Y23622D01*
X65551Y30906D02*
X72835Y23622D01*
X51142Y38819D02*
X62835Y27126D01*
X62795Y18898D02*
X62835Y18858D01*
Y18779D02*
Y18858D01*
Y18937D02*
Y27126D01*
X62795Y18898D02*
X62835Y18937D01*
X51142Y38819D02*
Y52203D01*
X72716Y18779D02*
X72835D01*
X47638Y6496D02*
X51165Y2968D01*
X43110Y6496D02*
X47638D01*
X42913Y6299D02*
X43110Y6496D01*
X42913Y21654D02*
X42913Y21654D01*
Y13386D02*
Y21654D01*
X18504Y34843D02*
Y85630D01*
X20276Y39173D02*
X29921Y29528D01*
X20276Y39173D02*
Y85039D01*
X30906Y95669D01*
X31693Y21654D02*
X35827D01*
X18504Y34843D02*
X31693Y21654D01*
X42913D02*
Y29528D01*
X30906Y95669D02*
Y98819D01*
X29921Y29528D02*
X35827D01*
X42913Y29528D02*
Y37402D01*
X42913Y29528D02*
X42913Y29528D01*
X42913Y37402D02*
X42913Y37402D01*
X21850Y84252D02*
X33858Y96260D01*
X34055Y93701D02*
X36220D01*
X23622Y51968D02*
Y83268D01*
X36220Y93701D02*
X48622D01*
X23622Y83268D02*
X34055Y93701D01*
X21850Y45669D02*
Y84252D01*
X23622Y51968D02*
X30512Y45079D01*
X30118Y37402D02*
X35827D01*
X21850Y45669D02*
X30118Y37402D01*
X42913D02*
Y45276D01*
X42717Y45472D02*
X42913Y45276D01*
X30512Y45079D02*
X35827D01*
X25394Y56890D02*
X29134Y53150D01*
X25394Y56890D02*
Y82284D01*
X33613Y90503D01*
X35827Y45079D02*
Y45276D01*
X50235Y90503D02*
X56228D01*
X50235Y87403D02*
X56228D01*
X50235Y84203D02*
X56228D01*
X33613Y90503D02*
X38434D01*
X29134Y53150D02*
X35630D01*
X42717Y60827D02*
X42913Y61024D01*
X33072Y87403D02*
X40550D01*
X26969Y81299D02*
X33072Y87403D01*
X26969Y64173D02*
Y81299D01*
Y64173D02*
X30118Y61024D01*
X35827D01*
X42913D02*
X43110Y61221D01*
X32480Y84252D02*
X42717D01*
X28740Y80512D02*
X32480Y84252D01*
X28740Y70472D02*
Y80512D01*
Y70472D02*
X30315Y68898D01*
X35827D01*
X31299Y74410D02*
X32283Y73425D01*
X42126D01*
X42913Y69095D02*
Y72638D01*
X42126Y73425D02*
X42913Y72638D01*
X31299Y74410D02*
Y76968D01*
X32232Y77902D01*
X35827D01*
X43110Y77953D02*
Y78787D01*
X45426Y81103D01*
X50235D01*
X42913Y77902D02*
X43059D01*
X43110Y77953D01*
X50235Y77903D02*
X56228D01*
X41339Y114409D02*
X49764Y122835D01*
X56299D01*
X41339Y133622D02*
X48976Y125984D01*
X55905D01*
X55905Y125984D01*
X56299D01*
X51378Y197835D02*
Y205315D01*
X49016Y207677D02*
X51378Y205315D01*
X41142Y207677D02*
X49016D01*
X37992Y210827D02*
X41142Y207677D01*
X54724Y197244D02*
Y205906D01*
X45325Y226329D02*
X45374Y226279D01*
X45325Y222884D02*
Y226329D01*
X37992Y210827D02*
Y217913D01*
X39567Y219488D01*
X41929D01*
X45325Y222884D01*
X45276Y226378D02*
X45325Y226329D01*
X83465Y132283D02*
X88386D01*
X82284Y131102D02*
X83465Y132283D01*
X88386D02*
X88583Y132480D01*
X88779Y132283D02*
X89370D01*
X88583Y132480D02*
X88779Y132283D01*
X31299Y202559D02*
X35433D01*
X28937Y200197D02*
X31299Y202559D01*
X28937Y168701D02*
Y200197D01*
X89370Y168701D02*
X91929Y171260D01*
X89370Y160039D02*
Y168701D01*
X43307Y137008D02*
Y140551D01*
Y137008D02*
X51181Y129134D01*
X56299D01*
X72047Y125984D02*
X89370D01*
X62598Y135433D02*
X72047Y125984D01*
X56496Y135433D02*
X62598D01*
X56299Y135236D02*
Y135433D01*
X48228Y150197D02*
X48228Y150197D01*
X48228Y150197D02*
Y157480D01*
X43307Y140551D02*
X48425Y135433D01*
X56102D01*
X56299Y135236D02*
X56299Y135236D01*
X102362Y175394D02*
Y200591D01*
X100787Y199016D02*
X102362Y200591D01*
X100787Y182677D02*
Y199016D01*
X96752Y200591D02*
X102362D01*
X96752Y200590D02*
X96752Y200591D01*
X96457Y200590D02*
X96752D01*
X98622Y180512D02*
X100787Y182677D01*
X91339Y180512D02*
X98622D01*
X88061Y183789D02*
X91339Y180512D01*
X82185Y183789D02*
X88061D01*
X88976Y198228D02*
X91929Y195276D01*
X76772Y198228D02*
X88976D01*
X74410Y195866D02*
X76772Y198228D01*
X74410Y190748D02*
Y195866D01*
X63976Y188583D02*
X64183Y188789D01*
X72451D01*
X74410Y190748D01*
X63484Y188789D02*
X63770D01*
X63976Y188583D01*
X107678Y68503D02*
X109646Y66535D01*
X95472Y68503D02*
X107678D01*
X97047Y117913D02*
X98819Y119685D01*
X97047Y110827D02*
Y117913D01*
Y110827D02*
X101969Y105905D01*
X103740D01*
X108268Y101378D01*
Y96850D02*
Y101378D01*
X108268Y96260D02*
Y96850D01*
X108268Y96850D02*
X108268Y96850D01*
X104331Y147441D02*
X109449D01*
X109449Y147441D01*
X104134Y147835D02*
X104331Y147638D01*
Y147441D02*
Y147638D01*
X95079Y110433D02*
Y133661D01*
Y110433D02*
X101772Y103740D01*
Y79724D02*
Y103740D01*
X99950Y77903D02*
X101772Y79724D01*
X95435Y77903D02*
X99950D01*
X54134Y157480D02*
X60433D01*
X64961Y150394D02*
Y156693D01*
X43012Y157480D02*
X48228D01*
X29921Y154921D02*
X35728D01*
X27559Y152559D02*
X29921Y154921D01*
X27559Y148228D02*
Y152559D01*
X28937Y161811D02*
X30709Y160039D01*
X35728D01*
X28937Y161811D02*
Y168701D01*
X54724Y197244D02*
X55679Y196289D01*
X63484D01*
X104134Y147835D02*
Y167126D01*
X88535Y97403D02*
Y108119D01*
X89442Y90503D02*
X95435D01*
X89442Y87403D02*
X95435D01*
X89442Y84203D02*
X95435D01*
X89442Y81103D02*
X95435D01*
X82235Y97403D02*
Y103396D01*
X88535Y52203D02*
Y58196D01*
X85435Y52203D02*
Y58196D01*
X82235Y52203D02*
Y58196D01*
X79135Y52203D02*
Y58196D01*
X75935Y52203D02*
Y58196D01*
X69735Y52203D02*
Y58196D01*
X95435Y59103D02*
X101428D01*
X89442Y77903D02*
X95435D01*
X85435Y97403D02*
Y103396D01*
X46850Y101378D02*
X51968Y106496D01*
X29724Y101378D02*
X46850D01*
X51968Y106496D02*
X62795D01*
X66535Y102756D01*
Y97441D02*
Y102756D01*
X66535Y97440D02*
X66535Y97441D01*
X66535Y97403D02*
Y97440D01*
X30906Y98819D02*
X47835D01*
X54799Y103224D02*
X58784D01*
X47835Y98819D02*
X53740Y104724D01*
X58784Y103224D02*
X60235Y101773D01*
X47835Y96260D02*
X54799Y103224D01*
X53740Y104724D02*
X60630D01*
X63435Y98277D02*
Y101920D01*
X60630Y104724D02*
X63435Y101920D01*
X63189Y98032D02*
X63435Y98277D01*
Y97403D02*
Y97786D01*
X63189Y98032D02*
X63435Y97786D01*
X33858Y96260D02*
X47835D01*
X60235Y97403D02*
Y101773D01*
X52324Y97403D02*
X57135D01*
X48622Y93701D02*
X52324Y97403D01*
X38434Y90503D02*
X50235D01*
X40550Y87403D02*
X50235D01*
X50210Y84228D02*
X50235Y84203D01*
X42741Y84228D02*
X50210D01*
X42717Y84252D02*
X42741Y84228D01*
X50235Y81103D02*
X56228D01*
X63435Y52203D02*
Y58196D01*
X60235Y52203D02*
Y58196D01*
X50235Y62203D02*
X56228D01*
X50235Y65403D02*
X56228D01*
X50235Y68503D02*
X56228D01*
X50235Y71703D02*
X56228D01*
X51142Y52203D02*
X57135D01*
X35433Y173819D02*
Y178937D01*
Y173819D02*
X37992Y171260D01*
X67323D01*
X68947Y172884D01*
Y182136D01*
X75600Y188789D01*
X82185D01*
X45276Y175000D02*
Y178937D01*
Y175000D02*
X46486Y173789D01*
X63160D01*
X63189Y173819D01*
X63218Y173789D01*
X63484D01*
X75000Y172441D02*
X76378Y173819D01*
X71653Y178740D02*
X74104Y176289D01*
X71653Y178740D02*
Y179134D01*
X74104Y176289D02*
X82185D01*
X76378Y173819D02*
X80905D01*
X80935Y173789D01*
X82185D01*
X54478Y191289D02*
X63484D01*
X53543Y190354D02*
X54478Y191289D01*
X53543Y186024D02*
Y190354D01*
X60433Y228740D02*
X66732D01*
X71244Y233252D01*
X60433Y228740D02*
Y231102D01*
X58465Y233071D02*
X60433Y231102D01*
X48819Y233071D02*
X58465D01*
X45374Y229626D02*
X48819Y233071D01*
X45276Y226378D02*
X45276D01*
X108268Y80905D02*
Y88779D01*
X96457Y200590D02*
Y206693D01*
X98622Y208858D01*
X108268Y200590D02*
X119882D01*
X108268Y185236D02*
Y193110D01*
X96457Y193110D02*
X96457Y193110D01*
X96457Y185236D02*
Y193110D01*
X113779Y210630D02*
Y212205D01*
X110039Y215945D02*
X113779Y212205D01*
X106496Y215945D02*
X110039D01*
X106102Y215746D02*
X106297D01*
X106496Y215945D01*
X119882Y200590D02*
X132402Y213110D01*
X113189Y230315D02*
X115354Y232480D01*
X134449D01*
X111417Y232087D02*
X113189Y230315D01*
X101181Y232087D02*
X111417D01*
X98622Y229528D02*
X101181Y232087D01*
X98622Y225199D02*
Y229528D01*
X84252Y225787D02*
X88189Y221850D01*
X84252Y225787D02*
Y230315D01*
X81315Y233252D02*
X84252Y230315D01*
X88189Y221850D02*
X91732D01*
X93701Y219882D01*
Y217717D02*
Y219882D01*
Y217717D02*
X95669Y215748D01*
X35433Y228937D02*
X38189Y231693D01*
X35433Y202559D02*
Y228937D01*
Y202559D02*
X45276D01*
Y187205D02*
Y195079D01*
X35433Y187205D02*
Y195079D01*
X98622Y208858D02*
Y215746D01*
X132402Y213110D02*
X137835D01*
X67126Y218701D02*
X78347D01*
X81201Y215846D01*
X64468Y216043D02*
X67126Y218701D01*
X64468Y215846D02*
Y216043D01*
X71161Y210531D02*
X74606Y213976D01*
Y215748D01*
X74508Y215846D02*
X74606Y215748D01*
X134449Y232480D02*
X137835Y229095D01*
Y213110D02*
Y229095D01*
X98620Y215748D02*
X98622Y215746D01*
X95669Y215748D02*
X98620D01*
X71244Y233252D02*
X81315D01*
X45276Y214567D02*
Y219291D01*
X47244Y221260D01*
X59055D02*
X64468Y215846D01*
X47244Y221260D02*
X59055D01*
X64468Y210531D02*
Y215846D01*
X64272Y210531D02*
X64468D01*
X81201D02*
Y215846D01*
X137835Y203110D02*
Y213110D01*
X7835Y203110D02*
Y213110D01*
D18*
X108268Y46063D02*
D03*
Y32677D02*
D03*
Y20472D02*
D03*
Y7087D02*
D03*
D19*
X42913Y6299D02*
D03*
Y13386D02*
D03*
D20*
X108268Y96260D02*
D03*
Y88779D02*
D03*
X96457Y193110D02*
D03*
Y200590D02*
D03*
X45276Y202559D02*
D03*
Y195079D02*
D03*
X108268Y193110D02*
D03*
Y200590D02*
D03*
X35433Y202559D02*
D03*
Y195079D02*
D03*
D21*
X108268Y80905D02*
D03*
Y72638D02*
D03*
X96457Y185236D02*
D03*
Y176969D02*
D03*
X108268Y185236D02*
D03*
Y176969D02*
D03*
X45276Y187205D02*
D03*
Y178937D02*
D03*
X35433Y187205D02*
D03*
Y178937D02*
D03*
D22*
X76968Y163386D02*
D03*
X68701D02*
D03*
D23*
X45276Y226378D02*
D03*
Y214567D02*
D03*
D24*
X82185Y196289D02*
D03*
Y193789D02*
D03*
Y191289D02*
D03*
Y188789D02*
D03*
Y186289D02*
D03*
Y183789D02*
D03*
Y181289D02*
D03*
Y178789D02*
D03*
Y176289D02*
D03*
Y173789D02*
D03*
X63484D02*
D03*
Y176289D02*
D03*
Y178789D02*
D03*
Y181289D02*
D03*
Y183789D02*
D03*
Y186289D02*
D03*
Y188789D02*
D03*
Y191289D02*
D03*
Y193789D02*
D03*
Y196289D02*
D03*
D25*
X104331Y147441D02*
D03*
Y112402D02*
D03*
D26*
X53543Y180118D02*
D03*
Y186024D02*
D03*
D27*
X98622Y225199D02*
D03*
X106102D02*
D03*
Y215746D02*
D03*
X102362D02*
D03*
D28*
X98622D02*
D03*
D29*
X54134Y157480D02*
D03*
X48228D02*
D03*
D30*
X57135Y52203D02*
D03*
X60235D02*
D03*
X63435D02*
D03*
X66535D02*
D03*
X69735D02*
D03*
X72835D02*
D03*
X75935D02*
D03*
X79135D02*
D03*
X82235D02*
D03*
X85435D02*
D03*
X88535D02*
D03*
Y97403D02*
D03*
X85435D02*
D03*
X82235D02*
D03*
X79135D02*
D03*
X75935D02*
D03*
X72835D02*
D03*
X69735D02*
D03*
X66535D02*
D03*
X63435D02*
D03*
X60235D02*
D03*
X57135D02*
D03*
D31*
X95435Y59103D02*
D03*
Y62203D02*
D03*
Y65403D02*
D03*
Y68503D02*
D03*
Y71703D02*
D03*
Y74803D02*
D03*
Y77903D02*
D03*
Y81103D02*
D03*
Y84203D02*
D03*
Y87403D02*
D03*
Y90503D02*
D03*
X50235D02*
D03*
Y87403D02*
D03*
Y84203D02*
D03*
Y81103D02*
D03*
Y77903D02*
D03*
Y74803D02*
D03*
Y71703D02*
D03*
Y68503D02*
D03*
Y65403D02*
D03*
Y62203D02*
D03*
Y59103D02*
D03*
D32*
X35827Y21654D02*
D03*
X42913D02*
D03*
X35827Y29528D02*
D03*
X42913D02*
D03*
X35827Y37402D02*
D03*
X42913D02*
D03*
X35827Y45276D02*
D03*
X42913D02*
D03*
X35827Y53150D02*
D03*
X42913D02*
D03*
X35827Y61024D02*
D03*
X42913D02*
D03*
X35827Y68898D02*
D03*
X42913D02*
D03*
X42913Y77902D02*
D03*
X35827D02*
D03*
D33*
X56299Y144882D02*
D03*
Y141732D02*
D03*
Y138583D02*
D03*
Y135433D02*
D03*
Y132283D02*
D03*
Y129134D02*
D03*
Y125984D02*
D03*
Y122835D02*
D03*
X89370D02*
D03*
Y125984D02*
D03*
Y129134D02*
D03*
Y132283D02*
D03*
Y135433D02*
D03*
Y138583D02*
D03*
Y141732D02*
D03*
Y144882D02*
D03*
D34*
X61811Y117323D02*
D03*
X64961D02*
D03*
X68110D02*
D03*
X71260D02*
D03*
X74410D02*
D03*
X77559D02*
D03*
X80709D02*
D03*
X83858D02*
D03*
Y150394D02*
D03*
X80709D02*
D03*
X77559D02*
D03*
X74410D02*
D03*
X71260D02*
D03*
X68110D02*
D03*
X64961D02*
D03*
X61811D02*
D03*
D39*
X43012Y157480D02*
D03*
X35728Y154921D02*
D03*
Y160039D02*
D03*
D50*
X84547Y215846D02*
D03*
X81201D02*
D03*
X77854D02*
D03*
X74508D02*
D03*
X71161D02*
D03*
X67815D02*
D03*
X64468D02*
D03*
X61122D02*
D03*
Y210531D02*
D03*
X64468D02*
D03*
X67815D02*
D03*
X71161D02*
D03*
X74508D02*
D03*
X77854D02*
D03*
X81201D02*
D03*
D51*
X84547D02*
D03*
D52*
X55807Y214390D02*
D03*
X89862D02*
D03*
D53*
X55807Y227697D02*
D03*
X89862D02*
D03*
D60*
X63228Y35433D02*
D03*
D61*
X82441D02*
D03*
X41339Y133622D02*
D03*
D62*
Y114409D02*
D03*
D63*
X122047Y220472D02*
D03*
X23622D02*
D03*
X122047Y15748D02*
D03*
D64*
X23622D02*
D03*
D65*
X137835Y73110D02*
D03*
Y103110D02*
D03*
Y113110D02*
D03*
Y123110D02*
D03*
Y143110D02*
D03*
Y153110D02*
D03*
Y173110D02*
D03*
Y193110D02*
D03*
Y203110D02*
D03*
Y183110D02*
D03*
Y163110D02*
D03*
Y133110D02*
D03*
Y93110D02*
D03*
Y83110D02*
D03*
Y63110D02*
D03*
Y53110D02*
D03*
Y43110D02*
D03*
Y33110D02*
D03*
Y23110D02*
D03*
X7835Y73110D02*
D03*
Y103110D02*
D03*
Y113110D02*
D03*
Y123110D02*
D03*
Y143110D02*
D03*
Y153110D02*
D03*
Y173110D02*
D03*
Y193110D02*
D03*
Y203110D02*
D03*
Y183110D02*
D03*
Y163110D02*
D03*
Y133110D02*
D03*
Y93110D02*
D03*
Y83110D02*
D03*
Y63110D02*
D03*
Y53110D02*
D03*
Y43110D02*
D03*
Y33110D02*
D03*
Y23110D02*
D03*
D66*
X137835Y213110D02*
D03*
X7835D02*
D03*
D67*
X82835Y8779D02*
D03*
Y18779D02*
D03*
X92835Y8779D02*
D03*
X72835Y18779D02*
D03*
Y8779D02*
D03*
X62835Y18779D02*
D03*
X52835D02*
D03*
X62835Y8779D02*
D03*
X52835D02*
D03*
D68*
X92835Y18779D02*
D03*
D69*
X116535Y129528D02*
D03*
X100197Y23622D02*
D03*
X49803Y31693D02*
D03*
X112795Y147047D02*
D03*
X92126Y174606D02*
D03*
Y184646D02*
D03*
X89370Y188189D02*
D03*
X91915Y190186D02*
D03*
X115157Y35236D02*
D03*
X129724Y24016D02*
D03*
X54478Y191289D02*
D03*
X69095Y169291D02*
D03*
X111221Y125394D02*
D03*
X95079Y144882D02*
D03*
X81496Y123425D02*
D03*
Y141535D02*
D03*
X84646Y13780D02*
D03*
X3937Y9843D02*
D03*
X115945Y137992D02*
D03*
Y147835D02*
D03*
X100492Y152067D02*
D03*
X108268Y172441D02*
D03*
X127559Y168110D02*
D03*
X101772Y141339D02*
D03*
X95472Y168504D02*
D03*
X101378Y165157D02*
D03*
X68110Y156693D02*
D03*
X109646Y53347D02*
D03*
X95472Y40748D02*
D03*
X57874Y14961D02*
D03*
X104528Y61417D02*
D03*
X103937Y27362D02*
D03*
X129724Y7087D02*
D03*
X69488Y103347D02*
D03*
X66339Y105905D02*
D03*
X63386Y109055D02*
D03*
X59646Y92323D02*
D03*
X50197Y56102D02*
D03*
X66142Y111614D02*
D03*
X52165Y150197D02*
D03*
X57874Y149409D02*
D03*
X27197Y98622D02*
D03*
X11811Y13976D02*
D03*
X14961Y12008D02*
D03*
X70866Y31496D02*
D03*
X56228Y90503D02*
D03*
Y87403D02*
D03*
Y84203D02*
D03*
X31299Y74410D02*
D03*
X56228Y77903D02*
D03*
X51378Y197835D02*
D03*
X54724Y205906D02*
D03*
X82284Y131102D02*
D03*
X89370Y160039D02*
D03*
X48228Y150197D02*
D03*
X43307Y140551D02*
D03*
X91929Y171260D02*
D03*
X102362Y200591D02*
D03*
X106890Y50591D02*
D03*
X98819Y119685D02*
D03*
X109449Y147441D02*
D03*
X95079Y133661D02*
D03*
X64961Y156693D02*
D03*
X27559Y148228D02*
D03*
X28937Y168701D02*
D03*
X88535Y108119D02*
D03*
X89442Y90503D02*
D03*
Y87403D02*
D03*
Y84203D02*
D03*
Y81103D02*
D03*
X82235Y103396D02*
D03*
X88535Y58196D02*
D03*
X85435D02*
D03*
X82235D02*
D03*
X79135D02*
D03*
X75935D02*
D03*
X69735D02*
D03*
X101428Y59103D02*
D03*
X89442Y77903D02*
D03*
X85435Y103396D02*
D03*
X30906Y98819D02*
D03*
X33858Y96260D02*
D03*
X36220Y93701D02*
D03*
X38434Y90503D02*
D03*
X40550Y87403D02*
D03*
X42717Y84252D02*
D03*
X56228Y81103D02*
D03*
X63435Y58196D02*
D03*
X60235D02*
D03*
X56228Y62203D02*
D03*
Y65403D02*
D03*
Y68503D02*
D03*
Y71703D02*
D03*
X51142Y52203D02*
D03*
D70*
X75000Y172441D02*
D03*
X71653Y179134D02*
D03*
X60433Y228740D02*
D03*
X113779Y210630D02*
D03*
X113189Y230315D02*
D03*
X88189Y221850D02*
D03*
X38189Y231693D02*
D03*
M02*
