G04*
G04 #@! TF.GenerationSoftware,Altium Limited,Altium Designer,21.0.9 (235)*
G04*
G04 Layer_Color=8388736*
%FSLAX25Y25*%
%MOIN*%
G70*
G04*
G04 #@! TF.SameCoordinates,12F949BB-F579-4A56-8052-0240B8454CB7*
G04*
G04*
G04 #@! TF.FilePolarity,Negative*
G04*
G01*
G75*
%ADD18R,0.06693X0.03150*%
%ADD23R,0.09843X0.03937*%
G04:AMPARAMS|DCode=24|XSize=88.58mil|YSize=15.75mil|CornerRadius=7.87mil|HoleSize=0mil|Usage=FLASHONLY|Rotation=0.000|XOffset=0mil|YOffset=0mil|HoleType=Round|Shape=RoundedRectangle|*
%AMROUNDEDRECTD24*
21,1,0.08858,0.00000,0,0,0.0*
21,1,0.07284,0.01575,0,0,0.0*
1,1,0.01575,0.03642,0.00000*
1,1,0.01575,-0.03642,0.00000*
1,1,0.01575,-0.03642,0.00000*
1,1,0.01575,0.03642,0.00000*
%
%ADD24ROUNDEDRECTD24*%
%ADD25R,0.04331X0.05906*%
%ADD26R,0.05315X0.03740*%
G04:AMPARAMS|DCode=27|XSize=67.21mil|YSize=24.25mil|CornerRadius=12.12mil|HoleSize=0mil|Usage=FLASHONLY|Rotation=90.000|XOffset=0mil|YOffset=0mil|HoleType=Round|Shape=RoundedRectangle|*
%AMROUNDEDRECTD27*
21,1,0.06721,0.00000,0,0,90.0*
21,1,0.04296,0.02425,0,0,90.0*
1,1,0.02425,0.00000,0.02148*
1,1,0.02425,0.00000,-0.02148*
1,1,0.02425,0.00000,-0.02148*
1,1,0.02425,0.00000,0.02148*
%
%ADD27ROUNDEDRECTD27*%
%ADD28R,0.02425X0.06721*%
%ADD29R,0.03740X0.05315*%
%ADD35R,0.06115X0.04737*%
%ADD36R,0.06902X0.06312*%
%ADD37R,0.05524X0.05131*%
%ADD38R,0.05131X0.05524*%
%ADD39R,0.02165X0.02362*%
%ADD40R,0.02800X0.06600*%
%ADD41R,0.06600X0.02800*%
%ADD42R,0.04737X0.06115*%
%ADD43O,0.07296X0.02965*%
%ADD44O,0.02965X0.07296*%
%ADD45R,0.05524X0.05524*%
%ADD46C,0.05524*%
%ADD47R,0.05524X0.05524*%
%ADD48C,0.14580*%
%ADD49O,0.14186X0.14580*%
%ADD50C,0.02559*%
%ADD51R,0.02559X0.02559*%
G04:AMPARAMS|DCode=52|XSize=35.43mil|YSize=94.49mil|CornerRadius=17.72mil|HoleSize=0mil|Usage=FLASHONLY|Rotation=180.000|XOffset=0mil|YOffset=0mil|HoleType=Round|Shape=RoundedRectangle|*
%AMROUNDEDRECTD52*
21,1,0.03543,0.05906,0,0,180.0*
21,1,0.00000,0.09449,0,0,180.0*
1,1,0.03543,0.00000,0.02953*
1,1,0.03543,0.00000,0.02953*
1,1,0.03543,0.00000,-0.02953*
1,1,0.03543,0.00000,-0.02953*
%
%ADD52ROUNDEDRECTD52*%
G04:AMPARAMS|DCode=53|XSize=35.43mil|YSize=66.93mil|CornerRadius=17.72mil|HoleSize=0mil|Usage=FLASHONLY|Rotation=180.000|XOffset=0mil|YOffset=0mil|HoleType=Round|Shape=RoundedRectangle|*
%AMROUNDEDRECTD53*
21,1,0.03543,0.03150,0,0,180.0*
21,1,0.00000,0.06693,0,0,180.0*
1,1,0.03543,0.00000,0.01575*
1,1,0.03543,0.00000,0.01575*
1,1,0.03543,0.00000,-0.01575*
1,1,0.03543,0.00000,-0.01575*
%
%ADD53ROUNDEDRECTD53*%
%ADD54C,0.07099*%
%ADD55R,0.07099X0.07099*%
%ADD56C,0.07296*%
%ADD57R,0.07296X0.07296*%
%ADD58C,0.02800*%
%ADD59C,0.03800*%
D18*
X108268Y46063D02*
D03*
Y32677D02*
D03*
Y20472D02*
D03*
Y7087D02*
D03*
D23*
X45276Y226378D02*
D03*
Y214567D02*
D03*
D24*
X82185Y196289D02*
D03*
Y193789D02*
D03*
Y191289D02*
D03*
Y188789D02*
D03*
Y186289D02*
D03*
Y183789D02*
D03*
Y181289D02*
D03*
Y178789D02*
D03*
Y176289D02*
D03*
Y173789D02*
D03*
X63484D02*
D03*
Y176289D02*
D03*
Y178789D02*
D03*
Y181289D02*
D03*
Y183789D02*
D03*
Y186289D02*
D03*
Y188789D02*
D03*
Y191289D02*
D03*
Y193789D02*
D03*
Y196289D02*
D03*
D25*
X104331Y147441D02*
D03*
Y112402D02*
D03*
D26*
X53543Y180118D02*
D03*
Y186024D02*
D03*
D27*
X98622Y225199D02*
D03*
X106102D02*
D03*
Y215746D02*
D03*
X102362D02*
D03*
D28*
X98622D02*
D03*
D29*
X54134Y157480D02*
D03*
X48228D02*
D03*
D35*
X42913Y6299D02*
D03*
Y13386D02*
D03*
D36*
X108268Y96260D02*
D03*
Y88779D02*
D03*
X96457Y193110D02*
D03*
Y200590D02*
D03*
X45276Y202559D02*
D03*
Y195079D02*
D03*
X108268Y193110D02*
D03*
Y200590D02*
D03*
X35433Y202559D02*
D03*
Y195079D02*
D03*
D37*
X108268Y80905D02*
D03*
Y72638D02*
D03*
X96457Y185236D02*
D03*
Y176969D02*
D03*
X108268Y185236D02*
D03*
Y176969D02*
D03*
X45276Y187205D02*
D03*
Y178937D02*
D03*
X35433Y187205D02*
D03*
Y178937D02*
D03*
D38*
X76968Y163386D02*
D03*
X68701D02*
D03*
D39*
X43012Y157480D02*
D03*
X35728Y154921D02*
D03*
Y160039D02*
D03*
D40*
X57135Y52203D02*
D03*
X60235D02*
D03*
X63435D02*
D03*
X66535D02*
D03*
X69735D02*
D03*
X72835D02*
D03*
X75935D02*
D03*
X79135D02*
D03*
X82235D02*
D03*
X85435D02*
D03*
X88535D02*
D03*
Y97403D02*
D03*
X85435D02*
D03*
X82235D02*
D03*
X79135D02*
D03*
X75935D02*
D03*
X72835D02*
D03*
X69735D02*
D03*
X66535D02*
D03*
X63435D02*
D03*
X60235D02*
D03*
X57135D02*
D03*
D41*
X95435Y59103D02*
D03*
Y62203D02*
D03*
Y65403D02*
D03*
Y68503D02*
D03*
Y71703D02*
D03*
Y74803D02*
D03*
Y77903D02*
D03*
Y81103D02*
D03*
Y84203D02*
D03*
Y87403D02*
D03*
Y90503D02*
D03*
X50235D02*
D03*
Y87403D02*
D03*
Y84203D02*
D03*
Y81103D02*
D03*
Y77903D02*
D03*
Y74803D02*
D03*
Y71703D02*
D03*
Y68503D02*
D03*
Y65403D02*
D03*
Y62203D02*
D03*
Y59103D02*
D03*
D42*
X35827Y21654D02*
D03*
X42913D02*
D03*
X35827Y29528D02*
D03*
X42913D02*
D03*
X35827Y37402D02*
D03*
X42913D02*
D03*
X35827Y45276D02*
D03*
X42913D02*
D03*
X35827Y53150D02*
D03*
X42913D02*
D03*
X35827Y61024D02*
D03*
X42913D02*
D03*
X35827Y68898D02*
D03*
X42913D02*
D03*
X42913Y77902D02*
D03*
X35827D02*
D03*
D43*
X56299Y144882D02*
D03*
Y141732D02*
D03*
Y138583D02*
D03*
Y135433D02*
D03*
Y132283D02*
D03*
Y129134D02*
D03*
Y125984D02*
D03*
Y122835D02*
D03*
X89370D02*
D03*
Y125984D02*
D03*
Y129134D02*
D03*
Y132283D02*
D03*
Y135433D02*
D03*
Y138583D02*
D03*
Y141732D02*
D03*
Y144882D02*
D03*
D44*
X61811Y117323D02*
D03*
X64961D02*
D03*
X68110D02*
D03*
X71260D02*
D03*
X74410D02*
D03*
X77559D02*
D03*
X80709D02*
D03*
X83858D02*
D03*
Y150394D02*
D03*
X80709D02*
D03*
X77559D02*
D03*
X74410D02*
D03*
X71260D02*
D03*
X68110D02*
D03*
X64961D02*
D03*
X61811D02*
D03*
D45*
X63228Y35433D02*
D03*
D46*
X82441D02*
D03*
X41339Y133622D02*
D03*
D47*
Y114409D02*
D03*
D48*
X122047Y220472D02*
D03*
X23622D02*
D03*
X122047Y15748D02*
D03*
D49*
X23622D02*
D03*
D50*
X84547Y215846D02*
D03*
X81201D02*
D03*
X77854D02*
D03*
X74508D02*
D03*
X71161D02*
D03*
X67815D02*
D03*
X64468D02*
D03*
X61122D02*
D03*
Y210531D02*
D03*
X64468D02*
D03*
X67815D02*
D03*
X71161D02*
D03*
X74508D02*
D03*
X77854D02*
D03*
X81201D02*
D03*
D51*
X84547D02*
D03*
D52*
X55807Y214390D02*
D03*
X89862D02*
D03*
D53*
X55807Y227697D02*
D03*
X89862D02*
D03*
D54*
X137835Y73110D02*
D03*
Y103110D02*
D03*
Y113110D02*
D03*
Y123110D02*
D03*
Y143110D02*
D03*
Y153110D02*
D03*
Y173110D02*
D03*
Y193110D02*
D03*
Y203110D02*
D03*
Y183110D02*
D03*
Y163110D02*
D03*
Y133110D02*
D03*
Y93110D02*
D03*
Y83110D02*
D03*
Y63110D02*
D03*
Y53110D02*
D03*
Y43110D02*
D03*
Y33110D02*
D03*
Y23110D02*
D03*
X7835Y73110D02*
D03*
Y103110D02*
D03*
Y113110D02*
D03*
Y123110D02*
D03*
Y143110D02*
D03*
Y153110D02*
D03*
Y173110D02*
D03*
Y193110D02*
D03*
Y203110D02*
D03*
Y183110D02*
D03*
Y163110D02*
D03*
Y133110D02*
D03*
Y93110D02*
D03*
Y83110D02*
D03*
Y63110D02*
D03*
Y53110D02*
D03*
Y43110D02*
D03*
Y33110D02*
D03*
Y23110D02*
D03*
D55*
X137835Y213110D02*
D03*
X7835D02*
D03*
D56*
X82835Y8779D02*
D03*
Y18779D02*
D03*
X92835Y8779D02*
D03*
X72835Y18779D02*
D03*
Y8779D02*
D03*
X62835Y18779D02*
D03*
X52835D02*
D03*
X62835Y8779D02*
D03*
X52835D02*
D03*
D57*
X92835Y18779D02*
D03*
D58*
X116535Y129528D02*
D03*
X100197Y23622D02*
D03*
X49803Y31693D02*
D03*
X112795Y147047D02*
D03*
X92126Y174606D02*
D03*
Y184646D02*
D03*
X89370Y188189D02*
D03*
X91915Y190186D02*
D03*
X115157Y35236D02*
D03*
X129724Y24016D02*
D03*
X54478Y191289D02*
D03*
X69095Y169291D02*
D03*
X111221Y125394D02*
D03*
X95079Y144882D02*
D03*
X81496Y123425D02*
D03*
Y141535D02*
D03*
X84646Y13780D02*
D03*
X3937Y9843D02*
D03*
X115945Y137992D02*
D03*
Y147835D02*
D03*
X100492Y152067D02*
D03*
X108268Y172441D02*
D03*
X127559Y168110D02*
D03*
X101772Y141339D02*
D03*
X95472Y168504D02*
D03*
X101378Y165157D02*
D03*
X68110Y156693D02*
D03*
X109646Y53347D02*
D03*
X95472Y40748D02*
D03*
X57874Y14961D02*
D03*
X104528Y61417D02*
D03*
X103937Y27362D02*
D03*
X129724Y7087D02*
D03*
X69488Y103347D02*
D03*
X66339Y105905D02*
D03*
X63386Y109055D02*
D03*
X59646Y92323D02*
D03*
X50197Y56102D02*
D03*
X66142Y111614D02*
D03*
X52165Y150197D02*
D03*
X57874Y149409D02*
D03*
X27197Y98622D02*
D03*
X11811Y13976D02*
D03*
X14961Y12008D02*
D03*
X70866Y31496D02*
D03*
X56228Y90503D02*
D03*
Y87403D02*
D03*
Y84203D02*
D03*
X31299Y74410D02*
D03*
X56228Y77903D02*
D03*
X51378Y197835D02*
D03*
X54724Y205906D02*
D03*
X82284Y131102D02*
D03*
X89370Y160039D02*
D03*
X48228Y150197D02*
D03*
X43307Y140551D02*
D03*
X91929Y171260D02*
D03*
X102362Y200591D02*
D03*
X106890Y50591D02*
D03*
X98819Y119685D02*
D03*
X109449Y147441D02*
D03*
X95079Y133661D02*
D03*
X64961Y156693D02*
D03*
X27559Y148228D02*
D03*
X28937Y168701D02*
D03*
X88535Y108119D02*
D03*
X89442Y90503D02*
D03*
Y87403D02*
D03*
Y84203D02*
D03*
Y81103D02*
D03*
X82235Y103396D02*
D03*
X88535Y58196D02*
D03*
X85435D02*
D03*
X82235D02*
D03*
X79135D02*
D03*
X75935D02*
D03*
X69735D02*
D03*
X101428Y59103D02*
D03*
X89442Y77903D02*
D03*
X85435Y103396D02*
D03*
X30906Y98819D02*
D03*
X33858Y96260D02*
D03*
X36220Y93701D02*
D03*
X38434Y90503D02*
D03*
X40550Y87403D02*
D03*
X42717Y84252D02*
D03*
X56228Y81103D02*
D03*
X63435Y58196D02*
D03*
X60235D02*
D03*
X56228Y62203D02*
D03*
Y65403D02*
D03*
Y68503D02*
D03*
Y71703D02*
D03*
X51142Y52203D02*
D03*
D59*
X75000Y172441D02*
D03*
X71653Y179134D02*
D03*
X60433Y228740D02*
D03*
X113779Y210630D02*
D03*
X113189Y230315D02*
D03*
X88189Y221850D02*
D03*
X38189Y231693D02*
D03*
M02*
