G04*
G04 #@! TF.GenerationSoftware,Altium Limited,Altium Designer,21.0.9 (235)*
G04*
G04 Layer_Physical_Order=2*
G04 Layer_Color=16711680*
%FSLAX25Y25*%
%MOIN*%
G70*
G04*
G04 #@! TF.SameCoordinates,12F949BB-F579-4A56-8052-0240B8454CB7*
G04*
G04*
G04 #@! TF.FilePolarity,Positive*
G04*
G01*
G75*
%ADD12C,0.01000*%
%ADD19R,0.05315X0.03937*%
%ADD20R,0.06102X0.05512*%
%ADD26R,0.05315X0.03740*%
%ADD29R,0.03740X0.05315*%
%ADD32R,0.03937X0.05315*%
%ADD50C,0.02559*%
%ADD51R,0.02559X0.02559*%
G04:AMPARAMS|DCode=52|XSize=35.43mil|YSize=94.49mil|CornerRadius=17.72mil|HoleSize=0mil|Usage=FLASHONLY|Rotation=180.000|XOffset=0mil|YOffset=0mil|HoleType=Round|Shape=RoundedRectangle|*
%AMROUNDEDRECTD52*
21,1,0.03543,0.05906,0,0,180.0*
21,1,0.00000,0.09449,0,0,180.0*
1,1,0.03543,0.00000,0.02953*
1,1,0.03543,0.00000,0.02953*
1,1,0.03543,0.00000,-0.02953*
1,1,0.03543,0.00000,-0.02953*
%
%ADD52ROUNDEDRECTD52*%
G04:AMPARAMS|DCode=53|XSize=35.43mil|YSize=66.93mil|CornerRadius=17.72mil|HoleSize=0mil|Usage=FLASHONLY|Rotation=180.000|XOffset=0mil|YOffset=0mil|HoleType=Round|Shape=RoundedRectangle|*
%AMROUNDEDRECTD53*
21,1,0.03543,0.03150,0,0,180.0*
21,1,0.00000,0.06693,0,0,180.0*
1,1,0.03543,0.00000,0.01575*
1,1,0.03543,0.00000,0.01575*
1,1,0.03543,0.00000,-0.01575*
1,1,0.03543,0.00000,-0.01575*
%
%ADD53ROUNDEDRECTD53*%
%ADD60R,0.04724X0.04724*%
%ADD61C,0.04724*%
%ADD62R,0.04724X0.04724*%
%ADD63C,0.13780*%
%ADD64O,0.13386X0.13780*%
%ADD65C,0.06299*%
%ADD66R,0.06299X0.06299*%
%ADD67C,0.06496*%
%ADD68R,0.06496X0.06496*%
%ADD69C,0.02000*%
%ADD70C,0.03000*%
%ADD71R,0.04724X0.05709*%
%ADD72R,0.04331X0.05315*%
%ADD73R,0.04134X0.03150*%
%ADD74R,0.05315X0.05709*%
%ADD75R,0.03150X0.04134*%
G04:AMPARAMS|DCode=76|XSize=17.72mil|YSize=62.99mil|CornerRadius=1.95mil|HoleSize=0mil|Usage=FLASHONLY|Rotation=180.000|XOffset=0mil|YOffset=0mil|HoleType=Round|Shape=RoundedRectangle|*
%AMROUNDEDRECTD76*
21,1,0.01772,0.05909,0,0,180.0*
21,1,0.01382,0.06299,0,0,180.0*
1,1,0.00390,-0.00691,0.02955*
1,1,0.00390,0.00691,0.02955*
1,1,0.00390,0.00691,-0.02955*
1,1,0.00390,-0.00691,-0.02955*
%
%ADD76ROUNDEDRECTD76*%
G04:AMPARAMS|DCode=77|XSize=11.81mil|YSize=39.37mil|CornerRadius=1.95mil|HoleSize=0mil|Usage=FLASHONLY|Rotation=0.000|XOffset=0mil|YOffset=0mil|HoleType=Round|Shape=RoundedRectangle|*
%AMROUNDEDRECTD77*
21,1,0.01181,0.03547,0,0,0.0*
21,1,0.00791,0.03937,0,0,0.0*
1,1,0.00390,0.00396,-0.01774*
1,1,0.00390,-0.00396,-0.01774*
1,1,0.00390,-0.00396,0.01774*
1,1,0.00390,0.00396,0.01774*
%
%ADD77ROUNDEDRECTD77*%
%ADD78R,0.05709X0.05315*%
%ADD79R,0.05315X0.03740*%
%ADD80R,0.05315X0.09252*%
%ADD81R,0.05512X0.04134*%
G36*
X137795Y233704D02*
Y233704D01*
X138287Y233683D01*
X139193Y233564D01*
X140496Y233025D01*
X141615Y232166D01*
X142473Y231047D01*
X143013Y229745D01*
X143132Y228838D01*
X143152Y228346D01*
X143152Y228346D01*
X143152Y227854D01*
X143152Y37880D01*
X142691Y37688D01*
X141666Y38713D01*
X141335Y38934D01*
X140945Y39012D01*
X138572D01*
X138506Y39512D01*
X139243Y39709D01*
X140076Y40190D01*
X140755Y40869D01*
X141235Y41701D01*
X141484Y42630D01*
Y43591D01*
X141235Y44519D01*
X140755Y45351D01*
X140076Y46031D01*
X139243Y46511D01*
X138315Y46760D01*
X137354D01*
X136426Y46511D01*
X135594Y46031D01*
X134914Y45351D01*
X134434Y44519D01*
X134329Y44130D01*
X133493D01*
X131925Y45698D01*
Y49213D01*
X131848Y49603D01*
X131626Y49934D01*
X129969Y51591D01*
X130176Y52091D01*
X134329D01*
X134434Y51701D01*
X134914Y50869D01*
X135594Y50190D01*
X136426Y49709D01*
X137354Y49461D01*
X138315D01*
X139243Y49709D01*
X140076Y50190D01*
X140755Y50869D01*
X141235Y51701D01*
X141484Y52630D01*
Y53591D01*
X141235Y54519D01*
X140755Y55351D01*
X140076Y56031D01*
X139243Y56511D01*
X138315Y56760D01*
X137354D01*
X136426Y56511D01*
X135594Y56031D01*
X134914Y55351D01*
X134434Y54519D01*
X134329Y54130D01*
X129989D01*
X128158Y55961D01*
X128366Y56461D01*
X132205D01*
X132595Y56538D01*
X132926Y56759D01*
X136077Y59911D01*
X136426Y59709D01*
X137354Y59461D01*
X138315D01*
X139243Y59709D01*
X140076Y60190D01*
X140755Y60869D01*
X141235Y61702D01*
X141484Y62630D01*
Y63591D01*
X141235Y64519D01*
X140755Y65351D01*
X140076Y66031D01*
X139243Y66511D01*
X138315Y66760D01*
X137354D01*
X136426Y66511D01*
X135594Y66031D01*
X134914Y65351D01*
X134434Y64519D01*
X134185Y63591D01*
Y62630D01*
X134434Y61702D01*
X134635Y61353D01*
X131782Y58500D01*
X128572D01*
X123049Y64022D01*
X123241Y64484D01*
X125543D01*
X125934Y64562D01*
X126264Y64783D01*
X133572Y72091D01*
X134329D01*
X134434Y71702D01*
X134914Y70869D01*
X135594Y70190D01*
X136426Y69709D01*
X137354Y69461D01*
X138315D01*
X139243Y69709D01*
X140076Y70190D01*
X140755Y70869D01*
X141235Y71702D01*
X141484Y72630D01*
Y73591D01*
X141235Y74519D01*
X140755Y75351D01*
X140076Y76031D01*
X139243Y76511D01*
X138315Y76760D01*
X137354D01*
X136426Y76511D01*
X135594Y76031D01*
X134914Y75351D01*
X134434Y74519D01*
X134329Y74130D01*
X133150D01*
X132759Y74052D01*
X132429Y73831D01*
X132031Y73434D01*
X131531Y73641D01*
Y80286D01*
X133336Y82091D01*
X134329D01*
X134434Y81701D01*
X134914Y80869D01*
X135594Y80190D01*
X136426Y79709D01*
X137354Y79461D01*
X138315D01*
X139243Y79709D01*
X140076Y80190D01*
X140755Y80869D01*
X141235Y81701D01*
X141484Y82630D01*
Y83591D01*
X141235Y84519D01*
X140755Y85351D01*
X140076Y86031D01*
X139243Y86511D01*
X138315Y86760D01*
X137354D01*
X136426Y86511D01*
X135594Y86031D01*
X134914Y85351D01*
X134434Y84519D01*
X134329Y84130D01*
X133107D01*
X132761Y84469D01*
X132703Y84598D01*
X132712Y84646D01*
Y90916D01*
X133860Y92064D01*
X134352Y92006D01*
X134434Y91702D01*
X134914Y90869D01*
X135594Y90190D01*
X136426Y89709D01*
X137354Y89461D01*
X138315D01*
X139243Y89709D01*
X140076Y90190D01*
X140755Y90869D01*
X141235Y91702D01*
X141484Y92630D01*
Y93591D01*
X141235Y94519D01*
X140755Y95351D01*
X140076Y96031D01*
X139243Y96511D01*
X138315Y96760D01*
X137354D01*
X136426Y96511D01*
X135594Y96031D01*
X134914Y95351D01*
X134434Y94519D01*
X134329Y94130D01*
X133465D01*
X133074Y94052D01*
X132744Y93831D01*
X131600Y92687D01*
X131138Y92879D01*
Y99381D01*
X133847Y102091D01*
X134329D01*
X134434Y101701D01*
X134914Y100869D01*
X135594Y100190D01*
X136426Y99709D01*
X137354Y99461D01*
X138315D01*
X139243Y99709D01*
X140076Y100190D01*
X140755Y100869D01*
X141235Y101701D01*
X141484Y102630D01*
Y103591D01*
X141235Y104519D01*
X140755Y105351D01*
X140076Y106031D01*
X139243Y106511D01*
X138315Y106760D01*
X137354D01*
X136426Y106511D01*
X135594Y106031D01*
X134914Y105351D01*
X134434Y104519D01*
X134329Y104130D01*
X133425D01*
X133212Y104087D01*
X132791Y104345D01*
X132712Y104438D01*
Y110995D01*
X133808Y112091D01*
X134329D01*
X134434Y111702D01*
X134914Y110869D01*
X135594Y110190D01*
X136426Y109709D01*
X137354Y109461D01*
X138315D01*
X139243Y109709D01*
X140076Y110190D01*
X140755Y110869D01*
X141235Y111702D01*
X141484Y112630D01*
Y113591D01*
X141235Y114519D01*
X140755Y115351D01*
X140076Y116031D01*
X139243Y116511D01*
X138315Y116760D01*
X137354D01*
X136426Y116511D01*
X135594Y116031D01*
X134914Y115351D01*
X134434Y114519D01*
X134329Y114130D01*
X133386D01*
X132996Y114052D01*
X132665Y113831D01*
X131441Y112607D01*
X130941Y112814D01*
Y119853D01*
X133178Y122091D01*
X134329D01*
X134434Y121702D01*
X134914Y120869D01*
X135594Y120190D01*
X136426Y119709D01*
X137354Y119461D01*
X138315D01*
X139243Y119709D01*
X140076Y120190D01*
X140755Y120869D01*
X141235Y121702D01*
X141484Y122630D01*
Y123591D01*
X141235Y124519D01*
X140755Y125351D01*
X140076Y126031D01*
X139243Y126511D01*
X138315Y126760D01*
X137354D01*
X136426Y126511D01*
X135594Y126031D01*
X134914Y125351D01*
X134434Y124519D01*
X134329Y124130D01*
X133167D01*
X132732Y124398D01*
X132712Y124609D01*
Y126546D01*
X136077Y129911D01*
X136426Y129709D01*
X137354Y129461D01*
X138315D01*
X139243Y129709D01*
X140076Y130190D01*
X140755Y130869D01*
X141235Y131702D01*
X141484Y132630D01*
Y133591D01*
X141235Y134519D01*
X140755Y135351D01*
X140076Y136031D01*
X139243Y136511D01*
X138315Y136760D01*
X137354D01*
X136426Y136511D01*
X135594Y136031D01*
X134914Y135351D01*
X134590Y134790D01*
X134090Y134924D01*
Y137924D01*
X136077Y139911D01*
X136426Y139709D01*
X137354Y139461D01*
X138315D01*
X139243Y139709D01*
X140076Y140190D01*
X140755Y140869D01*
X141235Y141701D01*
X141484Y142630D01*
Y143591D01*
X141235Y144519D01*
X140755Y145351D01*
X140076Y146031D01*
X139243Y146511D01*
X138315Y146760D01*
X137354D01*
X136426Y146511D01*
X135594Y146031D01*
X134914Y145351D01*
X134434Y144519D01*
X134394Y144369D01*
X133894Y144435D01*
Y147727D01*
X136077Y149911D01*
X136426Y149709D01*
X137354Y149461D01*
X138315D01*
X139243Y149709D01*
X140076Y150190D01*
X140755Y150869D01*
X141235Y151701D01*
X141484Y152630D01*
Y153591D01*
X141235Y154519D01*
X140755Y155351D01*
X140076Y156031D01*
X139243Y156511D01*
X138315Y156760D01*
X137354D01*
X136426Y156511D01*
X135594Y156031D01*
X134914Y155351D01*
X134434Y154519D01*
X134185Y153591D01*
Y152630D01*
X134434Y151701D01*
X134635Y151353D01*
X132781Y149498D01*
X132319Y149690D01*
Y156152D01*
X136077Y159911D01*
X136426Y159709D01*
X137354Y159461D01*
X138315D01*
X139243Y159709D01*
X140076Y160190D01*
X140755Y160869D01*
X141235Y161702D01*
X141484Y162630D01*
Y163591D01*
X141235Y164519D01*
X140755Y165351D01*
X140076Y166031D01*
X139243Y166511D01*
X138315Y166760D01*
X137354D01*
X136426Y166511D01*
X135594Y166031D01*
X134914Y165351D01*
X134787Y165131D01*
X134287Y165265D01*
Y168121D01*
X136077Y169911D01*
X136426Y169709D01*
X137354Y169461D01*
X138315D01*
X139243Y169709D01*
X140076Y170190D01*
X140755Y170869D01*
X141235Y171702D01*
X141484Y172630D01*
Y173591D01*
X141235Y174519D01*
X140755Y175351D01*
X140076Y176031D01*
X139243Y176511D01*
X138315Y176760D01*
X137354D01*
X136426Y176511D01*
X135594Y176031D01*
X134914Y175351D01*
X134434Y174519D01*
X134394Y174369D01*
X133894Y174435D01*
Y177727D01*
X136077Y179911D01*
X136426Y179709D01*
X137354Y179461D01*
X138315D01*
X139243Y179709D01*
X140076Y180190D01*
X140755Y180869D01*
X141235Y181702D01*
X141484Y182630D01*
Y183591D01*
X141235Y184519D01*
X140755Y185351D01*
X140076Y186031D01*
X139243Y186511D01*
X138315Y186760D01*
X137354D01*
X136426Y186511D01*
X135594Y186031D01*
X134984Y185421D01*
X134484Y185520D01*
Y188318D01*
X136077Y189911D01*
X136426Y189709D01*
X137354Y189461D01*
X138315D01*
X139243Y189709D01*
X140076Y190190D01*
X140755Y190869D01*
X141235Y191701D01*
X141484Y192630D01*
Y193591D01*
X141235Y194519D01*
X140755Y195351D01*
X140076Y196031D01*
X139243Y196511D01*
X138315Y196760D01*
X137354D01*
X136426Y196511D01*
X135594Y196031D01*
X134914Y195351D01*
X134434Y194519D01*
X134185Y193591D01*
Y192630D01*
X134434Y191701D01*
X134635Y191353D01*
X132744Y189461D01*
X132523Y189130D01*
X132445Y188740D01*
Y184477D01*
X130578Y182611D01*
X130357Y182280D01*
X130280Y181890D01*
Y174241D01*
X129003Y172965D01*
X128782Y172634D01*
X128705Y172244D01*
Y169739D01*
X128205Y169466D01*
X127857Y169610D01*
X127261D01*
X126709Y169382D01*
X126457Y169130D01*
X123060D01*
X122083Y170107D01*
Y172138D01*
X124614D01*
Y178650D01*
X117512D01*
Y172138D01*
X120043D01*
Y169685D01*
X120121Y169295D01*
X120342Y168964D01*
X121917Y167389D01*
X122248Y167168D01*
X122638Y167091D01*
X126457D01*
X126709Y166839D01*
X127261Y166610D01*
X127857D01*
X128205Y166754D01*
X128705Y166481D01*
Y162430D01*
X125854Y159579D01*
X125633Y159248D01*
X125555Y158858D01*
Y157797D01*
X125099Y157534D01*
X124664Y157659D01*
X124614Y157965D01*
X124614Y157996D01*
Y164476D01*
X122083D01*
Y165551D01*
X122005Y165941D01*
X121784Y166272D01*
X120209Y167847D01*
X119878Y168068D01*
X119488Y168146D01*
X114567D01*
X114177Y168068D01*
X113846Y167847D01*
X110007Y164008D01*
X109786Y163678D01*
X109709Y163287D01*
Y161063D01*
X109685Y161040D01*
X109247Y160849D01*
X109131Y160893D01*
X108860Y160947D01*
X107478D01*
X107207Y160893D01*
X106890Y160772D01*
X106572Y160893D01*
X106301Y160947D01*
X104919D01*
X104648Y160893D01*
X104331Y160772D01*
X104013Y160893D01*
X103742Y160947D01*
X102360D01*
X102089Y160893D01*
X101772Y160772D01*
X101454Y160893D01*
X101183Y160947D01*
X99801D01*
X99530Y160893D01*
X99213Y160772D01*
X98895Y160893D01*
X98624Y160947D01*
X97242D01*
X96992Y160897D01*
X96968Y160895D01*
X96492Y161174D01*
Y167402D01*
X96744Y167654D01*
X96972Y168206D01*
Y168802D01*
X96744Y169354D01*
X96322Y169776D01*
X95771Y170004D01*
X95174D01*
X94623Y169776D01*
X94201Y169354D01*
X93972Y168802D01*
Y168206D01*
X94201Y167654D01*
X94453Y167402D01*
Y160901D01*
X94412Y160893D01*
X94182Y160739D01*
X94029Y160509D01*
X93975Y160238D01*
Y154329D01*
X94029Y154058D01*
X94182Y153828D01*
X94412Y153674D01*
X94683Y153620D01*
X96065D01*
X96336Y153674D01*
X96653Y153795D01*
X96971Y153674D01*
X97242Y153620D01*
X98624D01*
X98834Y153662D01*
X99098Y153535D01*
X99325Y153379D01*
X99366Y153096D01*
X99358Y153054D01*
X99221Y152917D01*
X98992Y152365D01*
Y151769D01*
X99221Y151217D01*
X99312Y151126D01*
X99105Y150626D01*
X95501D01*
X93146Y152981D01*
Y165551D01*
X93068Y165941D01*
X92847Y166272D01*
X90193Y168926D01*
Y170225D01*
X90527Y170358D01*
X90693Y170375D01*
X91079Y169988D01*
X91631Y169760D01*
X92228D01*
X92779Y169988D01*
X93201Y170410D01*
X93429Y170961D01*
Y171318D01*
X96095Y173984D01*
X96316Y174315D01*
X96394Y174705D01*
Y177520D01*
X96418Y177543D01*
X96856Y177734D01*
X96971Y177690D01*
X97242Y177636D01*
X98624D01*
X98895Y177690D01*
X99213Y177810D01*
X99530Y177690D01*
X99801Y177636D01*
X101183D01*
X101454Y177690D01*
X101772Y177810D01*
X102089Y177690D01*
X102360Y177636D01*
X103742D01*
X104013Y177690D01*
X104128Y177734D01*
X104566Y177543D01*
X104591Y177520D01*
Y175098D01*
X104668Y174708D01*
X104889Y174378D01*
X106768Y172499D01*
Y172143D01*
X106996Y171591D01*
X107418Y171169D01*
X107969Y170941D01*
X108566D01*
X109117Y171169D01*
X109539Y171591D01*
X109768Y172143D01*
Y172739D01*
X109539Y173291D01*
X109117Y173713D01*
X108566Y173941D01*
X108210D01*
X106630Y175521D01*
Y176919D01*
X107130Y177196D01*
X107478Y177126D01*
X107669D01*
Y181299D01*
Y185472D01*
X107478D01*
X107012Y185380D01*
X106617Y185115D01*
X106490Y184925D01*
X106301Y184962D01*
X104919D01*
X104648Y184908D01*
X104331Y184788D01*
X104013Y184908D01*
X103742Y184962D01*
X102360D01*
X102089Y184908D01*
X101974Y184865D01*
X101536Y185056D01*
X101512Y185078D01*
Y187106D01*
X101434Y187496D01*
X101213Y187827D01*
X99934Y189107D01*
X99603Y189328D01*
X99213Y189405D01*
X94138D01*
X93415Y190128D01*
Y190485D01*
X93187Y191036D01*
X92765Y191458D01*
X92213Y191686D01*
X91617D01*
X91065Y191458D01*
X90643Y191036D01*
X90415Y190485D01*
Y189888D01*
X90016Y189545D01*
X89668Y189689D01*
X89072D01*
X88520Y189461D01*
X88098Y189039D01*
X87870Y188487D01*
Y187891D01*
X88098Y187339D01*
X88350Y187087D01*
Y178681D01*
X88231Y178503D01*
X88154Y178113D01*
Y168504D01*
X88231Y168114D01*
X88452Y167783D01*
X91106Y165129D01*
Y161074D01*
X90772Y160941D01*
X90606Y160924D01*
X90220Y161311D01*
X89668Y161539D01*
X89072D01*
X88520Y161311D01*
X88268Y161059D01*
X68307D01*
X67917Y160981D01*
X67586Y160760D01*
X65019Y158193D01*
X64662D01*
X64111Y157965D01*
X63689Y157543D01*
X63461Y156991D01*
Y156395D01*
X63689Y155843D01*
X63941Y155591D01*
Y152981D01*
X61389Y150429D01*
X58976D01*
X58724Y150681D01*
X58172Y150909D01*
X57576D01*
X57024Y150681D01*
X56602Y150259D01*
X56374Y149708D01*
Y149111D01*
X56602Y148560D01*
X56792Y148370D01*
X56585Y147870D01*
X55934D01*
X53665Y150139D01*
Y150495D01*
X53437Y151047D01*
X53015Y151469D01*
X52464Y151697D01*
X51867D01*
X51316Y151469D01*
X50894Y151047D01*
X50665Y150495D01*
Y149899D01*
X50894Y149347D01*
X51316Y148925D01*
X51867Y148697D01*
X52223D01*
X54151Y146769D01*
X53987Y146227D01*
X53940Y146218D01*
X53610Y145997D01*
X50956Y143342D01*
X45079D01*
X44689Y143265D01*
X44358Y143044D01*
X43365Y142051D01*
X43009D01*
X42457Y141823D01*
X42205Y141571D01*
X38414D01*
X36846Y143139D01*
Y144480D01*
X38295D01*
Y150795D01*
X36846D01*
Y166732D01*
X36769Y167122D01*
X36548Y167453D01*
X32122Y171879D01*
Y192491D01*
X36446Y196815D01*
X50276D01*
X50528Y196563D01*
X51080Y196335D01*
X51676D01*
X52228Y196563D01*
X52650Y196985D01*
X52878Y197536D01*
Y198133D01*
X52650Y198684D01*
X52228Y199106D01*
X51676Y199335D01*
X51080D01*
X50528Y199106D01*
X50276Y198854D01*
X36024D01*
X35633Y198777D01*
X35303Y198556D01*
X30381Y193634D01*
X30160Y193304D01*
X30083Y192913D01*
Y171457D01*
X30160Y171066D01*
X30381Y170736D01*
X34807Y166310D01*
Y150795D01*
X33358D01*
Y144480D01*
X34807D01*
Y142717D01*
X34885Y142326D01*
X35106Y141996D01*
X37271Y139830D01*
X37602Y139609D01*
X37992Y139532D01*
X42205D01*
X42457Y139279D01*
X43009Y139051D01*
X43606D01*
X44157Y139279D01*
X44579Y139701D01*
X44807Y140253D01*
Y140609D01*
X45501Y141303D01*
X51378D01*
X51768Y141381D01*
X52099Y141602D01*
X54753Y144256D01*
X67512D01*
Y142512D01*
X68075D01*
Y138394D01*
X67118D01*
Y133260D01*
X71268D01*
Y138394D01*
X70114D01*
Y142512D01*
X72252D01*
Y148827D01*
X67905D01*
X67698Y149327D01*
X68831Y150460D01*
X69052Y150791D01*
X69130Y151181D01*
Y155591D01*
X69212Y155673D01*
X85208D01*
X93570Y147310D01*
X93901Y147090D01*
X94291Y147012D01*
X103347D01*
X103737Y147090D01*
X103795Y147129D01*
X104295Y146862D01*
Y139455D01*
X104239Y139373D01*
X103795Y139086D01*
X103742Y139096D01*
X102951D01*
X102680Y139042D01*
X102362Y138922D01*
X102045Y139042D01*
X101774Y139096D01*
X100982D01*
X100711Y139042D01*
X100481Y138889D01*
X100328Y138659D01*
X100274Y138388D01*
Y137634D01*
X98032D01*
X97641Y137556D01*
X97311Y137335D01*
X95137Y135161D01*
X94780D01*
X94229Y134933D01*
X93807Y134511D01*
X93579Y133960D01*
Y133363D01*
X93807Y132812D01*
X94229Y132390D01*
X94780Y132161D01*
X95377D01*
X95928Y132390D01*
X96350Y132812D01*
X96579Y133363D01*
Y133720D01*
X98454Y135595D01*
X100274D01*
Y134841D01*
X100328Y134569D01*
X100481Y134340D01*
X100711Y134186D01*
X100982Y134132D01*
X101774D01*
X102045Y134186D01*
X102362Y134306D01*
X102680Y134186D01*
X102951Y134132D01*
X103742D01*
X103795Y134143D01*
X104239Y133855D01*
X104295Y133773D01*
Y132312D01*
X98098Y126115D01*
X97877Y125784D01*
X97799Y125394D01*
Y120787D01*
X97547Y120535D01*
X97319Y119983D01*
Y119387D01*
X97547Y118835D01*
X97934Y118449D01*
X97917Y118283D01*
X97785Y117949D01*
X81693D01*
X81303Y117871D01*
X80972Y117650D01*
X71326Y108004D01*
X71105Y107674D01*
X71028Y107283D01*
Y104635D01*
X70528Y104428D01*
X70338Y104618D01*
X69787Y104847D01*
X69190D01*
X68638Y104618D01*
X68217Y104196D01*
X67988Y103645D01*
Y103048D01*
X68217Y102497D01*
X68469Y102245D01*
Y92126D01*
X68504Y91950D01*
X68043Y91704D01*
X67358Y92388D01*
Y104804D01*
X67610Y105056D01*
X67839Y105607D01*
Y106204D01*
X67610Y106755D01*
X67188Y107177D01*
X66637Y107405D01*
X66040D01*
X65489Y107177D01*
X65067Y106755D01*
X64839Y106204D01*
Y105607D01*
X65067Y105056D01*
X65319Y104804D01*
Y91966D01*
X65397Y91576D01*
X65539Y91362D01*
X65461Y91144D01*
Y88287D01*
X64461D01*
Y90862D01*
X63224D01*
Y99410D01*
X63147Y99800D01*
X62926Y100130D01*
X60862Y102194D01*
Y105089D01*
X63328Y107555D01*
X63684D01*
X64236Y107783D01*
X64657Y108205D01*
X64886Y108757D01*
Y109353D01*
X64657Y109905D01*
X64610Y109952D01*
X64802Y110456D01*
X65137Y110498D01*
X65292Y110343D01*
X65843Y110114D01*
X66440D01*
X66991Y110343D01*
X67413Y110765D01*
X67642Y111316D01*
Y111913D01*
X67413Y112464D01*
X66991Y112886D01*
X66440Y113114D01*
X65843D01*
X65292Y112886D01*
X65040Y112634D01*
X62795D01*
X62405Y112556D01*
X62074Y112335D01*
X60457Y110717D01*
X59957Y110925D01*
Y113909D01*
X56799D01*
Y110555D01*
X59587D01*
X59794Y110055D01*
X56169Y106430D01*
X55948Y106099D01*
X55870Y105709D01*
Y95079D01*
X55948Y94689D01*
X56169Y94358D01*
X58146Y92381D01*
Y92024D01*
X58374Y91473D01*
X58796Y91051D01*
X59347Y90823D01*
X59944D01*
X60262Y90955D01*
X60546Y90531D01*
X60303Y90288D01*
X60082Y89957D01*
X60004Y89567D01*
Y86811D01*
X60082Y86421D01*
X60303Y86090D01*
X62468Y83925D01*
X62799Y83704D01*
X63189Y83626D01*
X67885D01*
X69256Y82255D01*
Y67359D01*
X69118Y67260D01*
X68820Y67413D01*
X65461D01*
Y65043D01*
X66580D01*
X66771Y64581D01*
X65611Y63421D01*
X61340D01*
X60950Y63344D01*
X60619Y63122D01*
X51200Y53703D01*
X50843D01*
X50292Y53475D01*
X50040Y53223D01*
X24203D01*
X13595Y63831D01*
X13264Y64052D01*
X12874Y64130D01*
X11340D01*
X11236Y64519D01*
X10755Y65351D01*
X10076Y66031D01*
X9243Y66511D01*
X8315Y66760D01*
X7354D01*
X6426Y66511D01*
X5594Y66031D01*
X4914Y65351D01*
X4434Y64519D01*
X4185Y63591D01*
Y62630D01*
X4434Y61702D01*
X4914Y60869D01*
X5594Y60190D01*
X6426Y59709D01*
X7354Y59461D01*
X8315D01*
X9243Y59709D01*
X10076Y60190D01*
X10755Y60869D01*
X11236Y61702D01*
X11340Y62091D01*
X12452D01*
X19951Y54592D01*
X19759Y54130D01*
X11340D01*
X11236Y54519D01*
X10755Y55351D01*
X10076Y56031D01*
X9243Y56511D01*
X8315Y56760D01*
X7354D01*
X6426Y56511D01*
X5594Y56031D01*
X4914Y55351D01*
X4434Y54519D01*
X4185Y53591D01*
Y52630D01*
X4434Y51701D01*
X4914Y50869D01*
X5594Y50190D01*
X6426Y49709D01*
X7354Y49461D01*
X8315D01*
X9243Y49709D01*
X10076Y50190D01*
X10755Y50869D01*
X11236Y51701D01*
X11340Y52091D01*
X20089D01*
X23098Y49082D01*
X23140Y49054D01*
X23193Y48882D01*
X23179Y48440D01*
X18869Y44130D01*
X11340D01*
X11236Y44519D01*
X10755Y45351D01*
X10076Y46031D01*
X9243Y46511D01*
X8315Y46760D01*
X7354D01*
X6426Y46511D01*
X5594Y46031D01*
X4914Y45351D01*
X4434Y44519D01*
X4185Y43591D01*
Y42630D01*
X4434Y41701D01*
X4914Y40869D01*
X5594Y40190D01*
X6426Y39709D01*
X7354Y39461D01*
X8315D01*
X9243Y39709D01*
X10076Y40190D01*
X10755Y40869D01*
X11236Y41701D01*
X11340Y42091D01*
X19291D01*
X19681Y42168D01*
X20012Y42389D01*
X24438Y46815D01*
X61024D01*
X61414Y46893D01*
X61745Y47114D01*
X64156Y49525D01*
X64377Y49856D01*
X64454Y50246D01*
Y57094D01*
X64536Y57177D01*
X66070D01*
X66460Y57254D01*
X66791Y57475D01*
X67735Y58419D01*
X68235Y58212D01*
Y57898D01*
X68463Y57346D01*
X68885Y56924D01*
X69436Y56696D01*
X70033D01*
X70584Y56924D01*
X71006Y57346D01*
X71235Y57898D01*
Y58254D01*
X74415Y61435D01*
X74915Y61227D01*
Y59298D01*
X74663Y59046D01*
X74435Y58494D01*
Y57898D01*
X74663Y57346D01*
X75085Y56924D01*
X75636Y56696D01*
X76233D01*
X76784Y56924D01*
X77206Y57346D01*
X77264Y57486D01*
X77805D01*
X77863Y57346D01*
X78285Y56924D01*
X78836Y56696D01*
X79433D01*
X79984Y56924D01*
X80406Y57346D01*
X80414Y57365D01*
X80955D01*
X80963Y57346D01*
X81385Y56924D01*
X81936Y56696D01*
X82533D01*
X83084Y56924D01*
X83506Y57346D01*
X83564Y57486D01*
X84105D01*
X84163Y57346D01*
X84585Y56924D01*
X85136Y56696D01*
X85733D01*
X86284Y56924D01*
X86706Y57346D01*
X86714Y57365D01*
X87255D01*
X87263Y57346D01*
X87685Y56924D01*
X88236Y56696D01*
X88833D01*
X89384Y56924D01*
X89806Y57346D01*
X90035Y57898D01*
Y58494D01*
X89806Y59046D01*
X89384Y59468D01*
X88833Y59696D01*
X88477D01*
X88028Y60145D01*
Y62597D01*
X88415Y62984D01*
X96071D01*
X96279Y62484D01*
X94358Y60563D01*
X94137Y60233D01*
X94059Y59842D01*
Y57480D01*
X94137Y57090D01*
X94358Y56759D01*
X96326Y54791D01*
X96657Y54570D01*
X97047Y54492D01*
X99015D01*
X99140Y54290D01*
X99204Y53992D01*
X86782Y41571D01*
X76575D01*
X76185Y41493D01*
X75854Y41272D01*
X71034Y36453D01*
X66091D01*
Y38295D01*
X60366D01*
Y32571D01*
X62209D01*
Y30716D01*
X60858D01*
Y24402D01*
X65598D01*
Y30716D01*
X64248D01*
Y32571D01*
X66091D01*
Y34413D01*
X71457D01*
X71847Y34491D01*
X72178Y34712D01*
X76997Y39532D01*
X87205D01*
X87595Y39609D01*
X87926Y39830D01*
X90803Y42708D01*
X91303Y42501D01*
Y38414D01*
X89538Y36650D01*
X85044D01*
X84731Y37190D01*
X84198Y37723D01*
X83546Y38100D01*
X82818Y38295D01*
X82064D01*
X81336Y38100D01*
X80683Y37723D01*
X80151Y37190D01*
X79774Y36538D01*
X79579Y35810D01*
Y35056D01*
X79774Y34328D01*
X80151Y33676D01*
X80683Y33143D01*
X81336Y32766D01*
X81421Y32743D01*
Y30716D01*
X80071D01*
Y24402D01*
X84413D01*
Y23819D01*
X84491Y23429D01*
X84712Y23098D01*
X86776Y21034D01*
Y20401D01*
X86638Y20347D01*
X86276Y20315D01*
X85834Y21081D01*
X85136Y21779D01*
X84281Y22272D01*
X83328Y22528D01*
X82341D01*
X81388Y22272D01*
X80533Y21779D01*
X79835Y21081D01*
X79342Y20226D01*
X79087Y19273D01*
Y18286D01*
X79342Y17333D01*
X79835Y16478D01*
X80533Y15780D01*
X81388Y15287D01*
X82341Y15032D01*
X83069D01*
X83192Y14869D01*
X83335Y14534D01*
X83146Y14078D01*
Y13481D01*
X83335Y13025D01*
X83192Y12690D01*
X83069Y12528D01*
X82341D01*
X81388Y12272D01*
X81005Y12051D01*
X78382Y14674D01*
Y28740D01*
X78304Y29130D01*
X78083Y29461D01*
X75327Y32217D01*
X74997Y32438D01*
X74606Y32516D01*
X71968D01*
X71716Y32768D01*
X71165Y32996D01*
X70568D01*
X70016Y32768D01*
X69595Y32346D01*
X69366Y31794D01*
Y31198D01*
X69595Y30646D01*
X70016Y30224D01*
X70568Y29996D01*
X71165D01*
X71716Y30224D01*
X71968Y30476D01*
X74184D01*
X76343Y28318D01*
Y21200D01*
X75843Y21066D01*
X75834Y21081D01*
X75136Y21779D01*
X74281Y22272D01*
X73328Y22528D01*
X72341D01*
X71388Y22272D01*
X70533Y21779D01*
X69836Y21081D01*
X69342Y20226D01*
X69087Y19273D01*
Y18286D01*
X69342Y17333D01*
X69836Y16478D01*
X70533Y15780D01*
X71388Y15287D01*
X72341Y15032D01*
X73328D01*
X74281Y15287D01*
X75136Y15780D01*
X75834Y16478D01*
X75843Y16493D01*
X76343Y16359D01*
Y14252D01*
X76420Y13862D01*
X76641Y13531D01*
X79563Y10609D01*
X79342Y10226D01*
X79087Y9273D01*
Y8286D01*
X79342Y7333D01*
X79835Y6478D01*
X80533Y5780D01*
X81388Y5287D01*
X82341Y5032D01*
X83328D01*
X84281Y5287D01*
X85136Y5780D01*
X85834Y6478D01*
X86276Y7243D01*
X86638Y7212D01*
X86776Y7158D01*
Y5737D01*
X85027Y3988D01*
X69714D01*
X68736Y4966D01*
Y7662D01*
X69236Y7728D01*
X69342Y7333D01*
X69836Y6478D01*
X70533Y5780D01*
X71388Y5287D01*
X72341Y5032D01*
X73328D01*
X74281Y5287D01*
X75136Y5780D01*
X75834Y6478D01*
X76327Y7333D01*
X76583Y8286D01*
Y9273D01*
X76327Y10226D01*
X75834Y11081D01*
X75136Y11779D01*
X74281Y12272D01*
X73328Y12528D01*
X72341D01*
X71388Y12272D01*
X70533Y11779D01*
X69836Y11081D01*
X69342Y10226D01*
X69236Y9831D01*
X68736Y9897D01*
Y11614D01*
X68659Y12004D01*
X68437Y12335D01*
X66666Y14107D01*
X66335Y14328D01*
X65945Y14405D01*
X60142D01*
X59374Y15173D01*
Y15259D01*
X59146Y15810D01*
X58724Y16232D01*
X58172Y16461D01*
X57576D01*
X57024Y16232D01*
X56602Y15810D01*
X56374Y15259D01*
Y14662D01*
X56602Y14111D01*
X57024Y13689D01*
X57576Y13461D01*
X58172D01*
X58194Y13469D01*
X58999Y12665D01*
X59329Y12444D01*
X59719Y12366D01*
X60551D01*
X60685Y11866D01*
X60533Y11779D01*
X59835Y11081D01*
X59342Y10226D01*
X59087Y9273D01*
Y8286D01*
X59342Y7333D01*
X59563Y6950D01*
X56601Y3988D01*
X50138D01*
X49947Y4450D01*
X51005Y5508D01*
X51388Y5287D01*
X52341Y5032D01*
X53328D01*
X54281Y5287D01*
X55136Y5780D01*
X55834Y6478D01*
X56327Y7333D01*
X56583Y8286D01*
Y9273D01*
X56327Y10226D01*
X55834Y11081D01*
X55136Y11779D01*
X54281Y12272D01*
X53328Y12528D01*
X52341D01*
X51388Y12272D01*
X50533Y11779D01*
X49836Y11081D01*
X49342Y10226D01*
X49087Y9273D01*
Y8286D01*
X49342Y7333D01*
X49563Y6950D01*
X48101Y5488D01*
X18395D01*
X15980Y7903D01*
Y10906D01*
X16232Y11158D01*
X16428Y11630D01*
X16702Y11705D01*
X16957Y11701D01*
X17195Y11257D01*
X18156Y10085D01*
X19327Y9124D01*
X20664Y8410D01*
X22114Y7970D01*
X23122Y7870D01*
Y15248D01*
X15922D01*
X16040Y14043D01*
X16165Y13632D01*
X15962Y13430D01*
X15741Y13308D01*
X15259Y13508D01*
X14662D01*
X14111Y13280D01*
X13689Y12858D01*
X13461Y12306D01*
Y11710D01*
X13689Y11158D01*
X13941Y10906D01*
Y8233D01*
X13479Y8042D01*
X12831Y8690D01*
Y12875D01*
X13083Y13127D01*
X13311Y13678D01*
Y14275D01*
X13083Y14826D01*
X12661Y15248D01*
X12109Y15476D01*
X11513D01*
X10961Y15248D01*
X10539Y14826D01*
X10311Y14275D01*
Y13678D01*
X10539Y13127D01*
X10791Y12875D01*
Y8268D01*
X10869Y7878D01*
X11090Y7547D01*
X15658Y2979D01*
X15467Y2517D01*
X8371D01*
X8367Y2517D01*
X7874Y2517D01*
X7382Y2537D01*
X6476Y2656D01*
X5173Y3196D01*
X4054Y4054D01*
X3196Y5173D01*
X2656Y6476D01*
X2537Y7382D01*
X2517Y7874D01*
X2517Y7874D01*
X2517Y8434D01*
X3017Y8641D01*
X3087Y8571D01*
X3639Y8343D01*
X4235D01*
X4787Y8571D01*
X5209Y8993D01*
X5437Y9544D01*
Y10141D01*
X5209Y10692D01*
X4787Y11114D01*
X4235Y11343D01*
X3639D01*
X3087Y11114D01*
X3017Y11044D01*
X2517Y11251D01*
X2517Y228346D01*
X2490Y228481D01*
X2656Y229745D01*
X3196Y231047D01*
X4054Y232166D01*
X5173Y233025D01*
X6476Y233564D01*
X7382Y233683D01*
X7874Y233704D01*
X8374Y233704D01*
X36664D01*
X36871Y233204D01*
X36494Y232826D01*
X36189Y232091D01*
Y231295D01*
X36494Y230560D01*
X37056Y229997D01*
X37791Y229693D01*
X38587D01*
X39322Y229997D01*
X39884Y230560D01*
X39931Y230673D01*
X47260D01*
X47650Y230751D01*
X47981Y230972D01*
X49241Y232232D01*
X54406D01*
X54505Y231732D01*
X54409Y231693D01*
X53830Y231248D01*
X53386Y230669D01*
X53107Y229995D01*
X53012Y229272D01*
Y228197D01*
X55807D01*
Y227197D01*
X53012D01*
Y226122D01*
X53107Y225398D01*
X53386Y224724D01*
X53830Y224145D01*
X54409Y223701D01*
X54496Y223665D01*
X54396Y223165D01*
X51780D01*
Y224220D01*
X46646D01*
Y222476D01*
X42528D01*
Y223827D01*
X36213D01*
Y222476D01*
X34674D01*
X27099Y230052D01*
X26768Y230273D01*
X26378Y230350D01*
X14370D01*
X13980Y230273D01*
X13649Y230052D01*
X7114Y223516D01*
X6893Y223185D01*
X6815Y222795D01*
Y216760D01*
X4185D01*
Y209461D01*
X11484D01*
Y216760D01*
X8854D01*
Y222373D01*
X14792Y228311D01*
X20623D01*
X20722Y227811D01*
X19885Y227464D01*
X18593Y226601D01*
X17494Y225502D01*
X16630Y224210D01*
X16036Y222774D01*
X15732Y221250D01*
Y220972D01*
X23622D01*
X31512D01*
Y221250D01*
X31314Y222246D01*
X31774Y222492D01*
X33531Y220736D01*
X33862Y220515D01*
X34252Y220437D01*
X36213D01*
Y219087D01*
X42528D01*
Y220437D01*
X46646D01*
Y220071D01*
X51780D01*
Y221126D01*
X57382D01*
X57772Y221204D01*
X58103Y221425D01*
X61154Y224476D01*
X61375Y224807D01*
X61453Y225197D01*
Y226998D01*
X61566Y227045D01*
X62129Y227607D01*
X62433Y228342D01*
Y229138D01*
X62129Y229873D01*
X61566Y230436D01*
X60831Y230740D01*
X60035D01*
X59300Y230436D01*
X58974Y230110D01*
X58961Y230107D01*
X58403Y230246D01*
X58228Y230669D01*
X57784Y231248D01*
X57205Y231693D01*
X57109Y231732D01*
X57209Y232232D01*
X88461D01*
X88560Y231732D01*
X88464Y231693D01*
X87885Y231248D01*
X87441Y230669D01*
X87162Y229995D01*
X87067Y229272D01*
Y228197D01*
X89862D01*
X92658D01*
Y229272D01*
X92563Y229995D01*
X92283Y230669D01*
X91839Y231248D01*
X91260Y231693D01*
X91164Y231732D01*
X91264Y232232D01*
X109830D01*
X111236Y230826D01*
X111189Y230713D01*
Y229917D01*
X111494Y229182D01*
X112056Y228619D01*
X112169Y228573D01*
Y227981D01*
X110903Y226715D01*
X110441Y226906D01*
Y230224D01*
X104126D01*
Y220645D01*
X104045Y220564D01*
X103415Y220636D01*
X103382Y220690D01*
Y224016D01*
X103304Y224406D01*
X103083Y224737D01*
X102099Y225721D01*
X101768Y225942D01*
X101378Y226020D01*
X100598D01*
Y230224D01*
X94283D01*
Y226020D01*
X93283D01*
X93145Y225992D01*
X93062Y226014D01*
X92684Y226319D01*
X92658Y226366D01*
Y227197D01*
X89862D01*
X87067D01*
Y226122D01*
X87162Y225398D01*
X87441Y224724D01*
X87743Y224331D01*
X87748Y224280D01*
X87617Y223813D01*
X87574Y223761D01*
X87056Y223546D01*
X86493Y222983D01*
X86189Y222248D01*
Y221453D01*
X86493Y220718D01*
X87056Y220155D01*
X87769Y219860D01*
X87821Y219741D01*
X87926Y219350D01*
X87885Y219319D01*
X87441Y218740D01*
X87320Y218447D01*
X86730Y218330D01*
X83669Y221390D01*
X83338Y221611D01*
X82948Y221689D01*
X81110D01*
Y223236D01*
X74598D01*
Y218102D01*
X74598D01*
X74541Y217626D01*
X74154D01*
X73500Y217355D01*
X73149Y217004D01*
X72835Y216906D01*
X72520Y217004D01*
X72169Y217355D01*
X71515Y217626D01*
X71128D01*
X71071Y218102D01*
X71071D01*
Y223236D01*
X64559D01*
Y218102D01*
X64559D01*
X64502Y217626D01*
X64114D01*
X63460Y217355D01*
X63446Y217345D01*
X63028Y217207D01*
X62771Y217422D01*
X62413Y217779D01*
X61622Y218107D01*
Y215846D01*
Y213586D01*
X62413Y213914D01*
X63055Y214555D01*
X63446Y214348D01*
X63460Y214338D01*
X63460Y214338D01*
X64114Y214067D01*
X64823D01*
X65477Y214338D01*
X65827Y214688D01*
X66142Y214787D01*
X66456Y214688D01*
X66807Y214338D01*
X67461Y214067D01*
X68169D01*
X68823Y214338D01*
X69174Y214688D01*
X69488Y214787D01*
X69803Y214688D01*
X70153Y214338D01*
X70807Y214067D01*
X71499D01*
X73488Y212078D01*
Y212029D01*
X73149Y211689D01*
X72835Y211591D01*
X72520Y211689D01*
X72169Y212040D01*
X71515Y212311D01*
X70807D01*
X70153Y212040D01*
X69803Y211689D01*
X69488Y211591D01*
X69174Y211689D01*
X68823Y212040D01*
X68169Y212311D01*
X67461D01*
X66807Y212040D01*
X66456Y211689D01*
X66142Y211591D01*
X65827Y211689D01*
X65477Y212040D01*
X64823Y212311D01*
X64114D01*
X63460Y212040D01*
X63460Y212040D01*
X63446Y212030D01*
X63055Y211823D01*
X62413Y212464D01*
X61622Y212792D01*
Y210531D01*
Y208271D01*
X62413Y208599D01*
X63055Y209240D01*
X63446Y209033D01*
X63460Y209023D01*
X63460Y209023D01*
X64114Y208752D01*
X64823D01*
X65477Y209023D01*
X65827Y209374D01*
X66142Y209472D01*
X66456Y209374D01*
X66807Y209023D01*
X67461Y208752D01*
X68169D01*
X68823Y209023D01*
X69174Y209374D01*
X69488Y209472D01*
X69803Y209374D01*
X70142Y209034D01*
Y206209D01*
X67709D01*
Y205055D01*
X64378D01*
Y207193D01*
X57669D01*
Y201197D01*
X57169D01*
Y198039D01*
X64878D01*
Y201197D01*
X64378D01*
Y203016D01*
X67709D01*
Y201468D01*
X74024D01*
Y206209D01*
X72181D01*
Y209034D01*
X72520Y209374D01*
X72835Y209472D01*
X73149Y209374D01*
X73500Y209023D01*
X74154Y208752D01*
X74845D01*
X76248Y207350D01*
X76578Y207129D01*
X76968Y207051D01*
X79105D01*
X79448Y206709D01*
X79241Y206209D01*
X77551D01*
Y201468D01*
X83866D01*
Y202721D01*
X87197D01*
Y201197D01*
X86697D01*
Y198039D01*
X94406D01*
Y201197D01*
X93906D01*
Y207193D01*
X87197D01*
Y204760D01*
X83866D01*
Y206209D01*
X81728D01*
Y206890D01*
X81651Y207280D01*
X81430Y207611D01*
X80750Y208290D01*
X80753Y208305D01*
X80996Y208752D01*
X81555D01*
X81768Y208840D01*
X82268Y208506D01*
Y208252D01*
X84047D01*
Y210531D01*
X85047D01*
Y208252D01*
X86827D01*
Y210216D01*
X87327Y210315D01*
X87441Y210039D01*
X87885Y209460D01*
X88464Y209016D01*
X89139Y208737D01*
X89362Y208707D01*
Y214390D01*
X89862D01*
Y214890D01*
X92658D01*
Y217342D01*
X92563Y218066D01*
X92283Y218740D01*
X91839Y219319D01*
X91260Y219763D01*
X90586Y220043D01*
X90264Y220085D01*
X89986Y220597D01*
X90045Y220723D01*
X90134Y220831D01*
X90524Y220908D01*
X90855Y221129D01*
X93706Y223980D01*
X94283D01*
Y220291D01*
X93783D01*
Y215165D01*
X97441D01*
Y214665D01*
X97941D01*
Y209039D01*
X101098D01*
X101343Y208641D01*
Y207283D01*
X101420Y206893D01*
X101641Y206562D01*
X110303Y197901D01*
X110633Y197680D01*
X111024Y197602D01*
X120276D01*
X120666Y197680D01*
X120997Y197901D01*
X122768Y199673D01*
X122989Y200004D01*
X123067Y200394D01*
Y201370D01*
X124909D01*
Y208079D01*
X119185D01*
Y201370D01*
X121028D01*
Y200816D01*
X119853Y199642D01*
X111446D01*
X103382Y207706D01*
Y208641D01*
X103626Y209039D01*
X103882Y209039D01*
X106783D01*
Y214665D01*
X107283D01*
Y215165D01*
X110941D01*
Y220291D01*
X110441D01*
Y224177D01*
X110827D01*
X111217Y224255D01*
X111548Y224476D01*
X113910Y226838D01*
X114131Y227169D01*
X114209Y227559D01*
Y228573D01*
X114322Y228619D01*
X114884Y229182D01*
X115189Y229917D01*
Y230713D01*
X114884Y231448D01*
X114322Y232011D01*
X113587Y232315D01*
X112791D01*
X112678Y232268D01*
X111704Y233242D01*
X111896Y233704D01*
X137302D01*
X137795Y233704D01*
D02*
G37*
G36*
X90772Y159138D02*
X91106Y159005D01*
Y153312D01*
X90644Y153120D01*
X86351Y157414D01*
X86020Y157635D01*
X85630Y157712D01*
X69212D01*
X68960Y157965D01*
X68551Y158134D01*
X68365Y158655D01*
X68729Y159020D01*
X88268D01*
X88520Y158768D01*
X89072Y158539D01*
X89668D01*
X90220Y158768D01*
X90606Y159154D01*
X90772Y159138D01*
D02*
G37*
G36*
X120043Y165129D02*
Y164476D01*
X117512D01*
Y157996D01*
X117512Y157965D01*
X117436Y157496D01*
X117012D01*
Y154240D01*
X121063D01*
Y153740D01*
X121563D01*
Y149984D01*
X125055D01*
X125114Y149984D01*
X125555Y149842D01*
Y144714D01*
X123885Y143044D01*
X123664Y142713D01*
X123587Y142323D01*
Y137037D01*
X121326Y134776D01*
X121105Y134445D01*
X121028Y134055D01*
Y129163D01*
X117389Y125524D01*
X117168Y125193D01*
X117091Y124803D01*
Y119911D01*
X115129Y117949D01*
X99853D01*
X99721Y118283D01*
X99704Y118449D01*
X100091Y118835D01*
X100319Y119387D01*
Y119897D01*
X100326Y119913D01*
X100561Y120159D01*
X100735Y120286D01*
X100878Y120257D01*
Y123228D01*
X101878D01*
Y120257D01*
X102240Y120329D01*
X102635Y120593D01*
X102762Y120784D01*
X102951Y120746D01*
X103742D01*
X104013Y120800D01*
X104331Y120921D01*
X104648Y120800D01*
X104919Y120746D01*
X105711D01*
X105982Y120800D01*
X106299Y120921D01*
X106617Y120800D01*
X106888Y120746D01*
X107679D01*
X107950Y120800D01*
X108180Y120954D01*
X108334Y121184D01*
X108388Y121455D01*
Y122209D01*
X109055D01*
X109445Y122286D01*
X109776Y122507D01*
X111162Y123894D01*
X111519D01*
X112070Y124122D01*
X112492Y124544D01*
X112721Y125095D01*
Y125692D01*
X112492Y126243D01*
X112070Y126665D01*
X111519Y126894D01*
X110922D01*
X110371Y126665D01*
X109949Y126243D01*
X109721Y125692D01*
Y125336D01*
X108888Y124503D01*
X108388Y124710D01*
Y125002D01*
X108334Y125273D01*
X108180Y125503D01*
X107950Y125656D01*
X107679Y125710D01*
X106888D01*
X106617Y125656D01*
X106299Y125536D01*
X105982Y125656D01*
X105711Y125710D01*
X104919D01*
X104648Y125656D01*
X104331Y125536D01*
X104013Y125656D01*
X103742Y125710D01*
X102951D01*
X102762Y125673D01*
X102635Y125863D01*
X102240Y126128D01*
X101791Y126217D01*
X101666Y126401D01*
X101549Y126682D01*
X106036Y131169D01*
X106257Y131500D01*
X106335Y131890D01*
Y133773D01*
X106391Y133855D01*
X106835Y134143D01*
X106888Y134132D01*
X107679D01*
X107950Y134186D01*
X108180Y134340D01*
X108334Y134569D01*
X108388Y134841D01*
Y138388D01*
X108334Y138659D01*
X108303Y138705D01*
Y144853D01*
X109391Y145941D01*
X109747D01*
X110299Y146169D01*
X110408Y146279D01*
X110997Y146161D01*
X111100Y145914D01*
X111662Y145352D01*
X112295Y145090D01*
Y147047D01*
Y149005D01*
X111662Y148743D01*
X111247Y148327D01*
X110819Y148297D01*
X110639Y148372D01*
X110299Y148713D01*
X109747Y148941D01*
X109161D01*
X109132Y148971D01*
X108885Y149372D01*
X111449Y151936D01*
X111670Y152267D01*
X111748Y152657D01*
Y152903D01*
X112248Y153180D01*
X112596Y153110D01*
X112787D01*
Y157283D01*
Y161457D01*
X112596D01*
X112248Y161387D01*
X111748Y161664D01*
Y162865D01*
X114989Y166106D01*
X119066D01*
X120043Y165129D01*
D02*
G37*
G36*
X130673Y105099D02*
Y104359D01*
X127822Y101508D01*
X127601Y101178D01*
X127524Y100787D01*
Y86643D01*
X125066Y84185D01*
X124845Y83855D01*
X124768Y83465D01*
Y75816D01*
X121822Y72870D01*
X83389D01*
X82999Y72792D01*
X82668Y72571D01*
X70123Y60027D01*
X70062Y60039D01*
X69897Y60581D01*
X74540Y65224D01*
X74761Y65555D01*
X74839Y65945D01*
Y87043D01*
X75300Y87234D01*
X85352Y77182D01*
X85683Y76961D01*
X86073Y76884D01*
X88340D01*
X88592Y76631D01*
X89143Y76403D01*
X89740D01*
X90291Y76631D01*
X90713Y77053D01*
X90942Y77605D01*
Y78202D01*
X90713Y78753D01*
X90291Y79175D01*
X90152Y79233D01*
Y79774D01*
X90291Y79831D01*
X90713Y80253D01*
X90942Y80805D01*
Y81401D01*
X90713Y81953D01*
X90291Y82375D01*
X90273Y82383D01*
Y82924D01*
X90291Y82932D01*
X90713Y83354D01*
X90942Y83905D01*
Y84501D01*
X90713Y85053D01*
X90291Y85475D01*
X90152Y85533D01*
Y86074D01*
X90291Y86132D01*
X90713Y86554D01*
X90942Y87105D01*
Y87701D01*
X90713Y88253D01*
X90291Y88675D01*
X90273Y88683D01*
Y89224D01*
X90291Y89231D01*
X90713Y89653D01*
X90942Y90205D01*
Y90802D01*
X90713Y91353D01*
X90291Y91775D01*
X89740Y92003D01*
X89143D01*
X88592Y91775D01*
X88340Y91523D01*
X84329D01*
X80153Y95698D01*
Y103345D01*
X80172Y103375D01*
X80235Y103409D01*
X80735Y103112D01*
Y103098D01*
X80963Y102546D01*
X81385Y102124D01*
X81936Y101896D01*
X82533D01*
X83084Y102124D01*
X83506Y102546D01*
X83564Y102686D01*
X84105D01*
X84163Y102546D01*
X84585Y102124D01*
X85136Y101896D01*
X85733D01*
X86284Y102124D01*
X86536Y102376D01*
X126821D01*
X127211Y102454D01*
X127542Y102675D01*
X130173Y105306D01*
X130673Y105099D01*
D02*
G37*
G36*
X123565Y60623D02*
X123358Y60123D01*
X106061D01*
X105916Y60369D01*
X105822Y60623D01*
X106028Y61119D01*
Y61716D01*
X105799Y62267D01*
X105582Y62484D01*
X105789Y62984D01*
X121204D01*
X123565Y60623D01*
D02*
G37*
G36*
X111303Y52243D02*
X111311Y52237D01*
Y50232D01*
X110433D01*
X110043Y50155D01*
X109712Y49934D01*
X101546Y41768D01*
X96574D01*
X96322Y42020D01*
X95771Y42248D01*
X95174D01*
X94623Y42020D01*
X94201Y41598D01*
X93972Y41046D01*
Y40450D01*
X94201Y39898D01*
X94623Y39476D01*
X95174Y39248D01*
X95771D01*
X96322Y39476D01*
X96574Y39728D01*
X101969D01*
X102359Y39806D01*
X102690Y40027D01*
X110811Y48149D01*
X111311Y48086D01*
Y45858D01*
X113154D01*
Y45079D01*
X113231Y44689D01*
X113452Y44358D01*
X115027Y42783D01*
X115358Y42562D01*
X115748Y42484D01*
X122412D01*
X123514Y41383D01*
Y40840D01*
X123233Y40559D01*
X122138Y40559D01*
X121638Y40559D01*
X116626D01*
Y38421D01*
X109252D01*
X108862Y38344D01*
X108531Y38122D01*
X103216Y32808D01*
X102995Y32477D01*
X102917Y32087D01*
Y28464D01*
X102835Y28382D01*
X98848D01*
X93634Y33595D01*
X93304Y33816D01*
X92913Y33894D01*
X87402D01*
X87011Y33816D01*
X86681Y33595D01*
X84712Y31626D01*
X84491Y31296D01*
X84413Y30906D01*
Y30716D01*
X83460D01*
Y32743D01*
X83546Y32766D01*
X84198Y33143D01*
X84731Y33676D01*
X85108Y34328D01*
X85184Y34610D01*
X89961D01*
X90351Y34688D01*
X90682Y34909D01*
X93044Y37271D01*
X93265Y37602D01*
X93342Y37992D01*
Y42688D01*
X100225Y49571D01*
X105788D01*
X106040Y49319D01*
X106591Y49091D01*
X107188D01*
X107739Y49319D01*
X108161Y49741D01*
X108390Y50292D01*
Y50889D01*
X108161Y51440D01*
X107775Y51827D01*
X107791Y51993D01*
X107924Y52327D01*
X108544D01*
X108796Y52075D01*
X109347Y51846D01*
X109944D01*
X110495Y52075D01*
X110811Y52390D01*
X111303Y52243D01*
D02*
G37*
G36*
X58808Y57720D02*
X58963Y57346D01*
X59215Y57094D01*
Y52586D01*
X57452Y50823D01*
X52590D01*
X52383Y51323D01*
X52413Y51354D01*
X52642Y51905D01*
Y52261D01*
X58273Y57892D01*
X58808Y57720D01*
D02*
G37*
G36*
X129824Y48852D02*
X129787Y48530D01*
X129285Y48338D01*
X127690Y49934D01*
X127359Y50155D01*
X126969Y50232D01*
X124909D01*
Y52567D01*
X119185D01*
Y45858D01*
X124909D01*
Y48193D01*
X126546D01*
X128311Y46428D01*
Y43898D01*
X128389Y43508D01*
X128610Y43177D01*
X134515Y37271D01*
X134846Y37050D01*
X135228Y36974D01*
X135252Y36937D01*
X135287Y36431D01*
X134514Y35658D01*
X133968Y34712D01*
X133685Y33656D01*
Y33610D01*
X137835D01*
Y33110D01*
X138335D01*
Y28961D01*
X138381D01*
X139436Y29243D01*
X140383Y29790D01*
X141155Y30562D01*
X141198Y30637D01*
X141681Y30507D01*
Y25713D01*
X141198Y25584D01*
X141155Y25658D01*
X140383Y26431D01*
X139436Y26977D01*
X138381Y27260D01*
X138335D01*
Y23110D01*
Y18961D01*
X138381D01*
X139436Y19243D01*
X140383Y19790D01*
X141155Y20562D01*
X141198Y20637D01*
X141681Y20507D01*
Y16940D01*
X141453Y16765D01*
X140953Y17012D01*
Y17823D01*
X134638D01*
Y16374D01*
X133858D01*
X133468Y16296D01*
X133137Y16075D01*
X129939Y12877D01*
X129515Y13160D01*
X129634Y13447D01*
X129937Y14971D01*
Y15248D01*
X114157D01*
Y14971D01*
X114461Y13447D01*
X115055Y12011D01*
X115919Y10719D01*
X117018Y9620D01*
X118310Y8756D01*
X118672Y8606D01*
X118573Y8106D01*
X115777D01*
X104461Y19422D01*
X104130Y19643D01*
X103740Y19720D01*
X96583D01*
Y22528D01*
X89087D01*
Y22224D01*
X88587Y22072D01*
X88516Y22178D01*
X87254Y23440D01*
X87446Y23902D01*
X87846D01*
Y27559D01*
X88346D01*
Y28059D01*
X91216D01*
Y31216D01*
X88275D01*
X88018Y31716D01*
X88116Y31854D01*
X92491D01*
X97704Y26641D01*
X98035Y26420D01*
X98425Y26343D01*
X102835D01*
X103087Y26091D01*
X103639Y25862D01*
X104235D01*
X104787Y26091D01*
X105209Y26513D01*
X105437Y27064D01*
Y27420D01*
X106525Y28508D01*
X116035D01*
Y26370D01*
X120972D01*
Y32685D01*
X116035D01*
Y30547D01*
X106102D01*
X105712Y30470D01*
X105457Y30299D01*
X104957Y30444D01*
Y31664D01*
X109674Y36382D01*
X112926D01*
X113260Y35882D01*
X113200Y35736D01*
X115157D01*
Y35236D01*
X115657D01*
Y33279D01*
X116290Y33541D01*
X116853Y34103D01*
X116911Y34244D01*
X121638D01*
X121957Y34244D01*
X122457Y34244D01*
X127469D01*
Y40559D01*
X125626D01*
Y41732D01*
X125548Y42123D01*
X125327Y42453D01*
X123556Y44225D01*
X123225Y44446D01*
X122835Y44524D01*
X116170D01*
X115336Y45358D01*
X115538Y45858D01*
X117035D01*
Y52567D01*
X111488D01*
X111121Y52988D01*
X111146Y53048D01*
Y53645D01*
X110917Y54196D01*
X110495Y54618D01*
X109944Y54847D01*
X109347D01*
X108796Y54618D01*
X108544Y54366D01*
X103150D01*
X103025Y54568D01*
X102962Y54866D01*
X103769Y55673D01*
X123003D01*
X129824Y48852D01*
D02*
G37*
G36*
X114633Y6366D02*
X114964Y6145D01*
X115354Y6067D01*
X125591D01*
X125981Y6145D01*
X126312Y6366D01*
X127932Y7987D01*
X128356Y7703D01*
X128224Y7385D01*
Y6788D01*
X128453Y6237D01*
X128875Y5815D01*
X129426Y5587D01*
X130023D01*
X130574Y5815D01*
X130996Y6237D01*
X131224Y6788D01*
Y6874D01*
X131598Y7248D01*
X134638D01*
Y5799D01*
X140953D01*
Y10736D01*
X134638D01*
Y9287D01*
X131176D01*
X130786Y9210D01*
X130455Y8989D01*
X130044Y8578D01*
X130023Y8587D01*
X129426D01*
X129108Y8455D01*
X128824Y8879D01*
X134138Y14192D01*
X134638Y13990D01*
Y12886D01*
X140953D01*
Y14335D01*
X141732D01*
X142122Y14412D01*
X142453Y14633D01*
X142691Y14871D01*
X143152Y14679D01*
Y8374D01*
X143152Y7874D01*
X143152Y7874D01*
X143132Y7382D01*
X143013Y6476D01*
X142473Y5173D01*
X141615Y4054D01*
X140496Y3196D01*
X139193Y2656D01*
X138287Y2537D01*
X137795Y2517D01*
X137795Y2517D01*
X137795Y2517D01*
X87092D01*
X86901Y2979D01*
X88516Y4594D01*
X88737Y4925D01*
X88815Y5315D01*
Y6246D01*
X89315Y6380D01*
X89435Y6171D01*
X90226Y5380D01*
X91195Y4821D01*
X92275Y4532D01*
X92335D01*
Y8779D01*
Y13028D01*
X92275D01*
X91195Y12738D01*
X90226Y12179D01*
X89435Y11388D01*
X89315Y11179D01*
X88815Y11313D01*
Y13318D01*
X90529Y15032D01*
X96583D01*
Y17681D01*
X103318D01*
X114633Y6366D01*
D02*
G37*
%LPC*%
G36*
X81610Y231217D02*
X78354D01*
Y228650D01*
X81610D01*
Y231217D01*
D02*
G37*
G36*
X71571D02*
X68315D01*
Y228650D01*
X71571D01*
Y231217D01*
D02*
G37*
G36*
X77354D02*
X74098D01*
Y228650D01*
X77354D01*
Y231217D01*
D02*
G37*
G36*
X67315D02*
X64059D01*
Y228650D01*
X67315D01*
Y231217D01*
D02*
G37*
G36*
X81610Y227650D02*
X78354D01*
Y225083D01*
X81610D01*
Y227650D01*
D02*
G37*
G36*
X77354D02*
X74098D01*
Y225083D01*
X77354D01*
Y227650D01*
D02*
G37*
G36*
X71571D02*
X68315D01*
Y225083D01*
X71571D01*
Y227650D01*
D02*
G37*
G36*
X67315D02*
X64059D01*
Y225083D01*
X67315D01*
Y227650D01*
D02*
G37*
G36*
X122824Y228362D02*
X122547D01*
Y220972D01*
X129937D01*
Y221250D01*
X129634Y222774D01*
X129039Y224210D01*
X128176Y225502D01*
X127077Y226601D01*
X125785Y227464D01*
X124349Y228059D01*
X122824Y228362D01*
D02*
G37*
G36*
X121547D02*
X121270D01*
X119746Y228059D01*
X118310Y227464D01*
X117018Y226601D01*
X115919Y225502D01*
X115055Y224210D01*
X114461Y222774D01*
X114157Y221250D01*
Y220972D01*
X121547D01*
Y228362D01*
D02*
G37*
G36*
X43028Y218421D02*
X39870D01*
Y216051D01*
X43028D01*
Y218421D01*
D02*
G37*
G36*
X38870D02*
X35713D01*
Y216051D01*
X38870D01*
Y218421D01*
D02*
G37*
G36*
X52280Y217437D02*
X49713D01*
Y215362D01*
X52280D01*
Y217437D01*
D02*
G37*
G36*
X48713D02*
X46146D01*
Y215362D01*
X48713D01*
Y217437D01*
D02*
G37*
G36*
X55307Y220072D02*
X55084Y220043D01*
X54409Y219763D01*
X53830Y219319D01*
X53386Y218740D01*
X53107Y218066D01*
X53012Y217342D01*
Y214890D01*
X55307D01*
Y220072D01*
D02*
G37*
G36*
X56307D02*
Y214390D01*
Y208707D01*
X56531Y208737D01*
X57205Y209016D01*
X57784Y209460D01*
X58228Y210039D01*
X58342Y210315D01*
X58842Y210216D01*
Y210078D01*
X59190Y209240D01*
X59831Y208599D01*
X60622Y208271D01*
Y210531D01*
Y212792D01*
X59831Y212464D01*
X59190Y211823D01*
X59103Y211613D01*
X58603Y211712D01*
Y214666D01*
X59103Y214765D01*
X59190Y214555D01*
X59831Y213914D01*
X60622Y213586D01*
Y215846D01*
Y218107D01*
X59831Y217779D01*
X59190Y217138D01*
X59103Y216928D01*
X58603Y217027D01*
Y217342D01*
X58507Y218066D01*
X58228Y218740D01*
X57784Y219319D01*
X57205Y219763D01*
X56531Y220043D01*
X56307Y220072D01*
D02*
G37*
G36*
X43028Y215051D02*
X39870D01*
Y212681D01*
X43028D01*
Y215051D01*
D02*
G37*
G36*
X38870D02*
X35713D01*
Y212681D01*
X38870D01*
Y215051D01*
D02*
G37*
G36*
X129937Y219972D02*
X122547D01*
Y212583D01*
X122824D01*
X124349Y212886D01*
X125785Y213481D01*
X127077Y214344D01*
X128176Y215443D01*
X129039Y216735D01*
X129634Y218171D01*
X129937Y219695D01*
Y219972D01*
D02*
G37*
G36*
X121547D02*
X114157D01*
Y219695D01*
X114461Y218171D01*
X115055Y216735D01*
X115919Y215443D01*
X117018Y214344D01*
X118310Y213481D01*
X119746Y212886D01*
X121270Y212583D01*
X121547D01*
Y219972D01*
D02*
G37*
G36*
X31512D02*
X24122D01*
Y212583D01*
X24399D01*
X25923Y212886D01*
X27359Y213481D01*
X28651Y214344D01*
X29750Y215443D01*
X30614Y216735D01*
X31209Y218171D01*
X31512Y219695D01*
Y219972D01*
D02*
G37*
G36*
X23122D02*
X15732D01*
Y219695D01*
X16036Y218171D01*
X16630Y216735D01*
X17494Y215443D01*
X18593Y214344D01*
X19885Y213481D01*
X21321Y212886D01*
X22845Y212583D01*
X23122D01*
Y219972D01*
D02*
G37*
G36*
X52280Y214362D02*
X49713D01*
Y212287D01*
X52280D01*
Y214362D01*
D02*
G37*
G36*
X48713D02*
X46146D01*
Y212287D01*
X48713D01*
Y214362D01*
D02*
G37*
G36*
X141484Y216760D02*
X134185D01*
Y209461D01*
X141484D01*
Y216760D01*
D02*
G37*
G36*
X110941Y214165D02*
X107783D01*
Y209039D01*
X110941D01*
Y214165D01*
D02*
G37*
G36*
X96941D02*
X93783D01*
Y209039D01*
X96941D01*
Y214165D01*
D02*
G37*
G36*
X55307Y213890D02*
X53012D01*
Y211437D01*
X53107Y210714D01*
X53386Y210039D01*
X53830Y209460D01*
X54409Y209016D01*
X55084Y208737D01*
X55307Y208707D01*
Y213890D01*
D02*
G37*
G36*
X92658D02*
X90362D01*
Y208707D01*
X90586Y208737D01*
X91260Y209016D01*
X91839Y209460D01*
X92283Y210039D01*
X92563Y210714D01*
X92658Y211437D01*
Y213890D01*
D02*
G37*
G36*
X50197Y211453D02*
X30315D01*
X29925Y211375D01*
X29594Y211154D01*
X16405Y197965D01*
X16184Y197634D01*
X16106Y197244D01*
Y191242D01*
X15606Y191090D01*
X15485Y191272D01*
X12926Y193831D01*
X12595Y194052D01*
X12205Y194130D01*
X11340D01*
X11236Y194519D01*
X10755Y195351D01*
X10076Y196031D01*
X9243Y196511D01*
X8315Y196760D01*
X7354D01*
X6426Y196511D01*
X5594Y196031D01*
X4914Y195351D01*
X4434Y194519D01*
X4185Y193591D01*
Y192630D01*
X4434Y191701D01*
X4914Y190869D01*
X5594Y190190D01*
X6426Y189709D01*
X7354Y189461D01*
X8315D01*
X9243Y189709D01*
X10076Y190190D01*
X10755Y190869D01*
X11236Y191701D01*
X11317Y192007D01*
X11809Y192064D01*
X13744Y190129D01*
Y184646D01*
X13778Y184476D01*
X13736Y184402D01*
X13381Y184084D01*
X13150Y184130D01*
X11340D01*
X11236Y184519D01*
X10755Y185351D01*
X10076Y186031D01*
X9243Y186511D01*
X8315Y186760D01*
X7354D01*
X6426Y186511D01*
X5594Y186031D01*
X4914Y185351D01*
X4434Y184519D01*
X4185Y183591D01*
Y182630D01*
X4434Y181702D01*
X4914Y180869D01*
X5594Y180190D01*
X6426Y179709D01*
X7354Y179461D01*
X8315D01*
X9243Y179709D01*
X10076Y180190D01*
X10755Y180869D01*
X11236Y181702D01*
X11340Y182091D01*
X12727D01*
X15713Y179105D01*
Y172657D01*
X15213Y172450D01*
X13831Y173831D01*
X13500Y174052D01*
X13110Y174130D01*
X11340D01*
X11236Y174519D01*
X10755Y175351D01*
X10076Y176031D01*
X9243Y176511D01*
X8315Y176760D01*
X7354D01*
X6426Y176511D01*
X5594Y176031D01*
X4914Y175351D01*
X4434Y174519D01*
X4185Y173591D01*
Y172630D01*
X4434Y171702D01*
X4914Y170869D01*
X5594Y170190D01*
X6426Y169709D01*
X7354Y169461D01*
X8315D01*
X9243Y169709D01*
X10076Y170190D01*
X10755Y170869D01*
X11236Y171702D01*
X11340Y172091D01*
X12688D01*
X13941Y170837D01*
Y165354D01*
X14019Y164964D01*
X14240Y164633D01*
X17368Y161505D01*
X17329Y161198D01*
X16807Y161012D01*
X13989Y163831D01*
X13658Y164052D01*
X13268Y164130D01*
X11340D01*
X11236Y164519D01*
X10755Y165351D01*
X10076Y166031D01*
X9243Y166511D01*
X8315Y166760D01*
X7354D01*
X6426Y166511D01*
X5594Y166031D01*
X4914Y165351D01*
X4434Y164519D01*
X4185Y163591D01*
Y162630D01*
X4434Y161702D01*
X4914Y160869D01*
X5594Y160190D01*
X6426Y159709D01*
X7354Y159461D01*
X8315D01*
X9243Y159709D01*
X10076Y160190D01*
X10755Y160869D01*
X11236Y161702D01*
X11340Y162091D01*
X12845D01*
X15713Y159223D01*
Y152578D01*
X15213Y152371D01*
X13753Y153831D01*
X13422Y154052D01*
X13032Y154130D01*
X11340D01*
X11236Y154519D01*
X10755Y155351D01*
X10076Y156031D01*
X9243Y156511D01*
X8315Y156760D01*
X7354D01*
X6426Y156511D01*
X5594Y156031D01*
X4914Y155351D01*
X4434Y154519D01*
X4185Y153591D01*
Y152630D01*
X4434Y151701D01*
X4914Y150869D01*
X5594Y150190D01*
X6426Y149709D01*
X7354Y149461D01*
X8315D01*
X9243Y149709D01*
X10076Y150190D01*
X10755Y150869D01*
X11236Y151701D01*
X11340Y152091D01*
X12609D01*
X13941Y150759D01*
Y144498D01*
X13573Y144153D01*
X13467Y144114D01*
X13386Y144130D01*
X11340D01*
X11236Y144519D01*
X10755Y145351D01*
X10076Y146031D01*
X9243Y146511D01*
X8315Y146760D01*
X7354D01*
X6426Y146511D01*
X5594Y146031D01*
X4914Y145351D01*
X4434Y144519D01*
X4185Y143591D01*
Y142630D01*
X4434Y141701D01*
X4914Y140869D01*
X5594Y140190D01*
X6426Y139709D01*
X7354Y139461D01*
X8315D01*
X9243Y139709D01*
X10076Y140190D01*
X10755Y140869D01*
X11236Y141701D01*
X11340Y142091D01*
X12964D01*
X15713Y139341D01*
Y132839D01*
X15251Y132648D01*
X14067Y133831D01*
X13737Y134052D01*
X13347Y134130D01*
X11340D01*
X11236Y134519D01*
X10755Y135351D01*
X10076Y136031D01*
X9243Y136511D01*
X8315Y136760D01*
X7354D01*
X6426Y136511D01*
X5594Y136031D01*
X4914Y135351D01*
X4434Y134519D01*
X4185Y133591D01*
Y132630D01*
X4434Y131702D01*
X4914Y130869D01*
X5594Y130190D01*
X6426Y129709D01*
X7354Y129461D01*
X8315D01*
X9243Y129709D01*
X10076Y130190D01*
X10755Y130869D01*
X11236Y131702D01*
X11340Y132091D01*
X12924D01*
X14138Y130877D01*
Y125394D01*
X14216Y125004D01*
X14436Y124673D01*
X14514Y124595D01*
X14312Y124172D01*
X14272Y124130D01*
X11340D01*
X11236Y124519D01*
X10755Y125351D01*
X10076Y126031D01*
X9243Y126511D01*
X8315Y126760D01*
X7354D01*
X6426Y126511D01*
X5594Y126031D01*
X4914Y125351D01*
X4434Y124519D01*
X4185Y123591D01*
Y122630D01*
X4434Y121702D01*
X4914Y120869D01*
X5594Y120190D01*
X6426Y119709D01*
X7354Y119461D01*
X8315D01*
X9243Y119709D01*
X10076Y120190D01*
X10755Y120869D01*
X11236Y121702D01*
X11340Y122091D01*
X13869D01*
X16894Y119066D01*
Y112263D01*
X16394Y112056D01*
X14619Y113831D01*
X14288Y114052D01*
X13898Y114130D01*
X11340D01*
X11236Y114519D01*
X10755Y115351D01*
X10076Y116031D01*
X9243Y116511D01*
X8315Y116760D01*
X7354D01*
X6426Y116511D01*
X5594Y116031D01*
X4914Y115351D01*
X4434Y114519D01*
X4185Y113591D01*
Y112630D01*
X4434Y111702D01*
X4914Y110869D01*
X5594Y110190D01*
X6426Y109709D01*
X7354Y109461D01*
X8315D01*
X9243Y109709D01*
X10076Y110190D01*
X10755Y110869D01*
X11236Y111702D01*
X11340Y112091D01*
X13475D01*
X14925Y110641D01*
Y104331D01*
X14969Y104109D01*
X14612Y103878D01*
X14511Y103850D01*
X14209Y104052D01*
X13819Y104130D01*
X11340D01*
X11236Y104519D01*
X10755Y105351D01*
X10076Y106031D01*
X9243Y106511D01*
X8315Y106760D01*
X7354D01*
X6426Y106511D01*
X5594Y106031D01*
X4914Y105351D01*
X4434Y104519D01*
X4185Y103591D01*
Y102630D01*
X4434Y101701D01*
X4914Y100869D01*
X5594Y100190D01*
X6426Y99709D01*
X7354Y99461D01*
X8315D01*
X9243Y99709D01*
X10076Y100190D01*
X10755Y100869D01*
X11236Y101701D01*
X11340Y102091D01*
X13397D01*
X16500Y98987D01*
Y91948D01*
X16000Y91741D01*
X13910Y93831D01*
X13579Y94052D01*
X13189Y94130D01*
X11340D01*
X11236Y94519D01*
X10755Y95351D01*
X10076Y96031D01*
X9243Y96511D01*
X8315Y96760D01*
X7354D01*
X6426Y96511D01*
X5594Y96031D01*
X4914Y95351D01*
X4434Y94519D01*
X4185Y93591D01*
Y92630D01*
X4434Y91702D01*
X4914Y90869D01*
X5594Y90190D01*
X6426Y89709D01*
X7354Y89461D01*
X8315D01*
X9243Y89709D01*
X10076Y90190D01*
X10755Y90869D01*
X11236Y91702D01*
X11340Y92091D01*
X12767D01*
X14728Y90129D01*
Y85433D01*
X14806Y85043D01*
X15027Y84712D01*
X15144Y84595D01*
X14942Y84172D01*
X14902Y84130D01*
X11340D01*
X11236Y84519D01*
X10755Y85351D01*
X10076Y86031D01*
X9243Y86511D01*
X8315Y86760D01*
X7354D01*
X6426Y86511D01*
X5594Y86031D01*
X4914Y85351D01*
X4434Y84519D01*
X4185Y83591D01*
Y82630D01*
X4434Y81701D01*
X4914Y80869D01*
X5594Y80190D01*
X6426Y79709D01*
X7354Y79461D01*
X8315D01*
X9243Y79709D01*
X10076Y80190D01*
X10755Y80869D01*
X11236Y81701D01*
X11340Y82091D01*
X14499D01*
X16106Y80483D01*
Y72835D01*
X16151Y72613D01*
X15690Y72366D01*
X14225Y73831D01*
X13894Y74052D01*
X13504Y74130D01*
X11340D01*
X11236Y74519D01*
X10755Y75351D01*
X10076Y76031D01*
X9243Y76511D01*
X8315Y76760D01*
X7354D01*
X6426Y76511D01*
X5594Y76031D01*
X4914Y75351D01*
X4434Y74519D01*
X4185Y73591D01*
Y72630D01*
X4434Y71702D01*
X4914Y70869D01*
X5594Y70190D01*
X6426Y69709D01*
X7354Y69461D01*
X8315D01*
X9243Y69709D01*
X10076Y70190D01*
X10755Y70869D01*
X11236Y71702D01*
X11340Y72091D01*
X13082D01*
X29791Y55381D01*
X30122Y55160D01*
X30512Y55083D01*
X49095D01*
X49347Y54831D01*
X49898Y54602D01*
X50495D01*
X51047Y54831D01*
X51468Y55253D01*
X51697Y55804D01*
Y56401D01*
X51468Y56952D01*
X51047Y57374D01*
X50495Y57602D01*
X49898D01*
X49347Y57374D01*
X49095Y57122D01*
X30934D01*
X27289Y60767D01*
X27536Y61228D01*
X27757Y61184D01*
X55126D01*
X55378Y60931D01*
X55929Y60703D01*
X56526D01*
X57077Y60931D01*
X57499Y61353D01*
X57728Y61905D01*
Y62502D01*
X57499Y63053D01*
X57077Y63475D01*
X56938Y63533D01*
Y64074D01*
X57077Y64131D01*
X57499Y64553D01*
X57728Y65105D01*
Y65702D01*
X57499Y66253D01*
X57077Y66675D01*
X57059Y66683D01*
Y67224D01*
X57077Y67232D01*
X57499Y67654D01*
X57728Y68205D01*
Y68801D01*
X57499Y69353D01*
X57077Y69775D01*
X56938Y69833D01*
Y70374D01*
X57077Y70432D01*
X57499Y70854D01*
X57728Y71405D01*
Y72001D01*
X57499Y72553D01*
X57077Y72975D01*
X56526Y73203D01*
X55929D01*
X55378Y72975D01*
X55126Y72723D01*
X32781D01*
X32546Y73223D01*
X32683Y73390D01*
X52734D01*
X53124Y73467D01*
X53455Y73689D01*
X56169Y76403D01*
X56286D01*
X59591Y73098D01*
X59922Y72877D01*
X60312Y72799D01*
X61803D01*
Y71449D01*
X68118D01*
Y76189D01*
X65980D01*
Y78929D01*
X67528D01*
Y83079D01*
X62394D01*
Y78929D01*
X63941D01*
Y76189D01*
X61803D01*
Y74839D01*
X60734D01*
X57728Y77845D01*
Y78202D01*
X57499Y78753D01*
X57077Y79175D01*
X56938Y79233D01*
Y79774D01*
X57077Y79831D01*
X57499Y80253D01*
X57728Y80805D01*
Y81401D01*
X57499Y81953D01*
X57077Y82375D01*
X57059Y82383D01*
Y82924D01*
X57077Y82932D01*
X57499Y83354D01*
X57728Y83905D01*
Y84501D01*
X57499Y85053D01*
X57077Y85475D01*
X56938Y85533D01*
Y86074D01*
X57077Y86132D01*
X57499Y86554D01*
X57728Y87105D01*
Y87701D01*
X57499Y88253D01*
X57077Y88675D01*
X57059Y88683D01*
Y89224D01*
X57077Y89231D01*
X57499Y89653D01*
X57728Y90205D01*
Y90802D01*
X57499Y91353D01*
X57077Y91775D01*
X56526Y92003D01*
X55929D01*
X55378Y91775D01*
X54956Y91353D01*
X54728Y90802D01*
Y90205D01*
X54956Y89653D01*
X55378Y89231D01*
X55397Y89224D01*
Y88683D01*
X55378Y88675D01*
X54956Y88253D01*
X54728Y87701D01*
Y87105D01*
X54956Y86554D01*
X55378Y86132D01*
X55517Y86074D01*
Y85533D01*
X55378Y85475D01*
X54956Y85053D01*
X54728Y84501D01*
Y83905D01*
X54956Y83354D01*
X55328Y82981D01*
X55335Y82449D01*
X55004Y82123D01*
X46681D01*
X46295Y82509D01*
Y101969D01*
X46218Y102359D01*
X45997Y102690D01*
X31335Y117351D01*
Y126378D01*
X31257Y126768D01*
X31036Y127099D01*
X26610Y131525D01*
Y144488D01*
X26533Y144878D01*
X26311Y145209D01*
X22870Y148651D01*
Y153721D01*
X23370Y153928D01*
X24279Y153019D01*
X24610Y152798D01*
X25000Y152721D01*
X25780D01*
Y151272D01*
X27917D01*
Y150029D01*
X27617Y149728D01*
X27261D01*
X26709Y149500D01*
X26287Y149078D01*
X26059Y148527D01*
Y147930D01*
X26287Y147379D01*
X26709Y146957D01*
X27261Y146728D01*
X27857D01*
X28409Y146957D01*
X28831Y147379D01*
X29059Y147930D01*
Y148286D01*
X29658Y148885D01*
X29879Y149216D01*
X29957Y149606D01*
Y151272D01*
X32094D01*
Y156209D01*
X25780D01*
Y155104D01*
X25280Y154903D01*
X24642Y155540D01*
Y165354D01*
X24564Y165744D01*
X24343Y166075D01*
X22083Y168336D01*
Y183661D01*
X22005Y184052D01*
X21784Y184382D01*
X18146Y188021D01*
Y196822D01*
X30737Y209414D01*
X49775D01*
X53224Y205964D01*
Y205607D01*
X53453Y205056D01*
X53875Y204634D01*
X54426Y204405D01*
X55023D01*
X55574Y204634D01*
X55996Y205056D01*
X56224Y205607D01*
Y206204D01*
X55996Y206755D01*
X55574Y207177D01*
X55023Y207405D01*
X54666D01*
X50918Y211154D01*
X50587Y211375D01*
X50197Y211453D01*
D02*
G37*
G36*
X114177Y212630D02*
X113382D01*
X112647Y212325D01*
X112084Y211763D01*
X111779Y211028D01*
Y210232D01*
X112084Y209497D01*
X112647Y208934D01*
X112760Y208888D01*
Y208079D01*
X111311D01*
Y201370D01*
X117035D01*
Y208079D01*
X114799D01*
Y208888D01*
X114912Y208934D01*
X115475Y209497D01*
X115779Y210232D01*
Y211028D01*
X115475Y211763D01*
X114912Y212325D01*
X114177Y212630D01*
D02*
G37*
G36*
X138315Y206760D02*
X137354D01*
X136426Y206511D01*
X135594Y206031D01*
X134914Y205351D01*
X134434Y204519D01*
X134185Y203591D01*
Y202630D01*
X134434Y201701D01*
X134914Y200869D01*
X135594Y200190D01*
X136426Y199709D01*
X137354Y199461D01*
X138315D01*
X139243Y199709D01*
X140076Y200190D01*
X140755Y200869D01*
X141235Y201701D01*
X141484Y202630D01*
Y203591D01*
X141235Y204519D01*
X140755Y205351D01*
X140076Y206031D01*
X139243Y206511D01*
X138315Y206760D01*
D02*
G37*
G36*
X8315D02*
X7354D01*
X6426Y206511D01*
X5594Y206031D01*
X4914Y205351D01*
X4434Y204519D01*
X4185Y203591D01*
Y202630D01*
X4434Y201701D01*
X4914Y200869D01*
X5594Y200190D01*
X6426Y199709D01*
X7354Y199461D01*
X8315D01*
X9243Y199709D01*
X10076Y200190D01*
X10755Y200869D01*
X11236Y201701D01*
X11484Y202630D01*
Y203591D01*
X11236Y204519D01*
X10755Y205351D01*
X10076Y206031D01*
X9243Y206511D01*
X8315Y206760D01*
D02*
G37*
G36*
X102661Y202091D02*
X102064D01*
X101513Y201862D01*
X101091Y201440D01*
X100862Y200889D01*
Y200292D01*
X101091Y199741D01*
X101513Y199319D01*
X102064Y199091D01*
X102661D01*
X103212Y199319D01*
X103634Y199741D01*
X103862Y200292D01*
Y200889D01*
X103634Y201440D01*
X103212Y201862D01*
X102661Y202091D01*
D02*
G37*
G36*
X94406Y197039D02*
X91051D01*
Y193882D01*
X94406D01*
Y197039D01*
D02*
G37*
G36*
X90051D02*
X86697D01*
Y193882D01*
X90051D01*
Y197039D01*
D02*
G37*
G36*
X64878D02*
X61524D01*
Y193882D01*
X64878D01*
Y197039D01*
D02*
G37*
G36*
X60524D02*
X57169D01*
Y193882D01*
X60524D01*
Y197039D01*
D02*
G37*
G36*
X110228Y185472D02*
X110037D01*
X109571Y185380D01*
X109449Y185298D01*
X109327Y185380D01*
X108860Y185472D01*
X108669D01*
Y181299D01*
Y177126D01*
X108860D01*
X109327Y177219D01*
X109449Y177301D01*
X109571Y177219D01*
X110037Y177126D01*
X110228D01*
Y181299D01*
Y185472D01*
D02*
G37*
G36*
X112787D02*
X112596D01*
X112130Y185380D01*
X112008Y185298D01*
X111885Y185380D01*
X111419Y185472D01*
X111228D01*
Y181299D01*
Y177126D01*
X111419D01*
X111885Y177219D01*
X112008Y177301D01*
X112130Y177219D01*
X112596Y177126D01*
X112787D01*
Y181299D01*
Y185472D01*
D02*
G37*
G36*
X124614Y186130D02*
X117512D01*
Y183894D01*
X117126D01*
X116736Y183816D01*
X116405Y183595D01*
X115697Y182887D01*
X115197Y183094D01*
Y184254D01*
X115104Y184720D01*
X114840Y185115D01*
X114445Y185380D01*
X113978Y185472D01*
X113787D01*
Y181299D01*
Y177126D01*
X113978D01*
X114425Y177215D01*
X114447Y177217D01*
X114925Y176939D01*
Y176013D01*
X105089Y166177D01*
X102480D01*
X102228Y166429D01*
X101676Y166657D01*
X101080D01*
X100528Y166429D01*
X100106Y166007D01*
X99878Y165456D01*
Y164859D01*
X100106Y164308D01*
X100528Y163886D01*
X101080Y163657D01*
X101676D01*
X102228Y163886D01*
X102480Y164138D01*
X105512D01*
X105902Y164216D01*
X106233Y164436D01*
X116666Y174870D01*
X116887Y175200D01*
X116964Y175591D01*
Y180850D01*
X117012Y180882D01*
X117512Y180614D01*
Y179618D01*
X124614D01*
Y186130D01*
D02*
G37*
G36*
X83866Y200106D02*
X77551D01*
Y195366D01*
X79689D01*
Y192155D01*
X74279Y186745D01*
X74058Y186414D01*
X73980Y186024D01*
Y180049D01*
X73480Y179950D01*
X73349Y180267D01*
X72786Y180829D01*
X72673Y180876D01*
Y190551D01*
X72596Y190941D01*
X72374Y191272D01*
X71886Y191761D01*
Y195366D01*
X74024D01*
Y200106D01*
X67709D01*
Y195366D01*
X69847D01*
Y191339D01*
X69924Y190948D01*
X70145Y190618D01*
X70634Y190129D01*
Y180876D01*
X70521Y180829D01*
X69958Y180267D01*
X69653Y179532D01*
Y178736D01*
X69958Y178001D01*
X70521Y177438D01*
X71256Y177134D01*
X72051D01*
X72786Y177438D01*
X73349Y178001D01*
X73480Y178318D01*
X73980Y178219D01*
Y174183D01*
X73867Y174136D01*
X73304Y173574D01*
X73000Y172839D01*
Y172043D01*
X73304Y171308D01*
X73867Y170745D01*
X74602Y170441D01*
X75398D01*
X76133Y170745D01*
X76696Y171308D01*
X77000Y172043D01*
Y172839D01*
X76696Y173574D01*
X76133Y174136D01*
X76020Y174183D01*
Y185601D01*
X81430Y191011D01*
X81651Y191342D01*
X81728Y191732D01*
Y195366D01*
X83866D01*
Y200106D01*
D02*
G37*
G36*
X54777Y192789D02*
X54180D01*
X53629Y192561D01*
X53207Y192139D01*
X52978Y191588D01*
Y190991D01*
X53207Y190440D01*
X53459Y190188D01*
Y172884D01*
X53536Y172494D01*
X53757Y172163D01*
X57350Y168570D01*
X57681Y168349D01*
X58071Y168272D01*
X67993D01*
X68245Y168020D01*
X68796Y167791D01*
X69393D01*
X69944Y168020D01*
X70366Y168442D01*
X70595Y168993D01*
Y169590D01*
X70366Y170141D01*
X69944Y170563D01*
X69393Y170791D01*
X68796D01*
X68245Y170563D01*
X67993Y170311D01*
X58493D01*
X55498Y173306D01*
Y190188D01*
X55750Y190440D01*
X55978Y190991D01*
Y191588D01*
X55750Y192139D01*
X55328Y192561D01*
X54777Y192789D01*
D02*
G37*
G36*
X29235Y170201D02*
X28639D01*
X28087Y169972D01*
X27665Y169551D01*
X27437Y168999D01*
Y168402D01*
X27665Y167851D01*
X27917Y167599D01*
Y163295D01*
X25780D01*
Y158358D01*
X32094D01*
Y163295D01*
X29957D01*
Y167599D01*
X30209Y167851D01*
X30437Y168402D01*
Y168999D01*
X30209Y169551D01*
X29787Y169972D01*
X29235Y170201D01*
D02*
G37*
G36*
X48527Y151697D02*
X47930D01*
X47379Y151469D01*
X46957Y151047D01*
X46728Y150495D01*
Y149899D01*
X46957Y149347D01*
X47209Y149095D01*
Y148847D01*
X47019Y148657D01*
X45382D01*
Y150795D01*
X40445D01*
Y144480D01*
X45382D01*
Y146618D01*
X47441D01*
X47831Y146696D01*
X48162Y146917D01*
X48949Y147704D01*
X49170Y148035D01*
X49248Y148425D01*
Y149095D01*
X49500Y149347D01*
X49728Y149899D01*
Y150495D01*
X49500Y151047D01*
X49078Y151469D01*
X48527Y151697D01*
D02*
G37*
G36*
X78658Y149327D02*
X76287D01*
Y146169D01*
X78658D01*
Y149327D01*
D02*
G37*
G36*
X75287D02*
X72917D01*
Y146169D01*
X75287D01*
Y149327D01*
D02*
G37*
G36*
X95377Y146382D02*
X94780D01*
X94229Y146153D01*
X93977Y145902D01*
X92913D01*
X92523Y145824D01*
X92192Y145603D01*
X89145Y142555D01*
X82598D01*
X82346Y142807D01*
X81794Y143035D01*
X81198D01*
X80646Y142807D01*
X80224Y142385D01*
X79996Y141834D01*
Y141237D01*
X80224Y140686D01*
X80646Y140264D01*
X81198Y140035D01*
X81794D01*
X82346Y140264D01*
X82598Y140516D01*
X89351D01*
X89558Y140016D01*
X86287Y136745D01*
X86066Y136414D01*
X85988Y136024D01*
Y129359D01*
X83489Y126860D01*
X83100Y127179D01*
X83225Y127366D01*
X83303Y127756D01*
Y130001D01*
X83555Y130253D01*
X83784Y130804D01*
Y131401D01*
X83555Y131952D01*
X83133Y132374D01*
X82582Y132602D01*
X81985D01*
X81434Y132374D01*
X81012Y131952D01*
X80783Y131401D01*
Y130804D01*
X81012Y130253D01*
X81264Y130001D01*
Y128178D01*
X80089Y127004D01*
X78158D01*
Y129142D01*
X73417D01*
Y122827D01*
X78158D01*
Y124965D01*
X80207D01*
X80414Y124465D01*
X80224Y124275D01*
X79996Y123724D01*
Y123127D01*
X80224Y122575D01*
X80646Y122154D01*
X81198Y121925D01*
X81794D01*
X82346Y122154D01*
X82768Y122575D01*
X82996Y123127D01*
Y123483D01*
X87729Y128216D01*
X87950Y128547D01*
X88028Y128937D01*
Y135601D01*
X92745Y140319D01*
X100670D01*
X100922Y140067D01*
X101473Y139839D01*
X102070D01*
X102621Y140067D01*
X103043Y140489D01*
X103272Y141040D01*
Y141637D01*
X103043Y142188D01*
X102621Y142610D01*
X102070Y142839D01*
X101473D01*
X100922Y142610D01*
X100670Y142358D01*
X92539D01*
X92332Y142858D01*
X93336Y143862D01*
X93977D01*
X94229Y143610D01*
X94780Y143382D01*
X95377D01*
X95928Y143610D01*
X96350Y144032D01*
X96579Y144583D01*
Y145180D01*
X96350Y145732D01*
X95928Y146153D01*
X95377Y146382D01*
D02*
G37*
G36*
X78658Y145169D02*
X76287D01*
Y142012D01*
X78658D01*
Y145169D01*
D02*
G37*
G36*
X75287D02*
X72917D01*
Y142012D01*
X75287D01*
Y145169D01*
D02*
G37*
G36*
X79051Y138894D02*
X76976D01*
Y136327D01*
X79051D01*
Y138894D01*
D02*
G37*
G36*
X75976D02*
X73902D01*
Y136327D01*
X75976D01*
Y138894D01*
D02*
G37*
G36*
X55799Y137476D02*
X52642D01*
Y136976D01*
X46843D01*
Y134642D01*
X44029D01*
X44006Y134727D01*
X43629Y135380D01*
X43096Y135912D01*
X42443Y136289D01*
X41715Y136484D01*
X40962D01*
X40234Y136289D01*
X39581Y135912D01*
X39048Y135380D01*
X38671Y134727D01*
X38476Y133999D01*
Y133245D01*
X38671Y132517D01*
X39048Y131865D01*
X39581Y131332D01*
X40234Y130955D01*
X40962Y130760D01*
X41715D01*
X42443Y130955D01*
X43096Y131332D01*
X43629Y131865D01*
X44006Y132517D01*
X44029Y132603D01*
X46843D01*
Y130268D01*
X52642D01*
Y129768D01*
X55799D01*
Y133622D01*
Y137476D01*
D02*
G37*
G36*
X59957D02*
X56799D01*
Y134122D01*
X59957D01*
Y137476D01*
D02*
G37*
G36*
X79051Y135327D02*
X76976D01*
Y132760D01*
X79051D01*
Y135327D01*
D02*
G37*
G36*
X75976D02*
X73902D01*
Y132760D01*
X75976D01*
Y135327D01*
D02*
G37*
G36*
X59957Y133122D02*
X56799D01*
Y129768D01*
X59957D01*
Y133122D01*
D02*
G37*
G36*
X72752Y129642D02*
X70382D01*
Y126484D01*
X72752D01*
Y129642D01*
D02*
G37*
G36*
X69382D02*
X67012D01*
Y126484D01*
X69382D01*
Y129642D01*
D02*
G37*
G36*
X72752Y125484D02*
X70382D01*
Y122327D01*
X72752D01*
Y125484D01*
D02*
G37*
G36*
X69382D02*
X67012D01*
Y122327D01*
X69382D01*
Y125484D01*
D02*
G37*
G36*
X55799Y118264D02*
X52642D01*
Y117764D01*
X46843D01*
Y115586D01*
X44201D01*
Y117272D01*
X38476D01*
Y111547D01*
X44201D01*
Y113547D01*
X46843D01*
Y111055D01*
X52642D01*
Y110555D01*
X55799D01*
Y114409D01*
Y118264D01*
D02*
G37*
G36*
X59957D02*
X56799D01*
Y114909D01*
X59957D01*
Y118264D01*
D02*
G37*
G36*
X68618Y70784D02*
X65461D01*
Y68413D01*
X68618D01*
Y70784D01*
D02*
G37*
G36*
X64461D02*
X61303D01*
Y68413D01*
X64461D01*
Y70784D01*
D02*
G37*
G36*
Y67413D02*
X61303D01*
Y65043D01*
X64461D01*
Y67413D01*
D02*
G37*
G36*
X8381Y37260D02*
X8335D01*
Y33610D01*
X11984D01*
Y33656D01*
X11701Y34712D01*
X11155Y35658D01*
X10383Y36431D01*
X9436Y36977D01*
X8381Y37260D01*
D02*
G37*
G36*
X7335D02*
X7288D01*
X6233Y36977D01*
X5287Y36431D01*
X4514Y35658D01*
X3968Y34712D01*
X3685Y33656D01*
Y33610D01*
X7335D01*
Y37260D01*
D02*
G37*
G36*
X50303Y33651D02*
Y32193D01*
X51761D01*
X51499Y32826D01*
X50936Y33388D01*
X50303Y33651D01*
D02*
G37*
G36*
X49303D02*
X48670Y33388D01*
X48108Y32826D01*
X47846Y32193D01*
X49303D01*
Y33651D01*
D02*
G37*
G36*
X51761Y31193D02*
X50303D01*
Y29735D01*
X50936Y29997D01*
X51499Y30560D01*
X51761Y31193D01*
D02*
G37*
G36*
X49303D02*
X47846D01*
X48108Y30560D01*
X48670Y29997D01*
X49303Y29735D01*
Y31193D01*
D02*
G37*
G36*
X11984Y32610D02*
X8335D01*
Y28961D01*
X8381D01*
X9436Y29243D01*
X10383Y29790D01*
X11155Y30562D01*
X11701Y31509D01*
X11984Y32564D01*
Y32610D01*
D02*
G37*
G36*
X7335D02*
X3685D01*
Y32564D01*
X3968Y31509D01*
X4514Y30562D01*
X5287Y29790D01*
X6233Y29243D01*
X7288Y28961D01*
X7335D01*
Y32610D01*
D02*
G37*
G36*
X60193Y31216D02*
X57823D01*
Y28059D01*
X60193D01*
Y31216D01*
D02*
G37*
G36*
X56823D02*
X54453D01*
Y28059D01*
X56823D01*
Y31216D01*
D02*
G37*
G36*
X60193Y27059D02*
X57823D01*
Y23902D01*
X60193D01*
Y27059D01*
D02*
G37*
G36*
X56823D02*
X54453D01*
Y23902D01*
X56823D01*
Y27059D01*
D02*
G37*
G36*
X8381Y27260D02*
X8335D01*
Y23610D01*
X11984D01*
Y23656D01*
X11701Y24712D01*
X11155Y25658D01*
X10383Y26431D01*
X9436Y26977D01*
X8381Y27260D01*
D02*
G37*
G36*
X7335D02*
X7288D01*
X6233Y26977D01*
X5287Y26431D01*
X4514Y25658D01*
X3968Y24712D01*
X3685Y23656D01*
Y23610D01*
X7335D01*
Y27260D01*
D02*
G37*
G36*
X53394Y23028D02*
X53335D01*
Y19279D01*
X57083D01*
Y19339D01*
X56793Y20419D01*
X56234Y21388D01*
X55443Y22179D01*
X54474Y22738D01*
X53394Y23028D01*
D02*
G37*
G36*
X52335D02*
X52275D01*
X51195Y22738D01*
X50226Y22179D01*
X49435Y21388D01*
X48876Y20419D01*
X48587Y19339D01*
Y19279D01*
X52335D01*
Y23028D01*
D02*
G37*
G36*
X11984Y22610D02*
X8335D01*
Y18961D01*
X8381D01*
X9436Y19243D01*
X10383Y19790D01*
X11155Y20562D01*
X11701Y21508D01*
X11984Y22564D01*
Y22610D01*
D02*
G37*
G36*
X7335D02*
X3685D01*
Y22564D01*
X3968Y21508D01*
X4514Y20562D01*
X5287Y19790D01*
X6233Y19243D01*
X7288Y18961D01*
X7335D01*
Y22610D01*
D02*
G37*
G36*
X24122Y23626D02*
Y16248D01*
X31322D01*
X31204Y17453D01*
X30764Y18903D01*
X30049Y20240D01*
X29088Y21411D01*
X27917Y22372D01*
X26580Y23087D01*
X25130Y23527D01*
X24122Y23626D01*
D02*
G37*
G36*
X23122D02*
X22114Y23527D01*
X20664Y23087D01*
X19327Y22372D01*
X18156Y21411D01*
X17195Y20240D01*
X16480Y18903D01*
X16040Y17453D01*
X15922Y16248D01*
X23122D01*
Y23626D01*
D02*
G37*
G36*
X63328Y22528D02*
X62341D01*
X61388Y22272D01*
X60533Y21779D01*
X59835Y21081D01*
X59342Y20226D01*
X59087Y19273D01*
Y18286D01*
X59342Y17333D01*
X59835Y16478D01*
X60533Y15780D01*
X61388Y15287D01*
X62341Y15032D01*
X63328D01*
X64281Y15287D01*
X65136Y15780D01*
X65834Y16478D01*
X66327Y17333D01*
X66583Y18286D01*
Y19273D01*
X66327Y20226D01*
X65834Y21081D01*
X65136Y21779D01*
X64281Y22272D01*
X63328Y22528D01*
D02*
G37*
G36*
X57083Y18280D02*
X53335D01*
Y14532D01*
X53394D01*
X54474Y14821D01*
X55443Y15380D01*
X56234Y16171D01*
X56793Y17140D01*
X57083Y18220D01*
Y18280D01*
D02*
G37*
G36*
X52335D02*
X48587D01*
Y18220D01*
X48876Y17140D01*
X49435Y16171D01*
X50226Y15380D01*
X51195Y14821D01*
X52275Y14532D01*
X52335D01*
Y18280D01*
D02*
G37*
G36*
X31322Y15248D02*
X24122D01*
Y7870D01*
X25130Y7970D01*
X26580Y8410D01*
X27917Y9124D01*
X29088Y10085D01*
X30049Y11257D01*
X30764Y12593D01*
X31204Y14043D01*
X31322Y15248D01*
D02*
G37*
%LPD*%
G36*
X25697Y98452D02*
Y98324D01*
X25925Y97772D01*
X26347Y97350D01*
X26899Y97122D01*
X27495D01*
X28047Y97350D01*
X28468Y97772D01*
X28697Y98324D01*
Y98637D01*
X29193Y98888D01*
X29406Y98727D01*
Y98520D01*
X29634Y97969D01*
X30056Y97547D01*
X30607Y97319D01*
X31204D01*
X31755Y97547D01*
X32177Y97969D01*
X32339Y98359D01*
X32839Y98260D01*
Y97362D01*
X32587Y97110D01*
X32358Y96558D01*
Y95961D01*
X32587Y95410D01*
X33009Y94988D01*
X33560Y94760D01*
X34157D01*
X34708Y94988D01*
X35013Y94614D01*
X34949Y94551D01*
X34721Y93999D01*
Y93402D01*
X34949Y92851D01*
X35371Y92429D01*
X35922Y92201D01*
X36519D01*
X36914Y92365D01*
X37414Y92120D01*
Y91605D01*
X37162Y91353D01*
X36934Y90802D01*
Y90205D01*
X37162Y89653D01*
X37584Y89231D01*
X38135Y89003D01*
X38732D01*
X38915Y89079D01*
X39364Y88807D01*
X39402Y88377D01*
X39278Y88253D01*
X39050Y87701D01*
Y87105D01*
X39278Y86554D01*
X39700Y86132D01*
X40251Y85903D01*
X40848D01*
X41197Y86048D01*
X41616Y85820D01*
X41659Y85315D01*
X41445Y85102D01*
X41216Y84550D01*
Y83954D01*
X41445Y83402D01*
X41867Y82980D01*
X42418Y82752D01*
X43015D01*
X43566Y82980D01*
X43756Y83170D01*
X44256Y82963D01*
Y82087D01*
X44334Y81696D01*
X44555Y81366D01*
X45538Y80382D01*
X45869Y80161D01*
X46259Y80084D01*
X55126D01*
X55378Y79831D01*
X55517Y79774D01*
Y79233D01*
X55378Y79175D01*
X54956Y78753D01*
X54728Y78202D01*
Y77845D01*
X52311Y75429D01*
X32401D01*
X32149Y75681D01*
X31598Y75910D01*
X31001D01*
X30450Y75681D01*
X30028Y75259D01*
X29799Y74708D01*
Y74111D01*
X30028Y73560D01*
X30365Y73223D01*
X30268Y72822D01*
X30211Y72723D01*
X26751D01*
X23460Y76013D01*
Y83661D01*
X23383Y84052D01*
X23162Y84382D01*
X20311Y87233D01*
Y100984D01*
X20233Y101374D01*
X20012Y101705D01*
X16964Y104753D01*
Y106477D01*
X17465Y106684D01*
X25697Y98452D01*
D02*
G37*
G36*
X55378Y70432D02*
X55517Y70374D01*
Y69833D01*
X55378Y69775D01*
X55126Y69523D01*
X27392D01*
X26731Y70184D01*
X26938Y70684D01*
X55126D01*
X55378Y70432D01*
D02*
G37*
G36*
X55328Y67281D02*
X55335Y66749D01*
X55004Y66423D01*
X27736D01*
X27175Y66984D01*
X27382Y67484D01*
X55126D01*
X55328Y67281D01*
D02*
G37*
G36*
X55378Y64131D02*
X55517Y64074D01*
Y63533D01*
X55378Y63475D01*
X55126Y63223D01*
X28180D01*
X27519Y63884D01*
X27726Y64384D01*
X55126D01*
X55378Y64131D01*
D02*
G37*
%LPC*%
G36*
X113978Y161457D02*
X113787D01*
Y157783D01*
X115197D01*
Y160238D01*
X115104Y160704D01*
X114840Y161100D01*
X114445Y161364D01*
X113978Y161457D01*
D02*
G37*
G36*
X115197Y156783D02*
X113787D01*
Y153110D01*
X113978D01*
X114445Y153203D01*
X114840Y153467D01*
X115104Y153863D01*
X115197Y154329D01*
Y156783D01*
D02*
G37*
G36*
X120563Y153240D02*
X117012D01*
Y149984D01*
X120563D01*
Y153240D01*
D02*
G37*
G36*
X116243Y149335D02*
X115647D01*
X115095Y149106D01*
X114673Y148684D01*
X114644Y148615D01*
X114154Y148517D01*
X113928Y148743D01*
X113295Y149005D01*
Y147047D01*
Y145090D01*
X113928Y145352D01*
X114425Y145849D01*
X114735Y145791D01*
X114925Y145695D01*
Y139094D01*
X114673Y138842D01*
X114445Y138291D01*
Y137694D01*
X114673Y137143D01*
X115095Y136721D01*
X115647Y136492D01*
X116243D01*
X116795Y136721D01*
X117217Y137143D01*
X117445Y137694D01*
Y138291D01*
X117217Y138842D01*
X116964Y139094D01*
Y146733D01*
X117217Y146985D01*
X117445Y147536D01*
Y148133D01*
X117217Y148684D01*
X116795Y149106D01*
X116243Y149335D01*
D02*
G37*
G36*
X117035Y131485D02*
Y130028D01*
X118493D01*
X118231Y130660D01*
X117668Y131223D01*
X117035Y131485D01*
D02*
G37*
G36*
X116035D02*
X115402Y131223D01*
X114840Y130660D01*
X114578Y130028D01*
X116035D01*
Y131485D01*
D02*
G37*
G36*
X118493Y129028D02*
X117035D01*
Y127570D01*
X117668Y127832D01*
X118231Y128395D01*
X118493Y129028D01*
D02*
G37*
G36*
X116035D02*
X114578D01*
X114840Y128395D01*
X115402Y127832D01*
X116035Y127570D01*
Y129028D01*
D02*
G37*
G36*
X114657Y34736D02*
X113200D01*
X113462Y34103D01*
X114025Y33541D01*
X114657Y33279D01*
Y34736D01*
D02*
G37*
G36*
X128559Y33185D02*
X126091D01*
Y30028D01*
X128559D01*
Y33185D01*
D02*
G37*
G36*
X125091D02*
X122622D01*
Y30028D01*
X125091D01*
Y33185D01*
D02*
G37*
G36*
X137335Y32610D02*
X133685D01*
Y32564D01*
X133968Y31509D01*
X134514Y30562D01*
X135287Y29790D01*
X136233Y29243D01*
X137288Y28961D01*
X137335D01*
Y32610D01*
D02*
G37*
G36*
X125091Y29028D02*
X122622D01*
Y25870D01*
X125091D01*
Y29028D01*
D02*
G37*
G36*
X130224Y25973D02*
Y24516D01*
X131682D01*
X131420Y25149D01*
X130857Y25711D01*
X130224Y25973D01*
D02*
G37*
G36*
X128559Y29028D02*
X126091D01*
Y25870D01*
X128043D01*
X128250Y25370D01*
X128029Y25149D01*
X127767Y24516D01*
X129224D01*
Y25973D01*
X129059Y25905D01*
X128559Y26239D01*
Y29028D01*
D02*
G37*
G36*
X100697Y25580D02*
Y24122D01*
X102155D01*
X101892Y24755D01*
X101330Y25318D01*
X100697Y25580D01*
D02*
G37*
G36*
X99697D02*
X99064Y25318D01*
X98501Y24755D01*
X98239Y24122D01*
X99697D01*
Y25580D01*
D02*
G37*
G36*
X91216Y27059D02*
X88846D01*
Y23902D01*
X91216D01*
Y27059D01*
D02*
G37*
G36*
X137335Y27260D02*
X137288D01*
X136233Y26977D01*
X135287Y26431D01*
X134514Y25658D01*
X133968Y24712D01*
X133685Y23656D01*
Y23610D01*
X137335D01*
Y27260D01*
D02*
G37*
G36*
X131682Y23516D02*
X130224D01*
Y22058D01*
X130857Y22320D01*
X131420Y22883D01*
X131682Y23516D01*
D02*
G37*
G36*
X129224D02*
X127767D01*
X128029Y22883D01*
X128592Y22320D01*
X129224Y22058D01*
Y23516D01*
D02*
G37*
G36*
X102155Y23122D02*
X100697D01*
Y21664D01*
X101330Y21926D01*
X101892Y22489D01*
X102155Y23122D01*
D02*
G37*
G36*
X99697D02*
X98239D01*
X98501Y22489D01*
X99064Y21926D01*
X99697Y21664D01*
Y23122D01*
D02*
G37*
G36*
X137335Y22610D02*
X133685D01*
Y22564D01*
X133968Y21508D01*
X134514Y20562D01*
X135287Y19790D01*
X136233Y19243D01*
X137288Y18961D01*
X137335D01*
Y22610D01*
D02*
G37*
G36*
X122824Y23638D02*
X122547D01*
Y16248D01*
X129937D01*
Y16525D01*
X129634Y18049D01*
X129039Y19485D01*
X128176Y20777D01*
X127077Y21876D01*
X125784Y22740D01*
X124349Y23335D01*
X122824Y23638D01*
D02*
G37*
G36*
X121547D02*
X121270D01*
X119746Y23335D01*
X118310Y22740D01*
X117018Y21876D01*
X115919Y20777D01*
X115055Y19485D01*
X114461Y18049D01*
X114157Y16525D01*
Y16248D01*
X121547D01*
Y23638D01*
D02*
G37*
G36*
X93394Y13028D02*
X93335D01*
Y9279D01*
X97083D01*
Y9339D01*
X96793Y10419D01*
X96234Y11388D01*
X95443Y12179D01*
X94474Y12738D01*
X93394Y13028D01*
D02*
G37*
G36*
X97083Y8280D02*
X93335D01*
Y4532D01*
X93394D01*
X94474Y4821D01*
X95443Y5380D01*
X96234Y6171D01*
X96793Y7140D01*
X97083Y8220D01*
Y8280D01*
D02*
G37*
%LPD*%
D12*
X91929Y184252D02*
X92058D01*
X92126Y184184D01*
Y174606D02*
Y184184D01*
X91929Y184252D02*
X92126Y184449D01*
Y184646D01*
X89370Y178310D02*
Y188189D01*
X89173Y168504D02*
Y178113D01*
X89370Y178310D01*
X93716Y188386D02*
X99213D01*
X91915Y190186D02*
X93716Y188386D01*
X109252Y37402D02*
X119291D01*
X103937Y32087D02*
X109252Y37402D01*
X103937Y27362D02*
Y32087D01*
X98425Y27362D02*
X103937D01*
X106102Y29528D01*
X54478Y172884D02*
Y191289D01*
Y172884D02*
X58071Y169291D01*
X69095D01*
X109055Y123228D02*
X111221Y125394D01*
X107283Y123228D02*
X109055D01*
X92323Y141339D02*
X101772D01*
X87008Y136024D02*
X92323Y141339D01*
X89567Y141535D02*
X92913Y144882D01*
X95079D01*
X81496Y141535D02*
X89567D01*
X81496Y123425D02*
X87008Y128937D01*
Y136024D01*
X84646Y13780D02*
X87795Y16929D01*
Y21457D01*
X85433Y23819D02*
X87795Y21457D01*
X85433Y23819D02*
Y30906D01*
X87402Y32874D01*
X92913D01*
X98425Y27362D01*
X7835Y213110D02*
Y222795D01*
X14370Y229331D01*
X26378D01*
X34252Y221457D01*
X39370D01*
X115945Y137992D02*
Y147835D01*
X100492Y152067D02*
Y157283D01*
X105610Y175098D02*
Y180610D01*
X105315Y180905D02*
X105610Y180610D01*
Y175098D02*
X108268Y172441D01*
X105315Y180905D02*
X105610Y181201D01*
Y181299D01*
X122638Y168110D02*
X127559D01*
X121063Y169685D02*
X122638Y168110D01*
X121063Y169685D02*
Y175394D01*
X97441Y225000D02*
X101378D01*
X93283D02*
X97441D01*
X95472Y157283D02*
Y168504D01*
X95374Y157185D02*
X95472Y157283D01*
X69095Y135827D02*
Y144882D01*
X95276Y157087D02*
X95374Y157185D01*
Y157283D01*
X117126Y182874D02*
X121063D01*
X115945Y181693D02*
X117126Y182874D01*
X115945Y175591D02*
Y181693D01*
X105512Y165157D02*
X115945Y175591D01*
X101378Y165157D02*
X105512D01*
X68110Y151181D02*
Y156693D01*
X137795Y15354D02*
X141732D01*
X142701Y16323D01*
Y36236D01*
X140945Y37992D02*
X142701Y36236D01*
X135236Y37992D02*
X140945D01*
X129331Y43898D02*
Y46850D01*
Y43898D02*
X135236Y37992D01*
X126969Y49213D02*
X129331Y46850D01*
X122047Y49213D02*
X126969D01*
X110433D02*
X114173D01*
X101969Y40748D02*
X110433Y49213D01*
X95472Y40748D02*
X101969D01*
X124606Y37205D02*
Y41732D01*
X114173Y45079D02*
Y49213D01*
Y45079D02*
X115748Y43504D01*
X87205Y40551D02*
X100000Y53347D01*
X109646D01*
X115748Y43504D02*
X122835D01*
X124606Y41732D01*
X87795Y13740D02*
X92835Y18779D01*
X87795Y5315D02*
Y13740D01*
X85449Y2968D02*
X87795Y5315D01*
X69291Y2968D02*
X85449D01*
X67716Y4543D02*
Y11614D01*
Y4543D02*
X69291Y2968D01*
X65945Y13386D02*
X67716Y11614D01*
X58145Y14961D02*
X59719Y13386D01*
X65945D01*
X57874Y14961D02*
X58145D01*
X124606Y37205D02*
X124803Y37402D01*
X118504Y29528D02*
X118701Y29724D01*
X103740Y62205D02*
X104528Y61417D01*
X97441Y62205D02*
X103740D01*
X79135Y62402D02*
X85315Y68583D01*
X125543Y65504D02*
X133150Y73110D01*
X82235Y62943D02*
X86374Y67083D01*
X95079Y59842D02*
X97441Y62205D01*
X86374Y67083D02*
X124563D01*
X123701Y68583D02*
X128937Y73819D01*
X124563Y67083D02*
X130512Y73032D01*
X86961Y65504D02*
X125543D01*
X85315Y68583D02*
X123701D01*
X102165Y55512D02*
X103347Y56693D01*
X123425D02*
X130905Y49213D01*
X97047Y55512D02*
X102165D01*
X95079Y57480D02*
X97047Y55512D01*
X95079Y57480D02*
Y59842D01*
X103347Y56693D02*
X123425D01*
X87992Y64004D02*
X121626D01*
X106102Y29528D02*
X118504D01*
X129995Y7087D02*
X131176Y8268D01*
X129724Y7087D02*
X129995D01*
X131176Y8268D02*
X137795D01*
X133858Y15354D02*
X137795D01*
X125591Y7087D02*
X133858Y15354D01*
X115354Y7087D02*
X125591D01*
X103740Y18701D02*
X115354Y7087D01*
X92913Y18701D02*
X103740D01*
X92835Y18779D02*
X92913Y18701D01*
X69488Y92126D02*
Y103347D01*
X59842Y105512D02*
X63386Y109055D01*
X59842Y101772D02*
Y105512D01*
Y101772D02*
X62205Y99410D01*
X66339Y91966D02*
Y105905D01*
X69488Y92126D02*
X73819Y87795D01*
Y65945D02*
Y87795D01*
X62205Y90748D02*
Y99410D01*
X66339Y91966D02*
X68307Y89998D01*
Y86811D02*
Y89998D01*
Y86811D02*
X72047Y83071D01*
Y66295D02*
Y83071D01*
X70276Y66644D02*
Y82677D01*
X68307Y84646D02*
X70276Y82677D01*
X63189Y84646D02*
X68307D01*
X61024Y86811D02*
X63189Y84646D01*
X61024Y86811D02*
Y89567D01*
X62205Y90748D01*
X64961Y73819D02*
Y81004D01*
X56890Y95079D02*
X59646Y92323D01*
X56890Y95079D02*
Y105709D01*
X60312Y73819D02*
X64961D01*
X66033Y62402D02*
X70276Y66644D01*
X61340Y62402D02*
X66033D01*
X75935Y58612D02*
Y61565D01*
X69882Y58465D02*
X70003D01*
X66070Y58196D02*
X73819Y65945D01*
X70003Y58465D02*
X83389Y71850D01*
X84646Y70276D02*
X123031D01*
X75935Y61565D02*
X84646Y70276D01*
X83389Y71850D02*
X122244D01*
X79135Y58196D02*
Y62402D01*
X63435Y58196D02*
X66070D01*
X75935D02*
Y58317D01*
X75787Y58465D02*
X75935Y58317D01*
X75787Y58465D02*
X75935Y58612D01*
X69735Y58196D02*
Y58317D01*
X69882Y58465D01*
X51142Y52203D02*
X61340Y62402D01*
X60235Y58196D02*
X62669Y60630D01*
X66383D02*
X72047Y66295D01*
X62669Y60630D02*
X66383D01*
X30512Y56102D02*
X50197D01*
X56890Y105709D02*
X62795Y111614D01*
X66142D01*
X62717Y8661D02*
X62992D01*
X52165Y150197D02*
X55512Y146850D01*
X63779D01*
X68110Y151181D01*
X43307Y140551D02*
X45079Y142323D01*
X51378D02*
X54331Y145276D01*
X69095D01*
X45079Y142323D02*
X51378D01*
X57874Y149409D02*
X61811D01*
X64961Y152559D01*
Y156693D01*
X17913Y107677D02*
X26969Y98622D01*
X27197D01*
X11811Y8268D02*
Y13976D01*
X14961Y7480D02*
Y12008D01*
Y7480D02*
X17972Y4468D01*
X48524D02*
X52835Y8779D01*
X17972Y4468D02*
X48524D01*
X11811Y8268D02*
X17110Y2968D01*
X57024D01*
X62717Y8661D01*
X62874Y8779D02*
X62992Y8661D01*
X62835Y8779D02*
X62874D01*
X70866Y31496D02*
X74606D01*
X77362Y28740D01*
Y14252D02*
X82835Y8779D01*
X82953D01*
X77362Y14252D02*
Y28740D01*
X56228Y77903D02*
X60312Y73819D01*
X31299Y74410D02*
X52734D01*
X56228Y77903D01*
X82441Y27559D02*
Y35433D01*
X63228Y27559D02*
Y35433D01*
X41339Y114409D02*
X41496Y114567D01*
X49409D01*
X49567Y114409D02*
X50000D01*
X49409Y114567D02*
X49567Y114409D01*
X49961Y133622D02*
X50000Y133661D01*
X41339Y133622D02*
X49961D01*
X50000Y133622D02*
Y133661D01*
X50000Y133661D02*
X50000Y133661D01*
X36024Y197835D02*
X51378D01*
X31102Y192913D02*
X36024Y197835D01*
X31102Y171457D02*
Y192913D01*
X30315Y210433D02*
X50197D01*
X54724Y205906D01*
X31102Y171457D02*
X35827Y166732D01*
Y147638D02*
Y166732D01*
X69095Y144882D02*
X69882Y145669D01*
X69095Y135827D02*
X69193D01*
X82284Y127756D02*
Y131102D01*
X80512Y125984D02*
X82284Y127756D01*
X75787Y125984D02*
X80512D01*
X121063Y161221D02*
Y165551D01*
X119488Y167126D02*
X121063Y165551D01*
X110728Y163287D02*
X114567Y167126D01*
X119488D01*
X110728Y157283D02*
Y163287D01*
X103051Y151279D02*
Y157283D01*
X101378Y149606D02*
X103051Y151279D01*
X95079Y149606D02*
X101378D01*
X92126Y152559D02*
X95079Y149606D01*
X85630Y156693D02*
X94291Y148031D01*
X92126Y152559D02*
Y165551D01*
X103347Y148031D02*
X105610Y150295D01*
X94291Y148031D02*
X103347D01*
X68307Y160039D02*
X89370D01*
X64961Y156693D02*
X68307Y160039D01*
X105315Y136614D02*
Y147244D01*
X110728Y152657D02*
Y157283D01*
X105315Y147244D02*
X110728Y152657D01*
X48228Y148425D02*
Y150197D01*
X42913Y147638D02*
X47441D01*
X48228Y148425D01*
X35827Y142717D02*
X37992Y140551D01*
X35827Y142717D02*
Y147638D01*
X37992Y140551D02*
X43307D01*
X91929Y171260D02*
X95374Y174705D01*
Y181299D01*
X105610Y150295D02*
Y157283D01*
X68307Y156693D02*
X68504Y156496D01*
Y156625D02*
X68572Y156693D01*
X68504Y156496D02*
Y156625D01*
X68110Y156693D02*
X68307D01*
X68572D02*
X85630D01*
X89173Y168504D02*
X92126Y165551D01*
X100492Y181299D02*
Y187106D01*
X99213Y188386D02*
X100492Y187106D01*
X63228Y35433D02*
X71457D01*
X76575Y40551D01*
X87205D01*
X82638Y35630D02*
X89961D01*
X82441Y35433D02*
X82638Y35630D01*
X92323Y37992D02*
Y43110D01*
X89961Y35630D02*
X92323Y37992D01*
X99803Y50591D02*
X106890D01*
X92323Y43110D02*
X99803Y50591D01*
X105315Y131890D02*
Y136614D01*
X98819Y125394D02*
X105315Y131890D01*
X98819Y119685D02*
Y125394D01*
X107283Y145276D02*
X109449Y147441D01*
X107283Y136614D02*
Y145276D01*
Y136614D02*
X107283Y136614D01*
X95079Y133661D02*
X98032Y136614D01*
X101378D01*
X103347D01*
Y123228D02*
X105315D01*
X28937Y149606D02*
Y153740D01*
X27559Y148228D02*
X28937Y149606D01*
Y160827D02*
Y168701D01*
X25000Y153740D02*
X28937D01*
X23622Y155118D02*
X25000Y153740D01*
X23622Y155118D02*
Y165354D01*
X21063Y167913D02*
X23622Y165354D01*
X21063Y167913D02*
Y183661D01*
X17126Y187598D02*
X21063Y183661D01*
X14764Y184646D02*
X18898Y180512D01*
Y167126D02*
X21850Y164173D01*
X18898Y167126D02*
Y180512D01*
X17126Y187598D02*
Y197244D01*
X30315Y210433D01*
X133465Y188740D02*
X137835Y193110D01*
X131299Y181890D02*
X133465Y184055D01*
Y188740D01*
X131299Y173819D02*
Y181890D01*
X129724Y172244D02*
X131299Y173819D01*
X129724Y162008D02*
Y172244D01*
X126575Y158858D02*
X129724Y162008D01*
X126575Y144291D02*
Y158858D01*
X124606Y142323D02*
X126575Y144291D01*
X124606Y136614D02*
Y142323D01*
X122047Y134055D02*
X124606Y136614D01*
X122047Y128740D02*
Y134055D01*
X118110Y124803D02*
X122047Y128740D01*
X118110Y119488D02*
Y124803D01*
X115551Y116929D02*
X118110Y119488D01*
X131496Y161221D02*
Y171457D01*
X132874Y178150D02*
X137835Y183110D01*
X131496Y171457D02*
X132874Y172835D01*
Y178150D01*
X128150Y157874D02*
X131496Y161221D01*
X128150Y143307D02*
Y157874D01*
X126575Y141732D02*
X128150Y143307D01*
X126575Y136221D02*
Y141732D01*
X123819Y133465D02*
X126575Y136221D01*
X123819Y128150D02*
Y133465D01*
X119882Y124213D02*
X123819Y128150D01*
X119882Y117717D02*
Y124213D01*
X117520Y115354D02*
X119882Y117717D01*
X133268Y168543D02*
X137835Y173110D01*
X133268Y160827D02*
Y168543D01*
X129724Y157283D02*
X133268Y160827D01*
X129724Y142323D02*
Y157283D01*
X128150Y140748D02*
X129724Y142323D01*
X128150Y135433D02*
Y140748D01*
X125394Y132677D02*
X128150Y135433D01*
X125394Y127559D02*
Y132677D01*
X121457Y123622D02*
X125394Y127559D01*
X121457Y115945D02*
Y123622D01*
X119291Y113779D02*
X121457Y115945D01*
X131299Y156575D02*
X137835Y163110D01*
X131299Y141339D02*
Y156575D01*
X129724Y139764D02*
X131299Y141339D01*
X129724Y134646D02*
Y139764D01*
X126969Y131890D02*
X129724Y134646D01*
X126969Y126575D02*
Y131890D01*
X123425Y123031D02*
X126969Y126575D01*
X123425Y113779D02*
Y123031D01*
X121850Y112205D02*
X123425Y113779D01*
X128543Y125984D02*
Y131299D01*
X131496Y138976D02*
X132874Y140354D01*
X131496Y134252D02*
Y138976D01*
X128543Y131299D02*
X131496Y134252D01*
X130118Y125000D02*
Y129527D01*
X133071Y138347D02*
X137835Y143110D01*
X130118Y129527D02*
X133071Y132480D01*
Y138347D01*
X132874Y148150D02*
X137835Y153110D01*
X132874Y140354D02*
Y148150D01*
X125000Y122441D02*
X128543Y125984D01*
X125000Y112402D02*
Y122441D01*
X126575Y121457D02*
X130118Y125000D01*
X131693Y126969D02*
X137835Y133110D01*
X131693Y124409D02*
Y126969D01*
X128347Y121063D02*
X131693Y124409D01*
X123031Y110433D02*
X125000Y112402D01*
X81693Y116929D02*
X115551D01*
X72047Y107283D02*
X81693Y116929D01*
X72047Y91929D02*
Y107283D01*
Y91929D02*
X86073Y77903D01*
X83071Y115354D02*
X117520D01*
X73622Y105905D02*
X83071Y115354D01*
X73622Y93307D02*
Y105905D01*
Y93307D02*
X85826Y81103D01*
X83858Y113779D02*
X119291D01*
X75394Y105315D02*
X83858Y113779D01*
X75394Y94291D02*
Y105315D01*
Y94291D02*
X85482Y84203D01*
X84646Y112205D02*
X121850D01*
X77362Y104921D02*
X84646Y112205D01*
X77362Y94685D02*
Y104921D01*
Y94685D02*
X84644Y87403D01*
X86073Y77903D02*
X89442D01*
X85826Y81103D02*
X89442D01*
X85482Y84203D02*
X89442D01*
X84644Y87403D02*
X89442D01*
X85433Y110433D02*
X123031D01*
X79134Y104134D02*
X85433Y110433D01*
X88535Y108119D02*
X124851D01*
X79134Y95276D02*
Y104134D01*
Y95276D02*
X83906Y90503D01*
X89125D01*
X89173Y90551D01*
X89221Y90503D01*
X89442D01*
X126575Y109843D02*
Y121457D01*
X128347Y107677D02*
Y121063D01*
X126575Y105905D02*
X128347Y107677D01*
X124851Y108119D02*
X126575Y109843D01*
X82235Y103396D02*
X84744Y105905D01*
X126575D01*
X132756Y123110D02*
X137835D01*
X129921Y120276D02*
X132756Y123110D01*
X129921Y106496D02*
Y120276D01*
X126821Y103396D02*
X129921Y106496D01*
X85435Y103396D02*
X126821D01*
X133386Y113110D02*
X137835D01*
X131693Y111417D02*
X133386Y113110D01*
X131693Y103937D02*
Y111417D01*
X128543Y100787D02*
X131693Y103937D01*
X128543Y86221D02*
Y100787D01*
X125787Y83465D02*
X128543Y86221D01*
X125787Y75394D02*
Y83465D01*
X122244Y71850D02*
X125787Y75394D01*
X133425Y103110D02*
X137835D01*
X130118Y99803D02*
X133425Y103110D01*
X130118Y85236D02*
Y99803D01*
X127362Y82480D02*
X130118Y85236D01*
X127362Y74606D02*
Y82480D01*
X123031Y70276D02*
X127362Y74606D01*
X133465Y93110D02*
X137835D01*
X131693Y91339D02*
X133465Y93110D01*
X131693Y84646D02*
Y91339D01*
X128937Y81890D02*
X131693Y84646D01*
X128937Y73819D02*
Y81890D01*
X132913Y83110D02*
X137835D01*
X130512Y80709D02*
X132913Y83110D01*
X130512Y73032D02*
Y80709D01*
X85236Y58268D02*
X85435Y58466D01*
X133150Y73110D02*
X137835D01*
X132205Y57480D02*
X137835Y63110D01*
X128150Y57480D02*
X132205D01*
X121626Y64004D02*
X128150Y57480D01*
X87008Y59723D02*
X88535Y58196D01*
X87008Y63020D02*
X87992Y64004D01*
X87008Y59723D02*
Y63020D01*
X85435Y63978D02*
X86961Y65504D01*
X85435Y58466D02*
Y63978D01*
X85308Y58196D02*
X85435D01*
X85236Y58268D02*
X85308Y58196D01*
X82235D02*
Y62943D01*
X133071Y43110D02*
X137835D01*
X130905Y45276D02*
X133071Y43110D01*
X130905Y45276D02*
Y49213D01*
X123574Y59103D02*
X129567Y53110D01*
X137835D01*
X101428Y59103D02*
X123574D01*
X7835Y193110D02*
X12205D01*
X14764Y190551D01*
Y184646D02*
Y190551D01*
X21850Y148228D02*
Y164173D01*
Y148228D02*
X25591Y144488D01*
Y131102D02*
Y144488D01*
Y131102D02*
X30315Y126378D01*
X7835Y183110D02*
X13150D01*
X16732Y179528D01*
Y166929D02*
Y179528D01*
Y166929D02*
X20276Y163386D01*
Y146850D02*
Y163386D01*
Y146850D02*
X23819Y143307D01*
Y129921D02*
Y143307D01*
Y129921D02*
X28543Y125197D01*
X7835Y173110D02*
X13110D01*
X14961Y171260D01*
Y165354D02*
Y171260D01*
Y165354D02*
X18504Y161811D01*
Y145866D02*
Y161811D01*
Y145866D02*
X22244Y142126D01*
Y128937D02*
Y142126D01*
Y128937D02*
X26969Y124213D01*
X7835Y163110D02*
X13268D01*
X16732Y159646D01*
Y145079D02*
Y159646D01*
Y145079D02*
X20472Y141339D01*
Y128347D02*
Y141339D01*
Y128347D02*
X25469Y123350D01*
X7835Y153110D02*
X13032D01*
X14961Y151181D01*
Y144291D02*
Y151181D01*
Y144291D02*
X18504Y140748D01*
Y127362D02*
Y140748D01*
Y127362D02*
X23819Y122047D01*
X7835Y143110D02*
X13386D01*
X16732Y139764D01*
Y126575D02*
Y139764D01*
Y126575D02*
X21850Y121457D01*
X7835Y133110D02*
X13347D01*
X15157Y131299D01*
Y125394D02*
Y131299D01*
Y125394D02*
X19685Y120866D01*
Y110039D02*
Y120866D01*
X7835Y123110D02*
X14291D01*
X17913Y119488D01*
Y107677D02*
Y119488D01*
X13898Y113110D02*
X15945Y111063D01*
Y104331D02*
Y111063D01*
Y104331D02*
X19291Y100984D01*
X19685Y110039D02*
X30906Y98819D01*
X21850Y112008D02*
Y121457D01*
Y112008D02*
X33858Y100000D01*
Y96260D02*
Y100000D01*
X23819Y112598D02*
Y122047D01*
X36220Y93701D02*
Y100197D01*
X23819Y112598D02*
X36220Y100197D01*
X25469Y113508D02*
Y123350D01*
X38434Y90503D02*
Y100542D01*
X25469Y113508D02*
X38434Y100542D01*
X26969Y114961D02*
Y124213D01*
Y114961D02*
X40550Y101380D01*
Y87403D02*
Y101380D01*
X28543Y116142D02*
Y125197D01*
X30315Y116929D02*
Y126378D01*
Y116929D02*
X45276Y101969D01*
Y82087D02*
Y101969D01*
X42717Y84252D02*
Y101969D01*
X28543Y116142D02*
X42717Y101969D01*
X46259Y81103D02*
X56228D01*
X45276Y82087D02*
X46259Y81103D01*
X26328Y71703D02*
X56228D01*
X22441Y75591D02*
X26328Y71703D01*
X22441Y75591D02*
Y83661D01*
X19291Y86811D02*
X22441Y83661D01*
X20669Y74803D02*
Y83071D01*
X17520Y86221D02*
X20669Y83071D01*
Y74803D02*
X26969Y68503D01*
X19291Y86811D02*
Y100984D01*
X17520Y86221D02*
Y99409D01*
X13819Y103110D02*
X17520Y99409D01*
X7835Y113110D02*
X13898D01*
X26969Y68503D02*
X56228D01*
X7835Y103110D02*
X13819D01*
X7835Y93110D02*
X13189D01*
X15748Y90551D01*
Y85433D02*
Y90551D01*
Y85433D02*
X18898Y82284D01*
Y73819D02*
Y82284D01*
Y73819D02*
X27313Y65403D01*
X56054D02*
X56102Y65354D01*
X27313Y65403D02*
X56054D01*
X56102Y65354D02*
X56151Y65403D01*
X56228D01*
X17126Y72835D02*
X27757Y62203D01*
X56228D01*
X17126Y72835D02*
Y80905D01*
X7835Y83110D02*
X14921D01*
X17126Y80905D01*
X13504Y73110D02*
X30512Y56102D01*
X63435Y50246D02*
Y58196D01*
X61024Y47835D02*
X63435Y50246D01*
X24016Y47835D02*
X61024D01*
X19291Y43110D02*
X24016Y47835D01*
X60235Y52164D02*
Y58196D01*
X57874Y49803D02*
X60235Y52164D01*
X23819Y49803D02*
X57874D01*
X20512Y53110D02*
X23819Y49803D01*
X7835Y73110D02*
X13504D01*
X7835Y43110D02*
X19291D01*
X7835Y53110D02*
X20512D01*
X7835Y63110D02*
X12874D01*
X23781Y52203D01*
X51142D01*
X80709Y191732D02*
Y197736D01*
X75000Y172441D02*
Y186024D01*
X80709Y191732D01*
X70866Y191339D02*
Y197736D01*
Y191339D02*
X71653Y190551D01*
Y179134D02*
Y190551D01*
X90256Y203740D02*
X90551Y204035D01*
X81693Y203740D02*
X90256D01*
X81595Y203839D02*
X81693Y203740D01*
X80709Y203839D02*
X81595D01*
X80709D02*
Y206890D01*
X79527Y208071D02*
X80709Y206890D01*
X74508Y210531D02*
X76968Y208071D01*
X79527D01*
X71161Y204134D02*
Y210531D01*
X70866Y203839D02*
X71161Y204134D01*
X70669Y204035D02*
X70866Y203839D01*
X61024Y204035D02*
X70669D01*
X60433Y225197D02*
Y228740D01*
X57382Y222146D02*
X60433Y225197D01*
X49213Y222146D02*
X57382D01*
X48524Y221457D02*
X49213Y222146D01*
X39764Y221457D02*
X48524D01*
X39764Y221457D02*
X39764Y221457D01*
X39370Y221457D02*
X39764D01*
X107283Y225000D02*
X107480Y225197D01*
X122047Y200394D02*
Y204724D01*
X120276Y198622D02*
X122047Y200394D01*
X102362Y207283D02*
X111024Y198622D01*
X120276D01*
X102362Y207283D02*
Y224016D01*
X101378Y225000D02*
X102362Y224016D01*
X113779Y205118D02*
Y210630D01*
Y205118D02*
X114173Y204724D01*
X110252Y233252D02*
X113189Y230315D01*
X110827Y225197D02*
X113189Y227559D01*
Y230315D01*
X107480Y225197D02*
X110827D01*
X107283Y225000D02*
Y225098D01*
X90134Y221850D02*
X93283Y225000D01*
X88189Y221850D02*
X90134D01*
X97441Y225000D02*
Y225098D01*
X47260Y231693D02*
X48819Y233252D01*
X38189Y231693D02*
X47260D01*
X48819Y233252D02*
X110252D01*
X77953Y210433D02*
Y210630D01*
X82948Y220669D02*
X87008Y216610D01*
X77854Y220669D02*
X82948D01*
X87008Y214370D02*
Y216610D01*
X85630Y212992D02*
X87008Y214370D01*
X77953Y210630D02*
X80315Y212992D01*
X85630D01*
X77854Y210531D02*
X77953Y210433D01*
X67815Y215846D02*
Y220669D01*
X71161Y215846D02*
X74508Y212500D01*
Y210925D02*
Y212500D01*
Y210531D02*
Y210925D01*
X74410Y211024D02*
X74508Y210925D01*
D19*
X137795Y15354D02*
D03*
Y8268D02*
D03*
X28937Y160827D02*
D03*
Y153740D02*
D03*
D20*
X121063Y175394D02*
D03*
Y182874D02*
D03*
Y153740D02*
D03*
Y161221D02*
D03*
D26*
X64961Y67913D02*
D03*
Y73819D02*
D03*
X39370Y221457D02*
D03*
Y215551D02*
D03*
D29*
X63228Y27559D02*
D03*
X57323D02*
D03*
X82441D02*
D03*
X88346D02*
D03*
X75787Y125984D02*
D03*
X69882D02*
D03*
Y145669D02*
D03*
X75787D02*
D03*
D32*
X118504Y29528D02*
D03*
X125591D02*
D03*
X35827Y147638D02*
D03*
X42913D02*
D03*
D50*
X84547Y215846D02*
D03*
X81201D02*
D03*
X77854D02*
D03*
X74508D02*
D03*
X71161D02*
D03*
X67815D02*
D03*
X64468D02*
D03*
X61122D02*
D03*
Y210531D02*
D03*
X64468D02*
D03*
X67815D02*
D03*
X71161D02*
D03*
X74508D02*
D03*
X77854D02*
D03*
X81201D02*
D03*
D51*
X84547D02*
D03*
D52*
X55807Y214390D02*
D03*
X89862D02*
D03*
D53*
X55807Y227697D02*
D03*
X89862D02*
D03*
D60*
X63228Y35433D02*
D03*
D61*
X82441D02*
D03*
X41339Y133622D02*
D03*
D62*
Y114409D02*
D03*
D63*
X122047Y220472D02*
D03*
X23622D02*
D03*
X122047Y15748D02*
D03*
D64*
X23622D02*
D03*
D65*
X137835Y73110D02*
D03*
Y103110D02*
D03*
Y113110D02*
D03*
Y123110D02*
D03*
Y143110D02*
D03*
Y153110D02*
D03*
Y173110D02*
D03*
Y193110D02*
D03*
Y203110D02*
D03*
Y183110D02*
D03*
Y163110D02*
D03*
Y133110D02*
D03*
Y93110D02*
D03*
Y83110D02*
D03*
Y63110D02*
D03*
Y53110D02*
D03*
Y43110D02*
D03*
Y33110D02*
D03*
Y23110D02*
D03*
X7835Y73110D02*
D03*
Y103110D02*
D03*
Y113110D02*
D03*
Y123110D02*
D03*
Y143110D02*
D03*
Y153110D02*
D03*
Y173110D02*
D03*
Y193110D02*
D03*
Y203110D02*
D03*
Y183110D02*
D03*
Y163110D02*
D03*
Y133110D02*
D03*
Y93110D02*
D03*
Y83110D02*
D03*
Y63110D02*
D03*
Y53110D02*
D03*
Y43110D02*
D03*
Y33110D02*
D03*
Y23110D02*
D03*
D66*
X137835Y213110D02*
D03*
X7835D02*
D03*
D67*
X82835Y8779D02*
D03*
Y18779D02*
D03*
X92835Y8779D02*
D03*
X72835Y18779D02*
D03*
Y8779D02*
D03*
X62835Y18779D02*
D03*
X52835D02*
D03*
X62835Y8779D02*
D03*
X52835D02*
D03*
D68*
X92835Y18779D02*
D03*
D69*
X116535Y129528D02*
D03*
X100197Y23622D02*
D03*
X49803Y31693D02*
D03*
X112795Y147047D02*
D03*
X92126Y174606D02*
D03*
Y184646D02*
D03*
X89370Y188189D02*
D03*
X91915Y190186D02*
D03*
X115157Y35236D02*
D03*
X129724Y24016D02*
D03*
X54478Y191289D02*
D03*
X69095Y169291D02*
D03*
X111221Y125394D02*
D03*
X95079Y144882D02*
D03*
X81496Y123425D02*
D03*
Y141535D02*
D03*
X84646Y13780D02*
D03*
X3937Y9843D02*
D03*
X115945Y137992D02*
D03*
Y147835D02*
D03*
X100492Y152067D02*
D03*
X108268Y172441D02*
D03*
X127559Y168110D02*
D03*
X101772Y141339D02*
D03*
X95472Y168504D02*
D03*
X101378Y165157D02*
D03*
X68110Y156693D02*
D03*
X109646Y53347D02*
D03*
X95472Y40748D02*
D03*
X57874Y14961D02*
D03*
X104528Y61417D02*
D03*
X103937Y27362D02*
D03*
X129724Y7087D02*
D03*
X69488Y103347D02*
D03*
X66339Y105905D02*
D03*
X63386Y109055D02*
D03*
X59646Y92323D02*
D03*
X50197Y56102D02*
D03*
X66142Y111614D02*
D03*
X52165Y150197D02*
D03*
X57874Y149409D02*
D03*
X27197Y98622D02*
D03*
X11811Y13976D02*
D03*
X14961Y12008D02*
D03*
X70866Y31496D02*
D03*
X56228Y90503D02*
D03*
Y87403D02*
D03*
Y84203D02*
D03*
X31299Y74410D02*
D03*
X56228Y77903D02*
D03*
X51378Y197835D02*
D03*
X54724Y205906D02*
D03*
X82284Y131102D02*
D03*
X89370Y160039D02*
D03*
X48228Y150197D02*
D03*
X43307Y140551D02*
D03*
X91929Y171260D02*
D03*
X102362Y200591D02*
D03*
X106890Y50591D02*
D03*
X98819Y119685D02*
D03*
X109449Y147441D02*
D03*
X95079Y133661D02*
D03*
X64961Y156693D02*
D03*
X27559Y148228D02*
D03*
X28937Y168701D02*
D03*
X88535Y108119D02*
D03*
X89442Y90503D02*
D03*
Y87403D02*
D03*
Y84203D02*
D03*
Y81103D02*
D03*
X82235Y103396D02*
D03*
X88535Y58196D02*
D03*
X85435D02*
D03*
X82235D02*
D03*
X79135D02*
D03*
X75935D02*
D03*
X69735D02*
D03*
X101428Y59103D02*
D03*
X89442Y77903D02*
D03*
X85435Y103396D02*
D03*
X30906Y98819D02*
D03*
X33858Y96260D02*
D03*
X36220Y93701D02*
D03*
X38434Y90503D02*
D03*
X40550Y87403D02*
D03*
X42717Y84252D02*
D03*
X56228Y81103D02*
D03*
X63435Y58196D02*
D03*
X60235D02*
D03*
X56228Y62203D02*
D03*
Y65403D02*
D03*
Y68503D02*
D03*
Y71703D02*
D03*
X51142Y52203D02*
D03*
D70*
X75000Y172441D02*
D03*
X71653Y179134D02*
D03*
X60433Y228740D02*
D03*
X113779Y210630D02*
D03*
X113189Y230315D02*
D03*
X88189Y221850D02*
D03*
X38189Y231693D02*
D03*
D71*
X114173Y49213D02*
D03*
X122047D02*
D03*
X114173Y204724D02*
D03*
X122047D02*
D03*
D72*
X124803Y37402D02*
D03*
X119291D02*
D03*
D73*
X64961Y81004D02*
D03*
Y88287D02*
D03*
X49213Y222146D02*
D03*
Y214862D02*
D03*
D74*
X56299Y133622D02*
D03*
X50000D02*
D03*
X56299Y114409D02*
D03*
X50000D02*
D03*
D75*
X69193Y135827D02*
D03*
X76476D02*
D03*
D76*
X113287Y157283D02*
D03*
X110728D02*
D03*
X108169D02*
D03*
X105610D02*
D03*
X103051D02*
D03*
X100492D02*
D03*
X97933D02*
D03*
X95374D02*
D03*
X113287Y181299D02*
D03*
X110728D02*
D03*
X108169D02*
D03*
X105610D02*
D03*
X103051D02*
D03*
X100492D02*
D03*
X97933D02*
D03*
X95374D02*
D03*
D77*
X107283Y123228D02*
D03*
X105315D02*
D03*
X103347D02*
D03*
X101378D02*
D03*
X107283Y136614D02*
D03*
X105315D02*
D03*
X103347D02*
D03*
X101378D02*
D03*
D78*
X61024Y204035D02*
D03*
Y197539D02*
D03*
X90551Y204035D02*
D03*
Y197539D02*
D03*
D79*
X80709Y203839D02*
D03*
Y197736D02*
D03*
X70866D02*
D03*
Y203839D02*
D03*
D80*
X97441Y225098D02*
D03*
Y214665D02*
D03*
X107283Y225098D02*
D03*
Y214665D02*
D03*
D81*
X77854Y228150D02*
D03*
Y220669D02*
D03*
X67815Y228150D02*
D03*
Y220669D02*
D03*
M02*
