G04*
G04 #@! TF.GenerationSoftware,Altium Limited,Altium Designer,21.0.9 (235)*
G04*
G04 Layer_Color=32768*
%FSLAX25Y25*%
%MOIN*%
G70*
G04*
G04 #@! TF.SameCoordinates,12F949BB-F579-4A56-8052-0240B8454CB7*
G04*
G04*
G04 #@! TF.FilePolarity,Positive*
G04*
G01*
G75*
%ADD10C,0.00787*%
D10*
X113976Y30709D02*
Y48031D01*
X102559Y30709D02*
X113976D01*
X102559D02*
Y48031D01*
X113976D01*
X39370Y212205D02*
X51181D01*
Y228740D01*
X39370D02*
X51181D01*
X39370Y212205D02*
Y228740D01*
X92028Y207343D02*
Y245413D01*
X53642D02*
X92028D01*
X53642Y207343D02*
Y245413D01*
Y207343D02*
X92028D01*
X58661Y166846D02*
Y203233D01*
Y166846D02*
X87008D01*
Y203233D01*
X58661D02*
X87008D01*
X111969Y109055D02*
Y150787D01*
X96693D02*
X111969D01*
X96693Y109055D02*
Y150787D01*
Y109055D02*
X111969D01*
X50197Y188583D02*
X56890D01*
X50197Y177559D02*
Y188583D01*
Y177559D02*
X56890D01*
Y188583D01*
X94488Y210417D02*
X110236D01*
Y230528D01*
X94488D02*
X110236D01*
X94488Y210417D02*
Y230528D01*
X45669Y154134D02*
Y160827D01*
Y154134D02*
X56693D01*
Y160827D01*
X45669D02*
X56693D01*
X34154Y152756D02*
Y162205D01*
Y152756D02*
X44587D01*
Y162205D01*
X34154D02*
X44587D01*
X102559Y5118D02*
X113976D01*
Y22441D01*
X102559D02*
X113976D01*
X102559Y5118D02*
Y22441D01*
M02*
